<?xml version="1.0" encoding="utf-8"?>
<!-- Generator: Adobe Illustrator 19.2.1, SVG Export Plug-In . SVG Version: 6.00 Build 0)  -->
<svg version="1.1" id="Layer_1" xmlns="http://www.w3.org/2000/svg" xmlns:xlink="http://www.w3.org/1999/xlink" x="0px" y="0px"
	 viewBox="0 0 234 192.3" style="enable-background:new 0 0 234 192.3;" xml:space="preserve">
<path d="M194,148.9c0,5.8-4.7,10.5-10.5,10.5c-5.9,0-10.5-4.7-10.5-10.5V43.4c0-5.8,4.7-10.5,10.5-10.5c5.8,0,10.5,4.7,10.5,10.5
	V148.9z"/>
<path d="M56.1,157.8c33.7-17.3,67.7-35.5,101.6-52.2c5.1-2.6,7.2-9,4.5-14.1c-1.1-2-2.6-3.6-4.5-4.5L55.3,34.1
	c-5.1-2.6-11.5-0.6-14.1,4.5c-0.8,1.6-1.2,3.2-1.2,4.8v105.5c0,5.8,4.7,10.5,10.5,10.5C52.6,159.4,54.5,158.8,56.1,157.8"/>
</svg>
