<?xml version="1.0" encoding="utf-8"?>
<!-- Generator: Adobe Illustrator 20.0.0, SVG Export Plug-In . SVG Version: 6.00 Build 0)  -->
<svg version="1.1" id="Layer_1" xmlns="http://www.w3.org/2000/svg" xmlns:xlink="http://www.w3.org/1999/xlink" x="0px" y="0px"
	 viewBox="0 0 526.62 526.6" style="enable-background:new 0 0 526.62 526.6;" xml:space="preserve">
<path d="M434.45,434.44c43.79-43.79,70.89-104.31,70.89-171.13c0-66.83-27.1-127.35-70.89-171.14
	c-43.79-43.8-104.31-70.89-171.14-70.89c-66.84,0-127.35,27.09-171.15,70.89c-43.8,43.79-70.89,104.3-70.89,171.14
	c0,66.83,27.1,127.34,70.89,171.13c43.8,43.8,104.32,70.89,171.15,70.89C330.14,505.33,390.66,478.23,434.45,434.44 M526.62,263.3
	c0,72.7-29.47,138.54-77.12,186.18c-47.65,47.65-113.48,77.12-186.18,77.12c-72.71,0-138.55-29.47-186.19-77.12
	C29.47,401.84,0,336.01,0,263.3c0-72.71,29.47-138.54,77.13-186.18C124.77,29.47,190.61,0,263.32,0
	c72.7,0,138.54,29.47,186.18,77.12C497.15,124.76,526.62,190.6,526.62,263.3z"/>
<path d="M189.62,165.09c0-11.74,9.52-21.26,21.26-21.26c11.74,0,21.26,9.52,21.26,21.26v196.43c0,11.74-9.52,21.26-21.26,21.26
	c-11.74,0-21.26-9.52-21.26-21.26V165.09z"/>
<path d="M294.48,165.09c0-11.74,9.52-21.26,21.26-21.26c11.74,0,21.26,9.52,21.26,21.26v196.43c0,11.74-9.52,21.26-21.26,21.26
	c-11.74,0-21.26-9.52-21.26-21.26V165.09z"/>
</svg>
