<?xml version="1.0" encoding="utf-8"?>
<!-- Generator: Adobe Illustrator 20.0.0, SVG Export Plug-In . SVG Version: 6.00 Build 0)  -->
<svg version="1.1" id="Layer_1" xmlns="http://www.w3.org/2000/svg" xmlns:xlink="http://www.w3.org/1999/xlink" x="0px" y="0px"
	 viewBox="0 0 526.62 526.6" style="enable-background:new 0 0 526.62 526.6;" xml:space="preserve">
<path d="M434.45,434.44c43.79-43.79,70.89-104.31,70.89-171.13c0-66.83-27.1-127.35-70.89-171.14
	c-43.79-43.8-104.31-70.89-171.14-70.89c-66.84,0-127.35,27.09-171.15,70.89c-43.8,43.79-70.89,104.3-70.89,171.14
	c0,66.83,27.1,127.34,70.89,171.13c43.8,43.8,104.32,70.89,171.15,70.89C330.14,505.33,390.66,478.23,434.45,434.44 M193.53,388.23
	c-3.3,2.1-7.21,3.31-11.4,3.31c-11.75,0-21.27-9.52-21.27-21.28l0.05-213.93c0-3.28,0.75-6.61,2.36-9.72
	c5.37-10.42,18.18-14.51,28.59-9.14l207.82,107.24c3.79,1.99,7.05,5.11,9.14,9.22c5.32,10.41,1.19,23.18-9.22,28.5L193.53,388.23z
	 M526.62,263.3c0,72.7-29.47,138.54-77.12,186.18c-47.65,47.65-113.48,77.12-186.18,77.12c-72.71,0-138.55-29.47-186.19-77.12
	C29.47,401.84,0,336.01,0,263.3c0-72.71,29.47-138.54,77.13-186.18C124.77,29.47,190.61,0,263.32,0
	c72.7,0,138.54,29.47,186.18,77.12C497.15,124.76,526.62,190.6,526.62,263.3z"/>
</svg>
