<?xml version="1.0" encoding="utf-8"?>
<!-- Generator: Adobe Illustrator 19.2.1, SVG Export Plug-In . SVG Version: 6.00 Build 0)  -->
<svg version="1.1" id="Layer_1" xmlns="http://www.w3.org/2000/svg" xmlns:xlink="http://www.w3.org/1999/xlink" x="0px" y="0px"
	 viewBox="0 0 234 192.3" style="enable-background:new 0 0 234 192.3;" xml:space="preserve">
<path d="M177.8,157.7c-33.7-17.3-67.7-35.5-101.6-52.2c-5.1-2.6-7.2-9-4.5-14.1c1-2,2.6-3.5,4.5-4.5l102.5-52.9
	c5.1-2.6,11.5-0.6,14.1,4.5c0.8,1.5,1.2,3.2,1.2,4.8l0,105.5c0,5.8-4.7,10.5-10.5,10.5C181.4,159.4,179.4,158.8,177.8,157.7"/>
<path d="M61,148.9c0,5.8-4.7,10.5-10.5,10.5c-5.8,0-10.5-4.7-10.5-10.5V43.4c0-5.8,4.7-10.5,10.5-10.5S61,37.6,61,43.4V148.9z"/>
</svg>
