<?xml version="1.0" encoding="utf-8"?>
<!-- Generator: Adobe Illustrator 19.2.1, SVG Export Plug-In . SVG Version: 6.00 Build 0)  -->
<svg version="1.1" id="Layer_1" xmlns="http://www.w3.org/2000/svg" xmlns:xlink="http://www.w3.org/1999/xlink" x="0px" y="0px"
	 viewBox="0 0 66.7 68.5" style="enable-background:new 0 0 66.7 68.5;" xml:space="preserve">
<path d="M14,21.1v26.3c0,3.9,3.1,7,7,7V14C17.2,14,14,17.2,14,21.1"/>
<path d="M56.2,29.8v8.8c1.9,0,3.5-1.6,3.5-3.5v-1.8C59.7,31.4,58.1,29.8,56.2,29.8"/>
<path d="M63.2,24.6v19.3c1.9,0,3.5-1.6,3.5-3.5V28.1C66.7,26.1,65.1,24.6,63.2,24.6"/>
<path d="M7,33.4v1.8c0,1.9,1.6,3.5,3.5,3.5v-8.8C8.6,29.8,7,31.4,7,33.4"/>
<path d="M0,28.1v12.3c0,1.9,1.6,3.5,3.5,3.5V24.6C1.6,24.6,0,26.1,0,28.1"/>
<path d="M45.6,14v40.4c3.9,0,7-3.1,7-7V21.1C52.7,17.2,49.5,14,45.6,14"/>
<path d="M33.4,0c-3.9,0-7,3.1-7,7v21.1c0,1.9,1.6,3.5,3.5,3.5h7c1.9,0,3.5-1.6,3.5-3.5V7C40.4,3.1,37.2,0,33.4,0"/>
<path d="M36.9,36.9h-7c-1.9,0-3.5,1.6-3.5,3.5v21.1c0,3.9,3.1,7,7,7s7-3.1,7-7V40.4C40.4,38.4,38.8,36.9,36.9,36.9L36.9,36.9z"/>
</svg>
