<?xml version="1.0" encoding="UTF-8" standalone="no"?>
<svg
   xmlns:dc="http://purl.org/dc/elements/1.1/"
   xmlns:cc="http://creativecommons.org/ns#"
   xmlns:rdf="http://www.w3.org/1999/02/22-rdf-syntax-ns#"
   xmlns:svg="http://www.w3.org/2000/svg"
   xmlns="http://www.w3.org/2000/svg"
   xmlns:xlink="http://www.w3.org/1999/xlink"
   xmlns:sodipodi="http://sodipodi.sourceforge.net/DTD/sodipodi-0.dtd"
   xmlns:inkscape="http://www.inkscape.org/namespaces/inkscape"
   id="svg"
   version="1.1"
   width="400"
   height="208.7173100871731"
   viewBox="0, 0, 400,208.7173100871731"
   sodipodi:docname="amp v5.svg"
   inkscape:version="0.92.4 (5da689c313, 2019-01-14)">
  <metadata
     id="metadata13">
    <rdf:RDF>
      <cc:Work
         rdf:about="">
        <dc:format>image/svg+xml</dc:format>
        <dc:type
           rdf:resource="http://purl.org/dc/dcmitype/StillImage" />
        <dc:title></dc:title>
      </cc:Work>
    </rdf:RDF>
  </metadata>
  <defs
     id="defs11">
    <linearGradient
       inkscape:collect="always"
       id="linearGradient1055">
      <stop
         style="stop-color:#000000;stop-opacity:1;"
         offset="0"
         id="stop1051" />
      <stop
         style="stop-color:#000000;stop-opacity:0;"
         offset="1"
         id="stop1053" />
    </linearGradient>
    <linearGradient
       inkscape:collect="always"
       id="linearGradient1045">
      <stop
         style="stop-color:#000000;stop-opacity:1;"
         offset="0"
         id="stop1041" />
      <stop
         style="stop-color:#000000;stop-opacity:0;"
         offset="1"
         id="stop1043" />
    </linearGradient>
    <linearGradient
       inkscape:collect="always"
       id="linearGradient1035">
      <stop
         style="stop-color:#000000;stop-opacity:1;"
         offset="0"
         id="stop1031" />
      <stop
         style="stop-color:#000000;stop-opacity:0;"
         offset="1"
         id="stop1033" />
    </linearGradient>
    <linearGradient
       id="linearGradient999"
       inkscape:collect="always">
      <stop
         id="stop995"
         offset="0"
         style="stop-color:#646464;stop-opacity:1;" />
      <stop
         id="stop997"
         offset="1"
         style="stop-color:#646464;stop-opacity:0;" />
    </linearGradient>
    <linearGradient
       inkscape:collect="always"
       xlink:href="#linearGradient4670"
       id="linearGradient4676"
       gradientUnits="userSpaceOnUse"
       x1="385.897"
       y1="72.073997"
       x2="312.44684"
       y2="70.021217"
       gradientTransform="translate(0.32546389,0.073515)" />
    <linearGradient
       inkscape:collect="always"
       id="linearGradient4670">
      <stop
         id="stop4666"
         offset="0"
         style="stop-color:#646464;stop-opacity:1" />
      <stop
         id="stop4668"
         offset="1"
         style="stop-color:#000000;stop-opacity:1" />
    </linearGradient>
    <linearGradient
       inkscape:collect="always"
       xlink:href="#linearGradient4529"
       id="linearGradient4531"
       x1="87.242767"
       y1="41.843704"
       x2="189.24867"
       y2="190.95776"
       gradientUnits="userSpaceOnUse"
       gradientTransform="translate(-0.237298,-0.400825)" />
    <linearGradient
       inkscape:collect="always"
       id="linearGradient4529">
      <stop
         style="stop-color:#323232;stop-opacity:1"
         offset="0"
         id="stop4525" />
      <stop
         style="stop-color:#969696;stop-opacity:0.5"
         offset="1"
         id="stop4527" />
    </linearGradient>
    <linearGradient
       inkscape:collect="always"
       xlink:href="#linearGradient4561"
       id="linearGradient4555"
       x1="8.4475031"
       y1="144.27318"
       x2="284.1362"
       y2="144.27318"
       gradientUnits="userSpaceOnUse"
       gradientTransform="translate(-0.237298,-0.400825)" />
    <linearGradient
       id="linearGradient4561"
       inkscape:collect="always">
      <stop
         style="stop-color:#646464;stop-opacity:0.75"
         offset="0"
         id="stop4559" />
      <stop
         style="stop-color:#323232;stop-opacity:0.85"
         offset="1"
         id="stop4557" />
    </linearGradient>
    <linearGradient
       inkscape:collect="always"
       xlink:href="#linearGradient4601"
       id="linearGradient4603"
       x1="387.52301"
       y1="27.111"
       x2="297.34799"
       y2="74.25"
       gradientUnits="userSpaceOnUse"
       gradientTransform="translate(0.155339,0.061008)" />
    <linearGradient
       inkscape:collect="always"
       id="linearGradient4601">
      <stop
         style="stop-color:#646464;stop-opacity:1;"
         offset="0"
         id="stop4597" />
      <stop
         style="stop-color:#646464;stop-opacity:0;"
         offset="1"
         id="stop4599" />
    </linearGradient>
    <linearGradient
       inkscape:collect="always"
       xlink:href="#linearGradient4601"
       id="linearGradient4639"
       x1="291.79559"
       y1="69.854996"
       x2="304.08301"
       y2="70.855003"
       gradientUnits="userSpaceOnUse"
       gradientTransform="translate(0.155339,0.061008)" />
    <linearGradient
       inkscape:collect="always"
       xlink:href="#linearGradient4601"
       id="linearGradient4623"
       x1="271.23422"
       y1="125.97024"
       x2="296.36966"
       y2="125.97024"
       gradientUnits="userSpaceOnUse"
       gradientTransform="translate(0.155339,0.061008)" />
    <linearGradient
       inkscape:collect="always"
       xlink:href="#linearGradient4601"
       id="linearGradient4575"
       x1="280.5"
       y1="165"
       x2="281.17606"
       y2="217.11079"
       gradientUnits="userSpaceOnUse"
       gradientTransform="translate(0.155339,0.061008)" />
    <linearGradient
       inkscape:collect="always"
       xlink:href="#linearGradient4601"
       id="linearGradient4688"
       x1="290.92499"
       y1="99.875"
       x2="304.41626"
       y2="99.398193"
       gradientUnits="userSpaceOnUse"
       gradientTransform="translate(0.077231,0.0962256)" />
    <linearGradient
       inkscape:collect="always"
       xlink:href="#linearGradient4706"
       id="linearGradient4708"
       x1="279.05695"
       y1="116.36967"
       x2="304.18381"
       y2="111.63903"
       gradientUnits="userSpaceOnUse"
       gradientTransform="translate(0.077231,0.0962256)" />
    <linearGradient
       inkscape:collect="always"
       id="linearGradient4706">
      <stop
         style="stop-color:#000000;stop-opacity:1;"
         offset="0"
         id="stop4702" />
      <stop
         style="stop-color:#000000;stop-opacity:0;"
         offset="1"
         id="stop4704" />
    </linearGradient>
    <linearGradient
       inkscape:collect="always"
       xlink:href="#linearGradient4601"
       id="linearGradient4700"
       x1="289.61377"
       y1="124.17966"
       x2="304.26089"
       y2="122.56129"
       gradientUnits="userSpaceOnUse"
       gradientTransform="translate(0.077231,0.0962256)" />
    <linearGradient
       inkscape:collect="always"
       xlink:href="#linearGradient4601"
       id="linearGradient4734"
       x1="288.28403"
       y1="147.77831"
       x2="302.73236"
       y2="146.57372"
       gradientUnits="userSpaceOnUse"
       gradientTransform="matrix(1,0,0,1.1867162,0.077231,-25.929026)" />
    <radialGradient
       inkscape:collect="always"
       xlink:href="#linearGradient866"
       id="radialGradient874"
       cx="207.19153"
       cy="220.23007"
       fx="207.19153"
       fy="220.23007"
       r="19.595295"
       gradientTransform="matrix(0.17207969,-0.26676461,0.32214703,0.21473126,29.390975,176.29289)"
       gradientUnits="userSpaceOnUse" />
    <linearGradient
       inkscape:collect="always"
       id="linearGradient866">
      <stop
         id="stop864"
         offset="0"
         style="stop-color:#8fd5fd;stop-opacity:0.686" />
      <stop
         id="stop862"
         offset="1"
         style="stop-color:#619ce0;stop-opacity:1" />
    </linearGradient>
    <linearGradient
       inkscape:collect="always"
       xlink:href="#linearGradient999"
       id="linearGradient993"
       x1="3.4496425"
       y1="131.46924"
       x2="269.21386"
       y2="131.46924"
       gradientUnits="userSpaceOnUse" />
    <linearGradient
       inkscape:collect="always"
       xlink:href="#linearGradient1035"
       id="linearGradient1037"
       x1="295.97734"
       y1="123.47272"
       x2="297.17647"
       y2="123.47272"
       gradientUnits="userSpaceOnUse" />
    <linearGradient
       inkscape:collect="always"
       xlink:href="#linearGradient1045"
       id="linearGradient1047"
       x1="294.45834"
       y1="104.935"
       x2="307.76266"
       y2="103.61457"
       gradientUnits="userSpaceOnUse" />
    <linearGradient
       inkscape:collect="always"
       xlink:href="#linearGradient1055"
       id="linearGradient1057"
       x1="294.96604"
       y1="147.19666"
       x2="301.56679"
       y2="147.19666"
       gradientUnits="userSpaceOnUse" />
  </defs>
  <sodipodi:namedview
     pagecolor="#ffffff"
     bordercolor="#666666"
     borderopacity="1"
     objecttolerance="10"
     gridtolerance="10"
     guidetolerance="10"
     inkscape:pageopacity="0"
     inkscape:pageshadow="2"
     inkscape:window-width="3440"
     inkscape:window-height="1377"
     id="namedview9"
     showgrid="false"
     inkscape:zoom="4.0163665"
     inkscape:cx="125.44815"
     inkscape:cy="85.225436"
     inkscape:window-x="1672"
     inkscape:window-y="-8"
     inkscape:window-maximized="1"
     inkscape:current-layer="svg" />
  <path
     style="fill:url(#linearGradient4531);fill-opacity:1;stroke:none;stroke-width:0.94103158;stroke-linecap:round;stroke-linejoin:miter;stroke-miterlimit:4;stroke-dasharray:none;stroke-dashoffset:0;stroke-opacity:1;opacity:0.85"
     d="M 22.114083,30.965353 C 19.472308,32.497349 17.795157,36.51712 15.858164,39.08051 9.631136,49.81891 4.307391,61.78739 1.823673,74.09739 c 1.358773,3.5281 5.916559,3.98063 8.817674,6.00469 40.962578,21.21904 83.915003,39.02819 127.280943,54.75363 42.20631,15.51991 84.70567,30.26758 127.51312,44.04588 1.52156,0.46543 5.10659,3.54641 4.77359,-0.65159 2.33932,-16.78514 3.59311,-33.7192 6.25726,-50.45895 2.70372,-18.27234 6.55338,-37.57721 12.35174,-55.11205 0.0495,-0.60157 0.0495,-0.60157 -5.68354,-1.580602 C 197.05568,57.808948 108.91462,43.57391 22.818454,30.401276 c 0.440729,0.134722 0.497032,0.623506 -0.704371,0.564077 z"
     id="path4523"
     inkscape:connector-curvature="0"
     sodipodi:nodetypes="cccccccccccc" />
  <path
     style="opacity:1;fill:url(#linearGradient4555);fill-opacity:1;stroke:none;stroke-width:0.6654098;stroke-linecap:round;stroke-linejoin:miter;stroke-miterlimit:4;stroke-dasharray:none;stroke-dashoffset:0;stroke-opacity:1"
     d="M 6.4555306,81.942863 C 7.7241051,84.390317 9.055063,86.01662 9.7810015,87.5136 15.641699,98.27511 20.04135,109.73199 23.6238,121.44303 c 1.331289,4.14767 1.986321,8.92139 3.629073,12.99214 4.060434,1.85733 7.857927,2.50986 12.375193,4.14577 21.742632,6.90164 43.494044,13.27341 65.306224,19.94919 1.50332,0.24497 1.84857,-2.35281 3.46749,-1.63815 18.94847,5.50944 37.99921,10.90182 57.08283,16.00668 2.66221,1.10189 4.02808,4.30857 7.20317,4.33307 36.59408,9.46382 73.2009,18.89235 109.88461,28.00766 2.17274,-0.009 1.1176,-2.77169 0.70697,-3.99016 -1.85623,-5.82116 -5.78328,-10.77662 -10.30548,-14.75916 C 237.08109,174.93059 201.19919,162.87814 165.79467,149.93857 125.69226,135.15452 86.0793,120.06502 47.499968,102.00482 34.753883,96.11999 22.68265,89.889031 9.9934203,83.864691 9.7520413,83.754371 9.177724,83.27642 8.927,83.269 Z"
     id="path4553"
     inkscape:connector-curvature="0"
     sodipodi:nodetypes="ccccccccccccccccc" />
  <path
     style="opacity:0.75;fill:#646464;fill-opacity:1;stroke:none;stroke-width:0.95276964;stroke-linecap:round;stroke-linejoin:miter;stroke-miterlimit:4;stroke-dasharray:none;stroke-dashoffset:0;stroke-opacity:1"
     d="m 37.813878,25.4693 c -3.42954,0.438722 -12.166534,2.90182 -14.995424,4.931976 3.2057,0.524035 7.532987,2.006373 8.937468,2.260235 C 118.414,46.09211 203.2181,58.4794 288.86748,72.07743 c 2.66403,-1.77715 4.84644,-4.55528 7.65385,-6.335 0.99897,-2.98716 -3.99962,-1.93107 -5.87166,-2.70691 C 212.00428,50.6576 133.12795,39.90738 54.480287,27.549049 48.938955,26.808721 43.413427,25.595588 37.813878,25.4693 Z"
     id="path4591"
     inkscape:connector-curvature="0"
     sodipodi:nodetypes="cccccccc" />
  <path
     style="opacity:0.75;fill:#646464;fill-opacity:1;stroke:none;stroke-width:0.94103158;stroke-linecap:round;stroke-linejoin:miter;stroke-miterlimit:4;stroke-dasharray:none;stroke-dashoffset:0;stroke-opacity:1"
     d="m 137.25119,4.692982 c -29.89427,3.869286 -59.63865,9.920631 -88.769595,17.653354 -1.570223,0.117479 -6.990591,1.675604 -10.667717,3.122964 22.671212,3.326018 47.672792,7.144292 73.416832,10.89287 60.12218,8.9491 119.36838,17.31213 179.41896,26.67335 4.35161,3.14556 7.63723,2.80335 10.41855,0.16806 19.6713,-10.68163 40.14185,-22.12259 60.61573,-31.188199 4.69193,-2.211039 11.68175,-4.170503 18.56605,-6.653381 -3.132,-0.845177 -7.11675,-1.280161 -8.48493,-1.263855 -4.4385,-0.477666 -8.22182,-1.030902 -12.28512,1.226589 -6.95972,2.246945 -13.61022,6.032941 -20.98382,6.689078 C 327.21487,31.588643 316.08212,29.278946 304.86389,28.096875 249.88662,20.851194 194.86842,13.830572 139.9151,6.437796 139.03093,5.724387 138.73626,4.259297 137.25119,4.692982 Z"
     id="path4593"
     inkscape:connector-curvature="0"
     sodipodi:nodetypes="cccccccccccccc" />
  <path
     style="opacity:0.5;fill:url(#linearGradient4676);fill-opacity:1;stroke:none;stroke-width:0.47051579;stroke-linecap:round;stroke-linejoin:miter;stroke-miterlimit:4;stroke-dasharray:none;stroke-dashoffset:0;stroke-opacity:1"
     d="m 351.9967,45.53915 c -8.88863,4.09961 -20.01501,9.34857 -26.42117,14.8521 -8.14297,4.9892 -16.49893,8.78802 -23.59051,15.5589 -2.43606,1.65479 -3.44023,4.89955 -4.17107,7.70346 -0.83001,2.66969 -1.84167,5.37203 -2.3773,8.08302 1.18901,-0.19589 2.1974,-1.37376 3.33885,-1.86419 1.91618,-0.96129 4.08402,-2.57706 6.32473,-1.87101 1.43208,1.41897 1.10108,3.77046 1.24102,5.61861 -0.2467,1.62435 0.085,2.77464 1.2984,1.04309 1.23543,-0.82584 -0.0179,-2.86771 1.31493,-3.49449 0.77205,-0.32374 1.39288,0.1573 1.13889,0.99836 0.28039,0.93686 1.8765,-0.82085 1.95101,0.40557 0.3129,1.22239 -0.42666,2.23975 -1.35238,2.95714 -0.98027,0.93215 -0.0676,2.74135 -1.16321,3.51053 -0.55157,0.20125 -1.48785,0.16999 -1.24442,-0.66719 0.491,-1.78068 -2.88684,-0.48992 -1.94322,0.93368 -0.10813,2.51164 0.38048,5.17362 -0.77369,7.50786 -0.78534,2.67341 0.80113,5.21311 0.53811,7.8812 0.11545,0.49803 -0.21459,2.1811 0.77925,1.66908 1.51621,-0.67503 2.76878,-2.73063 4.59303,-2.25202 0.42287,1.17776 -0.19532,2.40727 -1.29458,2.96398 -1.21019,0.87846 -2.48073,2.07586 -4.02545,2.06185 -0.28843,2.96986 0.24164,6.11232 -0.77029,8.96964 -1.44292,2.11622 -4.01682,3.10078 -6.13165,4.40337 -1.13201,0.70016 -2.83734,1.4944 -3.85532,0.18626 -1.27771,-1.59651 -0.55596,-3.84557 -0.79069,-5.72754 -0.0877,-9.93068 0.33539,-19.86991 0.0408,-29.79509 0.0601,-0.67064 -0.0499,-3.14436 -0.0398,-2.58444 -5.21039,23.49428 -9.43325,49.95302 -12.24342,73.84852 0.0954,0.91289 -0.79022,2.63496 0.54076,2.9479 2.69451,1.65318 4.85138,4.16375 5.87312,7.18463 1.7033,3.71289 2.21602,7.88159 3.81721,11.61394 3.41666,-1.99086 6.65068,-4.45393 9.88631,-6.77696 14.45067,-11.29031 28.67085,-22.87484 42.89861,-34.4432 9.34592,-7.71209 18.88889,-15.18954 28.1278,-23.02728 1.994,-1.67773 3.8194,-3.83361 3.91597,-6.56974 1.38177,-12.00709 3.21436,-23.95253 5.40305,-35.83709 1.31062,-8.28825 4.28273,-16.4545 5.09737,-24.81904 -0.5805,-6.28794 -1.08129,-12.13905 -3.50686,-18.2486 -0.64337,-1.45103 -0.63092,-4.591925 -1.946,-5.59218 -9.31643,1.465734 -19.97573,6.00794 -30.47819,10.66737 z m -38.8323,90.38436 c 1.65204,0.16489 0.23692,2.0528 0.41384,2.94888 1.07743,0.86527 0.21787,2.71618 -1.09951,2.63521 -0.74739,0.47018 -0.95143,1.45908 -1.68694,1.96997 -0.49573,0.743 0.13377,2.1573 -0.46553,2.48713 -0.98681,-0.0557 -2.19853,-0.46314 -2.99492,0.31488 -1.27497,0.58983 -1.81754,-0.28944 -1.59199,-1.58944 0.16464,-1.51423 -0.97955,-3.58017 0.71715,-4.44884 1.35963,-0.89727 1.36488,-2.85959 2.69843,-3.70603 0.68199,-0.30561 1.52683,-0.11869 1.67041,0.67351 0.88553,0.69946 1.23495,-0.86423 1.84986,-1.20648 0.15352,-0.066 0.32425,-0.0776 0.4892,-0.0788 z m -11.51489,0.60836 c 1.43559,0.16121 2.52565,1.5312 3.07336,2.68773 -0.13943,4.33317 0.28604,8.719 -0.2485,13.01997 -1.02715,2.70009 -3.8793,4.13269 -6.26927,5.445 -1.36737,0.64716 -3.4483,0.61301 -4.33723,-0.75326 -0.5801,-3.53701 -0.12937,-7.18261 -0.26941,-10.76115 -0.0124,-1.97593 -0.11883,-4.32855 1.68598,-5.62931 1.81675,-1.52324 3.77151,-3.12928 6.01251,-3.99537 0.1245,-0.0179 0.2339,-0.021 0.35256,-0.0136 z"
     id="path4656"
     inkscape:connector-curvature="0"
     sodipodi:nodetypes="cccccccccccccccccccccccccccccccccccccccccccccccccccccccccccccccc" />
  <path
     style="opacity:0.5;fill:url(#linearGradient4575);fill-opacity:1;stroke:none;stroke-width:0.6654098;stroke-linecap:round;stroke-linejoin:miter;stroke-miterlimit:4;stroke-dasharray:none;stroke-dashoffset:0;stroke-opacity:1"
     d="m 276.8972,178.20857 c -2.24732,1.20705 -4.56943,2.54427 -6.51614,4.15795 -0.44011,2.07075 2.05471,3.36614 3.46335,4.44199 5.77317,4.38707 9.67198,11.01338 10.9547,18.1338 1.03611,2.21946 4.01754,0.86418 5.71633,0.27303 2.10095,-1.33194 0.38324,-4.11559 0.0475,-5.94397 -2.02959,-5.52691 -3.33869,-11.82091 -7.75611,-16.02594 -1.55925,-1.5469 -4.40764,-1.92379 -4.72326,-4.47362 -0.26325,-0.41577 -0.6818,-0.6971 -1.18632,-0.56324 z"
     id="path4565"
     inkscape:connector-curvature="0" />
  <path
     style="opacity:1;fill:url(#linearGradient4603);fill-opacity:1;stroke:none;stroke-width:0.94103158;stroke-linecap:round;stroke-linejoin:miter;stroke-miterlimit:4;stroke-dasharray:none;stroke-dashoffset:0;stroke-opacity:1"
     d="m 383.02177,26.306509 c -9.93889,1.862345 -18.01866,5.806744 -27.4036,9.715175 -17.9671,8.19788 -36.8919,18.083242 -54.15731,27.643728 -2.33756,1.879152 2.85972,3.036612 4.2239,3.915929 2.45091,1.317482 4.56885,-2.073183 6.82429,-2.871977 18.10785,-10.972155 36.68199,-21.283426 56.2138,-29.471406 6.40055,-2.650065 15.05431,-4.555853 21.71477,-6.303487 2.03257,-1.027991 -2.31108,-3.068036 -3.95258,-2.687248 -0.71077,-0.05721 -2.25427,-0.08272 -3.46327,0.05929 z"
     id="path4595"
     inkscape:connector-curvature="0"
     sodipodi:nodetypes="ccccccccc" />
  <path
     style="opacity:0.5;fill:url(#linearGradient4639);fill-opacity:1;stroke:none;stroke-width:0.94103158;stroke-linecap:round;stroke-linejoin:miter;stroke-miterlimit:4;stroke-dasharray:none;stroke-dashoffset:0;stroke-opacity:1"
     d="m 299.17237,65.28379 c -3.46353,1.678533 -5.7595,4.072232 -7.67137,6.44821 4.05095,1.930954 4.25275,1.84838 5.997,2.701 2.64885,-1.72784 5.866,-4.607066 8.77715,-5.563297 1.30895,-2.401008 -2.86673,-4.054265 -4.26698,-5.052187 -0.37709,-0.290435 -2.4216,1.235978 -2.8358,1.466274 z"
     id="path4605"
     inkscape:connector-curvature="0"
     sodipodi:nodetypes="cccccc" />
  <path
     style="opacity:0.35;fill:url(#linearGradient4623);fill-opacity:1;stroke:none;stroke-width:0.94103158;stroke-linecap:round;stroke-linejoin:miter;stroke-miterlimit:4;stroke-dasharray:none;stroke-dashoffset:0;stroke-opacity:1"
     d="m 290.33548,72.875773 c -4.71346,10.286837 -6.77554,21.719917 -9.14325,32.788697 -4.6822,23.99536 -7.72684,48.34133 -9.80266,72.65876 1.41349,2.36868 4.05117,-0.81306 5.58068,-1.49972 2.37374,-1.6005 1.21393,-5.22429 2.02005,-7.6552 3.61087,-27.95869 8.36681,-55.82629 14.62238,-83.34149 0.54391,-3.49519 2.27055,-6.75021 2.91232,-10.15682 -1.17378,-1.706436 -4.32913,-2.295698 -6.18952,-2.794227 z"
     id="path4615"
     inkscape:connector-curvature="0" />
  <path
     style="opacity:1;fill:url(#linearGradient4688);fill-opacity:1;stroke:none;stroke-width:0.3327049;stroke-linecap:round;stroke-linejoin:miter;stroke-miterlimit:4;stroke-dasharray:none;stroke-dashoffset:0;stroke-opacity:1"
     d="m 304.08495,91.203537 c -1.21668,0.416739 -2.00386,1.583829 -3.28559,1.849279 -0.76638,0.523121 -1.41088,1.176522 -2.18385,1.667374 -1.01245,1.7877 -0.69166,3.92248 -0.86221,5.87967 0.0285,2.38199 0.0699,5.4629 0.37593,7.83137 1.22011,-0.60571 2.45444,-1.41933 3.40255,-2.02873 0.3782,-0.31157 0.74674,-0.093 0.91433,-0.67534 0.48099,-0.54474 1.22378,-0.87088 1.80389,-1.15916 0.44984,-3.6122 0.14679,-7.28623 0.10431,-10.919955 -0.0456,-0.799169 -0.0192,-1.611712 -0.12838,-2.402901 l -0.10419,-0.04814 z"
     id="path4678"
     inkscape:connector-curvature="0"
     sodipodi:nodetypes="cccccccccccc" />
  <path
     style="opacity:1;fill:url(#linearGradient4708);fill-opacity:1;stroke:none;stroke-width:0.3327049;stroke-linecap:round;stroke-linejoin:miter;stroke-miterlimit:4;stroke-dasharray:none;stroke-dashoffset:0;stroke-opacity:1"
     d="m 302.33814,106.79656 c -0.90076,0.563 -2.00405,0.76078 -2.72681,1.60205 -0.95215,0.59756 -2.01648,1.13924 -2.42078,2.28013 -0.39878,0.4709 -0.32316,0.64003 -0.33032,1.14949 -0.66339,0.66077 -0.10673,1.9488 -0.087,2.47308 0.0594,0.94158 0.42885,1.97717 0.96935,2.74469 0.32335,-0.0519 0.43522,-0.60444 0.88475,-0.48313 1.06993,-0.19266 1.53165,-1.3378 2.57482,-1.58794 0.38704,-0.28118 0.76046,-0.46971 1.21383,-0.45046 0.47891,-0.63917 1.39313,-0.77995 1.84481,-1.41395 -0.27409,-1.05954 -0.5179,-2.16626 -0.68291,-3.25636 -0.2424,-0.19091 -0.5311,-0.2834 -0.43429,-0.69666 0.003,-0.67688 -0.12837,-1.49373 0.30156,-2.02086 -0.16027,-0.71033 -0.46576,-1.00424 -1.10688,-0.34008 z"
     id="path4690"
     inkscape:connector-curvature="0"
     sodipodi:nodetypes="ccccccccccccccc" />
  <path
     style="opacity:1;fill:url(#linearGradient4700);fill-opacity:1;stroke:none;stroke-width:0.3327049;stroke-linecap:round;stroke-linejoin:miter;stroke-miterlimit:4;stroke-dasharray:none;stroke-dashoffset:0;stroke-opacity:1"
     d="m 304.06259,114.54235 c -0.53234,0.26838 -1.23539,0.18384 -1.55803,0.78504 -0.59626,0.47172 -1.30953,0.90412 -2.05009,0.99031 -0.69737,0.51891 -1.38931,1.07173 -2.22237,1.33555 -0.65016,1.1654 -0.30655,2.651 -0.48252,3.93573 0.0208,3.05342 -0.46502,6.59914 0.064,9.62508 0.73103,0.0251 1.70736,-1.02937 2.39706,-1.31492 1.15745,-0.64588 2.82846,-1.78437 3.78624,-2.64978 0.12317,-0.9923 0.4033,-0.87717 0.19325,-2.00849 -0.0264,-3.50525 0.26826,-7.02462 0.0908,-10.52177 -0.0256,-0.0982 -0.10736,-0.19311 -0.21836,-0.17675 z"
     id="path4692"
     inkscape:connector-curvature="0"
     sodipodi:nodetypes="cccccccccccc" />
  <path
     style="opacity:1;fill:url(#linearGradient4734);fill-opacity:1;stroke:none;stroke-width:0.18121855;stroke-linecap:round;stroke-linejoin:miter;stroke-miterlimit:4;stroke-dasharray:none;stroke-dashoffset:0;stroke-opacity:1"
     d="m 302.46148,139.48027 c -1.05725,0.62896 -1.05725,0.62896 -1.83215,1.0681 -2.36908,0.84702 -2.94329,2.25017 -4.1031,3.46686 -0.16124,0.54533 -0.532,0.998 -0.52887,2.30131 0.0667,0.52117 -0.14059,1.17652 0.0823,1.63147 0.18463,0.19289 0.0567,0.9025 0.11296,1.28459 0.0686,2.4336 -0.43148,3.50033 -0.33618,5.91599 0.37108,-0.0122 0.26968,1.03555 0.93947,1.40514 0.22206,-0.13505 2.53873,-1.113 2.25659,-1.42557 1.50696,-0.94499 2.25755,-1.66207 3.69184,-2.81829 0.0914,-3.88843 0.0853,-7.78496 -0.009,-11.67391 -0.0847,-0.31901 0.0849,-1.04896 -0.27354,-1.15563 z"
     id="path4724"
     inkscape:connector-curvature="0"
     sodipodi:nodetypes="ccccccccccccc" />
  <path
     style="opacity:1;fill:#323232;fill-opacity:1;stroke:none;stroke-width:0.94103158;stroke-linecap:round;stroke-linejoin:miter;stroke-miterlimit:4;stroke-dasharray:none;stroke-dashoffset:0;stroke-opacity:1"
     d="m 394.98382,59.482444 c -2.49688,0.339429 -4.92595,0.949815 -7.33912,1.220591 -1.27982,2.263028 -0.81846,5.277343 -1.63754,7.783925 -3.39494,17.758144 -6.61496,35.74138 -8.66504,53.60357 -0.63874,4.52529 -5.383,6.6281 -8.34045,9.53289 -9.63299,7.6247 -19.04232,15.52703 -28.56324,23.28595 -1.61629,0.87897 -2.90943,2.47392 -4.1967,3.5616 -4.8761,2.97895 -8.76222,7.31006 -13.47027,10.59824 -3.08218,2.25618 -5.99345,5.06884 -8.97111,7.27978 -2.09119,0.84856 -3.20866,3.21956 -5.29019,4.25814 -5.81968,4.05158 -11.10194,9.01513 -17.45463,12.19116 -1.73813,2.59987 0.90682,5.70385 1.10388,8.42646 0.0502,2.29028 2.42072,2.27023 3.81641,1.0144 5.28386,-3.10394 10.54511,-6.36245 14.88466,-10.74165 5.33032,-4.6157 10.87612,-9.09697 16.06196,-13.80829 8.26503,-6.96999 16.39597,-14.25483 24.70815,-21.25619 10.90057,-9.89275 22.68314,-18.90629 32.51573,-29.91335 3.11865,-4.17279 2.64313,-9.8071 3.71068,-14.68667 1.59378,-12.96215 3.93812,-25.817925 6.11212,-38.690544 0.60306,-4.33845 2.27171,-8.601422 2.3199,-12.976286 -0.28249,-0.49197 -0.74876,-0.761198 -1.3052,-0.683726 z"
     id="path4625"
     inkscape:connector-curvature="0" />
  <path
     style="opacity:1;fill:#323232;fill-opacity:1;stroke:none;stroke-width:0.94103158;stroke-linecap:round;stroke-linejoin:miter;stroke-miterlimit:4;stroke-dasharray:none;stroke-dashoffset:0;stroke-opacity:1"
     d="m 390.67722,32.532167 c -2.57807,1.306152 -6.68258,1.085961 -8.1376,3.957441 0.19943,2.669811 2.04349,5.044928 2.49273,7.73787 1.3272,5.428717 2.18671,10.896997 2.55789,16.453188 1.7278,1.472253 4.31714,-0.447746 6.3536,-0.222913 3.62835,0.630209 3.01818,-2.996557 2.74686,-5.370412 -0.0423,-3.295718 -1.04164,-6.448511 -1.04747,-9.699571 -1.03829,-4.360975 -1.75757,-9.182261 -4.36301,-12.857548 l -0.49796,0.0016 z"
     id="path4627"
     inkscape:connector-curvature="0" />
  <path
     style="opacity:1;fill:#323232;fill-opacity:1;stroke:none;stroke-width:0.08317623;stroke-linecap:round;stroke-linejoin:miter;stroke-miterlimit:4;stroke-dasharray:none;stroke-dashoffset:0;stroke-opacity:1"
     d="m 281.09955,172.93149 c -0.47454,0.007 -0.63116,0.53962 -0.6326,0.93068 -0.0876,1.10064 -0.21739,2.20389 -0.20015,3.30885 0.0857,0.74144 0.74072,1.23569 1.24211,1.6887 0.01,0.45656 0.54792,0.57456 0.85099,0.79921 0.7171,0.43019 1.25132,1.08903 1.90239,1.5999 0.16433,0.0347 0.17705,0.12888 0.21199,0.27612 0.46496,0.65993 0.99759,1.24789 1.44601,1.92149 0.41037,0.53814 0.71848,1.15202 1.14703,1.67365 0.10599,0.15555 0.36453,0.0362 0.39527,0.24354 0.0815,0.133 -0.0955,0.29426 0.003,0.44874 0.22468,0.49469 0.45934,1.00357 0.80566,1.4253 0.28327,0.1445 0.35576,0.49254 0.50185,0.75775 0.051,0.19777 0.0246,0.421 0.1324,0.61434 0.10574,0.43138 1.63781,4.66784 1.9023,5.02709 0.28586,0.0943 0.63511,-0.61069 0.90794,-0.80455 0.29807,-0.32463 -1.2882,-3.75976 -1.3152,-4.13774 -0.0311,-0.37455 -0.0554,-0.74931 -0.17699,-1.11134 -0.15537,-0.48559 -0.22482,-1.00793 -0.45571,-1.46493 -0.17106,-0.13086 -0.2655,-0.30758 -0.32087,-0.51921 -0.0393,-0.21769 -0.23912,-0.46054 -0.0768,-0.65837 0.071,-0.37773 -0.17216,-0.73499 -0.25217,-1.09746 -0.22633,-0.59511 -0.3497,-1.2417 -0.67878,-1.79119 -0.072,-0.14103 -0.3106,-0.14173 -0.1989,-0.32435 -0.006,-0.24134 -0.11685,-0.46887 -0.15236,-0.70886 -0.42182,-1.12397 -0.95205,-2.20949 -1.55098,-3.24948 -0.22374,-0.28507 -0.41546,-0.60416 -0.6799,-0.8526 -0.0524,-0.11843 -0.37965,-0.0191 -0.2566,-0.15328 0.17006,-0.43185 -0.27737,-0.76038 -0.49834,-1.07414 -0.17045,-0.23311 -0.50429,-0.20227 -0.67482,-0.44614 -0.18104,-0.18948 -0.44199,-0.35009 -0.56944,-0.56746 -0.021,-0.38146 -0.42453,-0.76494 -0.81297,-0.60589 -0.007,-0.31717 -0.33148,-0.52128 -0.55516,-0.70757 -0.37299,-0.19428 -0.79701,-0.26704 -1.18847,-0.41839 -0.0661,-0.0153 -0.13388,-0.0246 -0.20184,-0.0224 z m 3.68042,2.57267 c 0.0456,0.0129 -0.17293,-0.0183 0,0 z m -0.38633,0.17632 c 0.0808,-0.10949 0.18119,-0.17863 0,0 z m 5.95841,12.75428 c -0.0537,0.14516 -0.0579,0.11402 0,0 z"
     id="path4631"
     inkscape:connector-curvature="0"
     sodipodi:nodetypes="cccccccccccccccccccccccccccccccccccccccccc" />
  <path
     style="opacity:0.8;fill:url(#radialGradient874);fill-opacity:1;stroke:none;stroke-width:0.38770363;stroke-linecap:round;stroke-linejoin:miter;stroke-miterlimit:4;stroke-dasharray:none;stroke-dashoffset:0;stroke-opacity:1"
     d="m 107.63458,158.02681 c -0.57511,0.19197 -0.66414,1.29818 -0.62253,2.02482 20.47501,6.30254 45.4717,13.21356 61.99072,17.24426 -1.7628,-1.95499 -2.1254,-2.20217 -3.13877,-3.21489 -20.41039,-5.23702 -36.28618,-9.70776 -58.22942,-16.05419 z"
     id="path860"
     inkscape:connector-curvature="0"
     sodipodi:nodetypes="ccccc" />
  <path
     style="opacity:1;fill:url(#linearGradient993);fill-opacity:1;stroke:none;stroke-width:0.3327049;stroke-linecap:round;stroke-linejoin:miter;stroke-miterlimit:4;stroke-dasharray:none;stroke-dashoffset:0;stroke-opacity:1"
     d="m 3.4992898,78.144802 c -0.2722515,0.3764 0.6551255,0.607525 0.8465834,0.854837 8.3410808,4.647643 16.9557568,8.787846 25.4848798,13.076825 22.696581,11.253446 45.803488,21.685516 69.289451,31.180756 15.987706,6.40919 32.112946,12.46911 48.227266,18.55245 32.39565,12.10022 64.94107,23.79732 97.63512,35.06662 8.03048,2.66913 16.0249,5.4678 24.12416,7.91739 0.3195,-0.51694 -0.17833,-1.36821 -0.17067,-1.98227 0.10864,-1.2192 -1.42374,-1.02484 -2.19692,-1.45878 -18.87502,-6.0485 -37.66152,-12.36642 -56.42169,-18.76434 -26.42998,-9.00731 -52.7503,-18.33272 -78.9258,-28.04864 C 112.57491,127.54652 93.884633,120.18532 75.446396,112.24311 51.755392,101.96074 28.423925,90.853329 5.483706,78.990354 4.8296482,78.711614 4.1988545,78.285735 3.4992898,78.144802 Z"
     id="path985"
     inkscape:connector-curvature="0" />
  <path
     style="opacity:0.5;fill:#323232;fill-opacity:1;stroke:none;stroke-width:1.88976383;stroke-linecap:round;stroke-linejoin:miter;stroke-miterlimit:4;stroke-dasharray:none;stroke-dashoffset:0;stroke-opacity:1"
     d="M 164.54701,2.1768451 363.92127,23.632042 338.90822,32.846863 139.607,6.3937819 Z"
     id="rect4653"
     inkscape:connector-curvature="0"
     sodipodi:nodetypes="ccccc" />
  <path
     style="opacity:1;fill:url(#linearGradient1037);fill-opacity:1;stroke:none;stroke-width:0.16635245;stroke-linecap:round;stroke-linejoin:miter;stroke-miterlimit:4;stroke-dasharray:none;stroke-dashoffset:0;stroke-opacity:1"
     d="m 296.19971,115.23356 c -0.21201,0.42703 -0.0261,1.00219 -0.10711,1.47413 -0.0432,4.38694 -0.17326,8.77568 -0.0855,13.16233 0.0649,0.59825 0.0311,1.35782 0.51158,1.79352 0.30691,0.174 0.77566,-0.0441 0.63064,-0.43825 -0.33042,-1.59448 -0.18001,-3.24514 -0.21077,-4.87008 0.0487,-2.93314 0.28109,-5.88196 0.22749,-8.81053 -0.31174,-0.75369 -0.44572,-1.61243 -0.86227,-2.30974 -0.0321,-0.0174 -0.0712,-0.0184 -0.10402,-10e-4 z"
     id="path1029"
     inkscape:connector-curvature="0" />
  <path
     style="opacity:1;fill:url(#linearGradient1047);fill-opacity:1;stroke:none;stroke-width:0.16635245;stroke-linecap:round;stroke-linejoin:miter;stroke-miterlimit:4;stroke-dasharray:none;stroke-dashoffset:0;stroke-opacity:1"
     d="m 303.68279,89.414142 c -0.66747,0.07456 -1.27845,0.431711 -1.89054,0.644566 -0.61463,0.472575 -1.3703,0.782394 -2.02946,1.149868 -1.07104,0.769532 -2.57779,1.21109 -3.11348,2.535108 -0.54263,1.690174 -0.32555,3.506481 -0.41346,5.253032 -0.0195,3.712954 -0.16572,7.431174 -0.0762,11.141354 0.20372,0.34826 0.45895,-0.2159 0.53831,-0.37996 0.28384,-0.45936 0.58483,-0.92538 0.53728,-1.49253 0.16252,-4.26438 -0.009,-8.54039 0.16489,-12.800704 0.12627,-0.50332 0.47001,-0.942416 0.75167,-1.374925 0.51886,-0.669385 1.28358,-1.13471 2.01949,-1.5037 0.23191,-0.284735 0.65491,-0.309986 0.90642,-0.567885 0.27771,-0.04111 0.42182,-0.389191 0.74256,-0.372228 0.24516,-0.257546 0.58621,-0.428179 0.89971,-0.497737 0.19387,-0.301449 0.63196,-0.451483 0.95318,-0.511148 0.0704,-0.216267 0.43996,-0.232092 0.38719,-0.537797 0.0134,-0.272298 0.0281,-0.743762 -0.37756,-0.685314 z m -1.64932,0.651443 c 0.008,0.0217 -0.009,-0.01282 0,0 z"
     id="path1039"
     inkscape:connector-curvature="0" />
  <path
     style="opacity:1;fill:url(#linearGradient1057);fill-opacity:1;stroke:none;stroke-width:0.16635245;stroke-linecap:round;stroke-linejoin:miter;stroke-miterlimit:4;stroke-dasharray:none;stroke-dashoffset:0;stroke-opacity:1"
     d="m 301.07014,138.65971 c -0.68971,0.17732 -1.21329,0.79652 -1.85564,1.02849 -0.26479,0.38221 -0.75997,0.60098 -1.14316,0.81649 -0.48325,0.55285 -1.20689,0.89023 -1.72033,1.43459 -0.70654,0.65557 -1.45502,1.48794 -1.33332,2.52961 -0.0519,3.71995 -0.095,7.44488 0.0284,11.16307 0.1908,0.32352 0.32788,-0.21403 0.28936,-0.37928 0.1818,-3.47719 0.003,-6.98588 0.29039,-10.44544 -0.02,-0.28362 0.28199,-0.40274 0.19032,-0.68909 0.14235,-0.18942 0.20344,-0.37704 0.27784,-0.59591 0.27583,-0.4556 0.59836,-0.9154 1.05084,-1.18752 0.17641,-0.26052 0.48279,-0.34221 0.67826,-0.56892 0.26737,-0.13247 0.45956,-0.41573 0.75271,-0.44788 0.84608,-0.76937 1.85279,-1.38289 2.78991,-2.0384 0.43968,-0.2773 0.0743,-0.61522 -0.29555,-0.61981 z m -3.33286,3.07274 c -0.017,9.1e-4 -0.0304,-0.0485 0,0 z m -1.79598,1.93266 c 0.0147,0.009 -0.0236,-0.008 0,0 z"
     id="path1049"
     inkscape:connector-curvature="0" />
  <g
     transform="translate(0.45132,0.17821)"
     id="svgg">
    <path
       style="fill:#000000;fill-rule:evenodd;stroke:none"
       inkscape:connector-curvature="0"
       id="path0"
       d="m 159.508,0.725 c -0.057,0.05 -1.343,0.229 -2.857,0.396 -1.513,0.168 -3.268,0.381 -3.899,0.473 -0.63,0.093 -2.591,0.302 -4.358,0.465 -3.532,0.325 -5.483,0.566 -8.256,1.018 -1.01,0.164 -2.455,0.354 -3.211,0.422 -2.834,0.252 -13.081,1.784 -17.661,2.64 -0.631,0.118 -2.073,0.334 -3.206,0.48 -1.133,0.146 -5.571,0.892 -9.863,1.658 -4.291,0.766 -8.215,1.466 -8.72,1.556 -11.662,2.066 -42.057,9.134 -54.358,12.639 -1.892,0.539 -4.525,1.275 -5.85,1.634 -1.326,0.36 -3.184,0.981 -4.129,1.38 -0.945,0.399 -3.369,1.302 -5.388,2.008 -8.951,3.13 -11.538,6.09 -18.661,21.359 -9.206,19.731 -10.73,27.048 -6.593,31.652 7.286,8.108 19.755,37.4 21.576,50.688 0.57,4.158 1.664,5.137 7.961,7.118 2.943,0.926 6.795,2.163 8.561,2.75 1.766,0.587 5.069,1.623 7.34,2.303 2.27,0.679 6.915,2.139 10.321,3.244 3.406,1.105 6.334,2.011 6.507,2.013 0.173,0.001 0.895,0.238 1.605,0.526 0.71,0.288 1.601,0.567 1.98,0.62 0.378,0.053 4.816,1.378 9.862,2.945 15.593,4.841 19.682,6.092 20.404,6.241 0.383,0.079 2.348,0.664 4.367,1.3 4.278,1.349 17.013,5.078 21.33,6.246 1.64,0.444 4.736,1.33 6.881,1.97 2.144,0.639 6.789,1.933 10.321,2.876 3.532,0.942 8.589,2.315 11.238,3.051 2.649,0.736 5.333,1.444 5.964,1.573 1.856,0.381 36.402,9.367 37.156,9.665 0.378,0.15 0.997,0.315 1.376,0.366 0.378,0.051 2.752,0.629 5.275,1.285 19.767,5.135 62.831,16.04 78.33,19.835 4.043,0.99 5.289,1.129 6.881,0.765 12.38,-2.83 18.702,-6.896 39.286,-25.267 1.868,-1.667 3.628,-3.237 3.911,-3.49 0.282,-0.252 2.399,-2.161 4.702,-4.243 2.304,-2.081 4.289,-3.784 4.41,-3.784 0.122,0 1.132,-0.877 2.245,-1.95 3.096,-2.982 6.287,-5.872 6.515,-5.9 0.112,-0.014 1.42,-1.195 2.907,-2.624 3.54,-3.404 7.416,-6.957 7.59,-6.957 0.076,0 2.195,-1.955 4.708,-4.344 2.514,-2.389 4.703,-4.35 4.865,-4.358 0.162,-0.008 1.4,-1.108 2.752,-2.446 1.352,-1.338 4.419,-4.199 6.815,-6.358 2.397,-2.159 5.018,-4.523 5.826,-5.252 0.898,-0.811 1.999,-2.658 2.841,-4.765 1.311,-3.284 1.645,-4.737 2.127,-9.24 0.498,-4.647 0.628,-5.739 0.841,-7.045 0.124,-0.756 0.348,-2.408 0.499,-3.669 0.5,-4.169 0.737,-5.95 0.946,-7.11 0.365,-2.018 0.904,-5.517 2.298,-14.909 0.15,-1.009 0.356,-2.144 0.458,-2.523 0.103,-0.378 0.297,-1.359 0.432,-2.179 0.624,-3.78 0.804,-4.756 1.67,-9.059 0.507,-2.523 1.441,-6.641 2.074,-9.151 1.172,-4.645 1.17,-4.591 0.396,-12.868 -0.493,-5.262 -1.999,-11.696 -3.626,-15.481 -0.406,-0.946 -0.581,-1.724 -0.389,-1.727 0.193,-0.004 0.135,-0.159 -0.128,-0.344 -0.263,-0.186 -1.082,-1.305 -1.819,-2.487 -2.064,-3.31 -3.762,-4.075 -10.547,-4.748 -4,-0.397 -4.832,-0.483 -8.256,-0.855 -1.514,-0.165 -3.785,-0.393 -5.046,-0.508 -1.262,-0.115 -2.81,-0.3 -3.441,-0.411 -1.185,-0.21 -6.185,-0.742 -9.403,-1.002 -1.01,-0.081 -2.764,-0.254 -3.899,-0.384 -1.831,-0.21 -3.544,-0.401 -8.487,-0.946 -0.757,-0.084 -2.821,-0.286 -4.587,-0.45 -1.766,-0.164 -3.83,-0.377 -4.587,-0.472 -2.042,-0.257 -5.057,-0.561 -9.174,-0.927 -2.019,-0.179 -3.794,-0.398 -3.945,-0.487 -0.151,-0.089 -1.906,-0.283 -3.899,-0.432 -1.993,-0.149 -4.14,-0.349 -4.771,-0.445 -0.631,-0.095 -2.179,-0.284 -3.44,-0.418 -1.262,-0.135 -3.326,-0.358 -4.587,-0.496 -1.262,-0.139 -3.429,-0.349 -4.817,-0.468 -1.388,-0.119 -3.027,-0.317 -3.642,-0.441 -0.616,-0.124 -2.371,-0.334 -3.899,-0.466 -3.839,-0.331 -7.072,-0.666 -8.973,-0.928 -1.936,-0.267 -6.346,-0.72 -9.174,-0.942 -4.008,-0.314 -7.59,-0.664 -9.404,-0.918 -1.009,-0.142 -2.66,-0.334 -3.669,-0.427 -4.435,-0.41 -7.694,-0.769 -8.627,-0.95 -0.554,-0.108 -2.555,-0.312 -4.447,-0.453 -1.892,-0.142 -3.956,-0.337 -4.587,-0.432 -0.631,-0.096 -2.179,-0.284 -3.44,-0.419 -1.262,-0.134 -3.326,-0.357 -4.588,-0.496 -1.261,-0.138 -3.428,-0.35 -4.816,-0.47 -1.388,-0.12 -3.039,-0.307 -3.67,-0.416 C 226.433,7.04 224.534,6.82 222.843,6.66 221.152,6.5 219.294,6.294 218.714,6.201 218.135,6.109 216.216,5.896 214.45,5.728 208.403,5.152 204.791,4.78 200.917,4.334 199.782,4.204 197.924,4.012 196.789,3.908 190.103,3.297 184.471,2.711 183.486,2.525 183.108,2.453 181.044,2.247 178.899,2.066 176.755,1.885 174.897,1.68 174.771,1.609 174.052,1.208 159.889,0.387 159.508,0.725 m 65.79,7.999 c 33.139,3.536 67.064,7.154 75.39,8.04 45.143,4.802 62.376,6.698 62.562,6.883 0.34,0.34 0.245,0.379 -11.874,4.783 l -11.697,4.251 -4.517,-0.546 c -2.485,-0.301 -4.609,-0.456 -4.72,-0.345 -0.41,0.411 8.619,1.295 10.049,0.985 1.642,-0.357 21.993,-7.721 23.592,-8.537 1.035,-0.529 3.096,-0.422 11.535,0.598 l 4.288,0.518 -7.04,2.376 c -14.445,4.875 -34.53,14.503 -65.095,31.203 l -8.514,4.652 -7.541,-1.269 C 278.933,60.166 263.57,57.905 201.835,49.085 152.706,42.066 137.212,39.82 92.89,33.294 53.257,27.458 40.824,25.507 41.166,25.178 c 3.018,-2.901 66.589,-16 96.449,-19.874 12.759,-1.655 12.743,-1.653 11.697,-1.225 -0.505,0.207 -2.904,0.635 -5.331,0.952 -4.251,0.555 -5.938,1.055 -5.394,1.599 0.383,0.383 10.372,1.71 11.547,1.534 0.557,-0.084 -1.413,-0.44 -4.377,-0.792 -2.965,-0.352 -5.39,-0.767 -5.39,-0.921 0,-0.231 21.404,-3.897 23.922,-4.097 0.416,-0.033 27.87,2.833 61.009,6.37 m -72.316,0 c 1.009,0.199 3.279,0.473 5.046,0.609 l 3.211,0.248 -3.67,-0.628 C 153.515,8.26 149.647,8.067 152.982,8.724 m 8.945,1.182 c 2.074,0.502 51.066,6.628 51.521,6.443 0.299,-0.122 0.181,-0.238 -0.26,-0.258 -0.442,-0.02 -11.846,-1.481 -25.344,-3.247 -21.102,-2.761 -28.787,-3.632 -25.917,-2.938 m 53.101,6.932 c 0.571,0.11 1.397,0.106 1.835,-0.009 0.439,-0.115 -0.028,-0.205 -1.037,-0.2 -1.009,0.006 -1.368,0.099 -0.798,0.209 m 6.302,0.843 c 2.019,0.329 4.392,0.59 5.276,0.58 0.883,-0.01 -0.15,-0.286 -2.294,-0.613 -2.145,-0.328 -4.518,-0.589 -5.275,-0.581 -0.757,0.009 0.275,0.285 2.293,0.614 m 7.569,0.951 c 1.84,0.474 71.419,9.348 72.017,9.185 0.555,-0.151 0.542,-0.198 -0.068,-0.241 -0.417,-0.029 -16.58,-2.117 -35.917,-4.64 -31.253,-4.078 -38.528,-4.947 -36.032,-4.304 M 65.968,30.52 c 16.061,2.406 31.269,4.67 33.796,5.031 2.526,0.361 11.715,1.702 20.419,2.98 23.736,3.485 39.447,5.75 93.808,13.525 60.793,8.695 82.199,11.949 82.928,12.605 0.197,0.177 -0.877,1.189 -2.386,2.248 -1.509,1.059 -3.219,2.519 -3.799,3.245 l -1.055,1.321 -11.697,-1.8 c -6.434,-0.99 -17.065,-2.616 -23.624,-3.614 -6.56,-0.998 -17.397,-2.65 -24.083,-3.673 -6.686,-1.022 -16.181,-2.47 -21.101,-3.217 -4.919,-0.747 -15.034,-2.292 -22.477,-3.433 -7.442,-1.141 -17.66,-2.698 -22.706,-3.46 C 158.945,51.516 146.147,49.564 135.55,47.94 124.954,46.316 111.433,44.25 105.505,43.35 99.576,42.449 88.687,40.79 81.307,39.663 73.928,38.537 61.749,36.68 54.243,35.538 28.518,31.622 24.797,31.013 25.047,30.759 c 0.195,-0.198 10.935,-4.451 11.57,-4.582 0.082,-0.016 13.289,1.938 29.351,4.343 m 323.544,-3.139 0.96,0.961 -2.002,0.312 c -14.721,2.296 -40.83,14.24 -71.353,32.642 -5.597,3.374 -10.313,6.135 -10.481,6.135 -0.452,0 -5.232,-2.94 -5.247,-3.227 -0.007,-0.136 3.651,-2.229 8.129,-4.652 49.858,-26.976 75.055,-37.109 79.994,-32.171 m -86.869,0.925 c 0.571,0.11 1.396,0.106 1.835,-0.009 0.438,-0.115 -0.028,-0.205 -1.038,-0.2 -1.009,0.005 -1.368,0.099 -0.797,0.209 m 6.302,0.843 c 2.018,0.329 4.392,0.59 5.275,0.58 0.883,-0.01 -0.149,-0.286 -2.293,-0.613 -2.145,-0.328 -4.519,-0.589 -5.276,-0.581 -0.757,0.008 0.276,0.285 2.294,0.614 m 83.677,1.632 c 4.271,7.024 6.133,22.901 3.787,32.292 -0.756,3.028 -1.392,5.195 -1.412,4.817 -0.02,-0.379 0.399,-2.443 0.931,-4.587 2.001,-8.06 -0.353,-27.358 -3.851,-31.573 -1.589,-1.915 -26.463,6.237 -41.16,13.488 -15.674,7.734 -45.945,26.033 -51.071,30.873 -4.848,4.578 -10.83,30.177 -16.788,71.845 -3.729,26.074 -3.878,29.632 -1.313,31.252 4.139,2.612 6.804,8.039 10.109,20.583 0.79,2.999 1.565,3.084 5.888,0.644 6.331,-3.573 7.034,-4.148 40.331,-32.946 43.954,-38.015 47.616,-41.52 48.604,-46.518 l 0.378,-1.914 0.041,1.605 c 0.042,1.678 -1.3,5.157 -2.205,5.716 -0.288,0.179 -0.41,0.687 -0.269,1.13 0.194,0.612 -3.778,4.474 -16.61,16.148 -45.507,41.398 -58.771,52.946 -64.342,56.017 -1.136,0.626 -3.362,1.903 -4.948,2.838 -3.076,1.814 -5.738,2.532 -6.26,1.688 -0.184,-0.299 0.028,-0.521 0.516,-0.538 0.715,-0.025 0.698,-0.082 -0.121,-0.414 -0.717,-0.29 -1.378,-1.718 -2.689,-5.808 -3.215,-10.028 -5.342,-13.697 -9.023,-15.562 -1.259,-0.638 -2.401,-1.452 -2.538,-1.808 -1.525,-3.976 9.467,-71.05 15.617,-95.295 2.413,-9.512 3.431,-10.503 22.977,-22.355 36.54,-22.155 72.108,-37.066 75.421,-31.618 M 321.33,30.762 c 3.028,0.455 6.227,0.82 7.11,0.809 0.883,-0.01 -1.078,-0.399 -4.357,-0.863 -3.28,-0.464 -6.48,-0.828 -7.111,-0.809 -0.63,0.018 1.331,0.407 4.358,0.863 M 30.963,33.214 c 2.523,0.394 10.677,1.64 18.12,2.77 25.934,3.937 72.946,11.11 78.44,11.969 2.397,0.375 17.878,2.733 34.404,5.24 16.525,2.507 31.387,4.776 33.027,5.042 1.64,0.266 11.858,1.832 22.707,3.481 62.127,9.442 70.555,10.751 70.802,10.998 0.115,0.115 -0.642,2.741 -1.683,5.835 -5.213,15.494 -10.026,41.693 -14.053,76.497 -0.775,6.689 -2.544,24.098 -2.544,25.027 0,1.532 -82.783,-26.653 -134.174,-45.682 C 91.484,117.905 62.391,105.394 23.394,85.966 2.867,75.738 2.294,75.393 2.294,73.245 c 0,-6.599 12.006,-32.932 18.081,-39.656 1.603,-1.775 1.684,-1.806 3.82,-1.452 1.199,0.199 4.245,0.684 6.768,1.077 m 362.179,3.434 c 1.203,3.897 2.573,11.654 2.974,16.845 l 0.323,4.181 -3.322,0.75 c -1.827,0.413 -3.574,0.75 -3.883,0.75 -0.39,0 -0.651,-1.506 -0.856,-4.931 -0.317,-5.328 -1.366,-10.311 -3.293,-15.648 -1.412,-3.909 -1.454,-3.829 2.781,-5.287 3.783,-1.303 3.856,-1.257 5.276,3.34 m -6.903,-3.898 c 0,0.52 -3.6,1.859 -4.588,1.707 -0.888,-0.137 -0.527,-0.361 1.606,-0.995 1.514,-0.45 2.804,-0.835 2.867,-0.856 0.063,-0.02 0.115,0.044 0.115,0.144 m -3.774,3.144 c 2.832,3.477 5.892,20.199 4.763,26.033 -4.536,23.437 -7.436,40.447 -8.783,51.525 -1.367,11.234 1.112,8.22 -22.697,27.603 -6.508,5.298 -14.231,11.59 -17.162,13.982 -27.64,22.555 -45.325,36.117 -46.506,35.664 -0.312,-0.12 -1.076,-2.249 -1.7,-4.733 -1.61,-6.417 -4.253,-11.501 -6.894,-13.262 -2.346,-1.565 -2.242,-0.615 -1.11,-10.091 3.664,-30.674 10.895,-69.143 15.098,-80.314 1.532,-4.072 2.838,-5.388 10.095,-10.177 27.139,-17.908 47.092,-28.298 66.972,-34.875 6.356,-2.103 7.197,-2.247 7.924,-1.355 m 13.407,23.473 c 0,0.107 -0.408,1.913 -0.905,4.014 -1.95,8.233 -5.934,32.469 -8.049,48.969 -1.726,13.469 0.143,11.241 -35.083,41.817 -47.179,40.95 -56.588,48.573 -58.095,47.066 -0.228,-0.229 -2.414,-8.005 -2.442,-8.687 -0.007,-0.189 0.414,-0.344 0.938,-0.344 2.411,0 21.827,-15.121 68.601,-53.429 4.321,-3.538 9.698,-7.934 11.948,-9.769 5.507,-4.487 5.47,-4.407 6.828,-15.077 1.319,-10.377 3.779,-25.281 6.902,-41.821 l 2.161,-11.447 3.025,-0.684 c 3.422,-0.774 4.171,-0.883 4.171,-0.608 m -91.273,8.766 c 0.325,0.392 -0.074,0.897 -1.406,1.779 -1.024,0.677 -2.666,1.958 -3.649,2.847 l -1.789,1.616 -3.238,-1.265 -3.238,-1.265 1.264,-1.342 c 0.695,-0.737 2.592,-2.239 4.215,-3.336 l 2.952,-1.995 2.217,1.207 c 1.219,0.664 2.422,1.453 2.672,1.754 m 89.667,5.261 c -0.176,1.044 -0.41,1.808 -0.519,1.698 -0.11,-0.109 -0.062,-1.059 0.106,-2.11 0.168,-1.052 0.402,-1.816 0.52,-1.698 0.117,0.118 0.069,1.067 -0.107,2.11 m -99.197,1.398 c 1.502,0.696 1.523,0.878 0.369,3.14 -3.336,6.539 -14.797,68.332 -17.051,91.926 l -0.56,5.867 -2.958,2.068 c -1.627,1.138 -3.071,1.956 -3.209,1.818 -0.422,-0.422 1.736,-21.066 4.054,-38.785 3.983,-30.451 9.121,-55.061 13.751,-65.862 l 0.858,-2.003 1.742,0.624 c 0.958,0.342 2.31,0.886 3.004,1.207 M 18.393,85.47 c 51.942,26.166 95.137,43.631 183.671,74.264 17.333,5.997 63.133,21.21 65.2,21.657 1.336,0.288 2.565,2.603 1.793,3.375 C 267.712,186.11 132.993,137.315 95.849,122.03 62.084,108.135 -1.262,77.982 3.314,77.982 c 0.118,0 6.903,3.369 15.079,7.488 m -0.888,2.116 c 48.172,24.641 91.147,42.293 183.412,75.333 21.919,7.849 41.627,14.676 58.028,20.102 15.799,5.227 15.682,5.163 19.767,10.843 3.398,4.726 6.044,11.641 4.454,11.641 -1.069,0 -59.997,-14.923 -101.515,-25.707 -11.814,-3.069 -12.195,-3.204 -13.543,-4.795 -1.287,-1.517 -1.89,-1.766 -8.257,-3.41 -7.993,-2.064 -21.814,-5.921 -39.811,-11.11 -12.52,-3.609 -14.077,-3.883 -14.077,-2.47 0,1.257 -1.56,0.807 -56.651,-16.343 C 24.403,133.915 27.187,135.534 25.283,127.701 21.621,112.641 14.12,93.862 8.262,85.092 6.629,82.645 6.327,82.11 6.584,82.11 c 0.118,0 5.033,2.464 10.921,5.476 m 281.469,2.359 c -4.196,2.492 -3.943,1.181 -4.302,22.272 -0.396,23.267 -0.5,22.95 6.209,18.861 4.672,-2.847 4.75,-3.071 4.432,-12.729 -0.312,-9.478 -0.312,-9.816 -0.003,-20.18 0.34,-11.454 -0.048,-11.958 -6.336,-8.224 m 5.154,-0.07 c 0,0.233 -1.129,1.071 -2.51,1.861 -4.269,2.443 -4.421,2.805 -4.345,10.358 0.053,5.295 -0.076,6.751 -0.693,7.825 -0.752,1.31 -0.773,-14.457 -0.022,-16.396 0.569,-1.467 7.57,-4.842 7.57,-3.648 m 0.459,7.811 v 6.861 l -3.176,1.855 c -1.747,1.02 -3.295,1.855 -3.441,1.855 -0.366,0 -0.333,-12.13 0.036,-13.092 0.278,-0.724 5.46,-4.325 6.237,-4.335 0.189,-0.002 0.344,3.083 0.344,6.856 m 3.976,-6.096 c -0.169,0.168 -0.306,0.859 -0.306,1.535 0,0.675 -0.413,1.602 -0.918,2.058 -0.504,0.457 -0.917,1.132 -0.917,1.501 0,0.445 0.309,0.59 0.917,0.431 0.691,-0.181 0.918,-0.014 0.918,0.673 0,1.494 1.133,0.674 1.292,-0.935 0.082,-0.838 0.526,-1.708 1.032,-2.024 1.224,-0.765 1.2,-2.357 -0.031,-2.036 -0.68,0.178 -0.917,0.015 -0.917,-0.634 0,-0.877 -0.498,-1.141 -1.07,-0.569 m -5.208,16.093 c -0.124,0.947 0.077,2.596 0.448,3.667 l 0.674,1.946 -1.436,0.856 c -5.958,3.555 -5.938,3.557 -6.136,-0.759 -0.165,-3.583 0.033,-3.914 3.554,-5.95 3.167,-1.832 3.17,-1.832 2.896,0.24 m 84.576,6.423 c -0.115,0.441 -0.21,0.08 -0.21,-0.803 0,-0.883 0.095,-1.245 0.21,-0.803 0.115,0.442 0.115,1.164 0,1.606 m -83.593,6.422 c -0.36,7.005 -0.32,6.909 -3.804,9.138 -2.655,1.698 -3.105,1.628 -3.424,-0.538 -0.111,-0.756 -0.15,-0.489 -0.087,0.594 0.077,1.305 -0.059,1.911 -0.403,1.797 -0.356,-0.118 -0.553,-2.825 -0.626,-8.621 -0.121,-9.534 0.777,-10.789 1.284,-1.797 l 0.272,4.816 0.081,-4.128 0.082,-4.128 2.864,-1.678 c 4.304,-2.522 4.134,-2.729 3.761,4.545 m 4.009,-4.892 c -1.639,1.205 -2.647,3.171 -1.626,3.171 0.786,0 4.262,-3.077 4.274,-3.784 0.02,-1.119 -0.436,-1.013 -2.648,0.613 m 79.125,2.598 c -0.115,0.441 -0.21,0.08 -0.21,-0.803 0,-0.883 0.095,-1.244 0.21,-0.803 0.116,0.442 0.116,1.164 0,1.606 m -6.509,12.402 c -7.553,7.253 -30.733,27.76 -65.367,57.829 -7.25,6.295 -13.936,11.14 -19.198,13.912 -1.35,0.711 -2.217,1.293 -1.926,1.293 0.717,0 3.057,-1.227 5.413,-2.839 1.073,-0.734 1.95,-1.223 1.95,-1.087 0,0.136 0.361,-0.056 0.803,-0.426 0.441,-0.37 2.072,-1.555 3.625,-2.633 5.904,-4.101 68.765,-59.328 76.059,-66.823 3.237,-3.326 2.435,-2.869 -1.359,0.774 m -68.807,6.52 c -0.348,1.095 -0.84,1.159 -1.769,0.229 -1.029,-1.029 -1.421,-0.857 -2.315,1.017 -0.447,0.938 -1.207,1.982 -1.69,2.32 -0.659,0.461 -0.877,1.168 -0.877,2.837 v 2.222 l 2.293,-0.07 c 2.178,-0.065 2.293,-0.132 2.293,-1.33 10e-4,-1.313 1.681,-3.408 2.57,-3.204 0.327,0.075 0.511,-0.79 0.511,-2.41 0,-2.549 -0.478,-3.306 -1.016,-1.611 m -14.22,1.624 c -4.379,3.003 -4.358,2.951 -4.358,11 0,8.979 1.267,10.161 6.638,6.193 3.883,-2.868 3.915,-2.952 3.897,-10.318 -0.021,-8.916 -1.234,-10.266 -6.177,-6.875 m 3.44,0.189 c 0,0.24 -0.877,1.042 -1.949,1.781 -2.334,1.61 -3.817,3.178 -3.4,3.595 0.167,0.167 0.303,0.062 0.303,-0.233 0,-0.562 5.299,-4.662 6.027,-4.662 0.241,0 0.366,2.782 0.293,6.531 l -0.127,6.531 -2.901,2.19 c -3.705,2.797 -3.733,2.766 -3.843,-4.156 l -0.093,-5.821 -0.273,5.734 -0.273,5.734 -0.093,-6.457 c -0.104,-7.223 -0.318,-6.673 3.806,-9.765 1.965,-1.473 2.523,-1.695 2.523,-1.002 m 7.798,3.003 c 0,1.388 -0.206,2.523 -0.458,2.523 -0.506,0 -0.643,-4.25 -0.153,-4.74 0.551,-0.551 0.611,-0.334 0.611,2.217 m -1.835,1.147 c 0,0.757 -0.206,1.376 -0.458,1.376 -0.51,0 -0.633,-1.966 -0.153,-2.446 0.518,-0.518 0.611,-0.355 0.611,1.07 m -8.607,8.957 c -1.321,0.89 -2.402,1.922 -2.402,2.294 0,1.013 0.523,0.843 3.213,-1.044 4.181,-2.933 3.423,-4.101 -0.811,-1.25 m 3.016,-0.919 c -0.914,0.914 -4.731,3.353 -4.932,3.151 -0.137,-0.137 0.059,-0.425 0.436,-0.642 0.376,-0.216 1.395,-0.923 2.264,-1.571 1.337,-0.997 2.982,-1.688 2.232,-0.938 m -172.07,13.007 c 12.312,3.502 25.483,7.144 29.267,8.095 6.418,1.612 9.804,3.182 8.872,4.113 -0.328,0.329 -27.868,-6.941 -43.505,-11.484 -6.686,-1.943 -13.337,-3.859 -14.781,-4.258 -2.488,-0.688 -3.429,-1.484 -2.854,-2.415 0.343,-0.555 -2.042,-1.172 23.001,5.949 m 154.298,10.911 c 1.895,2.094 3.434,5.113 4.578,8.985 0.545,1.843 0.236,1.562 -1.325,-1.202 -0.764,-1.355 -2.028,-2.955 -2.808,-3.555 -3.949,-3.041 -3.79,-2.827 -3.449,-4.648 0.363,-1.934 0.946,-1.853 3.004,0.42 m -6.296,4.726 c 0.212,1.059 0.78,1.619 2.552,2.517 2.717,1.377 4.078,3.054 6.197,7.641 1.351,2.924 4.855,13.46 4.855,14.598 0,0.207 -1.252,0.691 -2.782,1.077 -3.181,0.801 -3.019,0.941 -4.126,-3.57 -1.36,-5.54 -5.042,-10.52 -12.783,-17.287 -1.557,-1.362 -1.849,-2.655 -0.607,-2.689 0.442,-0.013 1.938,-0.828 3.326,-1.813 3.058,-2.17 3.03,-2.166 3.368,-0.474" />
  </g>
</svg>
