<?xml version="1.0" encoding="UTF-8" standalone="no"?>
<svg
   xmlns:dc="http://purl.org/dc/elements/1.1/"
   xmlns:cc="http://creativecommons.org/ns#"
   xmlns:rdf="http://www.w3.org/1999/02/22-rdf-syntax-ns#"
   xmlns:svg="http://www.w3.org/2000/svg"
   xmlns="http://www.w3.org/2000/svg"
   xmlns:xlink="http://www.w3.org/1999/xlink"
   xmlns:sodipodi="http://sodipodi.sourceforge.net/DTD/sodipodi-0.dtd"
   xmlns:inkscape="http://www.inkscape.org/namespaces/inkscape"
   id="svg"
   width="368.32483"
   height="216.80722"
   viewBox="0 0 368.32483 216.80722"
   version="1.1"
   sodipodi:docname="avr_v4.svg"
   inkscape:version="0.92.4 (5da689c313, 2019-01-14)">
  <metadata
     id="metadata9">
    <rdf:RDF>
      <cc:Work
         rdf:about="">
        <dc:format>image/svg+xml</dc:format>
        <dc:type
           rdf:resource="http://purl.org/dc/dcmitype/StillImage" />
        <dc:title></dc:title>
      </cc:Work>
    </rdf:RDF>
  </metadata>
  <defs
     id="defs7">
    <linearGradient
       inkscape:collect="always"
       id="linearGradient956">
      <stop
         id="stop954"
         offset="0"
         style="stop-color:#000000;stop-opacity:0.75" />
      <stop
         id="stop952"
         offset="1"
         style="stop-color:#000000;stop-opacity:1;" />
    </linearGradient>
    <linearGradient
       inkscape:collect="always"
       id="linearGradient938">
      <stop
         style="stop-color:#000000;stop-opacity:1;"
         offset="0"
         id="stop934" />
      <stop
         style="stop-color:#000000;stop-opacity:0;"
         offset="1"
         id="stop936" />
    </linearGradient>
    <linearGradient
       inkscape:collect="always"
       id="linearGradient926">
      <stop
         id="stop924"
         offset="0"
         style="stop-color:#000000;stop-opacity:0;" />
      <stop
         id="stop922"
         offset="1"
         style="stop-color:#000000;stop-opacity:1;" />
    </linearGradient>
    <linearGradient
       inkscape:collect="always"
       id="linearGradient908">
      <stop
         style="stop-color:#000000;stop-opacity:1;"
         offset="0"
         id="stop904" />
      <stop
         style="stop-color:#000000;stop-opacity:0;"
         offset="1"
         id="stop906" />
    </linearGradient>
    <linearGradient
       inkscape:collect="always"
       id="linearGradient889">
      <stop
         style="stop-color:#000000;stop-opacity:1;"
         offset="0"
         id="stop885" />
      <stop
         style="stop-color:#000000;stop-opacity:0.5"
         offset="1"
         id="stop887" />
    </linearGradient>
    <linearGradient
       inkscape:collect="always"
       id="linearGradient971">
      <stop
         style="stop-color:#000000;stop-opacity:1;"
         offset="0"
         id="stop967" />
      <stop
         style="stop-color:#000000;stop-opacity:0.501"
         offset="1"
         id="stop969" />
    </linearGradient>
    <linearGradient
       inkscape:collect="always"
       id="linearGradient953">
      <stop
         style="stop-color:#000000;stop-opacity:1;"
         offset="0"
         id="stop949" />
      <stop
         style="stop-color:#000000;stop-opacity:0;"
         offset="1"
         id="stop951" />
    </linearGradient>
    <linearGradient
       inkscape:collect="always"
       id="linearGradient943">
      <stop
         style="stop-color:#000000;stop-opacity:1;"
         offset="0"
         id="stop939" />
      <stop
         style="stop-color:#000000;stop-opacity:0;"
         offset="1"
         id="stop941" />
    </linearGradient>
    <linearGradient
       inkscape:collect="always"
       id="linearGradient933">
      <stop
         style="stop-color:#000000;stop-opacity:1;"
         offset="0"
         id="stop929" />
      <stop
         style="stop-color:#000000;stop-opacity:0;"
         offset="1"
         id="stop931" />
    </linearGradient>
    <linearGradient
       inkscape:collect="always"
       id="linearGradient923">
      <stop
         style="stop-color:#000000;stop-opacity:1;"
         offset="0"
         id="stop919" />
      <stop
         style="stop-color:#000000;stop-opacity:0;"
         offset="1"
         id="stop921" />
    </linearGradient>
    <linearGradient
       inkscape:collect="always"
       id="linearGradient913">
      <stop
         style="stop-color:#000000;stop-opacity:1;"
         offset="0"
         id="stop909" />
      <stop
         style="stop-color:#000000;stop-opacity:0;"
         offset="1"
         id="stop911" />
    </linearGradient>
    <linearGradient
       inkscape:collect="always"
       id="linearGradient903">
      <stop
         style="stop-color:#000000;stop-opacity:1;"
         offset="0"
         id="stop899" />
      <stop
         style="stop-color:#000000;stop-opacity:0;"
         offset="1"
         id="stop901" />
    </linearGradient>
    <linearGradient
       inkscape:collect="always"
       id="linearGradient893">
      <stop
         style="stop-color:#000000;stop-opacity:1;"
         offset="0"
         id="stop889" />
      <stop
         style="stop-color:#000000;stop-opacity:0;"
         offset="1"
         id="stop891" />
    </linearGradient>
    <linearGradient
       inkscape:collect="always"
       id="linearGradient879">
      <stop
         style="stop-color:#000000;stop-opacity:1;"
         offset="0"
         id="stop875" />
      <stop
         style="stop-color:#000000;stop-opacity:0;"
         offset="1"
         id="stop877" />
    </linearGradient>
    <linearGradient
       inkscape:collect="always"
       id="linearGradient867">
      <stop
         style="stop-color:#000000;stop-opacity:1;"
         offset="0"
         id="stop863" />
      <stop
         style="stop-color:#000000;stop-opacity:0.5"
         offset="1"
         id="stop865" />
    </linearGradient>
    <linearGradient
       inkscape:collect="always"
       id="linearGradient857">
      <stop
         style="stop-color:#000000;stop-opacity:1;"
         offset="0"
         id="stop853" />
      <stop
         style="stop-color:#000000;stop-opacity:0.5"
         offset="1"
         id="stop855" />
    </linearGradient>
    <linearGradient
       inkscape:collect="always"
       id="linearGradient837">
      <stop
         style="stop-color:#000000;stop-opacity:1;"
         offset="0"
         id="stop833" />
      <stop
         style="stop-color:#000000;stop-opacity:0.5"
         offset="1"
         id="stop835" />
    </linearGradient>
    <linearGradient
       inkscape:collect="always"
       id="linearGradient827">
      <stop
         style="stop-color:#000000;stop-opacity:1;"
         offset="0"
         id="stop823" />
      <stop
         style="stop-color:#000000;stop-opacity:0.5"
         offset="1"
         id="stop825" />
    </linearGradient>
    <linearGradient
       inkscape:collect="always"
       xlink:href="#linearGradient827"
       id="linearGradient829"
       x1="17.05184"
       y1="143.62459"
       x2="265.89832"
       y2="143.62459"
       gradientUnits="userSpaceOnUse"
       gradientTransform="translate(-16.166999,-8.2459997)" />
    <linearGradient
       inkscape:collect="always"
       xlink:href="#linearGradient837"
       id="linearGradient839"
       x1="17.558783"
       y1="152.31979"
       x2="224.45137"
       y2="152.31979"
       gradientUnits="userSpaceOnUse"
       gradientTransform="translate(-16.166999,-8.2459997)" />
    <linearGradient
       inkscape:collect="always"
       xlink:href="#linearGradient857"
       id="linearGradient859"
       x1="32.938442"
       y1="104.30803"
       x2="324.56601"
       y2="104.30803"
       gradientUnits="userSpaceOnUse"
       gradientTransform="translate(-16.166999,-8.2459997)" />
    <linearGradient
       inkscape:collect="always"
       xlink:href="#linearGradient867"
       id="linearGradient869"
       x1="105.04421"
       y1="69.509781"
       x2="368.8718"
       y2="69.509781"
       gradientUnits="userSpaceOnUse"
       gradientTransform="translate(-16.166999,-8.2459997)" />
    <linearGradient
       inkscape:collect="always"
       xlink:href="#linearGradient879"
       id="linearGradient881"
       x1="228.00156"
       y1="190.71049"
       x2="251.87547"
       y2="190.71049"
       gradientUnits="userSpaceOnUse"
       gradientTransform="translate(-16.166999,-8.2459997)" />
    <linearGradient
       inkscape:collect="always"
       xlink:href="#linearGradient893"
       id="linearGradient895"
       x1="88.986053"
       y1="84.454247"
       x2="325.97687"
       y2="84.454247"
       gradientUnits="userSpaceOnUse"
       gradientTransform="translate(-16.166999,-8.2459997)" />
    <linearGradient
       inkscape:collect="always"
       xlink:href="#linearGradient903"
       id="linearGradient905"
       x1="93.460274"
       y1="80.827927"
       x2="325.96796"
       y2="80.827927"
       gradientUnits="userSpaceOnUse"
       gradientTransform="translate(-16.166999,-8.2459997)" />
    <linearGradient
       inkscape:collect="always"
       xlink:href="#linearGradient913"
       id="linearGradient915"
       x1="98.000565"
       y1="77.26429"
       x2="325.9668"
       y2="77.26429"
       gradientUnits="userSpaceOnUse"
       gradientTransform="translate(-16.166999,-8.2459997)" />
    <linearGradient
       inkscape:collect="always"
       xlink:href="#linearGradient923"
       id="linearGradient925"
       x1="102.55263"
       y1="73.647919"
       x2="325.97562"
       y2="73.647919"
       gradientUnits="userSpaceOnUse"
       gradientTransform="translate(-16.166999,-8.2459997)" />
    <linearGradient
       inkscape:collect="always"
       xlink:href="#linearGradient933"
       id="linearGradient935"
       x1="85.10125"
       y1="87.987305"
       x2="325.99771"
       y2="87.987305"
       gradientUnits="userSpaceOnUse"
       gradientTransform="translate(-16.166999,-8.2459997)" />
    <linearGradient
       inkscape:collect="always"
       xlink:href="#linearGradient943"
       id="linearGradient945"
       x1="26.430998"
       y1="122.50465"
       x2="269.68497"
       y2="122.50465"
       gradientUnits="userSpaceOnUse"
       gradientTransform="translate(-16.166999,-8.2459997)" />
    <linearGradient
       inkscape:collect="always"
       xlink:href="#linearGradient953"
       id="linearGradient955"
       x1="41.57254"
       y1="124.34949"
       x2="274.94"
       y2="124.34949"
       gradientUnits="userSpaceOnUse"
       gradientTransform="translate(-16.166999,-8.2459997)" />
    <linearGradient
       inkscape:collect="always"
       xlink:href="#linearGradient971"
       id="linearGradient973"
       x1="130.60664"
       y1="60.246201"
       x2="374.65088"
       y2="60.246201"
       gradientUnits="userSpaceOnUse"
       gradientTransform="translate(-16.166999,-8.2459997)" />
    <linearGradient
       inkscape:collect="always"
       xlink:href="#linearGradient889"
       id="linearGradient891"
       x1="243.89429"
       y1="198.59178"
       x2="365.96588"
       y2="122.40352"
       gradientUnits="userSpaceOnUse" />
    <linearGradient
       inkscape:collect="always"
       xlink:href="#linearGradient908"
       id="linearGradient910"
       x1="241.25813"
       y1="185.57688"
       x2="252.93394"
       y2="185.57688"
       gradientUnits="userSpaceOnUse" />
    <linearGradient
       inkscape:collect="always"
       xlink:href="#linearGradient926"
       id="linearGradient928"
       x1="255.68721"
       y1="135.60625"
       x2="356.40131"
       y2="135.60625"
       gradientUnits="userSpaceOnUse" />
    <linearGradient
       inkscape:collect="always"
       xlink:href="#linearGradient938"
       id="linearGradient940"
       x1="245.56932"
       y1="159.61254"
       x2="367.89546"
       y2="159.61254"
       gradientUnits="userSpaceOnUse" />
    <linearGradient
       inkscape:collect="always"
       xlink:href="#linearGradient956"
       id="linearGradient958"
       x1="201.97794"
       y1="189.05391"
       x2="227.83122"
       y2="189.05391"
       gradientUnits="userSpaceOnUse" />
  </defs>
  <sodipodi:namedview
     pagecolor="#ffffff"
     bordercolor="#666666"
     borderopacity="1"
     objecttolerance="10"
     gridtolerance="10"
     guidetolerance="10"
     inkscape:pageopacity="0"
     inkscape:pageshadow="2"
     inkscape:window-width="3440"
     inkscape:window-height="1377"
     id="namedview5"
     showgrid="false"
     fit-margin-top="0"
     fit-margin-left="0"
     fit-margin-right="0"
     fit-margin-bottom="0"
     inkscape:zoom="4.0163665"
     inkscape:cx="176.99712"
     inkscape:cy="87.798251"
     inkscape:window-x="1672"
     inkscape:window-y="-8"
     inkscape:window-maximized="1"
     inkscape:current-layer="svg" />
  <g
     id="svgg"
     transform="translate(-16.166999,-8.2459997)">
    <path
       id="path0"
       d="m 133.914,8.9 c -1.952,0.64 -2.225,0.795 -18.779,10.669 -9.24,5.512 -33.059,19.705 -52.932,31.541 -19.873,11.837 -36.668,21.849 -37.322,22.25 -1.37,0.84 -1.288,0.707 -3.31,5.404 -2.508,5.827 -5.397,13.797 -5.404,14.906 -0.001,0.223 0.608,1.935 1.355,3.804 2.611,6.541 5.008,14.346 6.566,21.385 0.343,1.552 1.864,5.167 2.356,5.6 0.143,0.125 44.933,18.997 99.534,41.936 l 99.274,41.707 1.112,1.03 c 3.173,2.938 6.686,4.489 10.34,4.566 l 1.917,0.04 13.457,5.651 c 7.402,3.108 13.564,5.652 13.693,5.655 1.884,0.031 0.048,1.089 57.208,-32.95 29.331,-17.467 53.522,-31.937 53.758,-32.156 0.496,-0.459 0.482,-0.395 1.396,-6.135 1.42,-8.906 3.653,-19.749 5.95,-28.891 0.594,-2.362 0.615,-2.158 -0.436,-4.231 -2.609,-5.145 -4.745,-8.408 -7.445,-11.371 l -0.687,-0.754 -119.69,-50.158 C 189.996,30.812 136.082,8.243 136.015,8.246 135.949,8.249 135.004,8.543 133.914,8.9 m 121.554,49.886 c 65.328,27.393 118.872,49.842 118.986,49.888 0.114,0.046 -0.841,0.71 -2.122,1.477 -1.847,1.105 -2.398,1.366 -2.663,1.263 -0.88,-0.341 -238.089,-99.897 -238.331,-100.026 -0.177,-0.094 -0.513,-0.085 -0.927,0.027 -0.986,0.265 -0.886,0.122 0.452,-0.648 1.609,-0.927 4.352,-1.896 5.191,-1.834 0.409,0.03 42.696,17.684 119.414,49.853 m -5.185,2.801 c 65.566,27.509 119.388,50.11 119.606,50.224 0.218,0.114 0.665,0.53 0.992,0.926 l 0.597,0.719 -1.31,-0.534 C 369.448,112.627 315.087,89.829 249.366,62.258 180.374,33.315 129.687,12.135 129.434,12.143 c -0.242,0.008 -0.409,-0.017 -0.37,-0.055 0.084,-0.084 1.518,-0.485 1.806,-0.505 0.112,-0.008 53.848,22.494 119.413,50.004 m -0.957,0.94 c 65.613,27.533 119.295,50.099 119.295,50.146 0,0.047 -5.242,3.207 -11.649,7.023 L 345.324,126.634 225.6,76.397 C 113.774,29.475 105.844,26.172 105.387,26.332 c -0.27,0.094 -0.524,0.136 -0.566,0.095 -0.146,-0.146 22.625,-13.618 23.128,-13.683 0.274,-0.036 0.712,-0.133 0.973,-0.216 0.262,-0.082 0.618,-0.13 0.793,-0.105 0.174,0.024 53.999,22.571 119.611,50.104 M 225.534,76.63 c 116.798,49.009 119.567,50.18 120.134,50.832 0.659,0.758 0.674,0.724 -0.683,1.545 l -1.007,0.609 -0.793,-0.767 c -0.78,-0.754 -2.639,-1.541 -120.047,-50.799 -65.59,-27.517 -119.42,-50.118 -119.621,-50.223 -0.472,-0.246 1.263,-1.269 2.286,-1.347 0.098,-0.008 53.977,22.56 119.731,50.15 M 102.174,28.577 c -0.621,0.377 -0.993,0.513 -1.778,0.648 l -0.634,0.109 0.861,-0.526 c 0.567,-0.347 1.062,-0.527 1.449,-0.527 h 0.588 l -0.486,0.296 m 120.885,49.703 119.334,50.07 0.725,0.815 0.725,0.814 1.256,-0.751 c 0.691,-0.413 1.319,-0.806 1.395,-0.873 0.076,-0.068 -0.121,-0.439 -0.438,-0.826 l -0.577,-0.704 11.69,-6.979 11.69,-6.98 0.93,0.94 0.931,0.94 0.683,-0.4 0.683,-0.4 0.324,0.454 0.324,0.455 -50.339,29.999 -50.339,29.998 -0.291,-0.36 c -0.428,-0.528 -0.427,-0.529 1.291,-1.536 1.851,-1.085 1.811,-0.978 0.778,-2.07 -0.446,-0.471 -0.785,-0.879 -0.753,-0.906 0.031,-0.028 11.64,-6.951 25.798,-15.386 l 25.74,-15.336 0.601,0.696 0.601,0.696 0.824,-0.451 c 0.454,-0.248 1.101,-0.625 1.439,-0.838 l 0.614,-0.388 -0.712,-0.814 c -0.818,-0.935 -0.825,-0.873 0.145,-1.392 l 0.74,-0.396 0.748,0.81 0.749,0.811 1.373,-0.811 c 1.616,-0.954 1.549,-0.782 0.689,-1.764 l -0.692,-0.789 -119.355,-50.08 C 146.737,57.005 93.027,34.427 93.027,34.375 c 0,-0.051 0.339,-0.275 0.753,-0.497 l 0.752,-0.404 119.256,50.03 119.255,50.029 0.936,0.882 0.936,0.882 1.322,-0.791 c 1.547,-0.924 1.55,-0.935 0.57,-1.896 -0.734,-0.72 -3.701,-1.976 -119.137,-50.411 C 152.559,54.88 98.864,32.349 98.348,32.131 l -0.939,-0.397 0.682,-0.43 c 0.452,-0.285 0.823,-0.406 1.098,-0.357 0.228,0.04 54.034,22.578 119.569,50.083 l 119.153,50.011 0.736,0.798 0.735,0.798 1.189,-0.717 c 0.653,-0.394 1.293,-0.778 1.421,-0.853 0.273,-0.16 -0.89,-1.557 -1.58,-1.899 -0.325,-0.161 -44.626,-18.754 -237.7,-99.765 l -0.853,-0.358 0.695,-0.416 c 0.382,-0.229 0.802,-0.417 0.933,-0.418 0.13,-10e-4 53.938,22.53 119.572,50.069 m -1.981,1.036 c 117.545,49.316 119.266,50.044 120.028,50.793 l 0.773,0.76 -1.248,0.726 -1.249,0.726 -0.713,-0.776 -0.713,-0.776 L 218.907,80.832 C 153.43,53.367 99.574,30.768 99.227,30.613 l -0.631,-0.283 0.662,-0.357 c 0.697,-0.376 2.137,-0.817 2.406,-0.737 0.087,0.026 53.823,22.562 119.414,50.08 M 97.85,31.169 c -0.318,0.232 -1.97,0.738 -2.073,0.635 -0.162,-0.162 1.282,-0.837 1.791,-0.837 0.491,0 0.525,0.024 0.282,0.202 m 117.998,50.515 c 135.367,56.811 120.08,50.343 120.852,51.134 0.698,0.715 0.709,0.692 -0.748,1.585 l -1.007,0.618 -0.714,-0.765 -0.713,-0.765 L 214.976,83.759 C 149.778,56.407 95.905,33.795 95.259,33.511 l -1.175,-0.515 0.858,-0.436 c 1.102,-0.56 1.557,-0.702 2.047,-0.642 0.218,0.027 53.704,22.422 118.859,49.766 M 93.364,33.681 c 0.314,-0.09 0.298,-0.058 -0.099,0.193 -0.414,0.263 -1.719,0.681 -2.091,0.671 -0.07,-0.002 0.263,-0.247 0.741,-0.545 0.536,-0.333 0.907,-0.477 0.97,-0.375 0.058,0.092 0.268,0.117 0.479,0.056 m 117.871,50.644 c 137.14,57.538 120.318,50.413 121.01,51.258 l 0.554,0.676 -1.094,0.65 c -1.343,0.798 -1.185,0.807 -2.144,-0.124 -0.789,-0.766 -2.085,-1.315 -119.894,-50.743 C 144.164,58.559 90.339,35.993 90.056,35.894 l -0.514,-0.179 0.99,-0.494 c 1.121,-0.56 1.342,-0.643 1.765,-0.66 0.165,-0.007 53.687,22.387 118.938,49.764 M 88.768,36.368 c 0.207,-0.064 0.339,-0.075 0.293,-0.026 -0.245,0.264 -1.325,0.91 -1.664,0.995 -0.216,0.054 -0.392,0.152 -0.392,0.218 0,0.142 0.803,0.015 1.031,-0.163 0.364,-0.284 238.76,99.952 239.52,100.709 0.808,0.805 0.803,0.823 -0.464,1.577 -1.196,0.713 -1.123,0.717 -1.886,-0.111 -0.617,-0.669 -3.705,-1.975 -120.349,-50.911 C 139.013,61.032 85.164,38.391 85.192,38.342 c 0.028,-0.049 0.339,-0.227 0.691,-0.396 0.351,-0.169 0.623,-0.396 0.603,-0.505 -0.046,-0.252 1.674,-1.307 1.806,-1.107 0.055,0.083 0.269,0.098 0.476,0.034 m 120.656,49.835 c 65.457,27.47 119.036,49.969 119.064,49.998 0.083,0.083 -1.343,0.883 -1.575,0.883 -0.303,0 -238.323,-99.892 -238.323,-100.019 0,-0.194 1.342,-0.929 1.584,-0.868 0.131,0.032 53.794,22.535 119.25,50.006 M 84.707,38.955 85.499,38.803 204.831,88.886 c 65.632,27.546 119.349,50.14 119.369,50.21 0.021,0.07 -11.428,6.956 -25.443,15.302 -29.73,17.706 -26.129,15.439 -25.696,16.172 0.19,0.323 0.309,0.587 0.264,0.587 -0.101,0 -240.666,-100.933 -240.987,-101.11 -0.318,-0.175 1.077,-0.458 1.497,-0.304 0.175,0.063 53.944,22.619 119.488,50.123 65.543,27.504 119.202,49.975 119.241,49.936 0.121,-0.12 3.253,1.199 -119.474,-50.304 L 33.677,69.386 32.884,69.541 c -0.436,0.085 -0.803,0.145 -0.816,0.133 -0.014,-0.013 11.611,-6.952 25.831,-15.42 14.221,-8.469 25.892,-15.341 25.936,-15.272 0.044,0.069 0.436,0.057 0.872,-0.027 m 145.368,27.263 c -1.427,0.861 -1.428,0.864 -0.595,1.197 1.867,0.747 4.501,-0.2 3.365,-1.21 -0.224,-0.199 -1.448,-0.792 -1.525,-0.74 -0.011,0.008 -0.572,0.347 -1.245,0.753 m 1.571,-0.118 c 0.245,0.095 0.583,0.2 0.751,0.234 0.551,0.11 0.66,0.363 0.309,0.713 l -0.324,0.325 0.055,-0.525 c 0.049,-0.461 0.037,-0.481 -0.101,-0.165 -0.297,0.681 -1.781,0.866 -2.353,0.295 -0.199,-0.2 -0.165,-0.262 0.267,-0.485 0.609,-0.315 0.663,-0.191 0.059,0.137 -0.24,0.13 -0.364,0.237 -0.277,0.238 0.087,0 0.443,-0.182 0.792,-0.407 0.349,-0.224 0.505,-0.365 0.348,-0.314 -0.167,0.056 -0.245,0.03 -0.188,-0.062 0.12,-0.194 0.118,-0.194 0.662,0.016 m 1.436,1.377 c -1.462,0.889 -1.453,0.857 -0.365,1.299 1.127,0.458 1.781,0.165 0.682,-0.306 -0.283,-0.121 -0.562,-0.248 -0.62,-0.281 -0.058,-0.033 -0.13,0.048 -0.159,0.182 -0.032,0.147 -0.129,0.194 -0.248,0.12 -0.134,-0.084 -0.041,-0.213 0.301,-0.415 0.273,-0.161 0.452,-0.222 0.398,-0.134 -0.059,0.095 0.052,0.129 0.276,0.087 0.205,-0.04 0.519,0.006 0.697,0.101 0.325,0.174 0.821,0.088 0.821,-0.142 0,-0.069 -0.172,-0.168 -0.382,-0.221 -0.353,-0.088 -0.466,-0.447 -0.203,-0.647 0.06,-0.046 0.073,-0.035 0.027,0.025 -0.118,0.157 1.334,0.68 1.602,0.577 0.392,-0.15 0.247,-0.298 -0.603,-0.615 -0.456,-0.169 -0.866,-0.323 -0.912,-0.342 -0.046,-0.018 -0.636,0.302 -1.312,0.712 m 0.731,0.114 c -0.05,0.131 -0.208,0.236 -0.351,0.233 -0.221,-0.004 -0.214,-0.04 0.047,-0.238 0.384,-0.291 0.418,-0.29 0.304,0.005 m 1.488,0.844 c -0.675,0.404 -1.228,0.782 -1.228,0.84 0,0.315 0.576,0.235 1.227,-0.17 0.829,-0.516 0.986,-0.497 1.004,0.12 0.007,0.234 0.05,0.334 0.095,0.221 0.161,-0.401 -0.102,-1.019 -0.391,-0.918 -0.213,0.074 -0.204,0.042 0.039,-0.146 0.466,-0.361 0.615,-0.222 0.811,0.758 0.171,0.855 -0.097,1.551 -0.3,0.78 -0.051,-0.192 -0.076,-0.166 -0.09,0.088 -0.01,0.196 0.049,0.357 0.131,0.357 0.292,0 1.276,-0.668 1.19,-0.807 -0.048,-0.077 0.007,-0.104 0.123,-0.06 0.116,0.045 0.352,-0.031 0.524,-0.169 0.298,-0.239 0.294,-0.242 -0.084,-0.074 -0.371,0.165 -0.377,0.161 -0.096,-0.065 0.166,-0.133 0.361,-0.204 0.435,-0.159 0.074,0.046 0.253,0.016 0.398,-0.065 0.241,-0.135 0.236,-0.163 -0.046,-0.314 -0.247,-0.132 -0.46,-0.072 -1.055,0.298 -0.918,0.572 -0.848,0.581 -0.974,-0.131 -0.243,-1.37 -0.112,-1.341 -1.713,-0.384 m 3.209,1.256 c -1.32,0.66 -0.353,1.855 1.505,1.86 1.557,0.004 2.53,-0.618 2.131,-1.362 -0.403,-0.754 -2.538,-1.046 -3.636,-0.498 m 2.655,0.455 c 0.475,0.301 0.449,0.479 -0.111,0.769 -0.972,0.503 -2.516,0.126 -2.334,-0.569 0.042,-0.164 0.005,-0.298 -0.083,-0.298 -0.09,0 -0.133,0.239 -0.098,0.542 0.056,0.481 0.031,0.525 -0.22,0.391 -0.156,-0.084 -0.284,-0.246 -0.284,-0.36 0,-0.274 0.575,-0.787 0.756,-0.675 0.079,0.048 0.35,0.025 0.605,-0.052 0.547,-0.165 1.273,-0.062 1.769,0.252 m -88.392,50.736 c 66.375,27.857 120.842,50.655 121.037,50.661 0.748,0.022 0.445,0.41 -0.987,1.264 -1.817,1.085 -1.619,1.095 -2.714,-0.145 -0.501,-0.566 -0.968,-1.03 -1.038,-1.03 -0.071,0 -53.598,-22.435 -118.95,-49.857 C 10.794,63.314 30.205,71.383 29.416,71.594 c -0.948,0.253 -0.881,0.169 0.572,-0.722 0.959,-0.588 1.418,-0.782 1.708,-0.722 0.218,0.045 54.703,22.874 121.077,50.732 M 241.97,70.425 c 0.058,0.295 -0.233,0.732 -0.487,0.732 -0.091,0 -0.077,-0.098 0.032,-0.23 0.109,-0.131 0.144,-0.378 0.082,-0.574 -0.079,-0.25 -0.051,-0.324 0.106,-0.271 0.118,0.039 0.238,0.193 0.267,0.343 m 0.215,0.859 c -1.352,0.777 -1.461,0.886 -1.046,1.045 0.287,0.11 1.963,-0.83 1.917,-1.075 -0.016,-0.087 0.09,-0.184 0.236,-0.216 0.213,-0.047 0.286,0.114 0.376,0.832 0.091,0.728 0.158,0.874 0.369,0.802 0.184,-0.064 0.17,-0.022 -0.05,0.149 -0.423,0.327 -0.561,0.299 -0.582,-0.119 -0.015,-0.282 -0.034,-0.297 -0.093,-0.07 -0.193,0.745 0.081,0.727 1.459,-0.095 1.181,-0.703 1.331,-0.841 1.105,-1.006 -0.215,-0.157 -0.392,-0.109 -0.992,0.272 -0.949,0.602 -0.956,0.6 -1.08,-0.333 -0.139,-1.048 -0.123,-1.046 -1.619,-0.186 m -92.669,50.498 c 65.367,27.428 118.941,49.92 119.052,49.982 0.328,0.184 -2.772,1.971 -3.267,1.884 -0.222,-0.039 -19.303,-8.004 -42.401,-17.699 C 176.187,136.341 124.773,114.79 79.406,95.802 62.884,88.887 44.231,81.079 37.956,78.45 27.776,74.187 26.472,73.679 25.872,73.742 c -0.864,0.09 -0.875,0.107 0.475,-0.699 1.257,-0.751 3.48,-1.444 4.002,-1.248 0.174,0.065 53.799,22.56 119.167,49.987 M 25.436,75.4 c -2.033,4.216 -4.622,10.764 -6.45,16.314 -0.723,2.198 -1.354,3.999 -1.401,4.002 -0.14,0.008 -0.945,-1.72 -0.945,-2.029 0,-0.931 3.197,-9.666 5.433,-14.844 1.828,-4.233 1.975,-4.494 2.63,-4.664 0.54,-0.14 1.325,-0.278 1.401,-0.247 0.019,0.007 -0.282,0.668 -0.668,1.468 m 29.873,10.571 c 94.636,39.615 209.677,87.848 209.799,87.962 0.029,0.027 -0.027,0.197 -0.123,0.377 -0.204,0.381 -0.922,3.078 -2.156,8.099 -2.268,9.222 -3.936,17.606 -5.293,26.605 -0.347,2.3 -0.663,4.213 -0.701,4.252 -0.079,0.078 -8.02,-3.394 -8.242,-3.603 -0.078,-0.074 0.178,-0.683 0.586,-1.389 6.646,-11.522 1.916,-29.933 -8.842,-34.411 -5.959,-2.481 -12.639,-0.269 -16.807,5.564 -0.518,0.725 -1.554,1.924 -2.302,2.665 -2.921,2.892 -4.079,7.91 -2.959,12.826 0.147,0.648 0.251,1.195 0.231,1.215 -0.124,0.124 -34.88,-16.051 -34.955,-16.267 -0.029,-0.083 -0.169,-0.151 -0.31,-0.151 -0.427,0 -7.158,-3.235 -7.162,-3.442 -0.002,-0.106 -0.098,-0.157 -0.215,-0.112 -0.322,0.124 -21.836,-10.186 -44.321,-21.239 C 98.4,138.633 52.53,114.979 22.187,98.534 l -4.2,-2.276 0.031,-0.546 c 0.115,-2.024 7.045,-19.909 8.337,-21.515 0.227,-0.283 -2.485,-1.386 28.954,11.774 M 24.217,99.9 c 17.376,9.353 40.63,21.569 57.954,30.445 5.23,2.679 10.793,5.534 12.361,6.343 3.539,1.825 33.412,16.764 38.273,19.139 1.961,0.958 5.384,2.631 7.607,3.718 22.918,11.209 48.822,23.479 72.651,34.411 l 5.535,2.54 0.525,1.474 c 1.049,2.944 2.671,5.858 4.592,8.246 l 0.856,1.066 -0.677,-0.289 c -0.372,-0.16 -44.785,-18.818 -98.696,-41.464 -53.91,-22.646 -98.153,-41.288 -98.316,-41.426 -0.327,-0.277 -1.752,-3.213 -2,-4.119 -0.085,-0.314 -0.507,-2.032 -0.937,-3.819 -1.453,-6.038 -3.373,-12.274 -5.311,-17.247 -0.93,-2.389 -0.936,-2.405 -0.796,-2.405 0.048,0 2.919,1.524 6.379,3.387 m 353.918,12.522 c 0.8,1.119 0.801,1.122 0.157,0.454 -0.836,-0.867 -0.77,-0.878 -3.109,0.515 -1.098,0.654 -2.079,1.184 -2.179,1.178 -0.172,-0.011 -2.509,-2.542 -2.605,-2.822 -0.038,-0.109 2.771,-1.877 4.23,-2.663 0.477,-0.257 1.919,1.116 3.506,3.338 m -223.038,-1.679 c -0.16,0.034 -0.54,0.231 -0.844,0.437 -0.304,0.206 -0.69,0.419 -0.858,0.472 -0.617,0.196 -0.036,0.868 0.752,0.868 0.451,0 2.133,-1.125 2.082,-1.392 -0.053,-0.273 -0.672,-0.484 -1.132,-0.385 m -4.82,0.378 c -0.517,0.32 -0.673,0.606 -0.331,0.606 0.205,0 1.56,-0.763 1.56,-0.878 0,-0.184 -0.765,-0.014 -1.229,0.272 m 2.209,0.006 c -0.106,0.106 -0.495,0.195 -0.864,0.199 -0.598,0.005 -0.667,0.044 -0.634,0.358 0.023,0.216 -0.085,0.417 -0.277,0.52 -0.375,0.201 -0.407,0.449 -0.074,0.576 0.21,0.081 3.246,-1.577 3.246,-1.773 0,-0.163 -1.219,-0.057 -1.397,0.12 m 3.514,0.076 c 0.149,0.15 -1.484,1.151 -1.88,1.152 -0.607,0.003 -0.794,-0.251 -0.377,-0.514 1.094,-0.689 1.961,-0.934 2.257,-0.638 m -3.907,0.785 c -0.679,0.402 -1.272,0.693 -1.318,0.646 -0.113,-0.113 2.015,-1.381 2.315,-1.379 0.131,0.001 -0.318,0.331 -0.997,0.733 m 2.315,0.815 c -0.8,0.49 -1.42,0.947 -1.377,1.017 0.14,0.227 0.833,0.133 1.355,-0.184 0.364,-0.222 0.567,-0.264 0.709,-0.146 0.264,0.22 0.848,0.023 0.848,-0.285 0,-0.169 -0.085,-0.209 -0.277,-0.132 -0.694,0.278 -0.703,0.24 -0.04,-0.166 0.392,-0.24 0.741,-0.46 0.775,-0.487 0.084,-0.068 -0.311,-0.538 -0.438,-0.521 -0.055,0.007 -0.754,0.414 -1.555,0.904 m -2.823,-0.027 c -1.362,0.819 -1.432,1.367 -0.168,1.305 l 0.485,-0.024 -0.476,-0.068 c -0.79,-0.112 -0.774,-0.295 0.071,-0.815 0.809,-0.497 1.332,-0.606 1.725,-0.357 0.153,0.097 0.011,0.25 -0.515,0.559 -0.399,0.234 -0.726,0.465 -0.726,0.513 0,0.049 0.232,-0.049 0.515,-0.217 1.442,-0.854 1.452,-0.87 0.761,-1.227 -0.617,-0.319 -0.579,-0.327 -1.672,0.331 m 4.516,-0.443 c 0,0.164 -2.36,1.524 -2.464,1.42 -0.043,-0.043 0.477,-0.405 1.154,-0.805 1.404,-0.829 1.31,-0.786 1.31,-0.615 m 223.7,2.8 c 1.472,1.973 4.193,7.004 4.193,7.754 0,0.213 -0.207,1.195 -0.46,2.182 -2.34,9.141 -5.263,23.74 -6.522,32.576 -0.119,0.839 -0.246,1.269 -0.353,1.202 -0.102,-0.063 -0.131,-0.007 -0.072,0.145 0.179,0.467 -0.37,0.8 -53.37,32.382 -62.234,37.085 -53.836,32.246 -54.369,31.325 -1.389,-2.404 -3.784,-5.679 -5.952,-8.142 -1.099,-1.247 -1.221,-1.451 -1.157,-1.914 1.748,-12.604 6.396,-34.554 7.566,-35.733 0.191,-0.192 23.524,-14.16 51.852,-31.041 28.328,-16.88 52.575,-31.33 53.883,-32.11 l 2.377,-1.42 0.778,0.842 c 0.427,0.463 1.15,1.342 1.606,1.952 m -9.424,-1.886 c 1.297,0.522 1.361,0.593 0.847,0.93 l -0.425,0.279 -0.81,-0.81 c -0.445,-0.445 -0.769,-0.809 -0.72,-0.809 0.05,0 0.548,0.184 1.108,0.41 m -214.39,0.198 c -0.699,0.441 -0.844,0.66 -0.437,0.66 0.345,0 1.514,-0.804 1.411,-0.971 -0.121,-0.196 -0.22,-0.165 -0.974,0.311 m 1.91,0.869 c -0.713,0.447 -1.261,0.867 -1.219,0.935 0.131,0.213 0.653,0.135 1.197,-0.179 0.52,-0.299 0.531,-0.299 1.306,0.046 l 0.781,0.348 -0.526,0.333 c -1.225,0.775 -0.036,0.741 1.271,-0.037 0.649,-0.385 1.106,-0.702 1.016,-0.703 -0.09,-0.001 -0.303,0.094 -0.475,0.212 -0.172,0.117 -0.67,0.415 -1.105,0.663 l -0.793,0.451 0.476,-0.472 c 0.261,-0.259 0.523,-0.45 0.582,-0.424 0.058,0.026 0.359,-0.102 0.668,-0.284 0.309,-0.182 0.635,-0.286 0.725,-0.23 0.09,0.056 0.245,0.051 0.344,-0.01 0.116,-0.072 0.047,-0.182 -0.194,-0.312 -0.32,-0.17 -0.437,-0.155 -0.799,0.102 -0.515,0.367 -0.597,0.37 -1.402,0.048 -0.746,-0.299 -0.781,-0.407 -0.229,-0.703 0.379,-0.203 0.388,-0.232 0.128,-0.423 -0.36,-0.263 -0.251,-0.303 -1.752,0.639 m 1.176,-0.119 c -0.24,0.13 -0.436,0.31 -0.436,0.399 0,0.09 -0.058,0.127 -0.13,0.083 -0.072,-0.044 -0.365,0.062 -0.652,0.237 -0.287,0.174 -0.552,0.287 -0.588,0.25 -0.099,-0.098 1.726,-1.19 2.004,-1.198 0.131,-0.004 0.042,0.099 -0.198,0.229 m 163.998,32.165 c -29.28,17.462 -53.288,31.843 -53.351,31.957 -0.162,0.298 -2.082,8.072 -2.83,11.466 -1.399,6.337 -2.752,13.588 -3.663,19.625 l -0.332,2.198 0.645,0.734 c 2.291,2.609 5.591,7.12 6.224,8.51 0.1,0.219 0.258,0.368 0.351,0.331 0.094,-0.037 23.882,-14.199 52.864,-31.471 l 52.694,-31.405 0.34,-2.251 c 1.228,-8.133 3.72,-20.515 5.885,-29.245 l 0.76,-3.065 -0.929,-1.769 c -1.557,-2.967 -4.72,-7.423 -5.235,-7.379 -0.103,0.009 -24.143,14.303 -53.423,31.764 m -161.799,-30.59 -1.381,0.829 1.285,0.518 c 1.081,0.436 2.082,0.505 1.571,0.109 -0.322,-0.25 -1.818,-0.726 -1.863,-0.592 -0.063,0.191 -0.345,0.225 -0.345,0.04 0,-0.139 0.846,-0.67 1.054,-0.663 0.074,0.003 -0.004,0.11 -0.173,0.238 -0.169,0.128 -0.237,0.233 -0.151,0.233 0.087,0 0.225,-0.066 0.308,-0.147 0.093,-0.091 0.481,-0.006 1.014,0.221 0.812,0.345 1.276,0.374 1.276,0.08 0,-0.07 -0.321,-0.251 -0.713,-0.4 -0.393,-0.15 -0.713,-0.334 -0.713,-0.41 0,-0.075 -0.072,-0.137 -0.159,-0.137 -0.087,0 -0.158,0.107 -0.158,0.238 0,0.266 -0.248,0.32 -0.392,0.086 -0.284,-0.459 0.824,-0.633 1.612,-0.253 0.78,0.377 1.059,0.459 1.434,0.424 0.473,-0.045 0.116,-0.33 -0.964,-0.77 l -1.162,-0.474 -1.38,0.83 m 216.368,0.355 c 1.668,2.092 4.61,6.829 4.61,7.423 0,0.202 -3.223,0.898 -3.293,0.71 -0.252,-0.678 -2.377,-4.112 -3.382,-5.465 l -1.277,-1.72 1.08,-1.088 c 1.311,-1.322 1.086,-1.335 2.262,0.14 m -2.827,0.108 -0.849,0.86 0.79,1.002 c 1.075,1.363 2.215,3.087 3.211,4.857 l 0.833,1.478 -0.724,3.038 c -2.15,9.033 -4.283,19.634 -5.49,27.29 l -0.176,1.114 -51.36,30.606 -51.36,30.607 -0.953,-1.451 c -1.191,-1.813 -2.52,-3.584 -4.03,-5.368 l -1.17,-1.382 0.651,-3.926 c 1.225,-7.387 2.557,-13.791 4.527,-21.767 l 1.196,-4.845 52.803,-31.478 c 29.042,-17.314 52.836,-31.483 52.877,-31.487 0.04,-0.005 -0.309,0.378 -0.776,0.852 m -209.916,0.388 c -2.074,0.534 -1.631,1.995 0.634,2.094 1.201,0.053 1.502,-0.016 1.999,-0.46 1.093,-0.976 -0.748,-2.118 -2.633,-1.634 m 1.943,0.495 c -0.007,0.043 0.046,0.214 0.118,0.379 0.187,0.432 -0.299,0.73 -1.189,0.73 -0.891,0 -1.377,-0.298 -1.19,-0.73 0.072,-0.165 0.125,-0.336 0.119,-0.379 -0.007,-0.044 0.475,-0.08 1.071,-0.08 0.595,0 1.077,0.036 1.071,0.08 m -2.498,0.317 c -0.12,0.225 -0.12,0.408 0,0.634 0.094,0.174 0.107,0.317 0.03,0.317 -0.435,0 -0.717,-0.629 -0.426,-0.951 0.158,-0.175 0.35,-0.317 0.426,-0.317 0.077,0 0.064,0.142 -0.03,0.317 m 3.234,0.025 c 0.261,0.373 0.221,0.53 -0.192,0.751 -0.231,0.123 -0.268,0.057 -0.268,-0.475 0,-0.701 0.114,-0.769 0.46,-0.276 m 1.077,0.484 c -0.762,0.201 -0.82,0.56 -0.176,1.094 0.297,0.247 0.487,0.459 0.422,0.472 -0.409,0.083 -0.56,0.063 -0.951,-0.128 -0.24,-0.117 -0.436,-0.282 -0.436,-0.367 0,-0.085 -0.178,-0.154 -0.396,-0.154 -0.948,0 -0.218,0.853 0.958,1.119 1.489,0.338 2.288,-0.349 1.333,-1.147 l -0.536,-0.447 h 0.408 c 0.225,0 0.597,0.147 0.827,0.328 0.418,0.329 0.902,0.365 0.917,0.068 0.028,-0.518 -1.514,-1.063 -2.37,-0.838 m 0.127,0.57 c 0,0.158 0.216,0.447 0.48,0.642 0.475,0.352 0.505,0.656 0.065,0.656 -0.126,0 -0.228,-0.111 -0.228,-0.245 0,-0.135 -0.19,-0.409 -0.422,-0.608 -0.242,-0.209 -0.373,-0.441 -0.308,-0.548 0.174,-0.28 0.413,-0.22 0.413,0.103 m 213.421,5.933 c -0.05,0.284 -0.554,2.441 -1.119,4.794 -1.886,7.857 -3.705,16.888 -4.931,24.485 -0.316,1.961 -0.609,3.728 -0.649,3.927 -0.071,0.345 -0.844,-0.121 -2.751,-1.659 -0.271,-0.219 2.394,-14.597 4.181,-22.553 1.05,-4.675 2.012,-8.618 2.135,-8.755 0.086,-0.094 2.499,-0.671 3.085,-0.738 0.077,-0.009 0.099,0.216 0.049,0.499 m -8.138,32.812 c 0.683,0.517 1.182,0.991 1.109,1.054 -0.489,0.42 -104.848,62.462 -104.929,62.381 -0.096,-0.096 -0.527,-3.297 -0.454,-3.371 0.353,-0.353 102.737,-61.177 102.859,-61.106 0.095,0.057 0.732,0.525 1.415,1.042 m -103.619,16.131 c 0.697,0.779 1.284,1.469 1.305,1.534 0.021,0.065 -0.494,0.426 -1.144,0.802 l -1.181,0.684 -1.709,-1.159 c -0.94,-0.638 -1.709,-1.225 -1.709,-1.304 0,-0.127 2.883,-1.963 3.091,-1.97 0.043,-0.001 0.649,0.635 1.347,1.413 m -31.784,0.147 c 2.88,0.816 5.987,2.989 7.931,5.546 0.298,0.392 -0.082,0.057 -0.845,-0.745 -6.635,-6.976 -15.878,-6.512 -21.523,1.08 -1.014,1.363 -1.462,1.557 -0.589,0.255 3.415,-5.09 9.683,-7.65 15.026,-6.136 m -0.784,0.345 c 11.716,2.19 18.028,22.077 10.818,34.084 -0.802,1.335 -0.794,1.328 -1.228,1.011 -0.284,-0.208 -0.272,-0.257 0.295,-1.11 5.999,-9.038 3.421,-24.74 -5.051,-30.765 -5.095,-3.623 -11.326,-3.201 -15.872,1.076 -1.124,1.058 -2.921,2.149 -2.612,1.586 0.302,-0.55 2.279,-2.594 3.166,-3.274 3.164,-2.426 6.723,-3.311 10.484,-2.608 m 29.491,1.417 c 0.908,0.621 1.674,1.149 1.702,1.174 0.028,0.025 -0.052,0.247 -0.179,0.495 -0.126,0.248 -0.663,2.162 -1.193,4.254 -2.454,9.694 -4.203,18.278 -5.697,27.972 l -0.599,3.882 -2.03,0.131 c -2.45,0.158 -2.253,0.352 -1.934,-1.906 1.899,-13.418 7.075,-37.131 8.106,-37.131 0.096,0 0.916,0.508 1.824,1.129 m -29.174,-0.077 c 8.387,2.005 14.123,13.673 12.262,24.938 -0.632,3.824 -2.493,7.783 -4.12,8.766 -0.904,0.546 -0.952,0.536 -0.472,-0.093 0.546,-0.715 1.302,-2.381 1.599,-3.522 2.918,-11.217 -7.582,-26.48 -18.302,-26.603 l -1.822,-0.021 3.011,-1.81 c 3.679,-2.212 4.655,-2.418 7.844,-1.655 m -7.341,1.088 c -0.943,0.567 -2.334,1.389 -3.09,1.827 l -1.375,0.796 0.792,-0.743 c 1.02,-0.955 2.235,-1.734 3.724,-2.386 1.846,-0.808 1.827,-0.622 -0.051,0.506 m 1.953,3.229 c 12.694,4.28 19.774,24.572 10.876,31.169 l -0.614,0.455 0.806,-1.189 c 5.963,-8.788 -1.778,-25.947 -13.366,-29.627 -1.277,-0.406 -4.184,-0.595 -5.269,-0.344 -0.863,0.199 -0.857,0.094 0.017,-0.293 2.197,-0.971 4.989,-1.035 7.55,-0.171 m 14.946,1.116 c 0.423,0.721 0.22,0.592 -0.293,-0.185 -0.244,-0.371 -0.342,-0.59 -0.219,-0.488 0.124,0.102 0.354,0.405 0.512,0.673 m -18.749,-0.397 c 12.152,2.183 21.244,21.419 14.26,30.171 -4.873,6.107 -16.254,1.876 -21.918,-8.148 -6.654,-11.776 -2.459,-23.84 7.658,-22.023 m -4.262,2.551 c -10.27,2.891 -6.504,22.02 5.508,27.972 8.955,4.437 15.559,-3.438 11.964,-14.266 -2.909,-8.761 -11.393,-15.417 -17.472,-13.706 m 4.703,0.409 c 9.231,2.435 16.292,16.321 12.382,24.352 -3.367,6.918 -13.148,4.966 -19.007,-3.794 -7.404,-11.069 -3.486,-23.225 6.625,-20.558 m 17.322,26.108 c -0.241,0.452 -0.517,0.622 -1.202,0.746 -0.718,0.13 -0.667,0.026 0.29,-0.591 0.801,-0.516 1.136,-0.573 0.912,-0.155 m 0.95,0.026 c 0.322,0 0.142,0.917 -0.227,1.159 -0.805,0.527 -3.54,0.543 -3.104,0.017 0.104,-0.124 0.465,-0.225 0.807,-0.225 0.827,0 1.663,-0.367 1.797,-0.789 0.07,-0.219 0.194,-0.31 0.345,-0.252 0.13,0.049 0.302,0.09 0.382,0.09 m 17.277,1.633 c 2.96,3.581 4.513,6.054 4.648,7.401 0.057,0.566 0.147,1.279 0.2,1.584 0.078,0.448 -0.178,0.144 -1.335,-1.584 -1.369,-2.046 -2.872,-4.008 -4.537,-5.925 -0.826,-0.951 -0.808,-0.856 -0.479,-2.514 0.121,-0.614 0.16,-0.587 1.503,1.038 m -16.823,-0.269 c -0.364,0.679 -3.717,0.997 -4.306,0.407 -0.119,-0.119 0.243,-0.143 1.241,-0.08 1.755,0.11 2.42,-0.051 2.836,-0.689 0.365,-0.559 0.558,-0.254 0.229,0.362 m 4.763,1.176 c 2.952,1.302 4.205,1.936 4.651,2.355 1.903,1.786 5.85,7.064 7.219,9.651 l 0.192,0.363 -0.603,-0.25 c -0.332,-0.138 -6.148,-2.577 -12.925,-5.42 l -12.321,-5.171 0.99,-0.418 c 0.545,-0.23 1.489,-0.712 2.1,-1.071 l 1.109,-0.653 1.109,0.22 c 2.411,0.478 4.041,0.021 4.041,-1.133 0,-0.266 0.071,-0.385 0.199,-0.334 0.109,0.043 2.016,0.881 4.239,1.861 m 9.829,2.888 c 2.166,2.439 6.177,8.05 6.177,8.64 0,0.125 -2.93,1.146 -3.289,1.146 -0.101,0 -0.484,-0.517 -0.851,-1.149 -1.695,-2.917 -4.179,-6.297 -6.226,-8.473 -1.394,-1.481 -1.415,-1.429 0.62,-1.519 0.61,-0.027 1.37,-0.063 1.688,-0.08 0.544,-0.029 0.658,0.058 1.881,1.435"
       inkscape:connector-curvature="0"
       style="fill:#000000;fill-rule:evenodd;stroke:none" />
  </g>
  <path
     style="fill:url(#linearGradient891);fill-opacity:1;stroke:#000000;stroke-width:0.6654098;stroke-linecap:round;stroke-linejoin:miter;stroke-miterlimit:4;stroke-dasharray:none;stroke-dashoffset:0;stroke-opacity:1;opacity:0.75"
     d="m 357.01581,107.82557 c -17.88205,10.31242 -35.54042,21.07571 -53.31894,31.59049 -16.7401,10.05822 -33.3233,20.45699 -49.95487,30.68394 -0.89245,4.21422 -1.64116,7.04347 -2.67548,10.82188 -1.37343,6.4136 -2.76733,14.64016 -3.87151,21.13377 1.2002,2.96917 3.36017,3.34968 4.93868,6.13029 1.01393,2.06194 3.13876,0.45476 4.43236,-0.38306 32.21318,-19.06009 64.47801,-38.04061 96.40542,-57.57716 1.67688,-1.31093 4.55827,-2.01067 4.43312,-4.62925 1.56129,-9.90602 4.10135,-19.61898 5.73331,-29.51826 -0.53046,-2.64439 -2.74242,-4.69822 -4.21762,-6.90008 -0.51231,-0.55504 -1.01931,-1.45471 -1.90447,-1.35256 z"
     id="path819"
     inkscape:connector-curvature="0"
     sodipodi:nodetypes="cccccccccccc" />
  <path
     style="fill:url(#linearGradient829);fill-opacity:1;stroke:none;stroke-width:0.6654098;stroke-linecap:round;stroke-linejoin:miter;stroke-miterlimit:4;stroke-dasharray:none;stroke-dashoffset:0;stroke-opacity:1;opacity:0.75"
     d="M 10.160071,65.145663 C 7.5350232,65.996976 6.7783922,69.074796 5.7411272,71.319637 3.7800762,76.558888 0.44484323,80.206161 0.51892423,86.00215 0.89592723,87.973089 4.2714652,89.785389 5.6213792,90.931978 69.649861,125.41417 134.76515,157.89436 200.91711,188.10657 c 1.24042,0.93207 2.59,-0.46246 1.94169,-1.7792 -0.94013,-4.47442 0.0683,-9.40899 3.3737,-12.71312 3.24857,-4.14545 7.5897,-8.44482 13.2895,-8.12679 7.24768,0.0923 12.26962,6.66716 14.20486,13.09144 2.23524,6.94907 1.97481,14.72132 -1.4504,21.26637 -0.7937,1.3395 0.10571,2.74328 1.546,3.05623 2.20264,0.93739 4.34617,2.21335 6.6922,2.70824 1.72217,-0.87808 1.02975,-3.42426 1.677,-4.99681 1.81575,-11.53189 4.41839,-22.89926 7.18702,-34.23831 0.31379,-2.17883 -2.88839,-2.12945 -4.18703,-3.08449 C 169.07034,131.26844 92.906861,99.34288 16.696515,67.533851 14.527122,66.822988 12.41882,65.428212 10.160071,65.145663 Z"
     id="path821"
     inkscape:connector-curvature="0"
     sodipodi:nodetypes="ccccccccccccccccc" />
  <path
     style="fill:url(#linearGradient839);fill-opacity:1;stroke:none;stroke-width:0.6654098;stroke-linecap:round;stroke-linejoin:miter;stroke-miterlimit:4;stroke-dasharray:none;stroke-dashoffset:0;stroke-opacity:1;opacity:0.75"
     d="m 2.2389112,89.100329 c -1.36686697,1.331842 0.402798,3.348731 0.584562,4.909631 2.310734,6.44327 3.673398,13.19314 5.837368,19.68737 0.580433,1.98104 2.2490918,3.14444 4.1363158,3.77677 32.184081,13.93229 64.622965,27.27158 96.916063,40.94984 32.23795,13.52124 64.4177,27.1829 96.7029,40.58987 1.64995,0.50904 1.96207,-1.65978 0.96212,-2.54456 -1.92626,-2.4665 -2.63897,-5.66524 -4.58571,-8.07933 C 142.32874,160.9165 82.668572,131.33029 23.944104,100.21068 16.944794,96.53941 10.046348,92.67172 3.0160352,89.063192 c -0.259041,0.01238 -0.518083,0.02476 -0.777124,0.03714 z"
     id="path831"
     inkscape:connector-curvature="0" />
  <path
     style="fill:url(#linearGradient859);fill-opacity:1;stroke:none;stroke-width:0.6654098;stroke-linecap:round;stroke-linejoin:miter;stroke-miterlimit:4;stroke-dasharray:none;stroke-dashoffset:0;stroke-opacity:1;opacity:0.75"
     d="m 68.487674,29.858747 c -7.313732,3.490724 -14.164996,7.95336 -21.225593,11.945622 -9.995733,6.019068 -21.360022,12.686467 -31.037694,19.203283 -1.18416,1.856278 2.312289,1.665013 3.415746,2.302677 78.521288,33.376031 157.969927,65.813471 236.588927,98.955161 2.3318,-0.20904 4.21037,-2.298 6.35256,-3.24453 14.68787,-8.84608 29.52985,-17.44868 44.07727,-26.52068 1.09424,-0.43801 2.20365,-2.12752 0.61276,-2.74882 C 260.7599,109.91531 214.06035,90.517905 167.46198,70.884321 134.99462,57.344007 102.65278,43.496015 70.064615,30.250059 69.552343,30.089329 69.039967,29.809658 68.487674,29.858747 Z M 139.2018,103.68825 c 0.75733,1.71898 -2.01273,0.72249 -2.94833,1.08198 -1.28177,0.73023 -1.19326,-1.31096 -1.24401,-1.2883 1.30415,0.61017 2.79004,-0.0155 4.15658,-0.0701 z m 6.21011,3.62428 c 1.82116,0.49247 3.55948,1.41645 5.30714,2.08861 0.20538,1.14048 1.51306,1.28281 2.3575,1.13198 -1.28979,1.10511 -2.52089,-1.0238 -3.96401,-0.93392 -1.08325,-0.29293 -1.63296,-1.72807 -2.93176,-1.33349 -0.59446,-0.13735 -2.13236,-0.46575 -2.2399,-0.79569 0.50027,0.0467 0.97367,-0.1868 1.47103,-0.15749 z"
     id="path851"
     inkscape:connector-curvature="0"
     sodipodi:nodetypes="ccccccccccccccccccccccc" />
  <path
     style="fill:url(#linearGradient869);fill-opacity:1;stroke:none;stroke-width:0.6654098;stroke-linecap:round;stroke-linejoin:miter;stroke-miterlimit:4;stroke-dasharray:none;stroke-dashoffset:0;stroke-opacity:1;opacity:0.75"
     d="m 112.63449,3.5672083 c -4.52181,1.726213 -8.56106,4.624829 -12.811509,6.9421187 -3.45602,2.254489 -7.40593,3.911349 -10.51321,6.62316 -0.71172,2.038771 2.39132,2.271231 3.57615,3.09474 77.821439,32.471178 155.551809,65.197861 233.343389,97.754813 1.54677,0.67696 3.33881,1.69662 4.80719,0.26387 7.11381,-4.25985 14.27566,-8.47771 21.13639,-13.13133 1.02794,-1.97802 -2.08749,-2.2389 -3.23849,-3.0017 C 275.51338,71.165761 202.04351,40.330701 128.53323,9.5958423 123.31491,7.6171673 118.28162,4.9862503 112.88275,3.5617073 l -0.12929,-6.88e-4 z M 215.3558,58.15774 c 1.09211,0.312105 1.48013,1.949993 2.86848,1.323862 1.49981,-0.05587 0.8209,1.057106 -0.14305,0.698036 -0.76894,-0.368705 -1.58732,-0.375581 -1.80939,-1.300479 -0.31837,-0.67306 -2.58342,0.12807 -1.26953,-0.586627 0.115,-0.04944 0.22817,-0.114824 0.35349,-0.134792 z m 6.96385,3.431035 c 0.94053,1.023366 2.80588,-0.117996 3.39252,1.365123 -0.62711,-0.296338 -1.67695,-0.672165 -2.58995,-0.645767 -0.3695,-0.01198 -1.68102,-1.359493 -0.80257,-0.719356 z"
     id="path861"
     inkscape:connector-curvature="0" />
  <path
     style="fill:url(#linearGradient958);fill-opacity:1;stroke:#000000;stroke-width:0.6654098;stroke-linecap:round;stroke-linejoin:miter;stroke-miterlimit:4;stroke-dasharray:none;stroke-dashoffset:0;stroke-opacity:1;opacity:0.5"
     d="m 210.48261,173.88108 c -4.75956,-0.1299 -8.70208,4.51365 -8.11303,9.17281 0.0479,2.75574 -0.43607,5.68877 1.51131,7.96376 2.22189,3.73932 3.62644,8.33441 7.66425,10.58543 3.45472,2.60251 8.61145,3.79522 12.34045,1.08385 4.55488,-3.65459 4.14726,-10.30917 2.341,-15.27908 -2.4903,-6.56811 -8.21219,-13.31888 -15.74398,-13.52677 z"
     id="path871"
     inkscape:connector-curvature="0" />
  <path
     style="fill:url(#linearGradient881);fill-opacity:1;stroke:none;stroke-width:0.6654098;stroke-linecap:round;stroke-linejoin:miter;stroke-miterlimit:4;stroke-dasharray:none;stroke-dashoffset:0;stroke-opacity:1"
     d="m 219.33275,166.50347 c -3.17574,0.0517 -6.1965,1.38583 -10.01531,4.67949 3.74558,-0.85135 6.53599,-0.35524 8.17445,0.31945 7.31077,3.28137 13.21008,11.15848 14.17362,19.73789 0.37411,2.21339 -0.76745,6.95461 -2.22257,9.77542 1.49212,-0.45275 3.19383,-2.76079 3.47132,-4.07955 3.92705,-9.61604 2.04295,-21.09736 -6.24704,-27.7702 -2.26537,-1.74868 -4.45543,-2.73247 -7.33447,-2.6625 z"
     id="path873"
     inkscape:connector-curvature="0"
     sodipodi:nodetypes="cccccccc" />
  <path
     style="fill:url(#linearGradient895);fill-opacity:1;stroke:none;stroke-width:0.3327049;stroke-linecap:round;stroke-linejoin:miter;stroke-miterlimit:4;stroke-dasharray:none;stroke-dashoffset:0;stroke-opacity:1;opacity:0.75"
     d="m 75.564043,25.441732 c -0.959644,0.538372 -2.874453,0.831549 -2.541126,2.336529 0.795283,1.068795 2.335251,1.225043 3.446484,1.878597 27.971439,11.815009 56.001859,23.490964 83.993779,35.257835 49.23327,20.657351 98.48287,41.277887 147.66991,62.043457 1.25794,0.40594 1.65324,-1.1309 1.46416,-2.06797 0.15026,-1.07093 -0.31266,-2.1378 -1.47375,-2.31403 C 233.24744,91.08301 158.32852,59.689267 83.387817,28.349866 c -2.470525,-0.948845 -4.871682,-2.197691 -7.39299,-2.939946 -0.142651,0.0172 -0.300086,-0.06894 -0.430784,0.03181 z"
     id="path887"
     inkscape:connector-curvature="0" />
  <path
     style="fill:url(#linearGradient905);fill-opacity:1;stroke:none;stroke-width:0.3327049;stroke-linecap:round;stroke-linejoin:miter;stroke-miterlimit:4;stroke-dasharray:none;stroke-dashoffset:0;stroke-opacity:1;opacity:0.75"
     d="m 80.375677,22.752747 c -1.052227,0.242462 -2.29796,0.660695 -2.865386,1.64709 -0.392108,1.435164 1.528509,1.61755 2.400717,2.118696 66.149042,27.886025 132.372062,55.597018 198.561182,83.388227 9.89567,4.15156 19.79136,8.30311 29.68703,12.45467 1.42512,0.36743 1.51021,-1.32914 1.44972,-2.32311 0.19088,-1.08885 -0.68731,-1.81918 -1.64826,-2.06301 C 271.07066,102.37135 234.10724,86.940537 197.18077,71.42257 158.98614,55.421427 120.81783,39.356536 82.586009,23.444937 81.85912,23.207849 81.152026,22.777932 80.375677,22.752747 Z"
     id="path897"
     inkscape:connector-curvature="0" />
  <path
     style="fill:url(#linearGradient915);fill-opacity:1;stroke:none;stroke-width:0.3327049;stroke-linecap:round;stroke-linejoin:miter;stroke-miterlimit:4;stroke-dasharray:none;stroke-dashoffset:0;stroke-opacity:1;opacity:0.75"
     d="m 85.111321,20.209558 c -1.1185,0.179533 -2.669207,0.39599 -3.109186,1.608577 -0.07665,1.459566 1.767956,1.532091 2.713726,2.120372 38.800269,16.443642 77.694439,32.66541 116.542999,48.995005 35.63326,14.948678 71.26684,29.896598 106.90036,44.844608 1.4226,0.36741 1.51079,-1.32513 1.44972,-2.3183 0.18408,-1.06973 -0.67377,-1.80821 -1.63249,-2.03052 C 264.29737,94.94642 220.52541,76.683244 176.80363,58.301197 147.38402,45.994249 118.03124,33.526063 88.535351,21.403292 c -1.13559,-0.374361 -2.22914,-1.058784 -3.42403,-1.193734 z"
     id="path907"
     inkscape:connector-curvature="0" />
  <path
     style="fill:url(#linearGradient925);fill-opacity:1;stroke:none;stroke-width:0.3327049;stroke-linecap:round;stroke-linejoin:miter;stroke-miterlimit:4;stroke-dasharray:none;stroke-dashoffset:0;stroke-opacity:1;opacity:0.75"
     d="m 88.432321,17.582124 c -0.91399,0.360167 -2.39782,1.211974 -1.70039,2.396704 1.21395,1.021417 2.88762,1.358617 4.29099,2.082002 57.009549,24.035895 114.090709,47.90308 171.125219,71.87909 15.34837,6.41857 30.65648,12.9349 46.0269,19.2996 1.19939,0.35389 1.65949,-1.08884 1.39132,-2.00235 -0.11619,-1.51104 -2.03582,-1.48194 -3.0694,-2.13377 C 234.70968,78.998396 162.9151,48.908235 91.116491,18.831711 c -1.00077,-0.254061 -1.56379,-1.654144 -2.68417,-1.249587 z"
     id="path917"
     inkscape:connector-curvature="0" />
  <path
     style="fill:url(#linearGradient935);fill-opacity:1;stroke:none;stroke-width:0.3327049;stroke-linecap:round;stroke-linejoin:miter;stroke-miterlimit:4;stroke-dasharray:none;stroke-dashoffset:0;stroke-opacity:1;opacity:0.75"
     d="m 70.804332,28.280985 c -1.278379,-0.181477 -2.475371,1.753011 -1.073874,2.44622 35.153352,14.330944 70.081632,29.229743 105.115052,43.872559 41.55756,17.494766 83.21547,34.812796 124.67749,52.492086 2.67789,1.2185 5.49842,2.24512 8.08467,3.65736 0.61003,0.86807 2.12079,0.45135 2.01158,-0.67018 0.13055,-1.03494 0.0422,-2.34674 -1.23836,-2.54144 C 260.16223,106.97326 211.81505,86.711404 163.49417,66.388596 133.86693,53.979679 104.2773,41.479563 74.576533,29.247613 73.363314,28.806939 72.115643,28.284517 70.804332,28.280985 Z"
     id="path927"
     inkscape:connector-curvature="0" />
  <path
     style="fill:url(#linearGradient945);fill-opacity:1;stroke:#000000;stroke-width:0.47051579;stroke-linecap:round;stroke-linejoin:miter;stroke-miterlimit:4;stroke-dasharray:none;stroke-dashoffset:0;stroke-opacity:1;opacity:0.75"
     d="m 12.435142,62.966573 c -1.244555,0.120758 -2.7301408,1.683428 -1.436018,2.738794 34.965852,14.663097 69.99275,29.237743 104.962096,43.914733 44.14601,18.51595 88.3247,36.96881 132.41673,55.60386 1.29749,1.57955 3.17316,0.009 4.45687,-0.72604 1.36255,-1.29405 -0.71823,-2.15543 -1.78834,-2.47833 C 172.11422,128.89131 93.186571,95.75209 14.243174,62.650484 c -0.644292,-0.134271 -1.203299,0.137448 -1.808032,0.316089 z"
     id="path937"
     inkscape:connector-curvature="0" />
  <path
     style="fill:url(#linearGradient955);fill-opacity:1;stroke:none;stroke-width:0.47051579;stroke-linecap:round;stroke-linejoin:miter;stroke-miterlimit:4;stroke-dasharray:none;stroke-dashoffset:0;stroke-opacity:1;opacity:0.75"
     d="m 14.41923,61.770202 c -1.490468,0.08386 11.034884,6.519774 12.343268,6.680416 75.006662,31.714222 150.176932,63.044382 225.214012,94.684712 1.24166,0.56309 1.12701,2.39978 2.4762,2.93429 1.48211,0.45698 2.85391,-0.92991 3.86213,-1.85277 0.89941,-1.45566 -1.13032,-2.02192 -2.111,-2.43924 C 181.09373,130.45021 106.10215,98.83779 31.006344,67.475613 29.569959,66.981673 15.949633,61.897685 14.41923,61.770202 Z"
     id="path947"
     inkscape:connector-curvature="0"
     sodipodi:nodetypes="cccccccc" />
  <path
     style="fill:url(#linearGradient973);fill-opacity:1;stroke:none;stroke-width:0.6654098;stroke-linecap:round;stroke-linejoin:miter;stroke-miterlimit:4;stroke-dasharray:none;stroke-dashoffset:0;stroke-opacity:1;opacity:0.75"
     d="m 118.99717,0.0697884 c -2.0519,0.9230819 -3.28804,1.6273675 -5.4912,3.1528859 0.88434,0.361229 5.69248,2.141839 7.75027,3.022638 77.64548,32.8997767 154.26392,65.0586187 232.02378,97.6873977 1.92034,-8.5e-4 3.52156,-1.67541 5.05955,-2.70343 0.8704,-2.11446 -2.43213,-2.17189 -3.61029,-3.04585 C 283.66067,68.173251 212.47048,38.448624 141.29719,8.6875963 c -7.27671,-2.853131 -14.36396,-6.294897 -21.83718,-8.59305 -0.15319,-0.021337 -0.3082,-0.031591 -0.46284,-0.0247579 z"
     id="path957"
     inkscape:connector-curvature="0"
     sodipodi:nodetypes="ccccccccc" />
  <path
     style="opacity:0.5;fill:#000000;fill-opacity:1;stroke:none;stroke-width:0.47051579;stroke-linecap:round;stroke-linejoin:miter;stroke-miterlimit:4;stroke-dasharray:none;stroke-dashoffset:0;stroke-opacity:1"
     d="m 232.49122,202.44417 c -1.72749,1.89305 -4.4701,-0.041 -6.44823,1.33973 -0.72926,0.50605 -1.99859,0.73445 -2.4052,1.48951 8.14499,3.61362 16.38023,7.05607 24.66082,10.34828 0.29898,-0.58278 -0.73462,-1.34674 -0.93181,-1.9328 -2.00244,-2.77653 -3.84391,-5.84095 -6.61835,-7.91606 -2.81755,-0.92625 -5.52771,-2.21006 -8.25723,-3.32866 z"
     id="path883"
     inkscape:connector-curvature="0" />
  <path
     style="opacity:1;fill:#000000;fill-opacity:1;stroke:none;stroke-width:0.47051579;stroke-linecap:round;stroke-linejoin:miter;stroke-miterlimit:4;stroke-dasharray:none;stroke-dashoffset:0;stroke-opacity:1"
     d="m 354.82369,149.48896 c -27.91822,17.21519 -56.51891,33.82163 -84.7204,50.56736 -5.52035,3.22837 -11.1131,6.43343 -16.69722,9.49547 -0.13042,0.80009 0.45787,1.93412 0.69983,2.68629 3.78164,-1.93993 7.46313,-4.35853 11.19978,-6.48615 30.97426,-18.37743 61.97975,-36.70584 92.83743,-55.27725 0.63104,-0.17423 0.80699,-0.79559 0.13811,-1.0786 -0.96585,-1.03004 -2.06269,-1.31403 -3.09295,-0.14136 l -0.20947,0.13459 z"
     id="path893"
     inkscape:connector-curvature="0"
     sodipodi:nodetypes="cccccccccc" />
  <path
     style="opacity:1;fill:#000000;fill-opacity:1;stroke:none;stroke-width:0.47051579;stroke-linecap:round;stroke-linejoin:miter;stroke-miterlimit:4;stroke-dasharray:none;stroke-dashoffset:0;stroke-opacity:1"
     d="m 365.6923,115.81376 c -1.03826,0.0939 -2.55398,0.39206 -2.43839,1.77219 -1.85381,9.76099 -3.97069,19.47995 -5.72255,29.25467 -0.31092,0.55783 -0.67923,1.39882 0.17991,1.69504 0.42982,0.4211 1.484,1.31819 1.64028,0.18934 1.60214,-9.01486 3.25305,-18.02997 5.35601,-26.94882 0.34407,-1.96542 1.05639,-3.998 1.14619,-5.94297 -0.05,-0.0234 -0.1079,-0.0202 -0.16145,-0.0194 z"
     id="path895"
     inkscape:connector-curvature="0" />
  <path
     style="opacity:1;fill:#000000;fill-opacity:1;stroke:none;stroke-width:0.47051579;stroke-linecap:round;stroke-linejoin:miter;stroke-miterlimit:4;stroke-dasharray:none;stroke-dashoffset:0;stroke-opacity:1"
     d="m 360.1622,106.77895 c -1.84534,1.04562 -1.14202,2.33445 0.10117,3.56363 1.39945,1.69276 2.39439,3.6583 3.47647,5.54072 0.714,-0.071 1.79554,-0.20653 2.22284,-0.79217 -1.42675,-2.82028 -3.18035,-5.55003 -5.25838,-7.93895 -0.19034,-0.0921 -0.28983,-0.44476 -0.5421,-0.37323 z"
     id="path898"
     inkscape:connector-curvature="0" />
  <path
     style="opacity:1;fill:#000000;fill-opacity:1;stroke:none;stroke-width:0.08317623;stroke-linecap:round;stroke-linejoin:miter;stroke-miterlimit:4;stroke-dasharray:none;stroke-dashoffset:0;stroke-opacity:1"
     d="m 247.19468,202.05564 c -0.12892,0.4629 -0.25047,1.01989 -0.0183,1.47542 0.77718,1.03414 1.66737,1.97905 2.45095,3.00929 1.28993,1.61452 2.42839,3.33838 3.61525,5.02812 0.13377,0.12765 0.23853,0.40584 0.4545,0.37547 0.13097,-0.17908 -0.007,-0.4333 -0.003,-0.64072 -0.10841,-0.57701 -0.0826,-1.19421 -0.28801,-1.75143 -0.21396,-0.2123 -0.5674,-0.19697 -0.79842,-0.39815 -0.61404,-0.43003 -0.83312,-1.19094 -1.27909,-1.76351 -1.25594,-1.82855 -2.79881,-3.4433 -3.98689,-5.31248 -0.0478,-0.0452 -0.088,-0.0494 -0.14666,-0.022 z"
     id="path900"
     inkscape:connector-curvature="0" />
  <path
     style="opacity:0.5;fill:url(#linearGradient910);fill-opacity:1;stroke:none;stroke-width:0.16635245;stroke-linecap:round;stroke-linejoin:miter;stroke-miterlimit:4;stroke-dasharray:none;stroke-dashoffset:0;stroke-opacity:1"
     d="m 249.59743,166.06325 c -0.36447,0.27587 -0.32418,0.86717 -0.49465,1.26747 -2.63589,10.70943 -5.02694,21.48789 -6.83267,32.36985 -0.28917,1.33253 -0.48743,2.67792 -0.63578,4.03081 -0.005,0.45093 -0.30949,0.83445 -0.3762,1.25184 0.47961,0.22964 1.08855,0.0192 1.60857,0.051 0.78227,-0.0511 1.568,-0.0782 2.34703,-0.16377 0.26201,-0.69056 0.25403,-1.50751 0.41525,-2.24399 1.63259,-10.89169 3.82494,-21.70374 6.66869,-32.34773 0.16305,-0.69633 0.44986,-1.3898 0.63627,-2.04752 -1.04349,-0.75123 -2.10843,-1.56084 -3.26276,-2.16124 -0.0239,-0.006 -0.0489,-0.0104 -0.0737,-0.007 z"
     id="path902"
     inkscape:connector-curvature="0" />
  <path
     style="opacity:0.5;fill:#000000;fill-opacity:1;stroke:none;stroke-width:0.16635245;stroke-linecap:round;stroke-linejoin:miter;stroke-miterlimit:4;stroke-dasharray:none;stroke-dashoffset:0;stroke-opacity:1"
     d="m 244.16134,205.06678 c -0.90007,0.0516 -1.83157,0.0181 -2.70566,0.24689 -0.21269,0.32601 0.30746,0.62203 0.44382,0.88087 2.65778,2.88944 4.96606,6.08116 6.98062,9.44386 0.2129,0.34133 0.53646,0.91722 1.0242,0.63563 0.88283,-0.30253 1.84331,-0.49353 2.64067,-0.98464 0.26782,-0.55059 -0.28152,-1.10079 -0.51035,-1.57095 -1.86193,-2.77582 -3.84523,-5.48807 -6.09757,-7.96209 -0.35537,-0.42668 -0.84432,-0.78833 -1.43221,-0.69267 -0.11452,-0.001 -0.22901,0.002 -0.34352,0.003 z"
     id="path912"
     inkscape:connector-curvature="0" />
  <path
     style="opacity:0.5;fill:url(#linearGradient928);fill-opacity:1;stroke:none;stroke-width:0.3327049;stroke-linecap:round;stroke-linejoin:miter;stroke-miterlimit:4;stroke-dasharray:none;stroke-dashoffset:0;stroke-opacity:1"
     d="m 352.57065,104.75132 c -3.6985,2.77498 -7.79391,5.09873 -11.71774,7.57803 -3.60255,2.26081 -7.55691,4.34839 -11.12104,6.65116 -0.24262,0.50017 1.00688,0.86092 0.20732,1.38309 -0.76295,0.34348 -1.60829,1.14386 -2.3287,1.23317 -1.38449,-1.49277 -0.169,-1.33707 -2.65275,-0.0859 0.4717,0.36 0.79153,0.56514 0.72481,1.20572 -0.68355,0.75276 -1.63212,1.11345 -2.46755,1.67437 -1.30053,-1.56617 -0.4616,-1.62115 -2.70411,-0.0435 0.31467,0.29206 1.16447,0.79583 0.55052,1.20282 -0.73726,0.4839 -1.47277,1.26167 -2.37091,1.33521 -1.3395,-1.64056 -1.04383,-1.31377 -2.83497,-0.21193 0,0 1.38887,1.38411 0.51872,1.7538 -0.67134,0.48795 -1.41954,0.85556 -2.1309,1.2795 -0.72693,-0.43727 -1.13556,-2.31583 -2.23784,-1.19835 -1.23327,0.54088 -0.91506,0.9765 -0.23932,1.29842 0.24979,0.47121 0.99728,0.78666 0.29707,1.23097 -0.79267,0.38592 -1.57077,1.06898 -2.40562,1.24998 -0.53687,-0.25241 -0.79409,-1.1152 -1.37648,-1.16981 -2.28519,2.01886 -5.0897,3.3747 -7.62887,5.05723 -14.0638,8.62663 -28.29885,16.97338 -42.44609,25.45759 -1.13625,0.20173 -0.87009,0.83971 -0.16814,1.44112 0.53951,0.43694 0.14663,1.03471 -0.38685,1.21176 -0.46807,0.55863 -0.88098,1.17129 -1.579,1.50508 -0.48902,0.12108 -0.54921,0.83858 0.0351,0.63373 28.5035,-16.88457 56.92696,-33.90672 85.39731,-50.8482 4.95428,-2.99182 10.0028,-5.89121 14.89669,-8.94493 -0.06,-0.48979 -0.42807,-1.24518 -0.95593,-0.63628 -0.83324,0.91507 -1.41555,-0.0368 -2.04541,-0.66269 -0.25176,-0.20244 -0.48443,-0.54567 -0.82926,-0.58126 z"
     id="path920"
     inkscape:connector-curvature="0"
     sodipodi:nodetypes="ccccccccccccccccccccccccccccccc" />
  <path
     style="opacity:0.5;fill:url(#linearGradient940);fill-opacity:1;stroke:none;stroke-width:0.3327049;stroke-linecap:round;stroke-linejoin:miter;stroke-miterlimit:4;stroke-dasharray:none;stroke-dashoffset:0;stroke-opacity:1"
     d="m 347.73598,112.14534 c -31.55367,18.85118 -63.17566,37.6071 -94.66501,56.55398 -1.76821,4.79998 -2.61272,9.87909 -3.75048,14.85166 -1.42978,6.98238 -2.84357,14.0011 -3.75117,21.06005 0.95567,1.78462 2.56548,3.15256 3.6892,4.83565 1.19967,1.6979 2.61779,3.31374 3.44624,5.23085 -0.008,0.83162 0.91456,0.0989 1.26338,-0.0663 15.62674,-9.06604 31.07898,-18.43146 46.61895,-27.64584 18.7314,-11.21462 37.55773,-22.27373 56.1986,-33.63764 1.2464,-0.91412 2.83781,-1.51942 3.78521,-2.7691 1.25853,-6.60375 2.22118,-13.26264 3.65676,-19.83443 1.09707,-5.4305 2.40548,-10.82477 3.6678,-16.21277 -1.86624,-3.65672 -3.66098,-7.62169 -6.7792,-10.35362 -4.46009,2.66251 -8.92019,5.32502 -13.38028,7.98752 z m 12.66952,-5.69879 c 1.20828,0.78434 1.86379,2.23535 2.73934,3.3569 1.17654,1.87432 2.55607,3.77271 3.28927,5.81179 -2.74379,11.38698 -5.24668,22.84965 -6.91749,34.44824 -35.2206,20.96156 -70.39012,42.01007 -105.66853,62.87377 -2.09701,-3.40047 -4.54509,-6.57627 -7.12272,-9.62842 1.24807,-8.29101 2.72052,-16.56933 4.62816,-24.73089 0.78097,-2.79835 1.33411,-5.69848 2.11184,-8.47224 3.76295,-2.72984 7.88227,-5.01455 11.80876,-7.5278 18.42562,-11.42707 36.91819,-22.74351 55.58227,-33.77884 11.65812,-6.91208 23.25573,-13.95866 35.02953,-20.65588 0.6394,-0.40879 1.34913,-0.64925 2.10086,-0.58768 0.87639,-0.19903 1.54832,-0.92802 2.41871,-1.10895 z"
     id="path932"
     inkscape:connector-curvature="0" />
  <path
     style="opacity:0.5;fill:#000000;fill-opacity:1;stroke:none;stroke-width:0.05881447;stroke-linecap:round;stroke-linejoin:miter;stroke-miterlimit:4;stroke-dasharray:none;stroke-dashoffset:0;stroke-opacity:1"
     d="m 358.40878,100.76681 c -0.0919,0.1653 -0.0672,0.41864 -0.26971,0.50471 -1.04885,0.72855 -2.01961,1.59177 -3.16771,2.16078 -0.19062,0.10044 -0.40389,0.14703 -0.58999,0.25658 -0.0795,0.16807 0.13989,0.29295 0.21589,0.4227 0.68284,0.79053 1.39478,1.55726 2.15247,2.27683 0.17372,0.0624 0.34129,-0.10713 0.50357,-0.16147 1.20677,-0.6126 2.32372,-1.38352 3.53818,-1.97895 0.24521,-0.12384 0.57045,-0.21345 0.79667,-0.001 0.28301,0.21319 0.50279,0.49985 0.78621,0.71127 0.16091,0.0519 0.17631,-0.16019 0.0754,-0.23623 -0.88153,-1.24631 -1.78705,-2.50217 -2.94548,-3.50913 -0.30666,-0.23275 -0.68217,-0.56961 -1.09555,-0.44563 z"
     id="path946"
     inkscape:connector-curvature="0" />
  <path
     style="opacity:0.5;fill:#000000;fill-opacity:1;stroke:none;stroke-width:0.16635245;stroke-linecap:round;stroke-linejoin:miter;stroke-miterlimit:4;stroke-dasharray:none;stroke-dashoffset:0;stroke-opacity:1"
     d="m 212.76707,170.68391 c -1.39938,0.0647 -2.9034,0.22561 -4.09847,1.007 0.001,0.31285 0.42725,0.0385 0.61139,0.0856 2.40598,-0.14985 4.89624,0.0375 7.06638,1.19098 3.73093,1.72235 6.73138,4.74584 9.02128,8.11714 2.67895,4.05516 4.44283,8.87271 4.32877,13.76896 -0.0626,2.64693 -0.87411,5.27668 -2.41715,7.44105 -0.21115,0.16404 0.008,0.4402 0.1983,0.24428 1.52304,-1.17036 2.75447,-2.76589 3.26377,-4.63895 0.57121,-1.66879 0.87964,-3.4265 0.77315,-5.19356 -0.20545,-5.43859 -2.49604,-10.67207 -5.87657,-14.88329 -2.62693,-3.21898 -6.11395,-5.94084 -10.21737,-6.90835 -0.87137,-0.18065 -1.76446,-0.24889 -2.65348,-0.23088 z"
     id="path948"
     inkscape:connector-curvature="0" />
  <path
     style="opacity:0.5;fill:#000000;fill-opacity:1;stroke:none;stroke-width:0.16635245;stroke-linecap:round;stroke-linejoin:miter;stroke-miterlimit:4;stroke-dasharray:none;stroke-dashoffset:0;stroke-opacity:1"
     d="m 210.57565,171.80576 c -1.32727,0.0771 -2.81022,0.22322 -3.84418,1.14505 -0.83058,0.9584 -1.74281,1.88938 -2.34478,3.01256 0.15873,0.31984 0.48264,-0.19954 0.66382,-0.30965 1.84078,-1.72585 4.51043,-2.33431 6.94803,-1.90034 3.63956,0.4635 6.86466,2.57676 9.32119,5.21945 3.90234,4.18241 6.48617,9.79426 6.44456,15.55914 -0.003,3.15474 -1.22229,6.4875 -3.80922,8.44659 -1.60145,1.21664 -3.66417,1.47698 -5.61437,1.60497 -0.23973,0.35277 0.63126,0.23264 0.86975,0.34395 1.68697,0.26487 3.47798,0.12473 5.06161,-0.54061 2.8308,-1.23677 4.48756,-4.19045 5.04624,-7.11762 0.32796,-1.87143 0.27254,-3.80295 0.0444,-5.68338 -1.05733,-6.34776 -4.48921,-12.30999 -9.52467,-16.33143 -2.62274,-2.07031 -5.86938,-3.5278 -9.26242,-3.44868 z"
     id="path950"
     inkscape:connector-curvature="0" />
</svg>
