<svg id="svg" xmlns="http://www.w3.org/2000/svg" xmlns:xlink="http://www.w3.org/1999/xlink" width="400" height="235.8161648177496" viewBox="0, 0, 400,235.8161648177496"><g id="svgg"><path id="path0" d="M133.914 8.900 C 131.962 9.540,131.689 9.695,115.135 19.569 C 105.895 25.081,82.076 39.274,62.203 51.110 C 42.330 62.947,25.535 72.959,24.881 73.360 C 23.511 74.200,23.593 74.067,21.571 78.764 C 19.063 84.591,16.174 92.561,16.167 93.670 C 16.166 93.893,16.775 95.605,17.522 97.474 C 20.133 104.015,22.530 111.820,24.088 118.859 C 24.431 120.411,25.952 124.026,26.444 124.459 C 26.587 124.584,71.377 143.456,125.978 166.395 L 225.252 208.102 226.364 209.132 C 229.537 212.070,233.050 213.621,236.704 213.698 L 238.621 213.738 252.078 219.389 C 259.480 222.497,265.642 225.041,265.771 225.044 C 267.655 225.075,265.819 226.133,322.979 192.094 C 352.310 174.627,376.501 160.157,376.737 159.938 C 377.233 159.479,377.219 159.543,378.133 153.803 C 379.553 144.897,381.786 134.054,384.083 124.912 C 384.677 122.550,384.698 122.754,383.647 120.681 C 381.038 115.536,378.902 112.273,376.202 109.310 L 375.515 108.556 255.825 58.398 C 189.996 30.812,136.082 8.243,136.015 8.246 C 135.949 8.249,135.004 8.543,133.914 8.900 M255.468 58.786 C 320.796 86.179,374.340 108.628,374.454 108.674 C 374.568 108.720,373.613 109.384,372.332 110.151 C 370.485 111.256,369.934 111.517,369.669 111.414 C 368.789 111.073,131.580 11.517,131.338 11.388 C 131.161 11.294,130.825 11.303,130.411 11.415 C 129.425 11.680,129.525 11.537,130.863 10.767 C 132.472 9.840,135.215 8.871,136.054 8.933 C 136.463 8.963,178.750 26.617,255.468 58.786 M250.283 61.587 C 315.849 89.096,369.671 111.697,369.889 111.811 C 370.107 111.925,370.554 112.341,370.881 112.737 L 371.478 113.456 370.168 112.922 C 369.448 112.627,315.087 89.829,249.366 62.258 C 180.374 33.315,129.687 12.135,129.434 12.143 C 129.192 12.151,129.025 12.126,129.064 12.088 C 129.148 12.004,130.582 11.603,130.870 11.583 C 130.982 11.575,184.718 34.077,250.283 61.587 M249.326 62.527 C 314.939 90.060,368.621 112.626,368.621 112.673 C 368.621 112.720,363.379 115.880,356.972 119.696 L 345.324 126.634 225.600 76.397 C 113.774 29.475,105.844 26.172,105.387 26.332 C 105.117 26.426,104.863 26.468,104.821 26.427 C 104.675 26.281,127.446 12.809,127.949 12.744 C 128.223 12.708,128.661 12.611,128.922 12.528 C 129.184 12.446,129.540 12.398,129.715 12.423 C 129.889 12.447,183.714 34.994,249.326 62.527 M225.534 76.630 C 342.332 125.639,345.101 126.810,345.668 127.462 C 346.327 128.220,346.342 128.186,344.985 129.007 L 343.978 129.616 343.185 128.849 C 342.405 128.095,340.546 127.308,223.138 78.050 C 157.548 50.533,103.718 27.932,103.517 27.827 C 103.045 27.581,104.780 26.558,105.803 26.480 C 105.901 26.472,159.780 49.040,225.534 76.630 M102.174 28.577 C 101.553 28.954,101.181 29.090,100.396 29.225 L 99.762 29.334 100.623 28.808 C 101.190 28.461,101.685 28.281,102.072 28.281 L 102.660 28.281 102.174 28.577 M223.059 78.280 L 342.393 128.350 343.118 129.165 L 343.843 129.979 345.099 129.228 C 345.790 128.815,346.418 128.422,346.494 128.355 C 346.570 128.287,346.373 127.916,346.056 127.529 L 345.479 126.825 357.169 119.846 L 368.859 112.866 369.789 113.806 L 370.720 114.746 371.403 114.346 L 372.086 113.946 372.410 114.400 L 372.734 114.855 322.395 144.854 L 272.056 174.852 271.765 174.492 C 271.337 173.964,271.338 173.963,273.056 172.956 C 274.907 171.871,274.867 171.978,273.834 170.886 C 273.388 170.415,273.049 170.007,273.081 169.980 C 273.112 169.952,284.721 163.029,298.879 154.594 L 324.619 139.258 325.220 139.954 L 325.821 140.650 326.645 140.199 C 327.099 139.951,327.746 139.574,328.084 139.361 L 328.698 138.973 327.986 138.159 C 327.168 137.224,327.161 137.286,328.131 136.767 L 328.871 136.371 329.619 137.181 L 330.368 137.992 331.741 137.181 C 333.357 136.227,333.290 136.399,332.430 135.417 L 331.738 134.628 212.383 84.548 C 146.737 57.005,93.027 34.427,93.027 34.375 C 93.027 34.324,93.366 34.100,93.780 33.878 L 94.532 33.474 213.788 83.504 L 333.043 133.533 333.979 134.415 L 334.915 135.297 336.237 134.506 C 337.784 133.582,337.787 133.571,336.807 132.610 C 336.073 131.890,333.106 130.634,217.670 82.199 C 152.559 54.880,98.864 32.349,98.348 32.131 L 97.409 31.734 98.091 31.304 C 98.543 31.019,98.914 30.898,99.189 30.947 C 99.417 30.987,153.223 53.525,218.758 81.030 L 337.911 131.041 338.647 131.839 L 339.382 132.637 340.571 131.920 C 341.224 131.526,341.864 131.142,341.992 131.067 C 342.265 130.907,341.102 129.510,340.412 129.168 C 340.087 129.007,295.786 110.414,102.712 29.403 L 101.859 29.045 102.554 28.629 C 102.936 28.400,103.356 28.212,103.487 28.211 C 103.617 28.210,157.425 50.741,223.059 78.280 M221.078 79.316 C 338.623 128.632,340.344 129.360,341.106 130.109 L 341.879 130.869 340.631 131.595 L 339.382 132.321 338.669 131.545 L 337.956 130.769 218.907 80.832 C 153.430 53.367,99.574 30.768,99.227 30.613 L 98.596 30.330 99.258 29.973 C 99.955 29.597,101.395 29.156,101.664 29.236 C 101.751 29.262,155.487 51.798,221.078 79.316 M97.850 31.169 C 97.532 31.401,95.880 31.907,95.777 31.804 C 95.615 31.642,97.059 30.967,97.568 30.967 C 98.059 30.967,98.093 30.991,97.850 31.169 M215.848 81.684 C 351.215 138.495,335.928 132.027,336.700 132.818 C 337.398 133.533,337.409 133.510,335.952 134.403 L 334.945 135.021 334.231 134.256 L 333.518 133.491 214.976 83.759 C 149.778 56.407,95.905 33.795,95.259 33.511 L 94.084 32.996 94.942 32.560 C 96.044 32.000,96.499 31.858,96.989 31.918 C 97.207 31.945,150.693 54.340,215.848 81.684 M93.364 33.681 C 93.678 33.591,93.662 33.623,93.265 33.874 C 92.851 34.137,91.546 34.555,91.174 34.545 C 91.104 34.543,91.437 34.298,91.915 34.000 C 92.451 33.667,92.822 33.523,92.885 33.625 C 92.943 33.717,93.153 33.742,93.364 33.681 M211.235 84.325 C 348.375 141.863,331.553 134.738,332.245 135.583 L 332.799 136.259 331.705 136.909 C 330.362 137.707,330.520 137.716,329.561 136.785 C 328.772 136.019,327.476 135.470,209.667 86.042 C 144.164 58.559,90.339 35.993,90.056 35.894 L 89.542 35.715 90.532 35.221 C 91.653 34.661,91.874 34.578,92.297 34.561 C 92.462 34.554,145.984 56.948,211.235 84.325 M88.768 36.368 C 88.975 36.304,89.107 36.293,89.061 36.342 C 88.816 36.606,87.736 37.252,87.397 37.337 C 87.181 37.391,87.005 37.489,87.005 37.555 C 87.005 37.697,87.808 37.570,88.036 37.392 C 88.400 37.108,326.796 137.344,327.556 138.101 C 328.364 138.906,328.359 138.924,327.092 139.678 C 325.896 140.391,325.969 140.395,325.206 139.567 C 324.589 138.898,321.501 137.592,204.857 88.656 C 139.013 61.032,85.164 38.391,85.192 38.342 C 85.220 38.293,85.531 38.115,85.883 37.946 C 86.234 37.777,86.506 37.550,86.486 37.441 C 86.440 37.189,88.160 36.134,88.292 36.334 C 88.347 36.417,88.561 36.432,88.768 36.368 M209.424 86.203 C 274.881 113.673,328.460 136.172,328.488 136.201 C 328.571 136.284,327.145 137.084,326.913 137.084 C 326.610 137.084,88.590 37.192,88.590 37.065 C 88.590 36.871,89.932 36.136,90.174 36.197 C 90.305 36.229,143.968 58.732,209.424 86.203 M84.707 38.955 L 85.499 38.803 204.831 88.886 C 270.463 116.432,324.180 139.026,324.200 139.096 C 324.221 139.166,312.772 146.052,298.757 154.398 C 269.027 172.104,272.628 169.837,273.061 170.570 C 273.251 170.893,273.370 171.157,273.325 171.157 C 273.224 171.157,32.659 70.224,32.338 70.047 C 32.020 69.872,33.415 69.589,33.835 69.743 C 34.010 69.806,87.779 92.362,153.323 119.866 C 218.866 147.370,272.525 169.841,272.564 169.802 C 272.685 169.682,275.817 171.001,153.090 119.498 L 33.677 69.386 32.884 69.541 C 32.448 69.626,32.081 69.686,32.068 69.674 C 32.054 69.661,43.679 62.722,57.899 54.254 C 72.120 45.785,83.791 38.913,83.835 38.982 C 83.879 39.051,84.271 39.039,84.707 38.955 M230.075 66.218 C 228.648 67.079,228.647 67.082,229.480 67.415 C 231.347 68.162,233.981 67.215,232.845 66.205 C 232.621 66.006,231.397 65.413,231.320 65.465 C 231.309 65.473,230.748 65.812,230.075 66.218 M231.646 66.100 C 231.891 66.195,232.229 66.300,232.397 66.334 C 232.948 66.444,233.057 66.697,232.706 67.047 L 232.382 67.372 232.437 66.847 C 232.486 66.386,232.474 66.366,232.336 66.682 C 232.039 67.363,230.555 67.548,229.983 66.977 C 229.784 66.777,229.818 66.715,230.250 66.492 C 230.859 66.177,230.913 66.301,230.309 66.629 C 230.069 66.759,229.945 66.866,230.032 66.867 C 230.119 66.867,230.475 66.685,230.824 66.460 C 231.173 66.236,231.329 66.095,231.172 66.146 C 231.005 66.202,230.927 66.176,230.984 66.084 C 231.104 65.890,231.102 65.890,231.646 66.100 M233.082 67.477 C 231.620 68.366,231.629 68.334,232.717 68.776 C 233.844 69.234,234.498 68.941,233.399 68.470 C 233.116 68.349,232.837 68.222,232.779 68.189 C 232.721 68.156,232.649 68.237,232.620 68.371 C 232.588 68.518,232.491 68.565,232.372 68.491 C 232.238 68.407,232.331 68.278,232.673 68.076 C 232.946 67.915,233.125 67.854,233.071 67.942 C 233.012 68.037,233.123 68.071,233.347 68.029 C 233.552 67.989,233.866 68.035,234.044 68.130 C 234.369 68.304,234.865 68.218,234.865 67.988 C 234.865 67.919,234.693 67.820,234.483 67.767 C 234.130 67.679,234.017 67.320,234.280 67.120 C 234.340 67.074,234.353 67.085,234.307 67.145 C 234.189 67.302,235.641 67.825,235.909 67.722 C 236.301 67.572,236.156 67.424,235.306 67.107 C 234.850 66.938,234.440 66.784,234.394 66.765 C 234.348 66.747,233.758 67.067,233.082 67.477 M233.813 67.591 C 233.763 67.722,233.605 67.827,233.462 67.824 C 233.241 67.820,233.248 67.784,233.509 67.586 C 233.893 67.295,233.927 67.296,233.813 67.591 M235.301 68.435 C 234.626 68.839,234.073 69.217,234.073 69.275 C 234.073 69.590,234.649 69.510,235.300 69.105 C 236.129 68.589,236.286 68.608,236.304 69.225 C 236.311 69.459,236.354 69.559,236.399 69.446 C 236.560 69.045,236.297 68.427,236.008 68.528 C 235.795 68.602,235.804 68.570,236.047 68.382 C 236.513 68.021,236.662 68.160,236.858 69.140 C 237.029 69.995,236.761 70.691,236.558 69.920 C 236.507 69.728,236.482 69.754,236.468 70.008 C 236.458 70.204,236.517 70.365,236.599 70.365 C 236.891 70.365,237.875 69.697,237.789 69.558 C 237.741 69.481,237.796 69.454,237.912 69.498 C 238.028 69.543,238.264 69.467,238.436 69.329 C 238.734 69.090,238.730 69.087,238.352 69.255 C 237.981 69.420,237.975 69.416,238.256 69.190 C 238.422 69.057,238.617 68.986,238.691 69.031 C 238.765 69.077,238.944 69.047,239.089 68.966 C 239.330 68.831,239.325 68.803,239.043 68.652 C 238.796 68.520,238.583 68.580,237.988 68.950 C 237.070 69.522,237.140 69.531,237.014 68.819 C 236.771 67.449,236.902 67.478,235.301 68.435 M238.510 69.691 C 237.190 70.351,238.157 71.546,240.015 71.551 C 241.572 71.555,242.545 70.933,242.146 70.189 C 241.743 69.435,239.608 69.143,238.510 69.691 M241.165 70.146 C 241.640 70.447,241.614 70.625,241.054 70.915 C 240.082 71.418,238.538 71.041,238.720 70.346 C 238.762 70.182,238.725 70.048,238.637 70.048 C 238.547 70.048,238.504 70.287,238.539 70.590 C 238.595 71.071,238.570 71.115,238.319 70.981 C 238.163 70.897,238.035 70.735,238.035 70.621 C 238.035 70.347,238.610 69.834,238.791 69.946 C 238.870 69.994,239.141 69.971,239.396 69.894 C 239.943 69.729,240.669 69.832,241.165 70.146 M152.773 120.882 C 219.148 148.739,273.615 171.537,273.810 171.543 C 274.558 171.565,274.255 171.953,272.823 172.807 C 271.006 173.892,271.204 173.902,270.109 172.662 C 269.608 172.096,269.141 171.632,269.071 171.632 C 269.000 171.632,215.473 149.197,150.121 121.775 C 10.794 63.314,30.205 71.383,29.416 71.594 C 28.468 71.847,28.535 71.763,29.988 70.872 C 30.947 70.284,31.406 70.090,31.696 70.150 C 31.914 70.195,86.399 93.024,152.773 120.882 M241.970 70.425 C 242.028 70.720,241.737 71.157,241.483 71.157 C 241.392 71.157,241.406 71.059,241.515 70.927 C 241.624 70.796,241.659 70.549,241.597 70.353 C 241.518 70.103,241.546 70.029,241.703 70.082 C 241.821 70.121,241.941 70.275,241.970 70.425 M242.185 71.284 C 240.833 72.061,240.724 72.170,241.139 72.329 C 241.426 72.439,243.102 71.499,243.056 71.254 C 243.040 71.167,243.146 71.070,243.292 71.038 C 243.505 70.991,243.578 71.152,243.668 71.870 C 243.759 72.598,243.826 72.744,244.037 72.672 C 244.221 72.608,244.207 72.650,243.987 72.821 C 243.564 73.148,243.426 73.120,243.405 72.702 C 243.390 72.420,243.371 72.405,243.312 72.632 C 243.119 73.377,243.393 73.359,244.771 72.537 C 245.952 71.834,246.102 71.696,245.876 71.531 C 245.661 71.374,245.484 71.422,244.884 71.803 C 243.935 72.405,243.928 72.403,243.804 71.470 C 243.665 70.422,243.681 70.424,242.185 71.284 M149.516 121.782 C 214.883 149.210,268.457 171.702,268.568 171.764 C 268.896 171.948,265.796 173.735,265.301 173.648 C 265.079 173.609,245.998 165.644,222.900 155.949 C 176.187 136.341,124.773 114.790,79.406 95.802 C 62.884 88.887,44.231 81.079,37.956 78.450 C 27.776 74.187,26.472 73.679,25.872 73.742 C 25.008 73.832,24.997 73.849,26.347 73.043 C 27.604 72.292,29.827 71.599,30.349 71.795 C 30.523 71.860,84.148 94.355,149.516 121.782 M25.436 75.400 C 23.403 79.616,20.814 86.164,18.986 91.714 C 18.263 93.912,17.632 95.713,17.585 95.716 C 17.445 95.724,16.640 93.996,16.640 93.687 C 16.640 92.756,19.837 84.021,22.073 78.843 C 23.901 74.610,24.048 74.349,24.703 74.179 C 25.243 74.039,26.028 73.901,26.104 73.932 C 26.123 73.939,25.822 74.600,25.436 75.400 M55.309 85.971 C 149.945 125.586,264.986 173.819,265.108 173.933 C 265.137 173.960,265.081 174.130,264.985 174.310 C 264.781 174.691,264.063 177.388,262.829 182.409 C 260.561 191.631,258.893 200.015,257.536 209.014 C 257.189 211.314,256.873 213.227,256.835 213.266 C 256.756 213.344,248.815 209.872,248.593 209.663 C 248.515 209.589,248.771 208.980,249.179 208.274 C 255.825 196.752,251.095 178.341,240.337 173.863 C 234.378 171.382,227.698 173.594,223.530 179.427 C 223.012 180.152,221.976 181.351,221.228 182.092 C 218.307 184.984,217.149 190.002,218.269 194.918 C 218.416 195.566,218.520 196.113,218.500 196.133 C 218.376 196.257,183.620 180.082,183.545 179.866 C 183.516 179.783,183.376 179.715,183.235 179.715 C 182.808 179.715,176.077 176.480,176.073 176.273 C 176.071 176.167,175.975 176.116,175.858 176.161 C 175.536 176.285,154.022 165.975,131.537 154.922 C 98.400 138.633,52.530 114.979,22.187 98.534 L 17.987 96.258 18.018 95.712 C 18.133 93.688,25.063 75.803,26.355 74.197 C 26.582 73.914,23.870 72.811,55.309 85.971 M24.217 99.900 C 41.593 109.253,64.847 121.469,82.171 130.345 C 87.401 133.024,92.964 135.879,94.532 136.688 C 98.071 138.513,127.944 153.452,132.805 155.827 C 134.766 156.785,138.189 158.458,140.412 159.545 C 163.330 170.754,189.234 183.024,213.063 193.956 L 218.598 196.496 219.123 197.970 C 220.172 200.914,221.794 203.828,223.715 206.216 L 224.571 207.282 223.894 206.993 C 223.522 206.833,179.109 188.175,125.198 165.529 C 71.288 142.883,27.045 124.241,26.882 124.103 C 26.555 123.826,25.130 120.890,24.882 119.984 C 24.797 119.670,24.375 117.952,23.945 116.165 C 22.492 110.127,20.572 103.891,18.634 98.918 C 17.704 96.529,17.698 96.513,17.838 96.513 C 17.886 96.513,20.757 98.037,24.217 99.900 M378.135 112.422 C 378.935 113.541,378.936 113.544,378.292 112.876 C 377.456 112.009,377.522 111.998,375.183 113.391 C 374.085 114.045,373.104 114.575,373.004 114.569 C 372.832 114.558,370.495 112.027,370.399 111.747 C 370.361 111.638,373.170 109.870,374.629 109.084 C 375.106 108.827,376.548 110.200,378.135 112.422 M155.097 110.743 C 154.937 110.777,154.557 110.974,154.253 111.180 C 153.949 111.386,153.563 111.599,153.395 111.652 C 152.778 111.848,153.359 112.520,154.147 112.520 C 154.598 112.520,156.280 111.395,156.229 111.128 C 156.176 110.855,155.557 110.644,155.097 110.743 M150.277 111.121 C 149.760 111.441,149.604 111.727,149.946 111.727 C 150.151 111.727,151.506 110.964,151.506 110.849 C 151.506 110.665,150.741 110.835,150.277 111.121 M152.486 111.127 C 152.380 111.233,151.991 111.322,151.622 111.326 C 151.024 111.331,150.955 111.370,150.988 111.684 C 151.011 111.900,150.903 112.101,150.711 112.204 C 150.336 112.405,150.304 112.653,150.637 112.780 C 150.847 112.861,153.883 111.203,153.883 111.007 C 153.883 110.844,152.664 110.950,152.486 111.127 M156.000 111.203 C 156.149 111.353,154.516 112.354,154.120 112.355 C 153.513 112.358,153.326 112.104,153.743 111.841 C 154.837 111.152,155.704 110.907,156.000 111.203 M152.093 111.988 C 151.414 112.390,150.821 112.681,150.775 112.634 C 150.662 112.521,152.790 111.253,153.090 111.255 C 153.221 111.256,152.772 111.586,152.093 111.988 M154.408 112.803 C 153.608 113.293,152.988 113.750,153.031 113.820 C 153.171 114.047,153.864 113.953,154.386 113.636 C 154.750 113.414,154.953 113.372,155.095 113.490 C 155.359 113.710,155.943 113.513,155.943 113.205 C 155.943 113.036,155.858 112.996,155.666 113.073 C 154.972 113.351,154.963 113.313,155.626 112.907 C 156.018 112.667,156.367 112.447,156.401 112.420 C 156.485 112.352,156.090 111.882,155.963 111.899 C 155.908 111.906,155.209 112.313,154.408 112.803 M151.585 112.776 C 150.223 113.595,150.153 114.143,151.417 114.081 L 151.902 114.057 151.426 113.989 C 150.636 113.877,150.652 113.694,151.497 113.174 C 152.306 112.677,152.829 112.568,153.222 112.817 C 153.375 112.914,153.233 113.067,152.707 113.376 C 152.308 113.610,151.981 113.841,151.981 113.889 C 151.981 113.938,152.213 113.840,152.496 113.672 C 153.938 112.818,153.948 112.802,153.257 112.445 C 152.640 112.126,152.678 112.118,151.585 112.776 M156.101 112.333 C 156.101 112.497,153.741 113.857,153.637 113.753 C 153.594 113.710,154.114 113.348,154.791 112.948 C 156.195 112.119,156.101 112.162,156.101 112.333 M379.801 115.133 C 381.273 117.106,383.994 122.137,383.994 122.887 C 383.994 123.100,383.787 124.082,383.534 125.069 C 381.194 134.210,378.271 148.809,377.012 157.645 C 376.893 158.484,376.766 158.914,376.659 158.847 C 376.557 158.784,376.528 158.840,376.587 158.992 C 376.766 159.459,376.217 159.792,323.217 191.374 C 260.983 228.459,269.381 223.620,268.848 222.699 C 267.459 220.295,265.064 217.020,262.896 214.557 C 261.797 213.310,261.675 213.106,261.739 212.643 C 263.487 200.039,268.135 178.089,269.305 176.910 C 269.496 176.718,292.829 162.750,321.157 145.869 C 349.485 128.989,373.732 114.539,375.040 113.759 L 377.417 112.339 378.195 113.181 C 378.622 113.644,379.345 114.523,379.801 115.133 M370.377 113.247 C 371.674 113.769,371.738 113.840,371.224 114.177 L 370.799 114.456 369.989 113.646 C 369.544 113.201,369.220 112.837,369.269 112.837 C 369.319 112.837,369.817 113.021,370.377 113.247 M155.987 113.445 C 155.288 113.886,155.143 114.105,155.550 114.105 C 155.895 114.105,157.064 113.301,156.961 113.134 C 156.840 112.938,156.741 112.969,155.987 113.445 M157.897 114.314 C 157.184 114.761,156.636 115.181,156.678 115.249 C 156.809 115.462,157.331 115.384,157.875 115.070 C 158.395 114.771,158.406 114.771,159.181 115.116 L 159.962 115.464 159.436 115.797 C 158.211 116.572,159.400 116.538,160.707 115.760 C 161.356 115.375,161.813 115.058,161.723 115.057 C 161.633 115.056,161.420 115.151,161.248 115.269 C 161.076 115.386,160.578 115.684,160.143 115.932 L 159.350 116.383 159.826 115.911 C 160.087 115.652,160.349 115.461,160.408 115.487 C 160.466 115.513,160.767 115.385,161.076 115.203 C 161.385 115.021,161.711 114.917,161.801 114.973 C 161.891 115.029,162.046 115.024,162.145 114.963 C 162.261 114.891,162.192 114.781,161.951 114.651 C 161.631 114.481,161.514 114.496,161.152 114.753 C 160.637 115.120,160.555 115.123,159.750 114.801 C 159.004 114.502,158.969 114.394,159.521 114.098 C 159.900 113.895,159.909 113.866,159.649 113.675 C 159.289 113.412,159.398 113.372,157.897 114.314 M159.073 114.195 C 158.833 114.325,158.637 114.505,158.637 114.594 C 158.637 114.684,158.579 114.721,158.507 114.677 C 158.435 114.633,158.142 114.739,157.855 114.914 C 157.568 115.088,157.303 115.201,157.267 115.164 C 157.168 115.066,158.993 113.974,159.271 113.966 C 159.402 113.962,159.313 114.065,159.073 114.195 M323.071 146.360 C 293.791 163.822,269.783 178.203,269.720 178.317 C 269.558 178.615,267.638 186.389,266.890 189.783 C 265.491 196.120,264.138 203.371,263.227 209.408 L 262.895 211.606 263.540 212.340 C 265.831 214.949,269.131 219.460,269.764 220.850 C 269.864 221.069,270.022 221.218,270.115 221.181 C 270.209 221.144,293.997 206.982,322.979 189.710 L 375.673 158.305 376.013 156.054 C 377.241 147.921,379.733 135.539,381.898 126.809 L 382.658 123.744 381.729 121.975 C 380.172 119.008,377.009 114.552,376.494 114.596 C 376.391 114.605,352.351 128.899,323.071 146.360 M161.272 115.770 L 159.891 116.599 161.176 117.117 C 162.257 117.553,163.258 117.622,162.747 117.226 C 162.425 116.976,160.929 116.500,160.884 116.634 C 160.821 116.825,160.539 116.859,160.539 116.674 C 160.539 116.535,161.385 116.004,161.593 116.011 C 161.667 116.014,161.589 116.121,161.420 116.249 C 161.251 116.377,161.183 116.482,161.269 116.482 C 161.356 116.482,161.494 116.416,161.577 116.335 C 161.670 116.244,162.058 116.329,162.591 116.556 C 163.403 116.901,163.867 116.930,163.867 116.636 C 163.867 116.566,163.546 116.385,163.154 116.236 C 162.761 116.086,162.441 115.902,162.441 115.826 C 162.441 115.751,162.369 115.689,162.282 115.689 C 162.195 115.689,162.124 115.796,162.124 115.927 C 162.124 116.193,161.876 116.247,161.732 116.013 C 161.448 115.554,162.556 115.380,163.344 115.760 C 164.124 116.137,164.403 116.219,164.778 116.184 C 165.251 116.139,164.894 115.854,163.814 115.414 L 162.652 114.940 161.272 115.770 M377.640 116.125 C 379.308 118.217,382.250 122.954,382.250 123.548 C 382.250 123.750,379.027 124.446,378.957 124.258 C 378.705 123.580,376.580 120.146,375.575 118.793 L 374.298 117.073 375.378 115.985 C 376.689 114.663,376.464 114.650,377.640 116.125 M374.813 116.233 L 373.964 117.093 374.754 118.095 C 375.829 119.458,376.969 121.182,377.965 122.952 L 378.798 124.430 378.074 127.468 C 375.924 136.501,373.791 147.102,372.584 154.758 L 372.408 155.872 321.048 186.478 L 269.688 217.085 268.735 215.634 C 267.544 213.821,266.215 212.050,264.705 210.266 L 263.535 208.884 264.186 204.958 C 265.411 197.571,266.743 191.167,268.713 183.191 L 269.909 178.346 322.712 146.868 C 351.754 129.554,375.548 115.385,375.589 115.381 C 375.629 115.376,375.280 115.759,374.813 116.233 M164.897 116.621 C 162.823 117.155,163.266 118.616,165.531 118.715 C 166.732 118.768,167.033 118.699,167.530 118.255 C 168.623 117.279,166.782 116.137,164.897 116.621 M166.840 117.116 C 166.833 117.159,166.886 117.330,166.958 117.495 C 167.145 117.927,166.659 118.225,165.769 118.225 C 164.878 118.225,164.392 117.927,164.579 117.495 C 164.651 117.330,164.704 117.159,164.698 117.116 C 164.691 117.072,165.173 117.036,165.769 117.036 C 166.364 117.036,166.846 117.072,166.840 117.116 M164.342 117.433 C 164.222 117.658,164.222 117.841,164.342 118.067 C 164.436 118.241,164.449 118.384,164.372 118.384 C 163.937 118.384,163.655 117.755,163.946 117.433 C 164.104 117.258,164.296 117.116,164.372 117.116 C 164.449 117.116,164.436 117.258,164.342 117.433 M167.576 117.458 C 167.837 117.831,167.797 117.988,167.384 118.209 C 167.153 118.332,167.116 118.266,167.116 117.734 C 167.116 117.033,167.230 116.965,167.576 117.458 M168.653 117.942 C 167.891 118.143,167.833 118.502,168.477 119.036 C 168.774 119.283,168.964 119.495,168.899 119.508 C 168.490 119.591,168.339 119.571,167.948 119.380 C 167.708 119.263,167.512 119.098,167.512 119.013 C 167.512 118.928,167.334 118.859,167.116 118.859 C 166.168 118.859,166.898 119.712,168.074 119.978 C 169.563 120.316,170.362 119.629,169.407 118.831 L 168.871 118.384 169.279 118.384 C 169.504 118.384,169.876 118.531,170.106 118.712 C 170.524 119.041,171.008 119.077,171.023 118.780 C 171.051 118.262,169.509 117.717,168.653 117.942 M168.780 118.512 C 168.780 118.670,168.996 118.959,169.260 119.154 C 169.735 119.506,169.765 119.810,169.325 119.810 C 169.199 119.810,169.097 119.699,169.097 119.565 C 169.097 119.430,168.907 119.156,168.675 118.957 C 168.433 118.748,168.302 118.516,168.367 118.409 C 168.541 118.129,168.780 118.189,168.780 118.512 M382.201 124.445 C 382.151 124.729,381.647 126.886,381.082 129.239 C 379.196 137.096,377.377 146.127,376.151 153.724 C 375.835 155.685,375.542 157.452,375.502 157.651 C 375.431 157.996,374.658 157.530,372.751 155.992 C 372.480 155.773,375.145 141.395,376.932 133.439 C 377.982 128.764,378.944 124.821,379.067 124.684 C 379.153 124.590,381.566 124.013,382.152 123.946 C 382.229 123.937,382.251 124.162,382.201 124.445 M374.063 157.257 C 374.746 157.774,375.245 158.248,375.172 158.311 C 374.683 158.731,270.324 220.773,270.243 220.692 C 270.147 220.596,269.716 217.395,269.789 217.321 C 270.142 216.968,372.526 156.144,372.648 156.215 C 372.743 156.272,373.380 156.740,374.063 157.257 M270.444 173.388 C 271.141 174.167,271.728 174.857,271.749 174.922 C 271.770 174.987,271.255 175.348,270.605 175.724 L 269.424 176.408 267.715 175.249 C 266.775 174.611,266.006 174.024,266.006 173.945 C 266.006 173.818,268.889 171.982,269.097 171.975 C 269.140 171.974,269.746 172.610,270.444 173.388 M238.660 173.535 C 241.540 174.351,244.647 176.524,246.591 179.081 C 246.889 179.473,246.509 179.138,245.746 178.336 C 239.111 171.360,229.868 171.824,224.223 179.416 C 223.209 180.779,222.761 180.973,223.634 179.671 C 227.049 174.581,233.317 172.021,238.660 173.535 M237.876 173.880 C 249.592 176.070,255.904 195.957,248.694 207.964 C 247.892 209.299,247.900 209.292,247.466 208.975 C 247.182 208.767,247.194 208.718,247.761 207.865 C 253.760 198.827,251.182 183.125,242.710 177.100 C 237.615 173.477,231.384 173.899,226.838 178.176 C 225.714 179.234,223.917 180.325,224.226 179.762 C 224.528 179.212,226.505 177.168,227.392 176.488 C 230.556 174.062,234.115 173.177,237.876 173.880 M267.367 175.297 C 268.275 175.918,269.041 176.446,269.069 176.471 C 269.097 176.496,269.017 176.718,268.890 176.966 C 268.764 177.214,268.227 179.128,267.697 181.220 C 265.243 190.914,263.494 199.498,262.000 209.192 L 261.401 213.074 259.371 213.205 C 256.921 213.363,257.118 213.557,257.437 211.299 C 259.336 197.881,264.512 174.168,265.543 174.168 C 265.639 174.168,266.459 174.676,267.367 175.297 M238.193 175.220 C 246.580 177.225,252.316 188.893,250.455 200.158 C 249.823 203.982,247.962 207.941,246.335 208.924 C 245.431 209.470,245.383 209.460,245.863 208.831 C 246.409 208.116,247.165 206.450,247.462 205.309 C 250.380 194.092,239.880 178.829,229.160 178.706 L 227.338 178.685 230.349 176.875 C 234.028 174.663,235.004 174.457,238.193 175.220 M230.852 176.308 C 229.909 176.875,228.518 177.697,227.762 178.135 L 226.387 178.931 227.179 178.188 C 228.199 177.233,229.414 176.454,230.903 175.802 C 232.749 174.994,232.730 175.180,230.852 176.308 M232.805 179.537 C 245.499 183.817,252.579 204.109,243.681 210.706 L 243.067 211.161 243.873 209.972 C 249.836 201.184,242.095 184.025,230.507 180.345 C 229.230 179.939,226.323 179.750,225.238 180.001 C 224.375 180.200,224.381 180.095,225.255 179.708 C 227.452 178.737,230.244 178.673,232.805 179.537 M247.751 180.653 C 248.174 181.374,247.971 181.245,247.458 180.468 C 247.214 180.097,247.116 179.878,247.239 179.980 C 247.363 180.082,247.593 180.385,247.751 180.653 M229.002 180.256 C 241.154 182.439,250.246 201.675,243.262 210.427 C 238.389 216.534,227.008 212.303,221.344 202.279 C 214.690 190.503,218.885 178.439,229.002 180.256 M224.740 182.807 C 214.470 185.698,218.236 204.827,230.248 210.779 C 239.203 215.216,245.807 207.341,242.212 196.513 C 239.303 187.752,230.819 181.096,224.740 182.807 M229.443 183.216 C 238.674 185.651,245.735 199.537,241.825 207.568 C 238.458 214.486,228.677 212.534,222.818 203.774 C 215.414 192.705,219.332 180.549,229.443 183.216 M246.765 209.324 C 246.524 209.776,246.248 209.946,245.563 210.070 C 244.845 210.200,244.896 210.096,245.853 209.479 C 246.654 208.963,246.989 208.906,246.765 209.324 M247.715 209.350 C 248.037 209.350,247.857 210.267,247.488 210.509 C 246.683 211.036,243.948 211.052,244.384 210.526 C 244.488 210.402,244.849 210.301,245.191 210.301 C 246.018 210.301,246.854 209.934,246.988 209.512 C 247.058 209.293,247.182 209.202,247.333 209.260 C 247.463 209.309,247.635 209.350,247.715 209.350 M264.992 210.983 C 267.952 214.564,269.505 217.037,269.640 218.384 C 269.697 218.950,269.787 219.663,269.840 219.968 C 269.918 220.416,269.662 220.112,268.505 218.384 C 267.136 216.338,265.633 214.376,263.968 212.459 C 263.142 211.508,263.160 211.603,263.489 209.945 C 263.610 209.331,263.649 209.358,264.992 210.983 M248.169 210.714 C 247.805 211.393,244.452 211.711,243.863 211.121 C 243.744 211.002,244.106 210.978,245.104 211.041 C 246.859 211.151,247.524 210.990,247.940 210.352 C 248.305 209.793,248.498 210.098,248.169 210.714 M252.932 211.890 C 255.884 213.192,257.137 213.826,257.583 214.245 C 259.486 216.031,263.433 221.309,264.802 223.896 L 264.994 224.259 264.391 224.009 C 264.059 223.871,258.243 221.432,251.466 218.589 L 239.145 213.418 240.135 213.000 C 240.680 212.770,241.624 212.288,242.235 211.929 L 243.344 211.276 244.453 211.496 C 246.864 211.974,248.494 211.517,248.494 210.363 C 248.494 210.097,248.565 209.978,248.693 210.029 C 248.802 210.072,250.709 210.910,252.932 211.890 M262.761 214.778 C 264.927 217.217,268.938 222.828,268.938 223.418 C 268.938 223.543,266.008 224.564,265.649 224.564 C 265.548 224.564,265.165 224.047,264.798 223.415 C 263.103 220.498,260.619 217.118,258.572 214.942 C 257.178 213.461,257.157 213.513,259.192 213.423 C 259.802 213.396,260.562 213.360,260.880 213.343 C 261.424 213.314,261.538 213.401,262.761 214.778 " stroke="none" fill="#000000" fill-rule="evenodd"></path></g></svg>