<svg id="svg" xmlns="http://www.w3.org/2000/svg" xmlns:xlink="http://www.w3.org/1999/xlink" width="400" height="276.97974217311236" viewBox="0, 0, 400,276.97974217311236"><g id="svgg"><path id="path0" d="M75.672 24.627 C 69.517 24.953,68.741 25.524,67.417 30.701 C 60.569 57.479,41.880 177.459,41.450 197.408 C 41.382 200.555,41.227 203.421,41.105 203.775 C 40.984 204.130,40.811 204.656,40.722 204.945 C 40.067 207.065,45.364 236.237,47.748 243.646 C 48.956 247.400,48.716 247.280,62.799 251.219 C 79.383 255.859,81.059 256.084,96.019 255.688 L 105.666 255.433 106.942 256.603 C 109.529 258.976,113.886 259.398,131.022 258.935 C 144.085 258.583,165.660 257.633,168.742 257.275 C 169.681 257.165,170.924 257.263,171.504 257.491 C 174.726 258.756,183.159 258.561,185.189 257.175 C 186.036 256.596,188.004 256.366,198.158 255.660 C 204.742 255.202,212.615 254.564,215.654 254.243 C 222.004 253.570,225.829 253.488,230.050 253.931 C 233.832 254.328,236.828 253.959,238.383 252.904 C 239.398 252.215,240.662 251.973,246.161 251.414 C 249.772 251.046,257.397 250.222,263.104 249.582 C 270.969 248.700,274.016 248.492,275.691 248.723 C 279.472 249.245,283.019 248.875,284.422 247.812 C 285.391 247.078,286.228 246.848,288.582 246.668 C 291.930 246.413,295.961 245.282,297.314 244.218 C 298.016 243.665,300.058 243.234,306.112 242.358 C 319.449 240.429,336.144 237.413,342.971 235.700 C 344.524 235.310,346.445 234.991,347.240 234.991 C 350.771 234.991,358.029 229.038,357.456 226.611 C 357.329 226.075,357.430 225.783,357.741 225.783 C 359.372 225.783,369.630 207.690,371.628 201.289 C 374.527 192.003,372.240 181.911,360.781 153.407 C 345.556 115.536,318.602 62.917,313.008 60.145 C 304.206 55.783,261.677 43.844,235.908 38.502 C 186.652 28.291,118.274 22.370,75.672 24.627 M123.020 26.180 C 187.613 28.541,252.340 40.175,307.605 59.357 C 313.509 61.406,313.706 61.558,316.666 66.357 C 331.202 89.920,352.341 133.821,363.547 163.720 C 372.898 188.670,373.601 195.266,368.114 206.630 C 364.041 215.068,358.566 224.084,357.143 224.698 C 356.709 224.886,355.939 225.361,355.433 225.753 C 352.400 228.103,294.929 237.181,269.797 239.280 C 267.768 239.450,266.871 239.636,267.485 239.760 C 268.748 240.016,268.337 240.674,266.851 240.776 C 266.243 240.817,259.696 241.360,252.302 241.981 C 244.908 242.602,236.573 243.216,233.780 243.344 C 229.125 243.559,226.194 244.203,229.905 244.196 C 232.724 244.191,261.311 241.977,265.930 241.406 L 267.587 241.202 266.667 241.975 C 264.534 243.767,264.221 243.819,246.489 245.282 C 227.675 246.835,227.993 246.846,227.993 244.602 L 227.993 243.189 232.136 242.942 C 234.415 242.806,238.269 242.535,240.700 242.340 C 243.131 242.145,246.197 241.907,247.514 241.811 C 248.831 241.715,251.234 241.526,252.855 241.390 C 254.475 241.255,256.215 241.115,256.722 241.080 C 263.085 240.638,265.219 240.375,264.720 240.096 C 264.398 239.916,262.660 239.930,260.713 240.129 C 246.562 241.573,218.499 243.270,193.186 244.213 C 163.317 245.326,89.076 244.792,86.902 243.449 C 86.109 242.958,86.432 241.502,89.441 232.027 C 97.230 207.494,97.920 199.832,95.009 170.166 C 91.097 130.281,75.890 30.994,73.024 26.620 L 72.484 25.797 80.717 25.675 C 91.964 25.509,110.812 25.733,123.020 26.180 M72.272 26.796 C 75.645 30.657,92.718 144.975,95.390 181.584 C 96.868 201.827,95.845 209.976,89.248 230.546 C 85.124 243.406,85.088 243.722,87.668 244.250 C 92.961 245.332,160.640 245.801,188.135 244.945 C 196.499 244.685,203.417 244.546,203.508 244.637 C 203.772 244.901,181.276 245.640,159.300 246.089 C 139.369 246.496,104.577 246.117,90.275 245.337 C 82.627 244.919,82.666 245.078,86.956 231.576 C 94.531 207.737,95.235 199.847,92.424 170.350 C 88.792 132.251,75.195 39.446,71.953 30.622 C 71.388 29.086,71.309 29.025,70.124 29.217 L 68.886 29.418 69.608 28.003 C 70.246 26.753,70.734 26.280,71.490 26.180 C 71.610 26.164,71.962 26.441,72.272 26.796 M71.080 30.011 C 74.181 33.747,90.940 151.672,92.805 182.873 C 94.074 204.117,93.293 209.677,85.663 233.689 C 83.773 239.635,83.569 240.587,83.652 243.081 C 83.867 249.599,81.152 254.086,77.244 253.673 C 75.283 253.465,52.082 247.080,50.804 246.396 C 48.669 245.253,43.099 220.552,42.120 207.884 C 41.857 204.488,42.489 202.180,42.862 205.171 C 44.322 216.874,46.038 226.777,47.829 233.830 C 49.424 240.115,48.389 239.525,64.086 243.106 C 77.867 246.251,78.794 246.349,80.232 244.818 C 82.970 241.904,90.613 216.151,92.277 204.236 C 92.590 201.996,92.501 191.482,92.131 186.924 C 91.947 184.661,91.868 186.821,91.879 193.738 C 91.899 205.009,91.717 206.541,89.129 216.943 C 86.231 228.586,80.978 243.679,79.450 244.748 C 78.192 245.630,77.121 245.470,63.723 242.400 C 48.215 238.848,49.781 239.987,47.714 230.755 C 42.828 208.937,42.484 200.104,45.519 174.401 C 50.090 135.683,66.293 36.165,68.530 33.065 L 69.255 32.061 68.312 31.824 C 67.246 31.557,67.857 30.458,69.429 29.814 C 70.470 29.388,70.574 29.401,71.080 30.011 M66.902 40.772 C 58.241 85.928,43.831 184.906,43.831 199.234 C 43.831 209.394,48.580 234.982,50.847 237.033 C 51.734 237.836,75.841 243.169,77.901 243.018 L 79.374 242.910 81.071 238.674 C 85.896 226.630,89.848 212.479,90.998 203.131 C 92.622 189.919,83.181 110.184,73.270 53.407 C 69.818 33.633,69.918 34.088,69.011 33.958 C 68.278 33.853,68.149 34.269,66.902 40.772 M70.927 47.514 C 71.095 49.326,70.877 51.430,70.030 56.169 C 63.889 90.535,53.492 160.280,51.184 182.586 C 49.759 196.358,49.651 197.984,49.897 201.842 C 50.563 212.254,53.635 229.411,55.485 233.046 C 56.246 234.539,56.110 234.499,68.877 237.032 C 81.061 239.449,79.735 238.954,78.992 240.810 C 78.137 242.947,78.542 242.973,64.405 239.874 C 49.291 236.560,51.036 237.718,48.965 229.629 C 44.679 212.877,43.823 201.228,45.640 184.346 C 48.970 153.406,63.213 60.572,68.385 36.096 C 68.689 34.655,70.480 42.699,70.927 47.514 M72.913 58.195 C 78.311 89.482,84.974 138.809,88.013 169.982 C 90.804 198.603,90.598 204.260,86.201 219.787 C 84.833 224.617,80.570 237.276,80.007 238.179 C 79.738 238.610,59.051 234.727,57.163 233.891 C 53.479 232.260,49.426 203.194,51.005 189.728 C 51.305 187.173,51.898 181.851,52.324 177.901 C 54.189 160.584,59.421 124.734,66.140 83.241 C 70.544 56.041,71.470 50.715,71.683 51.381 C 71.748 51.584,72.301 54.650,72.913 58.195 M78.170 75.875 C 78.170 76.584,78.246 76.874,78.339 76.519 C 78.431 76.165,78.431 75.585,78.339 75.230 C 78.246 74.876,78.170 75.166,78.170 75.875 M78.517 78.085 C 78.505 78.591,78.633 79.669,78.800 80.479 C 78.996 81.424,79.113 81.622,79.126 81.031 C 79.138 80.525,79.010 79.448,78.842 78.637 C 78.647 77.692,78.530 77.494,78.517 78.085 M79.241 82.689 C 79.231 83.815,83.896 115.213,83.940 114.314 C 83.981 113.469,79.645 82.935,79.397 82.320 C 79.315 82.118,79.245 82.284,79.241 82.689 M84.063 116.390 C 84.063 117.099,84.139 117.390,84.232 117.035 C 84.324 116.680,84.324 116.100,84.232 115.746 C 84.139 115.391,84.063 115.681,84.063 116.390 M84.439 119.153 C 84.443 119.963,84.519 120.251,84.607 119.793 C 84.695 119.335,84.691 118.672,84.599 118.320 C 84.507 117.968,84.435 118.343,84.439 119.153 M84.800 121.915 C 84.800 122.624,84.876 122.914,84.968 122.560 C 85.061 122.205,85.061 121.625,84.968 121.271 C 84.876 120.916,84.800 121.206,84.800 121.915 M85.168 124.862 C 85.168 125.571,85.244 125.861,85.337 125.506 C 85.429 125.152,85.429 124.572,85.337 124.217 C 85.244 123.863,85.168 124.153,85.168 124.862 M85.537 127.440 C 85.537 128.149,85.612 128.439,85.705 128.085 C 85.798 127.730,85.798 127.150,85.705 126.796 C 85.612 126.441,85.537 126.731,85.537 127.440 M85.905 130.387 C 85.905 131.096,85.981 131.386,86.073 131.031 C 86.166 130.677,86.166 130.097,86.073 129.742 C 85.981 129.388,85.905 129.678,85.905 130.387 M86.281 133.149 C 86.285 133.959,86.360 134.248,86.448 133.789 C 86.536 133.331,86.533 132.668,86.441 132.316 C 86.349 131.964,86.277 132.339,86.281 133.149 M86.642 135.912 C 86.642 136.621,86.717 136.911,86.810 136.556 C 86.903 136.202,86.903 135.622,86.810 135.267 C 86.717 134.913,86.642 135.203,86.642 135.912 M87.010 138.858 C 87.010 139.567,87.086 139.857,87.178 139.503 C 87.271 139.148,87.271 138.568,87.178 138.214 C 87.086 137.859,87.010 138.149,87.010 138.858 M88.483 151.381 C 88.483 152.090,88.559 152.380,88.652 152.026 C 88.744 151.671,88.744 151.091,88.652 150.737 C 88.559 150.382,88.483 150.672,88.483 151.381 M89.220 157.643 C 89.220 158.352,89.296 158.642,89.388 158.287 C 89.481 157.933,89.481 157.353,89.388 156.998 C 89.296 156.644,89.220 156.934,89.220 157.643 M91.062 176.059 C 91.062 176.768,91.137 177.058,91.230 176.703 C 91.323 176.349,91.323 175.769,91.230 175.414 C 91.137 175.060,91.062 175.350,91.062 176.059 M91.459 180.663 C 91.461 181.878,91.529 182.331,91.611 181.669 C 91.693 181.007,91.692 180.013,91.608 179.459 C 91.524 178.906,91.456 179.448,91.459 180.663 M252.670 184.346 C 252.409 184.661,251.606 184.899,250.805 184.899 C 248.900 184.899,248.813 185.182,249.526 189.072 C 250.411 193.902,250.523 194.107,252.277 194.107 C 253.082 194.107,254.162 194.299,254.677 194.534 C 255.438 194.880,255.736 194.852,256.260 194.384 C 256.799 193.903,258.689 193.763,267.675 193.540 C 280.424 193.222,279.515 193.646,278.321 188.580 C 277.309 184.290,277.114 184.068,274.586 184.325 C 270.507 184.740,255.071 184.667,254.260 184.229 C 253.245 183.680,253.222 183.681,252.670 184.346 M277.314 186.280 C 278.067 189.147,278.759 192.450,278.634 192.576 C 278.485 192.724,263.164 193.327,258.880 193.353 L 256.065 193.370 255.747 191.621 C 255.247 188.874,253.576 188.739,253.952 191.475 L 254.207 193.325 252.827 193.584 C 251.008 193.925,250.319 193.097,250.634 190.948 C 250.864 189.380,250.591 188.090,250.093 188.397 C 249.717 188.630,249.367 185.913,249.723 185.518 C 250.716 184.417,252.853 185.461,253.169 187.201 C 253.446 188.728,253.602 188.950,254.392 188.950 C 255.079 188.950,255.254 188.794,255.117 188.306 C 255.017 187.951,254.828 187.129,254.698 186.479 L 254.460 185.298 257.525 185.173 C 259.210 185.105,264.271 185.015,268.770 184.974 L 276.951 184.899 277.314 186.280 M269.806 186.872 C 268.167 188.071,269.746 191.695,271.803 191.453 C 273.739 191.225,273.918 188.212,272.072 186.919 C 271.106 186.243,270.680 186.234,269.806 186.872 M273.849 186.740 C 273.303 187.624,274.025 188.927,275.235 189.241 C 275.891 189.411,276.427 189.788,276.427 190.079 C 276.427 190.576,275.864 190.686,274.899 190.375 C 273.963 190.075,274.289 190.983,275.236 191.317 C 276.026 191.594,276.386 191.543,276.839 191.090 C 277.694 190.235,277.160 189.063,275.671 188.525 C 274.147 187.974,273.879 186.898,275.358 187.269 C 276.052 187.443,276.272 187.378,276.159 187.033 C 275.959 186.424,274.184 186.199,273.849 186.740 M251.826 186.985 C 251.566 187.405,252.319 191.230,252.776 191.814 C 253.410 192.623,253.473 192.046,253.014 189.631 C 252.568 187.279,252.179 186.413,251.826 186.985 M255.617 187.158 C 255.617 188.316,256.521 192.265,256.786 192.265 C 257.204 192.265,257.167 190.819,256.691 188.600 C 256.342 186.971,255.617 185.998,255.617 187.158 M260.405 187.091 C 260.405 187.283,260.589 188.319,260.813 189.393 C 261.278 191.621,262.063 192.805,261.801 190.884 C 261.646 189.747,261.697 189.687,262.827 189.687 C 263.833 189.687,264.085 189.872,264.458 190.884 C 264.701 191.542,264.969 191.905,265.054 191.691 C 265.302 191.062,264.263 186.983,263.817 186.834 C 263.564 186.750,263.489 187.000,263.618 187.494 C 263.841 188.348,263.246 188.935,262.145 188.945 C 261.712 188.948,261.417 188.578,261.271 187.845 C 261.069 186.838,260.405 186.259,260.405 187.091 M264.955 187.385 C 265.179 188.186,265.426 189.200,265.719 190.516 C 265.947 191.542,268.877 192.140,268.877 191.160 C 268.877 190.958,268.297 190.792,267.587 190.792 C 266.544 190.792,266.298 190.652,266.298 190.055 C 266.298 189.482,266.544 189.319,267.403 189.319 C 268.011 189.319,268.508 189.153,268.508 188.950 C 268.508 188.748,267.928 188.582,267.219 188.582 C 266.319 188.582,265.930 188.415,265.930 188.029 C 265.930 187.661,266.298 187.477,267.035 187.477 C 267.643 187.477,268.140 187.311,268.140 187.109 C 268.140 186.906,267.383 186.740,266.458 186.740 C 265.033 186.740,264.803 186.839,264.955 187.385 M272.564 188.590 C 273.266 189.901,272.036 191.291,270.865 190.510 C 270.477 190.251,269.613 188.828,269.613 188.448 C 269.613 187.032,271.787 187.137,272.564 188.590 M43.354 190.147 C 43.266 190.603,43.194 190.230,43.194 189.319 C 43.194 188.407,43.266 188.034,43.354 188.490 C 43.442 188.946,43.442 189.692,43.354 190.147 M257.869 188.214 C 257.886 188.517,258.033 189.180,258.195 189.687 L 258.490 190.608 258.521 189.687 C 258.538 189.180,258.392 188.517,258.195 188.214 C 257.878 187.723,257.842 187.723,257.869 188.214 M42.993 194.561 C 42.911 195.223,42.842 194.770,42.840 193.554 C 42.838 192.339,42.905 191.797,42.989 192.351 C 43.073 192.904,43.075 193.899,42.993 194.561 M355.224 228.453 C 353.529 230.486,352.595 231.427,351.565 232.139 L 350.460 232.903 351.587 231.645 C 352.207 230.953,353.168 229.765,353.724 229.006 C 354.279 228.246,354.999 227.624,355.324 227.624 C 355.837 227.624,355.824 227.734,355.224 228.453 M352.819 229.190 C 350.113 233.131,350.436 233.007,334.384 236.279 C 294.524 244.404,228.896 250.691,155.433 253.423 C 147.217 253.728,130.666 253.992,87.905 254.500 L 86.859 254.512 87.784 253.413 C 88.701 252.323,90.099 249.045,90.498 247.049 L 90.705 246.012 100.325 246.303 C 115.125 246.749,170.978 246.617,184.899 246.102 C 198.547 245.597,218.104 244.709,223.665 244.341 L 227.256 244.104 227.256 245.264 C 227.256 247.430,227.333 247.433,246.341 245.893 C 264.241 244.442,264.917 244.329,267.083 242.427 C 268.316 241.345,268.599 241.277,274.238 240.701 C 294.434 238.640,320.738 234.598,342.357 230.232 C 348.232 229.045,353.174 228.056,353.340 228.034 C 353.506 228.011,353.271 228.531,352.819 229.190 M54.144 234.317 C 53.435 234.750,52.467 235.340,51.994 235.629 C 51.520 235.918,51.221 236.242,51.327 236.349 C 51.595 236.617,55.617 234.282,55.617 233.859 C 55.617 233.411,55.637 233.405,54.144 234.317 M318.969 233.926 C 310.478 235.604,273.874 240.498,269.705 240.513 C 267.456 240.521,269.279 239.854,272.099 239.637 C 274.654 239.441,287.621 237.942,298.158 236.624 C 302.094 236.132,315.296 234.218,316.759 233.927 C 317.670 233.746,318.913 233.598,319.521 233.598 C 320.335 233.598,320.189 233.685,318.969 233.926 M224.217 243.731 C 223.458 243.810,222.215 243.810,221.455 243.731 C 220.695 243.651,221.317 243.586,222.836 243.586 C 224.355 243.586,224.977 243.651,224.217 243.731 M217.219 244.101 C 216.257 244.177,214.682 244.177,213.720 244.101 C 212.758 244.025,213.545 243.963,215.470 243.963 C 217.394 243.963,218.181 244.025,217.219 244.101 M296.419 244.222 C 293.955 245.659,285.083 246.883,285.083 245.787 C 285.083 245.173,285.619 245.022,289.595 244.512 C 295.207 243.792,297.312 243.702,296.419 244.222 M209.865 244.469 C 208.910 244.545,207.252 244.546,206.182 244.471 C 205.111 244.396,205.893 244.334,207.919 244.333 C 209.945 244.332,210.820 244.394,209.865 244.469 M284.279 246.308 C 284.078 248.036,279.538 248.891,275.184 248.020 C 273.362 247.656,273.628 246.510,275.599 246.238 C 283.906 245.089,284.420 245.093,284.279 246.308 M89.057 245.896 L 90.176 246.120 89.614 248.014 C 88.111 253.082,86.747 254.515,83.436 254.506 C 80.616 254.499,79.998 254.158,81.062 253.196 C 82.082 252.273,83.024 250.400,83.786 247.779 L 84.398 245.672 86.168 245.672 C 87.141 245.672,88.441 245.773,89.057 245.896 M273.665 247.145 C 273.665 247.601,273.419 247.883,273.020 247.884 C 272.666 247.885,269.641 248.209,266.298 248.604 C 262.956 249.000,256.160 249.743,251.197 250.257 C 246.234 250.771,241.552 251.277,240.792 251.382 C 239.521 251.559,239.411 251.502,239.411 250.675 C 239.411 249.624,238.234 249.811,253.591 248.415 C 259.263 247.900,265.810 247.259,268.140 246.991 C 274.003 246.318,273.665 246.309,273.665 247.145 M238.604 251.070 C 238.436 253.046,236.879 253.511,231.123 253.304 C 226.079 253.122,225.414 252.937,225.414 251.710 C 225.414 251.129,225.634 250.818,226.059 250.796 C 226.413 250.778,229.024 250.551,231.860 250.292 C 239.487 249.595,238.737 249.509,238.604 251.070 M224.678 251.709 C 224.678 252.760,224.579 252.783,216.759 253.575 C 212.659 253.991,187.045 255.985,185.808 255.985 C 185.713 255.985,185.635 255.417,185.635 254.723 C 185.635 253.195,184.821 253.325,199.816 252.467 C 205.488 252.143,213.029 251.664,216.575 251.403 C 220.120 251.142,223.393 250.906,223.849 250.879 C 224.491 250.840,224.678 251.027,224.678 251.709 M185.267 254.536 C 185.267 257.232,182.965 258.083,176.692 257.705 C 172.260 257.438,171.129 256.970,170.971 255.338 C 170.908 254.681,170.908 254.121,170.971 254.094 C 171.181 254.003,179.880 253.537,182.597 253.472 L 185.267 253.407 185.267 254.536 M170.534 255.377 L 170.534 256.610 166.215 256.856 C 137.939 258.471,114.003 258.833,110.313 257.702 C 106.971 256.677,105.473 255.004,108.195 255.337 C 109.949 255.551,147.113 254.944,156.169 254.553 C 159.917 254.392,164.682 254.234,166.759 254.202 L 170.534 254.144 170.534 255.377 " stroke="none" fill="#000000" fill-rule="evenodd"></path></g></svg>