<svg id="svg" xmlns="http://www.w3.org/2000/svg" xmlns:xlink="http://www.w3.org/1999/xlink" width="400" height="248.0836236933798" viewBox="0, 0, 400,248.0836236933798"><g id="svgg"><path id="path0" d="M50.618 10.128 C 49.112 10.584,48.900 11.081,47.914 16.458 C 44.358 35.849,23.683 153.457,22.508 160.980 C 20.449 174.158,19.914 192.058,21.421 197.368 C 23.750 205.578,32.987 216.184,40.831 219.652 C 46.684 222.241,54.665 222.936,91.266 224.044 C 100.375 224.320,103.033 224.503,103.461 224.885 C 108.012 228.951,160.592 228.047,214.634 222.974 C 264.916 218.255,313.499 210.051,314.487 206.112 C 314.647 205.475,315.221 205.224,318.053 204.552 C 337.949 199.831,362.284 190.596,370.209 184.758 C 379.769 177.716,381.770 168.562,376.684 155.134 C 363.228 119.602,331.548 58.614,324.903 55.447 C 278.539 33.351,207.476 17.482,132.056 12.383 C 106.774 10.673,53.666 9.202,50.618 10.128 M52.472 21.804 L 53.566 32.230 52.828 32.832 C 51.261 34.111,51.196 33.947,50.539 27.051 C 50.358 25.160,50.128 23.531,50.027 23.430 C 49.344 22.747,48.862 24.533,48.256 29.986 C 47.618 35.717,47.556 35.974,46.744 36.283 C 45.434 36.781,45.419 36.967,47.695 24.162 C 50.685 7.335,50.942 7.208,52.472 21.804 M88.850 11.494 C 187.342 14.559,256.897 27.524,320.136 54.605 C 326.436 57.302,327.007 57.910,333.797 69.134 C 334.813 70.813,335.405 70.962,326.307 67.257 C 258.769 39.762,164.390 27.219,61.339 32.043 C 57.419 32.227,54.187 32.344,54.156 32.303 C 54.124 32.263,53.681 28.153,53.170 23.171 C 52.660 18.188,52.151 13.445,52.040 12.631 L 51.837 11.150 64.856 11.151 C 72.016 11.152,82.814 11.307,88.850 11.494 M49.131 30.900 C 48.902 33.356,48.557 35.523,48.363 35.714 C 48.125 35.949,48.074 35.721,48.205 35.017 C 48.313 34.443,48.592 32.209,48.825 30.054 C 49.058 27.899,49.316 26.203,49.397 26.285 C 49.479 26.366,49.359 28.443,49.131 30.900 M50.884 34.345 C 51.433 36.097,51.614 34.961,40.563 99.202 C 26.358 181.776,26.848 178.576,27.307 185.736 C 28.013 196.738,37.250 209.425,46.664 212.322 L 48.955 213.027 47.735 213.282 C 42.507 214.376,34.191 208.913,27.470 199.969 C 22.076 192.789,21.518 185.137,24.918 164.983 C 26.816 153.729,46.619 39.224,46.905 37.848 C 47.046 37.169,47.430 36.725,48.095 36.475 C 49.192 36.060,49.284 35.748,49.712 31.010 L 49.980 28.049 50.264 30.662 C 50.420 32.099,50.699 33.757,50.884 34.345 M129.171 32.060 C 211.834 34.612,285.229 48.586,334.241 71.103 C 337.609 72.651,364.491 127.024,374.453 152.439 C 379.452 165.192,379.476 172.709,374.540 179.321 C 369.146 186.547,345.759 196.519,317.944 203.454 C 315.645 204.027,312.979 204.746,312.021 205.050 C 290.615 211.852,221.045 220.491,161.324 223.763 C 150.552 224.354,111.576 224.335,107.143 223.737 C 105.418 223.505,99.303 223.176,93.554 223.006 C 76.188 222.493,60.002 221.735,51.465 221.036 L 48.749 220.813 49.723 220.216 C 53.990 217.601,57.342 209.177,58.947 197.038 C 61.031 181.277,56.592 49.563,53.456 34.089 C 53.194 32.796,52.826 32.839,67.770 32.409 C 75.052 32.199,82.265 31.987,83.798 31.937 C 91.840 31.678,119.199 31.752,129.171 32.060 M53.095 36.034 C 57.188 75.993,60.507 184.220,58.094 199.097 C 56.291 210.220,53.073 217.827,49.361 219.747 C 45.817 221.579,35.192 216.730,35.192 213.280 C 35.192 209.963,35.739 209.646,38.547 211.337 C 50.587 218.589,55.997 212.615,57.109 190.837 C 58.074 171.934,55.378 82.601,52.605 41.638 C 52.193 35.541,52.184 33.798,52.565 33.798 C 52.730 33.798,52.969 34.804,53.095 36.034 M46.341 37.492 C 46.341 37.607,41.629 64.929,35.868 98.206 C 30.108 131.484,24.872 161.768,24.232 165.505 C 20.222 188.920,21.889 196.547,33.399 207.432 C 34.733 208.694,35.447 209.618,35.283 209.871 C 35.139 210.095,34.936 211.220,34.832 212.369 L 34.644 214.460 32.376 212.195 C 23.605 203.437,21.771 198.670,21.789 184.669 C 21.808 169.721,21.081 174.432,38.868 73.968 C 42.403 53.998,45.296 37.574,45.296 37.470 C 45.296 37.367,45.531 37.282,45.819 37.282 C 46.106 37.282,46.341 37.377,46.341 37.492 M52.937 69.338 C 54.580 102.007,55.565 130.408,55.963 156.620 L 56.196 171.951 55.490 171.091 C 54.188 169.506,52.730 172.034,53.047 175.328 C 53.290 177.860,54.117 178.548,55.291 177.195 L 56.184 176.168 55.998 186.080 C 55.500 212.782,50.722 218.238,38.467 206.099 C 27.436 195.171,25.964 188.557,29.625 166.376 C 31.249 156.542,50.868 42.414,51.128 41.289 C 51.430 39.985,51.569 42.135,52.937 69.338 M55.209 174.028 C 55.190 175.935,54.526 177.314,53.918 176.706 C 53.463 176.250,53.534 173.010,54.019 172.103 C 54.649 170.926,55.229 171.866,55.209 174.028 M280.314 173.074 C 276.144 173.455,274.475 173.487,273.693 173.199 C 272.846 172.888,272.575 172.915,272.261 173.341 C 272.048 173.631,271.391 173.868,270.801 173.868 C 269.256 173.868,269.206 174.201,270.235 177.603 C 271.291 181.092,271.572 181.552,272.604 181.486 C 273.295 181.441,273.290 181.428,272.542 181.285 C 271.504 181.086,270.900 179.592,271.408 178.478 C 271.941 177.307,271.839 177.028,271.250 178.049 C 270.753 178.910,270.749 178.907,270.943 177.700 C 271.068 176.923,271.024 176.642,270.822 176.925 C 270.474 177.414,269.565 175.042,269.896 174.507 C 270.525 173.489,272.417 174.245,272.876 175.697 C 273.153 176.573,273.559 177.178,273.868 177.178 C 274.423 177.178,274.461 176.785,274.075 175.048 L 273.833 173.963 279.512 173.489 C 282.636 173.228,286.428 173.011,287.938 173.006 L 290.685 172.997 291.156 174.564 C 291.680 176.309,291.763 177.043,291.364 176.416 C 291.219 176.188,290.663 175.835,290.129 175.632 C 289.581 175.424,289.257 175.100,289.387 174.890 C 289.514 174.685,289.837 174.601,290.105 174.704 C 290.373 174.807,290.592 174.752,290.592 174.583 C 290.592 174.184,289.844 173.925,289.286 174.130 C 288.395 174.458,288.801 175.873,289.895 176.254 C 291.174 176.700,291.265 177.352,290.049 177.352 C 289.543 177.352,289.251 177.503,289.373 177.700 C 289.729 178.277,291.292 178.099,291.540 177.452 C 291.721 176.980,291.825 177.067,292.040 177.870 C 292.386 179.162,293.176 178.942,285.185 179.772 C 281.356 180.170,277.656 180.582,276.963 180.688 C 275.714 180.880,275.701 180.869,275.303 179.291 C 274.945 177.869,274.356 177.328,273.786 177.898 C 273.677 178.007,273.746 178.668,273.939 179.367 C 274.195 180.293,274.181 180.674,273.886 180.772 C 273.355 180.949,274.538 181.856,275.319 181.870 C 275.639 181.877,275.959 181.705,276.031 181.490 C 276.111 181.250,279.254 180.773,284.158 180.256 C 288.557 179.792,292.273 179.295,292.417 179.151 C 292.632 178.936,292.073 176.407,291.077 173.084 C 290.850 172.327,288.501 172.325,280.314 173.074 M285.784 174.634 C 285.140 175.278,285.288 176.788,286.076 177.635 C 287.567 179.235,289.335 177.970,288.483 175.913 C 287.864 174.418,286.599 173.819,285.784 174.634 M282.230 175.082 C 282.230 177.177,283.081 178.746,284.219 178.746 C 284.850 178.746,285.366 178.589,285.366 178.397 C 285.366 178.206,284.895 178.049,284.321 178.049 C 283.624 178.049,283.275 177.875,283.275 177.526 C 283.275 177.239,283.580 177.003,283.952 177.003 C 284.324 177.003,284.725 176.847,284.843 176.655 C 284.969 176.452,284.615 176.307,283.993 176.307 C 283.278 176.307,282.927 176.135,282.927 175.784 C 282.927 175.494,283.237 175.261,283.624 175.261 C 284.007 175.261,284.321 175.105,284.321 174.913 C 284.321 174.721,283.850 174.564,283.275 174.564 C 282.583 174.564,282.230 174.739,282.230 175.082 M274.626 175.261 C 274.732 175.549,275.096 176.725,275.435 177.875 C 275.774 179.024,276.123 179.765,276.211 179.520 C 276.472 178.794,275.595 175.682,274.991 175.191 C 274.524 174.812,274.465 174.823,274.626 175.261 M278.540 175.480 C 278.660 175.793,278.931 176.733,279.142 177.571 C 279.353 178.409,279.666 179.094,279.839 179.094 C 280.011 179.094,280.059 178.723,279.945 178.269 C 279.774 177.584,279.892 177.414,280.641 177.271 C 281.371 177.131,281.583 177.256,281.750 177.922 C 281.864 178.375,282.114 178.746,282.305 178.746 C 282.496 178.746,282.566 178.520,282.461 178.245 C 282.355 177.969,282.097 177.107,281.887 176.328 C 281.476 174.800,280.825 174.351,281.099 175.784 C 281.242 176.532,281.138 176.655,280.361 176.655 C 279.686 176.655,279.400 176.433,279.237 175.784 C 279.117 175.305,278.862 174.913,278.671 174.913 C 278.479 174.913,278.421 175.168,278.540 175.480 M287.624 175.479 C 288.325 176.179,288.184 177.480,287.391 177.631 C 286.517 177.797,285.500 176.113,286.064 175.434 C 286.616 174.769,286.923 174.778,287.624 175.479 M271.941 176.481 C 272.221 178.054,273.099 180.327,273.335 180.091 C 273.573 179.853,272.467 175.831,272.055 175.436 C 271.805 175.195,271.769 175.519,271.941 176.481 M276.521 176.850 C 276.394 177.181,276.372 177.534,276.473 177.634 C 276.573 177.734,276.666 177.594,276.680 177.323 C 276.694 177.031,276.827 177.115,277.003 177.526 C 277.201 177.986,277.309 178.045,277.322 177.700 C 277.356 176.765,276.786 176.160,276.521 176.850 M313.240 205.852 C 313.240 206.552,301.924 209.584,292.334 211.455 C 261.149 217.536,215.576 222.550,164.634 225.504 C 145.493 226.613,108.628 226.019,105.437 224.549 L 104.355 224.051 105.749 224.213 C 142.683 228.486,263.563 217.930,308.711 206.489 C 312.367 205.562,313.240 205.440,313.240 205.852 " stroke="none" fill="#000000" fill-rule="evenodd"></path></g></svg>