<?xml version="1.0" encoding="UTF-8" standalone="no"?>
<svg
   xmlns:dc="http://purl.org/dc/elements/1.1/"
   xmlns:cc="http://creativecommons.org/ns#"
   xmlns:rdf="http://www.w3.org/1999/02/22-rdf-syntax-ns#"
   xmlns:svg="http://www.w3.org/2000/svg"
   xmlns="http://www.w3.org/2000/svg"
   xmlns:xlink="http://www.w3.org/1999/xlink"
   xmlns:sodipodi="http://sodipodi.sourceforge.net/DTD/sodipodi-0.dtd"
   xmlns:inkscape="http://www.inkscape.org/namespaces/inkscape"
   id="svg"
   width="332.10162"
   height="234.95198"
   viewBox="0 0 332.10162 234.95199"
   version="1.1"
   sodipodi:docname="heos5_v2.svg"
   inkscape:version="0.92.4 (5da689c313, 2019-01-14)">
  <metadata
     id="metadata9">
    <rdf:RDF>
      <cc:Work
         rdf:about="">
        <dc:format>image/svg+xml</dc:format>
        <dc:type
           rdf:resource="http://purl.org/dc/dcmitype/StillImage" />
        <dc:title></dc:title>
      </cc:Work>
    </rdf:RDF>
  </metadata>
  <defs
     id="defs7">
    <linearGradient
       inkscape:collect="always"
       id="linearGradient905">
      <stop
         style="stop-color:#000000;stop-opacity:1;"
         offset="0"
         id="stop901" />
      <stop
         style="stop-color:#000000;stop-opacity:0;"
         offset="1"
         id="stop903" />
    </linearGradient>
    <linearGradient
       inkscape:collect="always"
       id="linearGradient895">
      <stop
         style="stop-color:#000000;stop-opacity:1;"
         offset="0"
         id="stop891" />
      <stop
         style="stop-color:#000000;stop-opacity:0;"
         offset="1"
         id="stop893" />
    </linearGradient>
    <linearGradient
       inkscape:collect="always"
       id="linearGradient883">
      <stop
         style="stop-color:#000000;stop-opacity:1;"
         offset="0"
         id="stop879" />
      <stop
         style="stop-color:#000000;stop-opacity:0;"
         offset="1"
         id="stop881" />
    </linearGradient>
    <linearGradient
       inkscape:collect="always"
       id="linearGradient873">
      <stop
         style="stop-color:#000000;stop-opacity:1;"
         offset="0"
         id="stop869" />
      <stop
         style="stop-color:#000000;stop-opacity:0;"
         offset="1"
         id="stop871" />
    </linearGradient>
    <linearGradient
       inkscape:collect="always"
       id="linearGradient863">
      <stop
         style="stop-color:#000000;stop-opacity:1;"
         offset="0"
         id="stop859" />
      <stop
         style="stop-color:#000000;stop-opacity:0;"
         offset="1"
         id="stop861" />
    </linearGradient>
    <linearGradient
       inkscape:collect="always"
       id="linearGradient837">
      <stop
         style="stop-color:#000000;stop-opacity:1;"
         offset="0"
         id="stop833" />
      <stop
         style="stop-color:#000000;stop-opacity:0;"
         offset="1"
         id="stop835" />
    </linearGradient>
    <linearGradient
       inkscape:collect="always"
       id="linearGradient827">
      <stop
         style="stop-color:#000000;stop-opacity:1;"
         offset="0"
         id="stop823" />
      <stop
         style="stop-color:#000000;stop-opacity:0;"
         offset="1"
         id="stop825" />
    </linearGradient>
    <linearGradient
       inkscape:collect="always"
       xlink:href="#linearGradient827"
       id="linearGradient829"
       x1="71.854919"
       y1="135.18362"
       x2="372.61722"
       y2="135.18362"
       gradientUnits="userSpaceOnUse"
       gradientTransform="translate(-40.666364,-24.149073)" />
    <linearGradient
       inkscape:collect="always"
       xlink:href="#linearGradient837"
       id="linearGradient839"
       x1="86.332588"
       y1="241.41335"
       x2="354.01205"
       y2="241.41335"
       gradientUnits="userSpaceOnUse"
       gradientTransform="translate(-40.666364,-24.149073)" />
    <linearGradient
       inkscape:collect="always"
       xlink:href="#linearGradient863"
       id="linearGradient865"
       x1="46.691376"
       y1="245.63828"
       x2="84.861282"
       y2="245.63828"
       gradientUnits="userSpaceOnUse"
       gradientTransform="translate(-40.666364,-24.149073)" />
    <linearGradient
       inkscape:collect="always"
       xlink:href="#linearGradient873"
       id="linearGradient875"
       x1="43.584213"
       y1="136.64034"
       x2="72.097267"
       y2="136.64034"
       gradientUnits="userSpaceOnUse"
       gradientTransform="translate(-40.666364,-24.149073)" />
    <linearGradient
       inkscape:collect="always"
       xlink:href="#linearGradient883"
       id="linearGradient885"
       x1="51.949001"
       y1="238.52882"
       x2="80.460266"
       y2="238.52882"
       gradientUnits="userSpaceOnUse"
       gradientTransform="translate(-40.666364,-24.149073)" />
    <linearGradient
       inkscape:collect="always"
       xlink:href="#linearGradient895"
       id="linearGradient897"
       x1="41.064011"
       y1="220.26126"
       x2="49.488621"
       y2="220.26126"
       gradientUnits="userSpaceOnUse"
       gradientTransform="translate(-40.666364,-24.149073)" />
    <linearGradient
       inkscape:collect="always"
       xlink:href="#linearGradient905"
       id="linearGradient907"
       x1="48.399143"
       y1="210.53345"
       x2="94.31588"
       y2="210.53345"
       gradientUnits="userSpaceOnUse"
       gradientTransform="translate(-40.666364,-24.149073)" />
  </defs>
  <sodipodi:namedview
     pagecolor="#ffffff"
     bordercolor="#666666"
     borderopacity="1"
     objecttolerance="10"
     gridtolerance="10"
     guidetolerance="10"
     inkscape:pageopacity="0"
     inkscape:pageshadow="2"
     inkscape:window-width="1718"
     inkscape:window-height="1368"
     id="namedview5"
     showgrid="false"
     fit-margin-top="0"
     fit-margin-left="0"
     fit-margin-right="0"
     fit-margin-bottom="0"
     inkscape:zoom="0.71"
     inkscape:cx="231.60865"
     inkscape:cy="518.90619"
     inkscape:window-x="1713"
     inkscape:window-y="0"
     inkscape:window-maximized="0"
     inkscape:current-layer="svg" />
  <g
     id="svgg"
     transform="translate(-40.666364,-24.149073)">
    <path
       id="path0"
       d="m 75.672,24.627 c -6.155,0.326 -6.931,0.897 -8.255,6.074 -6.848,26.778 -25.537,146.758 -25.967,166.707 -0.068,3.147 -0.223,6.013 -0.345,6.367 -0.121,0.355 -0.294,0.881 -0.383,1.17 -0.655,2.12 4.642,31.292 7.026,38.701 1.208,3.754 0.968,3.634 15.051,7.573 16.584,4.64 18.26,4.865 33.22,4.469 l 9.647,-0.255 1.276,1.17 c 2.587,2.373 6.944,2.795 24.08,2.332 13.063,-0.352 34.638,-1.302 37.72,-1.66 0.939,-0.11 2.182,-0.012 2.762,0.216 3.222,1.265 11.655,1.07 13.685,-0.316 0.847,-0.579 2.815,-0.809 12.969,-1.515 6.584,-0.458 14.457,-1.096 17.496,-1.417 6.35,-0.673 10.175,-0.755 14.396,-0.312 3.782,0.397 6.778,0.028 8.333,-1.027 1.015,-0.689 2.279,-0.931 7.778,-1.49 3.611,-0.368 11.236,-1.192 16.943,-1.832 7.865,-0.882 10.912,-1.09 12.587,-0.859 3.781,0.522 7.328,0.152 8.731,-0.911 0.969,-0.734 1.806,-0.964 4.16,-1.144 3.348,-0.255 7.379,-1.386 8.732,-2.45 0.702,-0.553 2.744,-0.984 8.798,-1.86 13.337,-1.929 30.032,-4.945 36.859,-6.658 1.553,-0.39 3.474,-0.709 4.269,-0.709 3.531,0 10.789,-5.953 10.216,-8.38 -0.127,-0.536 -0.026,-0.828 0.285,-0.828 1.631,0 11.889,-18.093 13.887,-24.494 2.899,-9.286 0.612,-19.378 -10.847,-47.882 C 345.556,115.536 318.602,62.917 313.008,60.145 304.206,55.783 261.677,43.844 235.908,38.502 186.652,28.291 118.274,22.37 75.672,24.627 m 47.348,1.553 c 64.593,2.361 129.32,13.995 184.585,33.177 5.904,2.049 6.101,2.201 9.061,7 14.536,23.563 35.675,67.464 46.881,97.363 9.351,24.95 10.054,31.546 4.567,42.91 -4.073,8.438 -9.548,17.454 -10.971,18.068 -0.434,0.188 -1.204,0.663 -1.71,1.055 -3.033,2.35 -60.504,11.428 -85.636,13.527 -2.029,0.17 -2.926,0.356 -2.312,0.48 1.263,0.256 0.852,0.914 -0.634,1.016 -0.608,0.041 -7.155,0.584 -14.549,1.205 -7.394,0.621 -15.729,1.235 -18.522,1.363 -4.655,0.215 -7.586,0.859 -3.875,0.852 2.819,-0.005 31.406,-2.219 36.025,-2.79 l 1.657,-0.204 -0.92,0.773 c -2.133,1.792 -2.446,1.844 -20.178,3.307 -18.814,1.553 -18.496,1.564 -18.496,-0.68 v -1.413 l 4.143,-0.247 c 2.279,-0.136 6.133,-0.407 8.564,-0.602 2.431,-0.195 5.497,-0.433 6.814,-0.529 1.317,-0.096 3.72,-0.285 5.341,-0.421 1.62,-0.135 3.36,-0.275 3.867,-0.31 6.363,-0.442 8.497,-0.705 7.998,-0.984 -0.322,-0.18 -2.06,-0.166 -4.007,0.033 -14.151,1.444 -42.214,3.141 -67.527,4.084 -29.869,1.113 -104.11,0.579 -106.284,-0.764 -0.793,-0.491 -0.47,-1.947 2.539,-11.422 7.789,-24.533 8.479,-32.195 5.568,-61.861 C 91.097,130.281 75.89,30.994 73.024,26.62 l -0.54,-0.823 8.233,-0.122 c 11.247,-0.166 30.095,0.058 42.303,0.505 m -50.748,0.616 c 3.373,3.861 20.446,118.179 23.118,154.788 1.478,20.243 0.455,28.392 -6.142,48.962 -4.124,12.86 -4.16,13.176 -1.58,13.704 5.293,1.082 72.972,1.551 100.467,0.695 8.364,-0.26 15.282,-0.399 15.373,-0.308 0.264,0.264 -22.232,1.003 -44.208,1.452 -19.931,0.407 -54.723,0.028 -69.025,-0.752 -7.648,-0.418 -7.609,-0.259 -3.319,-13.761 7.575,-23.839 8.279,-31.729 5.468,-61.226 C 88.792,132.251 75.195,39.446 71.953,30.622 71.388,29.086 71.309,29.025 70.124,29.217 l -1.238,0.201 0.722,-1.415 c 0.638,-1.25 1.126,-1.723 1.882,-1.823 0.12,-0.016 0.472,0.261 0.782,0.616 m -1.192,3.215 c 3.101,3.736 19.86,121.661 21.725,152.862 1.269,21.244 0.488,26.804 -7.142,50.816 -1.89,5.946 -2.094,6.898 -2.011,9.392 0.215,6.518 -2.5,11.005 -6.408,10.592 -1.961,-0.208 -25.162,-6.593 -26.44,-7.277 -2.135,-1.143 -7.705,-25.844 -8.684,-38.512 -0.263,-3.396 0.369,-5.704 0.742,-2.713 1.46,11.703 3.176,21.606 4.967,28.659 1.595,6.285 0.56,5.695 16.257,9.276 13.781,3.145 14.708,3.243 16.146,1.712 2.738,-2.914 10.381,-28.667 12.045,-40.582 0.313,-2.24 0.224,-12.754 -0.146,-17.312 -0.184,-2.263 -0.263,-0.103 -0.252,6.814 0.02,11.271 -0.162,12.803 -2.75,23.205 -2.898,11.643 -8.151,26.736 -9.679,27.805 C 78.192,245.63 77.121,245.47 63.723,242.4 48.215,238.848 49.781,239.987 47.714,230.755 42.828,208.937 42.484,200.104 45.519,174.401 50.09,135.683 66.293,36.165 68.53,33.065 l 0.725,-1.004 -0.943,-0.237 c -1.066,-0.267 -0.455,-1.366 1.117,-2.01 1.041,-0.426 1.145,-0.413 1.651,0.197 m -4.178,10.761 c -8.661,45.156 -23.071,144.134 -23.071,158.462 0,10.16 4.749,35.748 7.016,37.799 0.887,0.803 24.994,6.136 27.054,5.985 l 1.473,-0.108 1.697,-4.236 C 85.896,226.63 89.848,212.479 90.998,203.131 92.622,189.919 83.181,110.184 73.27,53.407 69.818,33.633 69.918,34.088 69.011,33.958 c -0.733,-0.105 -0.862,0.311 -2.109,6.814 m 4.025,6.742 c 0.168,1.812 -0.05,3.916 -0.897,8.655 -6.141,34.366 -16.538,104.111 -18.846,126.417 -1.425,13.772 -1.533,15.398 -1.287,19.256 0.666,10.412 3.738,27.569 5.588,31.204 0.761,1.493 0.625,1.453 13.392,3.986 12.184,2.417 10.858,1.922 10.115,3.778 -0.855,2.137 -0.45,2.163 -14.587,-0.936 -15.114,-3.314 -13.369,-2.156 -15.44,-10.245 -4.286,-16.752 -5.142,-28.401 -3.325,-45.283 3.33,-30.94 17.573,-123.774 22.745,-148.25 0.304,-1.441 2.095,6.603 2.542,11.418 m 1.986,10.681 c 5.398,31.287 12.061,80.614 15.1,111.787 2.791,28.621 2.585,34.278 -1.812,49.805 -1.368,4.83 -5.631,17.489 -6.194,18.392 -0.269,0.431 -20.956,-3.452 -22.844,-4.288 -3.684,-1.631 -7.737,-30.697 -6.158,-44.163 0.3,-2.555 0.893,-7.877 1.319,-11.827 1.865,-17.317 7.097,-53.167 13.816,-94.66 4.404,-27.2 5.33,-32.526 5.543,-31.86 0.065,0.203 0.618,3.269 1.23,6.814 m 5.257,17.68 c 0,0.709 0.076,0.999 0.169,0.644 0.092,-0.354 0.092,-0.934 0,-1.289 -0.093,-0.354 -0.169,-0.064 -0.169,0.645 m 0.347,2.21 c -0.012,0.506 0.116,1.584 0.283,2.394 0.196,0.945 0.313,1.143 0.326,0.552 0.012,-0.506 -0.116,-1.583 -0.284,-2.394 -0.195,-0.945 -0.312,-1.143 -0.325,-0.552 m 0.724,4.604 c -0.01,1.126 4.655,32.524 4.699,31.625 0.041,-0.845 -4.295,-31.379 -4.543,-31.994 -0.082,-0.202 -0.152,-0.036 -0.156,0.369 m 4.822,33.701 c 0,0.709 0.076,1 0.169,0.645 0.092,-0.355 0.092,-0.935 0,-1.289 -0.093,-0.355 -0.169,-0.065 -0.169,0.644 m 0.376,2.763 c 0.004,0.81 0.08,1.098 0.168,0.64 0.088,-0.458 0.084,-1.121 -0.008,-1.473 -0.092,-0.352 -0.164,0.023 -0.16,0.833 m 0.361,2.762 c 0,0.709 0.076,0.999 0.168,0.645 0.093,-0.355 0.093,-0.935 0,-1.289 -0.092,-0.355 -0.168,-0.065 -0.168,0.644 m 0.368,2.947 c 0,0.709 0.076,0.999 0.169,0.644 0.092,-0.354 0.092,-0.934 0,-1.289 -0.093,-0.354 -0.169,-0.064 -0.169,0.645 m 0.369,2.578 c 0,0.709 0.075,0.999 0.168,0.645 0.093,-0.355 0.093,-0.935 0,-1.289 -0.093,-0.355 -0.168,-0.065 -0.168,0.644 m 0.368,2.947 c 0,0.709 0.076,0.999 0.168,0.644 0.093,-0.354 0.093,-0.934 0,-1.289 -0.092,-0.354 -0.168,-0.064 -0.168,0.645 m 0.376,2.762 c 0.004,0.81 0.079,1.099 0.167,0.64 0.088,-0.458 0.085,-1.121 -0.007,-1.473 -0.092,-0.352 -0.164,0.023 -0.16,0.833 m 0.361,2.763 c 0,0.709 0.075,0.999 0.168,0.644 0.093,-0.354 0.093,-0.934 0,-1.289 -0.093,-0.354 -0.168,-0.064 -0.168,0.645 m 0.368,2.946 c 0,0.709 0.076,0.999 0.168,0.645 0.093,-0.355 0.093,-0.935 0,-1.289 -0.092,-0.355 -0.168,-0.065 -0.168,0.644 m 1.473,12.523 c 0,0.709 0.076,0.999 0.169,0.645 0.092,-0.355 0.092,-0.935 0,-1.289 -0.093,-0.355 -0.169,-0.065 -0.169,0.644 m 0.737,6.262 c 0,0.709 0.076,0.999 0.168,0.644 0.093,-0.354 0.093,-0.934 0,-1.289 -0.092,-0.354 -0.168,-0.064 -0.168,0.645 m 1.842,18.416 c 0,0.709 0.075,0.999 0.168,0.644 0.093,-0.354 0.093,-0.934 0,-1.289 -0.093,-0.354 -0.168,-0.064 -0.168,0.645 m 0.397,4.604 c 0.002,1.215 0.07,1.668 0.152,1.006 0.082,-0.662 0.081,-1.656 -0.003,-2.21 -0.084,-0.553 -0.152,-0.011 -0.149,1.204 m 161.211,3.683 c -0.261,0.315 -1.064,0.553 -1.865,0.553 -1.905,0 -1.992,0.283 -1.279,4.173 0.885,4.83 0.997,5.035 2.751,5.035 0.805,0 1.885,0.192 2.4,0.427 0.761,0.346 1.059,0.318 1.583,-0.15 0.539,-0.481 2.429,-0.621 11.415,-0.844 12.749,-0.318 11.84,0.106 10.646,-4.96 -1.012,-4.29 -1.207,-4.512 -3.735,-4.255 -4.079,0.415 -19.515,0.342 -20.326,-0.096 -1.015,-0.549 -1.038,-0.548 -1.59,0.117 m 24.644,1.934 c 0.753,2.867 1.445,6.17 1.32,6.296 -0.149,0.148 -15.47,0.751 -19.754,0.777 l -2.815,0.017 -0.318,-1.749 c -0.5,-2.747 -2.171,-2.882 -1.795,-0.146 l 0.255,1.85 -1.38,0.259 c -1.819,0.341 -2.508,-0.487 -2.193,-2.636 0.23,-1.568 -0.043,-2.858 -0.541,-2.551 -0.376,0.233 -0.726,-2.484 -0.37,-2.879 0.993,-1.101 3.13,-0.057 3.446,1.683 0.277,1.527 0.433,1.749 1.223,1.749 0.687,0 0.862,-0.156 0.725,-0.644 -0.1,-0.355 -0.289,-1.177 -0.419,-1.827 l -0.238,-1.181 3.065,-0.125 c 1.685,-0.068 6.746,-0.158 11.245,-0.199 l 8.181,-0.075 0.363,1.381 m -7.508,0.592 c -1.639,1.199 -0.06,4.823 1.997,4.581 1.936,-0.228 2.115,-3.241 0.269,-4.534 -0.966,-0.676 -1.392,-0.685 -2.266,-0.047 m 4.043,-0.132 c -0.546,0.884 0.176,2.187 1.386,2.501 0.656,0.17 1.192,0.547 1.192,0.838 0,0.497 -0.563,0.607 -1.528,0.296 -0.936,-0.3 -0.61,0.608 0.337,0.942 0.79,0.277 1.15,0.226 1.603,-0.227 0.855,-0.855 0.321,-2.027 -1.168,-2.565 -1.524,-0.551 -1.792,-1.627 -0.313,-1.256 0.694,0.174 0.914,0.109 0.801,-0.236 -0.2,-0.609 -1.975,-0.834 -2.31,-0.293 m -22.023,0.245 c -0.26,0.42 0.493,4.245 0.95,4.829 0.634,0.809 0.697,0.232 0.238,-2.183 -0.446,-2.352 -0.835,-3.218 -1.188,-2.646 m 3.791,0.173 c 0,1.158 0.904,5.107 1.169,5.107 0.418,0 0.381,-1.446 -0.095,-3.665 -0.349,-1.629 -1.074,-2.602 -1.074,-1.442 m 4.788,-0.067 c 0,0.192 0.184,1.228 0.408,2.302 0.465,2.228 1.25,3.412 0.988,1.491 -0.155,-1.137 -0.104,-1.197 1.026,-1.197 1.006,0 1.258,0.185 1.631,1.197 0.243,0.658 0.511,1.021 0.596,0.807 0.248,-0.629 -0.791,-4.708 -1.237,-4.857 -0.253,-0.084 -0.328,0.166 -0.199,0.66 0.223,0.854 -0.372,1.441 -1.473,1.451 -0.433,0.003 -0.728,-0.367 -0.874,-1.1 -0.202,-1.007 -0.866,-1.586 -0.866,-0.754 m 4.55,0.294 c 0.224,0.801 0.471,1.815 0.764,3.131 0.228,1.026 3.158,1.624 3.158,0.644 0,-0.202 -0.58,-0.368 -1.29,-0.368 -1.043,0 -1.289,-0.14 -1.289,-0.737 0,-0.573 0.246,-0.736 1.105,-0.736 0.608,0 1.105,-0.166 1.105,-0.369 0,-0.202 -0.58,-0.368 -1.289,-0.368 -0.9,0 -1.289,-0.167 -1.289,-0.553 0,-0.368 0.368,-0.552 1.105,-0.552 0.608,0 1.105,-0.166 1.105,-0.368 0,-0.203 -0.757,-0.369 -1.682,-0.369 -1.425,0 -1.655,0.099 -1.503,0.645 m 7.609,1.205 c 0.702,1.311 -0.528,2.701 -1.699,1.92 -0.388,-0.259 -1.252,-1.682 -1.252,-2.062 0,-1.416 2.174,-1.311 2.951,0.142 m -229.21,1.557 c -0.088,0.456 -0.16,0.083 -0.16,-0.828 0,-0.912 0.072,-1.285 0.16,-0.829 0.088,0.456 0.088,1.202 0,1.657 m 214.515,-1.933 c 0.017,0.303 0.164,0.966 0.326,1.473 l 0.295,0.921 0.031,-0.921 c 0.017,-0.507 -0.129,-1.17 -0.326,-1.473 -0.317,-0.491 -0.353,-0.491 -0.326,0 m -214.876,6.347 c -0.082,0.662 -0.151,0.209 -0.153,-1.007 -0.002,-1.215 0.065,-1.757 0.149,-1.203 0.084,0.553 0.086,1.548 0.004,2.21 m 312.231,33.892 c -1.695,2.033 -2.629,2.974 -3.659,3.686 l -1.105,0.764 1.127,-1.258 c 0.62,-0.692 1.581,-1.88 2.137,-2.639 0.555,-0.76 1.275,-1.382 1.6,-1.382 0.513,0 0.5,0.11 -0.1,0.829 m -2.405,0.737 c -2.706,3.941 -2.383,3.817 -18.435,7.089 -39.86,8.125 -105.488,14.412 -178.951,17.144 -8.216,0.305 -24.767,0.569 -67.528,1.077 l -1.046,0.012 0.925,-1.099 c 0.917,-1.09 2.315,-4.368 2.714,-6.364 l 0.207,-1.037 9.62,0.291 c 14.8,0.446 70.653,0.314 84.574,-0.201 13.648,-0.505 33.205,-1.393 38.766,-1.761 l 3.591,-0.237 v 1.16 c 0,2.166 0.077,2.169 19.085,0.629 17.9,-1.451 18.576,-1.564 20.742,-3.466 1.233,-1.082 1.516,-1.15 7.155,-1.726 20.196,-2.061 46.5,-6.103 68.119,-10.469 5.875,-1.187 10.817,-2.176 10.983,-2.198 0.166,-0.023 -0.069,0.497 -0.521,1.156 m -298.675,5.127 c -0.709,0.433 -1.677,1.023 -2.15,1.312 -0.474,0.289 -0.773,0.613 -0.667,0.72 0.268,0.268 4.29,-2.067 4.29,-2.49 0,-0.448 0.02,-0.454 -1.473,0.458 m 264.825,-0.391 c -8.491,1.678 -45.095,6.572 -49.264,6.587 -2.249,0.008 -0.426,-0.659 2.394,-0.876 2.555,-0.196 15.522,-1.695 26.059,-3.013 3.936,-0.492 17.138,-2.406 18.601,-2.697 0.911,-0.181 2.154,-0.329 2.762,-0.329 0.814,0 0.668,0.087 -0.552,0.328 m -94.752,9.805 c -0.759,0.079 -2.002,0.079 -2.762,0 -0.76,-0.08 -0.138,-0.145 1.381,-0.145 1.519,0 2.141,0.065 1.381,0.145 m -6.998,0.37 c -0.962,0.076 -2.537,0.076 -3.499,0 -0.962,-0.076 -0.175,-0.138 1.75,-0.138 1.924,0 2.711,0.062 1.749,0.138 m 79.2,0.121 c -2.464,1.437 -11.336,2.661 -11.336,1.565 0,-0.614 0.536,-0.765 4.512,-1.275 5.612,-0.72 7.717,-0.81 6.824,-0.29 m -86.554,0.247 c -0.955,0.076 -2.613,0.077 -3.683,0.002 -1.071,-0.075 -0.289,-0.137 1.737,-0.138 2.026,-0.001 2.901,0.061 1.946,0.136 m 74.414,1.839 c -0.201,1.728 -4.741,2.583 -9.095,1.712 -1.822,-0.364 -1.556,-1.51 0.415,-1.782 8.307,-1.149 8.821,-1.145 8.68,0.07 m -195.222,-0.412 1.119,0.224 -0.562,1.894 c -1.503,5.068 -2.867,6.501 -6.178,6.492 -2.82,-0.007 -3.438,-0.348 -2.374,-1.31 1.02,-0.923 1.962,-2.796 2.724,-5.417 l 0.612,-2.107 h 1.77 c 0.973,0 2.273,0.101 2.889,0.224 m 184.608,1.249 c 0,0.456 -0.246,0.738 -0.645,0.739 -0.354,0.001 -3.379,0.325 -6.722,0.72 -3.342,0.396 -10.138,1.139 -15.101,1.653 -4.963,0.514 -9.645,1.02 -10.405,1.125 -1.271,0.177 -1.381,0.12 -1.381,-0.707 0,-1.051 -1.177,-0.864 14.18,-2.26 5.672,-0.515 12.219,-1.156 14.549,-1.424 5.863,-0.673 5.525,-0.682 5.525,0.154 m -35.061,3.925 c -0.168,1.976 -1.725,2.441 -7.481,2.234 -5.044,-0.182 -5.709,-0.367 -5.709,-1.594 0,-0.581 0.22,-0.892 0.645,-0.914 0.354,-0.018 2.965,-0.245 5.801,-0.504 7.627,-0.697 6.877,-0.783 6.744,0.778 m -13.926,0.639 c 0,1.051 -0.099,1.074 -7.919,1.866 -4.1,0.416 -29.714,2.41 -30.951,2.41 -0.095,0 -0.173,-0.568 -0.173,-1.262 0,-1.528 -0.814,-1.398 14.181,-2.256 5.672,-0.324 13.213,-0.803 16.759,-1.064 3.545,-0.261 6.818,-0.497 7.274,-0.524 0.642,-0.039 0.829,0.148 0.829,0.83 m -39.411,2.827 c 0,2.696 -2.302,3.547 -8.575,3.169 -4.432,-0.267 -5.563,-0.735 -5.721,-2.367 -0.063,-0.657 -0.063,-1.217 0,-1.244 0.21,-0.091 8.909,-0.557 11.626,-0.622 l 2.67,-0.065 v 1.129 m -14.733,0.841 v 1.233 l -4.319,0.246 c -28.276,1.615 -52.212,1.977 -55.902,0.846 -3.342,-1.025 -4.84,-2.698 -2.118,-2.365 1.754,0.214 38.918,-0.393 47.974,-0.784 3.748,-0.161 8.513,-0.319 10.59,-0.351 l 3.775,-0.058 v 1.233"
       inkscape:connector-curvature="0"
       style="fill:#000000;fill-rule:evenodd;stroke:none" />
  </g>
  <path
     style="fill-opacity:1;stroke:#000000;stroke-width:0.6654098;stroke-linecap:round;stroke-linejoin:miter;stroke-miterlimit:4;stroke-dasharray:none;stroke-dashoffset:0;stroke-opacity:1"
     d="m 30.659018,27.864344 c -1.644339,0.894371 -1.033654,3.380946 -1.643652,4.927514 -6.878497,41.315032 -13.595794,82.679702 -18.560628,124.275502 -2.0639356,13.67527 -1.3425606,27.64709 1.193634,41.20646 1.000882,3.94595 1.379561,8.40222 3.991527,11.68436 2.260319,1.59649 5.328391,1.42374 7.909066,2.2346 5.032784,0.84202 10.035078,2.31771 15.136434,2.5368 2.618962,-0.64589 2.388629,-4.11874 3.492002,-6.05935 3.182709,-9.80357 6.69792,-19.69583 7.554706,-30.035 0.599274,-15.7115 -1.518958,-31.36519 -3.082018,-46.96665 C 42.976943,99.466857 38.580562,67.340414 33.308115,35.36118 32.748161,32.994001 32.690621,30.415521 31.630078,28.209579 31.393167,27.873035 31.01165,27.915422 30.659018,27.864344 Z"
     id="path819"
     inkscape:connector-curvature="0" />
  <path
     style="fill:url(#linearGradient829);fill-opacity:1;stroke:#000000;stroke-width:0.6654098;stroke-linecap:round;stroke-linejoin:miter;stroke-miterlimit:4;stroke-dasharray:none;stroke-dashoffset:0;stroke-opacity:1"
     d="m 43.807538,0.60312012 c -4.055816,0.168592 -8.30094,-0.220612 -12.213221,0.76336898 -0.414188,1.728097 1.081114,3.39901 1.171823,5.202256 4.575528,21.7213849 7.659122,43.7445709 11.036311,65.6923279 4.09149,28.578747 8.41403,57.180787 10.750354,85.928997 1.051025,12.07725 0.585791,24.19425 -2.638402,35.88746 -1.876094,8.01647 -4.972453,15.78127 -6.770625,23.85476 -0.303815,2.56946 2.971338,2.46129 4.684061,2.59821 23.169397,1.07408 46.379437,0.95359 69.569001,0.90748 34.20589,-0.0711 68.38926,-1.88282 102.46899,-4.73327 0.83975,1.75853 3.31472,0.63823 4.82849,0.61758 1.33777,-0.0524 1.2005,-1.8588 2.73437,-1.40227 26.07452,-2.72137 52.06376,-6.42221 77.7955,-11.45377 4.2394,-0.84842 9.05426,-1.67874 11.65625,-5.56248 4.81635,-6.7135 8.53656,-14.20552 11.59496,-21.86537 3.02588,-9.5474 -0.59992,-19.47877 -3.56787,-28.5503 -10.36201,-29.43118 -23.79517,-57.687453 -38.17055,-85.345094 -4.74012,-8.613768 -9.08047,-17.558546 -15.0707,-25.395437 -2.28742,-2.408671 -5.90613,-2.771096 -8.82623,-4.081367 C 208.43931,14.52999 149.16399,4.5435451 89.760366,1.5182441 74.453206,0.87444412 59.128055,0.58567212 43.807538,0.60312012 Z M 213.02726,160.8419 c 7.50027,0.76356 15.0478,0.3742 22.56753,0.17193 1.004,2.08311 1.80117,4.56375 1.64158,6.86826 -5.48159,0.82425 -11.27426,0.51578 -16.90488,0.95869 -2.07122,-0.0299 -4.12825,0.5247 -6.1186,0.73654 -1.32812,-0.51072 -3.6182,0.30156 -3.85193,-1.71449 -0.42811,-1.96256 -1.14314,-4.27918 -0.83351,-6.15028 1.26191,0.0423 2.24997,-0.96348 3.49981,-0.87065 z"
     id="path821"
     inkscape:connector-curvature="0" />
  <path
     style="fill:url(#linearGradient839);fill-opacity:1;stroke:#000000;stroke-width:0.6654098;stroke-linecap:round;stroke-linejoin:miter;stroke-miterlimit:4;stroke-dasharray:none;stroke-dashoffset:0;stroke-opacity:1"
     d="m 311.78248,203.45991 c -16.49214,2.87818 -32.89828,6.29302 -49.46864,8.59417 -11.25038,1.77949 -22.58567,2.78062 -33.84245,4.43194 -2.38953,0.52086 -4.0334,2.77572 -6.62361,2.80539 -10.09162,1.32486 -20.35575,1.96681 -30.49382,2.63472 -1.15881,-0.14258 -2.9861,0.4114 -3.84318,-0.39293 0.45962,-1.66894 -0.79636,-2.95972 -2.47648,-2.31546 -22.4941,1.38236 -45.02806,2.13621 -67.57995,2.15637 -20.991064,0.0553 -42.039264,0.4025 -62.994128,-0.19346 -1.818149,0.19201 -5.187601,-1.35515 -5.414709,1.48591 -0.604281,2.44487 -1.640459,4.78311 -3.044148,6.84763 0.05261,2.22081 3.032817,1.33409 4.462587,1.56057 32.418124,-0.22598 64.851448,-0.61898 97.224068,-2.4812 41.73541,-2.37274 83.49657,-5.529 124.8339,-11.91292 11.95857,-2.04654 24.04104,-3.76427 35.70711,-7.16673 2.13987,-0.8247 4.17906,-2.68605 4.78378,-4.92201 0.0115,-0.65179 -0.57986,-1.20265 -1.23033,-1.13199 z"
     id="path831"
     inkscape:connector-curvature="0" />
  <path
     style="fill:#000000;fill-opacity:1;stroke:#000000;stroke-width:0.6654098;stroke-linecap:round;stroke-linejoin:miter;stroke-miterlimit:4;stroke-dasharray:none;stroke-dashoffset:0;stroke-opacity:1"
     d="m 43.240168,220.93213 c -1.082673,2.88034 -1.998664,5.89687 -3.770081,8.40256 -0.394577,2.13743 2.503581,1.70028 3.857422,1.72205 3.006655,0.37215 3.967409,-3.01023 5.082939,-5.09807 0.692769,-1.4965 2.009017,-4.52253 -0.471776,-5.06987 -1.5058,-0.21299 -3.275973,-0.54912 -4.698504,0.0433 z"
     id="path845"
     inkscape:connector-curvature="0" />
  <path
     style="fill:url(#linearGradient865);fill-opacity:1;stroke:#000000;stroke-width:0.6654098;stroke-linecap:round;stroke-linejoin:miter;stroke-miterlimit:4;stroke-dasharray:none;stroke-dashoffset:0;stroke-opacity:1"
     d="m 7.3233004,212.62928 c -1.921755,0.7342 -0.411483,3.20214 -0.214847,4.59526 0.778885,2.63498 1.761866,6.18814 5.0366506,6.52288 8.059635,2.22042 16.043593,4.8341 24.241246,6.49094 2.624858,0.67673 4.435665,-1.65874 5.18631,-3.85512 1.492204,-3.34772 3.17907,-7.41497 1.735591,-11.02371 -1.769823,-1.2199 -2.57331,1.59854 -3.205462,2.78114 -0.504748,1.56036 -1.813661,2.90372 -3.591274,2.4813 -8.284759,-1.34233 -16.533725,-3.03286 -24.599059,-5.38348 -1.823348,-0.40459 -2.7746166,-2.44499 -4.5891556,-2.60921 z"
     id="path857"
     inkscape:connector-curvature="0" />
  <path
     style="fill:url(#linearGradient875);fill-opacity:1;stroke:#000000;stroke-width:0.6654098;stroke-linecap:round;stroke-linejoin:miter;stroke-miterlimit:4;stroke-dasharray:none;stroke-dashoffset:0;stroke-opacity:1"
     d="m 27.89232,12.551568 c -1.975212,0.665884 -1.507931,3.389413 -2.131245,4.996975 -5.977379,32.681322 -10.833939,65.557294 -15.713366,98.417197 -2.5376886,18.68368 -5.6741116,37.33474 -6.7124976,56.18159 -0.602213,13.18892 2.085201,26.29012 5.670252,38.90983 0.343476,1.79635 2.4528826,1.66357 3.5394796,0.60978 1.137411,-0.74233 3.480063,-1.51771 2.483573,-3.27951 -3.675564,-9.50186 -4.436879,-19.77782 -5.1043096,-29.8481 -0.728581,-13.33321 1.8449016,-26.50137 3.3231406,-39.69377 4.820204,-36.10597 10.437209,-72.143519 16.752677,-108.01775 0.73816,-3.103579 1.542196,-6.260995 0.805138,-9.468196 -0.61483,-2.814231 -0.562524,-5.984894 -2.000238,-8.511638 -0.2442,-0.221677 -0.583819,-0.335452 -0.912604,-0.296408 z"
     id="path867"
     inkscape:connector-curvature="0" />
  <path
     style="fill:url(#linearGradient885);fill-opacity:1;stroke:#000000;stroke-width:0.6654098;stroke-linecap:round;stroke-linejoin:miter;stroke-miterlimit:4;stroke-dasharray:none;stroke-dashoffset:0;stroke-opacity:1"
     d="m 15.580755,209.71816 c -1.521019,0.39968 -3.63305,1.23866 -3.956454,2.9462 0.616564,2.13469 3.613263,1.62995 5.275343,2.3446 6.59925,1.33029 13.151779,3.17024 19.814749,4.03882 1.669955,-0.42566 3.079588,-2.41859 2.676606,-4.10638 -1.733527,-1.2854 -4.236918,-0.77794 -6.236185,-1.39892 -5.831302,-1.06026 -11.828672,-2.23569 -17.574059,-3.82432 z"
     id="path877"
     inkscape:connector-curvature="0" />
  <path
     style="fill:url(#linearGradient897);fill-opacity:1;stroke:#000000;stroke-width:0.11762895;stroke-linecap:round;stroke-linejoin:miter;stroke-miterlimit:4;stroke-dasharray:none;stroke-dashoffset:0;stroke-opacity:1"
     d="m 1.6560144,178.70252 c -0.82674498,0.1307 -1.06029098,1.06093 -1.12783098,1.76803 -0.271006,3.2787 0.284466,6.5432 0.70057598,9.78494 1.082158,7.58859 2.586281,15.11738 4.467122,22.54786 0.184337,0.66514 1.027392,0.93471 1.584455,0.54737 0.287881,-0.1339 0.66082,0.0661 0.947217,-0.15192 0.571137,-0.28061 0.636631,-0.99206 0.424806,-1.52862 -2.448766,-9.44119 -3.96765,-19.03921 -5.232802,-28.71891 -0.187853,-1.10412 -0.196927,-2.2484 -0.534076,-3.32176 -0.156837,-0.54459 -0.629335,-1.00085 -1.229467,-0.92699 z"
     id="path889"
     inkscape:connector-curvature="0" />
  <path
     style="fill:url(#linearGradient907);fill-opacity:1;stroke:#000000;stroke-width:0.11762895;stroke-linecap:round;stroke-linejoin:miter;stroke-miterlimit:4;stroke-dasharray:none;stroke-dashoffset:0;stroke-opacity:1"
     d="m 48.839787,151.55724 c -0.608561,0.26854 -0.66784,0.98096 -0.577682,1.55912 0.590836,7.10914 1.184719,14.19075 1.276605,21.31664 0.05116,2.3573 -0.141572,4.72103 -0.541766,7.03218 -1.145443,6.82484 -2.935347,13.5575 -5.016304,20.14848 -1.166889,3.70458 -2.472786,7.36477 -3.836475,11.00028 -0.614236,1.39397 -1.10748,2.8392 -1.683298,4.24654 -0.167946,0.32103 -0.276444,0.70484 -0.45444,0.99945 -0.490841,0.0735 -0.903731,0.42156 -1.371323,0.51774 -5.093429,-0.64233 -10.078706,-1.91208 -15.101186,-3.01288 -1.85459,-0.41721 -3.690582,-0.79833 -5.530587,-1.25174 -1.006741,-0.23789 -2.087902,-0.26299 -3.024748,-0.73284 -0.513219,-0.2863 -0.825299,-0.8567 -1.431913,-0.99413 -0.471004,-0.12235 -0.885546,-0.35789 -1.28439,-0.62643 -0.5041896,-0.2586 -0.8511836,-0.96109 -1.5159306,-0.80203 -0.632682,0.0364 -0.946511,0.71281 -0.918457,1.2812 -0.115026,0.56159 0.03475,1.20532 0.583433,1.48053 0.922735,0.60941 1.6467916,1.44107 2.6856746,1.88796 2.714586,0.91719 5.512518,1.56236 8.289733,2.2585 5.612568,1.35561 11.286886,2.44936 16.985147,3.37445 0.992356,0.18404 2.072366,-0.004 2.840307,-0.6926 1.13453,-0.88454 1.501516,-2.33679 2.143954,-3.55799 0.211714,-0.4841 0.536387,-0.89825 0.84759,-1.31793 0.303254,0.0315 0.58689,0.0995 0.866245,0.22283 0.658704,0.23987 1.301622,-0.36052 1.336988,-1.01194 0.871121,-3.22934 1.961825,-6.39477 2.933341,-9.60309 2.076384,-6.79717 4.170066,-13.62276 5.312223,-20.65177 0.959536,-5.83486 1.051084,-11.76936 0.851572,-17.66666 -0.169174,-4.86207 -0.457765,-9.72041 -0.865769,-14.5683 -0.06417,-0.63309 -0.707678,-1.012 -1.307637,-0.91605 -0.701649,0.0345 -1.394042,-0.006 -2.098105,0 -0.130934,0.0268 -0.261868,0.0537 -0.392802,0.0805 z"
     id="path899"
     inkscape:connector-curvature="0" />
</svg>
