<?xml version="1.0" encoding="UTF-8" standalone="no"?>
<svg
   xmlns:dc="http://purl.org/dc/elements/1.1/"
   xmlns:cc="http://creativecommons.org/ns#"
   xmlns:rdf="http://www.w3.org/1999/02/22-rdf-syntax-ns#"
   xmlns:svg="http://www.w3.org/2000/svg"
   xmlns="http://www.w3.org/2000/svg"
   xmlns:xlink="http://www.w3.org/1999/xlink"
   xmlns:sodipodi="http://sodipodi.sourceforge.net/DTD/sodipodi-0.dtd"
   xmlns:inkscape="http://www.inkscape.org/namespaces/inkscape"
   id="svg"
   width="358.84122"
   height="217.59587"
   viewBox="0 0 358.84122 217.59588"
   version="1.1"
   sodipodi:docname="heos7 v4.svg"
   inkscape:version="0.92.4 (5da689c313, 2019-01-14)">
  <metadata
     id="metadata9">
    <rdf:RDF>
      <cc:Work
         rdf:about="">
        <dc:format>image/svg+xml</dc:format>
        <dc:type
           rdf:resource="http://purl.org/dc/dcmitype/StillImage" />
        <dc:title></dc:title>
      </cc:Work>
    </rdf:RDF>
  </metadata>
  <defs
     id="defs7">
    <linearGradient
       inkscape:collect="always"
       id="linearGradient2449">
      <stop
         style="stop-color:#202020;stop-opacity:1"
         offset="0"
         id="stop2445" />
      <stop
         style="stop-color:#808080;stop-opacity:0.5"
         offset="1"
         id="stop2447" />
    </linearGradient>
    <linearGradient
       inkscape:collect="always"
       id="linearGradient2431">
      <stop
         style="stop-color:#646464;stop-opacity:1;"
         offset="0"
         id="stop2427" />
      <stop
         style="stop-color:#646464;stop-opacity:0;"
         offset="1"
         id="stop2429" />
    </linearGradient>
    <linearGradient
       inkscape:collect="always"
       id="linearGradient2355">
      <stop
         style="stop-color:#000000;stop-opacity:1;"
         offset="0"
         id="stop2351" />
      <stop
         style="stop-color:#000000;stop-opacity:0;"
         offset="1"
         id="stop2353" />
    </linearGradient>
    <linearGradient
       inkscape:collect="always"
       id="linearGradient2335">
      <stop
         style="stop-color:#000000;stop-opacity:1;"
         offset="0"
         id="stop2331" />
      <stop
         style="stop-color:#000000;stop-opacity:0;"
         offset="1"
         id="stop2333" />
    </linearGradient>
    <linearGradient
       inkscape:collect="always"
       id="linearGradient825">
      <stop
         style="stop-color:#000000;stop-opacity:1;"
         offset="0"
         id="stop821" />
      <stop
         style="stop-color:#646464;stop-opacity:0.5"
         offset="1"
         id="stop823" />
    </linearGradient>
    <linearGradient
       inkscape:collect="always"
       xlink:href="#linearGradient825"
       id="linearGradient827"
       x1="49.250111"
       y1="128.0108"
       x2="378.98279"
       y2="128.0108"
       gradientUnits="userSpaceOnUse"
       gradientTransform="translate(-20.558828,-9.8416774)" />
    <meshgradient
       inkscape:collect="always"
       id="meshgradient845"
       gradientUnits="userSpaceOnUse"
       x="51.181606"
       y="10.36165"
       type="coons"
       gradientTransform="translate(-20.558828,-9.8416774)">
      <meshrow
         id="meshrow4973">
        <meshpatch
           id="meshpatch4975">
          <stop
             path="c 94.2581,0  188.516,0  282.774,0"
             style="stop-color:#ffffff;stop-opacity:1"
             id="stop4977" />
          <stop
             path="c 0,19.7814  1.88002,41.0763  1.87998,60.8581"
             style="stop-color:#000000;stop-opacity:1"
             id="stop4979" />
          <stop
             path="c -94.2581,-0.000160477  -190.393,-1.51423  -284.651,-1.51423"
             style="stop-color:#ffffff;stop-opacity:1"
             id="stop4981" />
          <stop
             path="c 0,-19.7814  0,-39.5628  -0.00298,-59.3439"
             style="stop-color:#000000;stop-opacity:1"
             id="stop4983" />
        </meshpatch>
      </meshrow>
    </meshgradient>
    <linearGradient
       inkscape:collect="always"
       xlink:href="#linearGradient2335"
       id="linearGradient2337"
       x1="34.822784"
       y1="128.47234"
       x2="58.536564"
       y2="128.47234"
       gradientUnits="userSpaceOnUse"
       gradientTransform="translate(-20.558828,-9.8416774)" />
    <linearGradient
       inkscape:collect="always"
       xlink:href="#linearGradient2355"
       id="linearGradient2357"
       x1="21.5404"
       y1="107.81046"
       x2="46.283596"
       y2="107.81046"
       gradientUnits="userSpaceOnUse"
       gradientTransform="translate(-20.558828,-9.8416774)" />
    <linearGradient
       inkscape:collect="always"
       xlink:href="#linearGradient2431"
       id="linearGradient2433"
       x1="45.42635"
       y1="23.83066"
       x2="53.99538"
       y2="23.83066"
       gradientUnits="userSpaceOnUse"
       gradientTransform="translate(-20.558828,-9.8416774)" />
    <linearGradient
       inkscape:collect="always"
       xlink:href="#linearGradient2449"
       id="linearGradient2451"
       x1="37.727402"
       y1="210.98003"
       x2="52.366657"
       y2="43.112022"
       gradientUnits="userSpaceOnUse"
       gradientTransform="translate(-20.558828,-9.8416774)" />
  </defs>
  <sodipodi:namedview
     pagecolor="#ffffff"
     bordercolor="#666666"
     borderopacity="1"
     objecttolerance="10"
     gridtolerance="10"
     guidetolerance="10"
     inkscape:pageopacity="0"
     inkscape:pageshadow="2"
     inkscape:window-width="1718"
     inkscape:window-height="1368"
     id="namedview5"
     showgrid="false"
     inkscape:zoom="2.0081833"
     inkscape:cx="134.35373"
     inkscape:cy="215.92775"
     inkscape:window-x="3265"
     inkscape:window-y="0"
     inkscape:window-maximized="0"
     inkscape:current-layer="svg"
     fit-margin-top="0"
     fit-margin-left="0"
     fit-margin-right="0"
     fit-margin-bottom="0" />
  <path
     style="fill:url(#linearGradient2337);fill-opacity:1;stroke:none;stroke-width:0.6654098;stroke-linecap:round;stroke-linejoin:miter;stroke-miterlimit:4;stroke-dasharray:none;stroke-dashoffset:0;stroke-opacity:1"
     d="m 31.863088,26.781371 c -0.694053,1.992201 0.04421,4.368923 -0.05526,6.488973 2.180531,36.268609 3.416332,72.586026 4.267068,108.908356 0.107167,14.92088 0.503403,29.88764 -0.253292,44.78093 -0.902868,5.27417 -1.340609,11.2718 -5.153775,15.38154 -2.754186,2.56203 -7.780813,1.53143 -10.895628,0.16298 C 6.7849174,194.50513 2.8294325,180.89828 2.2596945,181.27127 c -3.739133,0.54611 -0.581478,12.93276 13.0333725,25.08138 3.351565,2.6833 8.632083,4.79893 13.025511,3.98947 4.395663,-3.02193 6.100094,-8.54094 7.614436,-13.40642 2.879564,-9.31255 1.791759,-19.15523 2.039778,-28.74189 C 37.987772,126.00727 36.883546,83.802911 34.04316,41.708335 33.579139,36.791917 33.449425,31.800051 32.587944,26.943672 32.454372,26.616715 32.113272,24.571997 31.863087,24.54054 Z"
     id="path2329"
     inkscape:connector-curvature="0"
     sodipodi:nodetypes="ccccccccccccccc" />
  <g
     id="svgg"
     transform="translate(-20.558828,-9.8416774)">
    <path
       id="path0"
       d="m 50.618,10.128 c -1.506,0.456 -1.718,0.953 -2.704,6.33 -3.556,19.391 -24.231,136.999 -25.406,144.522 -2.059,13.178 -2.594,31.078 -1.087,36.388 2.329,8.21 11.566,18.816 19.41,22.284 5.853,2.589 13.834,3.284 50.435,4.392 9.109,0.276 11.767,0.459 12.195,0.841 4.551,4.066 57.131,3.162 111.173,-1.911 50.282,-4.719 98.865,-12.923 99.853,-16.862 0.16,-0.637 0.734,-0.888 3.566,-1.56 19.896,-4.721 44.231,-13.956 52.156,-19.794 9.56,-7.042 11.561,-16.196 6.475,-29.624 C 363.228,119.602 331.548,58.614 324.903,55.447 278.539,33.351 207.476,17.482 132.056,12.383 106.774,10.673 53.666,9.202 50.618,10.128 m 1.854,11.676 1.094,10.426 -0.738,0.602 c -1.567,1.279 -1.632,1.115 -2.289,-5.781 -0.181,-1.891 -0.411,-3.52 -0.512,-3.621 -0.683,-0.683 -1.165,1.103 -1.771,6.556 -0.638,5.731 -0.7,5.988 -1.512,6.297 -1.31,0.498 -1.325,0.684 0.951,-12.121 2.99,-16.827 3.247,-16.954 4.777,-2.358 M 88.85,11.494 c 98.492,3.065 168.047,16.03 231.286,43.111 6.3,2.697 6.871,3.305 13.661,14.529 1.016,1.679 1.608,1.828 -7.49,-1.877 C 258.769,39.762 164.39,27.219 61.339,32.043 c -3.92,0.184 -7.152,0.301 -7.183,0.26 -0.032,-0.04 -0.475,-4.15 -0.986,-9.132 -0.51,-4.983 -1.019,-9.726 -1.13,-10.54 l -0.203,-1.481 13.019,10e-4 c 7.16,10e-4 17.958,0.156 23.994,0.343 M 49.131,30.9 c -0.229,2.456 -0.574,4.623 -0.768,4.814 -0.238,0.235 -0.289,0.007 -0.158,-0.697 0.108,-0.574 0.387,-2.808 0.62,-4.963 0.233,-2.155 0.491,-3.851 0.572,-3.769 0.082,0.081 -0.038,2.158 -0.266,4.615 m 1.753,3.445 c 0.549,1.752 0.73,0.616 -10.321,64.857 -14.205,82.574 -13.715,79.374 -13.256,86.534 0.706,11.002 9.943,23.689 19.357,26.586 l 2.291,0.705 -1.22,0.255 c -5.228,1.094 -13.544,-4.369 -20.265,-13.313 -5.394,-7.18 -5.952,-14.832 -2.552,-34.986 1.898,-11.254 21.701,-125.759 21.987,-127.135 0.141,-0.679 0.525,-1.123 1.19,-1.373 1.097,-0.415 1.189,-0.727 1.617,-5.465 l 0.268,-2.961 0.284,2.613 c 0.156,1.437 0.435,3.095 0.62,3.683 m 78.287,-2.285 c 82.663,2.552 156.058,16.526 205.07,39.043 3.368,1.548 30.25,55.921 40.212,81.336 4.999,12.753 5.023,20.27 0.087,26.882 -5.394,7.226 -28.781,17.198 -56.596,24.133 -2.299,0.573 -4.965,1.292 -5.923,1.596 -21.406,6.802 -90.976,15.441 -150.697,18.713 -10.772,0.591 -49.748,0.572 -54.181,-0.026 -1.725,-0.232 -7.84,-0.561 -13.589,-0.731 -17.366,-0.513 -33.552,-1.271 -42.089,-1.97 l -2.716,-0.223 0.974,-0.597 c 4.267,-2.615 7.619,-11.039 9.224,-23.178 2.084,-15.761 -2.355,-147.475 -5.491,-162.949 -0.262,-1.293 -0.63,-1.25 14.314,-1.68 7.282,-0.21 14.495,-0.422 16.028,-0.472 8.042,-0.259 35.401,-0.185 45.373,0.123 m -76.076,3.974 c 4.093,39.959 7.412,148.186 4.999,163.063 -1.803,11.123 -5.021,18.73 -8.733,20.65 -3.544,1.832 -14.169,-3.017 -14.169,-6.467 0,-3.317 0.547,-3.634 3.355,-1.943 12.04,7.252 17.45,1.278 18.562,-20.5 0.965,-18.903 -1.731,-108.236 -4.504,-149.199 -0.412,-6.097 -0.421,-7.84 -0.04,-7.84 0.165,0 0.404,1.006 0.53,2.236 m -6.754,1.458 c 0,0.115 -4.712,27.437 -10.473,60.714 -5.76,33.278 -10.996,63.562 -11.636,67.299 -4.01,23.415 -2.343,31.042 9.167,41.927 1.334,1.262 2.048,2.186 1.884,2.439 -0.144,0.224 -0.347,1.349 -0.451,2.498 l -0.188,2.091 -2.268,-2.265 C 23.605,203.437 21.771,198.67 21.789,184.669 21.808,169.721 21.081,174.432 38.868,73.968 c 3.535,-19.97 6.428,-36.394 6.428,-36.498 0,-0.103 0.235,-0.188 0.523,-0.188 0.287,0 0.522,0.095 0.522,0.21 m 6.596,31.846 c 1.643,32.669 2.628,61.07 3.026,87.282 l 0.233,15.331 -0.706,-0.86 c -1.302,-1.585 -2.76,0.943 -2.443,4.237 0.243,2.532 1.07,3.22 2.244,1.867 l 0.893,-1.027 -0.186,9.912 C 55.5,212.782 50.722,218.238 38.467,206.099 27.436,195.171 25.964,188.557 29.625,166.376 31.249,156.542 50.868,42.414 51.128,41.289 c 0.302,-1.304 0.441,0.846 1.809,28.049 m 2.272,104.69 c -0.019,1.907 -0.683,3.286 -1.291,2.678 -0.455,-0.456 -0.384,-3.696 0.101,-4.603 0.63,-1.177 1.21,-0.237 1.19,1.925 m 225.105,-0.954 c -4.17,0.381 -5.839,0.413 -6.621,0.125 -0.847,-0.311 -1.118,-0.284 -1.432,0.142 -0.213,0.29 -0.87,0.527 -1.46,0.527 -1.545,0 -1.595,0.333 -0.566,3.735 1.056,3.489 1.337,3.949 2.369,3.883 0.691,-0.045 0.686,-0.058 -0.062,-0.201 -1.038,-0.199 -1.642,-1.693 -1.134,-2.807 0.533,-1.171 0.431,-1.45 -0.158,-0.429 -0.497,0.861 -0.501,0.858 -0.307,-0.349 0.125,-0.777 0.081,-1.058 -0.121,-0.775 -0.348,0.489 -1.257,-1.883 -0.926,-2.418 0.629,-1.018 2.521,-0.262 2.98,1.19 0.277,0.876 0.683,1.481 0.992,1.481 0.555,0 0.593,-0.393 0.207,-2.13 l -0.242,-1.085 5.679,-0.474 c 3.124,-0.261 6.916,-0.478 8.426,-0.483 l 2.747,-0.009 0.471,1.567 c 0.524,1.745 0.607,2.479 0.208,1.852 -0.145,-0.228 -0.701,-0.581 -1.235,-0.784 -0.548,-0.208 -0.872,-0.532 -0.742,-0.742 0.127,-0.205 0.45,-0.289 0.718,-0.186 0.268,0.103 0.487,0.048 0.487,-0.121 0,-0.399 -0.748,-0.658 -1.306,-0.453 -0.891,0.328 -0.485,1.743 0.609,2.124 1.279,0.446 1.37,1.098 0.154,1.098 -0.506,0 -0.798,0.151 -0.676,0.348 0.356,0.577 1.919,0.399 2.167,-0.248 0.181,-0.472 0.285,-0.385 0.5,0.418 0.346,1.292 1.136,1.072 -6.855,1.902 -3.829,0.398 -7.529,0.81 -8.222,0.916 -1.249,0.192 -1.262,0.181 -1.66,-1.397 -0.358,-1.422 -0.947,-1.963 -1.517,-1.393 -0.109,0.109 -0.04,0.77 0.153,1.469 0.256,0.926 0.242,1.307 -0.053,1.405 -0.531,0.177 0.652,1.084 1.433,1.098 0.32,0.007 0.64,-0.165 0.712,-0.38 0.08,-0.24 3.223,-0.717 8.127,-1.234 4.399,-0.464 8.115,-0.961 8.259,-1.105 0.215,-0.215 -0.344,-2.744 -1.34,-6.067 -0.227,-0.757 -2.576,-0.759 -10.763,-0.01 m 5.47,1.56 c -0.644,0.644 -0.496,2.154 0.292,3.001 1.491,1.6 3.259,0.335 2.407,-1.722 -0.619,-1.495 -1.884,-2.094 -2.699,-1.279 m -3.554,0.448 c 0,2.095 0.851,3.664 1.989,3.664 0.631,0 1.147,-0.157 1.147,-0.349 0,-0.191 -0.471,-0.348 -1.045,-0.348 -0.697,0 -1.046,-0.174 -1.046,-0.523 0,-0.287 0.305,-0.523 0.677,-0.523 0.372,0 0.773,-0.156 0.891,-0.348 0.126,-0.203 -0.228,-0.348 -0.85,-0.348 -0.715,0 -1.066,-0.172 -1.066,-0.523 0,-0.29 0.31,-0.523 0.697,-0.523 0.383,0 0.697,-0.156 0.697,-0.348 0,-0.192 -0.471,-0.349 -1.046,-0.349 -0.692,0 -1.045,0.175 -1.045,0.518 m -7.604,0.179 c 0.106,0.288 0.47,1.464 0.809,2.614 0.339,1.149 0.688,1.89 0.776,1.645 0.261,-0.726 -0.616,-3.838 -1.22,-4.329 -0.467,-0.379 -0.526,-0.368 -0.365,0.07 m 3.914,0.219 c 0.12,0.313 0.391,1.253 0.602,2.091 0.211,0.838 0.524,1.523 0.697,1.523 0.172,0 0.22,-0.371 0.106,-0.825 -0.171,-0.685 -0.053,-0.855 0.696,-0.998 0.73,-0.14 0.942,-0.015 1.109,0.651 0.114,0.453 0.364,0.824 0.555,0.824 0.191,0 0.261,-0.226 0.156,-0.501 -0.106,-0.276 -0.364,-1.138 -0.574,-1.917 -0.411,-1.528 -1.062,-1.977 -0.788,-0.544 0.143,0.748 0.039,0.871 -0.738,0.871 -0.675,0 -0.961,-0.222 -1.124,-0.871 -0.12,-0.479 -0.375,-0.871 -0.566,-0.871 -0.192,0 -0.25,0.255 -0.131,0.567 m 9.084,-10e-4 c 0.701,0.7 0.56,2.001 -0.233,2.152 -0.874,0.166 -1.891,-1.518 -1.327,-2.197 0.552,-0.665 0.859,-0.656 1.56,0.045 m -15.683,1.002 c 0.28,1.573 1.158,3.846 1.394,3.61 0.238,-0.238 -0.868,-4.26 -1.28,-4.655 -0.25,-0.241 -0.286,0.083 -0.114,1.045 m 4.58,0.369 c -0.127,0.331 -0.149,0.684 -0.048,0.784 0.1,0.1 0.193,-0.04 0.207,-0.311 0.014,-0.292 0.147,-0.208 0.323,0.203 0.198,0.46 0.306,0.519 0.319,0.174 0.034,-0.935 -0.536,-1.54 -0.801,-0.85 m 36.719,29.002 c 0,0.7 -11.316,3.732 -20.906,5.603 -31.185,6.081 -76.758,11.095 -127.7,14.049 -19.141,1.109 -56.006,0.515 -59.197,-0.955 l -1.082,-0.498 1.394,0.162 c 36.934,4.273 157.814,-6.283 202.962,-17.724 3.656,-0.927 4.529,-1.049 4.529,-0.637"
       inkscape:connector-curvature="0"
       style="fill:#000000;fill-rule:evenodd;stroke:none" />
  </g>
  <path
     style="fill:url(#linearGradient827);fill-opacity:1;stroke:none;stroke-width:0.6654098;stroke-linecap:round;stroke-linejoin:miter;stroke-miterlimit:4;stroke-dasharray:none;stroke-dashoffset:0;stroke-opacity:1"
     d="m 78.622509,21.195508 c -15.102496,0.117393 -30.225809,0.267384 -45.300121,1.207636 -1.962221,0.551063 -0.731912,3.095589 -0.85273,4.538573 2.396852,24.129612 3.111538,48.46596 4.092977,72.727776 0.833909,26.569987 1.735164,53.183807 1.375033,79.757847 -0.298997,9.20799 -1.3659,18.73779 -6.071871,26.84326 -1.545059,3.76649 -3.605362,2.68368 -3.675625,4.70072 3.064492,1.14253 4.090406,0.83081 5.775234,1.26457 20.036683,1.15549 40.102843,1.84704 60.145036,2.74653 22.188928,0.32349 44.410358,0.31268 66.543878,-1.49176 35.65093,-2.68262 71.2733,-6.28855 106.55706,-12.12833 17.35212,-3.04425 34.37625,-7.75397 51.17302,-13.01463 11.37248,-3.96208 22.97403,-8.10043 32.81527,-15.20939 5.92127,-4.1807 8.14437,-11.98376 6.88316,-18.91142 -1.5139,-8.77378 -5.6821,-16.79279 -8.98483,-24.98162 -9.50528,-21.38114 -19.414,-42.635762 -30.97096,-62.997051 -1.49366,-2.982363 -3.6179,-5.83524 -6.90867,-6.933764 C 276.27884,44.055704 238.82389,35.48158 201.27776,29.594954 171.44619,25.015078 141.30095,22.53003 111.16348,21.477377 100.31816,21.254685 89.469962,21.183851 78.622509,21.195508 Z M 268.00686,163.47585 c 1.06857,-0.23884 1.93365,0.20243 2.01846,1.34793 0.32561,1.19549 1.03707,2.70561 0.94149,3.79484 -5.29133,1.01262 -10.83229,0.94801 -15.99568,2.48611 -0.84636,0.14552 -2.14999,-1.38077 -3.06724,-0.22007 -1.22271,-1.64248 -1.74997,-4.08762 -1.87334,-6.0375 1.31236,-0.0293 2.29231,-1.04244 3.6566,-0.55774 4.78801,0.0676 9.54053,-0.68095 14.31971,-0.81357 z"
     id="path819"
     inkscape:connector-curvature="0"
     sodipodi:nodetypes="cccccccccccccccccccccccccccc" />
  <path
     style="fill:url(#linearGradient2451);fill-opacity:1;stroke:none;stroke-width:0.6654098;stroke-linecap:round;stroke-linejoin:miter;stroke-miterlimit:4;stroke-dasharray:none;stroke-dashoffset:0;stroke-opacity:1"
     d="m 30.800587,31.335848 c -2.126735,0.594555 -0.868231,6.202721 -2.32413,7.92984 C 21.312608,79.556481 14.494646,119.90951 7.6945415,160.26302 6.5701544,167.4531 5.9149764,174.9623 7.5631874,182.11809 c 2.2951621,7.79096 8.4777086,13.61644 14.5040156,18.69428 2.438548,1.98608 6.466132,3.58738 9.04627,0.94425 3.5402,-3.92424 3.944979,-9.60253 4.535514,-14.61818 0.357398,-6.59607 0.824264,-13.2128 0.677404,-19.81666 -0.397483,-1.45895 -1.829212,-0.59125 -2.590641,-0.18844 -0.307941,-1.56219 -0.879508,-3.81006 0.270961,-5.18472 0.527135,-0.32924 1.762367,0.7466 2.189701,-0.42432 0.575643,-6.39115 -0.124354,-12.87303 -0.09404,-19.295 -0.756085,-34.71477 -2.058047,-69.422484 -4.0144,-104.090233 -0.361289,-1.193261 0.662769,-6.774069 -1.287385,-6.803219 z"
     id="path2307"
     inkscape:connector-curvature="0"
     sodipodi:nodetypes="cccccccccccccc" />
  <path
     style="fill:#000000;fill-opacity:1;stroke:none;stroke-width:0.6654098;stroke-linecap:round;stroke-linejoin:miter;stroke-miterlimit:4;stroke-dasharray:none;stroke-dashoffset:0;stroke-opacity:1"
     d="m 29.436811,22.992033 c -1.739417,0.256596 -1.2625,2.611206 -2.708121,3.332592 -2.149364,1.816044 -1.422073,5.125124 -2.243267,7.607982 -7.359989,42.78979 -14.9544565,85.541683 -22.0285575,128.379133 -0.850841,8.06162 -2.26202105,16.82807 1.486851,24.40443 3.1491269,5.76512 7.9066975,10.61561 13.2248565,14.42218 2.708285,1.61947 5.777017,3.52887 9.049709,3.09749 1.64974,-1.09025 -0.386571,-2.39416 -1.496479,-2.7385 -6.662451,-3.95119 -12.126242,-9.92498 -15.3450975,-16.97431 -3.946779,-10.31314 -1.023391,-21.58415 0.568069,-32.1362 C 16.337716,113.01429 23.341187,73.739238 30.081778,34.423386 c 0.307673,-3.518763 1.55047,-7.191791 0.676832,-10.689303 -0.243328,-0.484395 -0.775554,-0.803899 -1.321799,-0.74205 z"
     id="path2309"
     inkscape:connector-curvature="0" />
  <path
     style="fill:url(#linearGradient2357);fill-opacity:1;stroke:none;stroke-width:0.6654098;stroke-linecap:round;stroke-linejoin:miter;stroke-miterlimit:4;stroke-dasharray:none;stroke-dashoffset:0;stroke-opacity:1"
     d="M 24.952877,27.241455 C 23.767751,28.878972 24.064109,31.339251 23.4496,33.263812 16.415359,73.209492 9.1216965,113.11381 2.5926225,153.14589 c -0.657619,5.09783 -1.81302905,10.22746 -1.580656,15.37871 1.361328,0.91221 1.121828,-1.54971 1.328675,-2.32105 3.3189069,-22.75913 7.540608,-45.40894 11.3557245,-68.100047 3.95755,-23.374783 8.261359,-46.696793 12.021255,-70.101429 0.06265,-0.423906 -0.294399,-0.912682 -0.764744,-0.760619 z"
     id="path2349"
     inkscape:connector-curvature="0" />
  <path
     style="fill:#000000;fill-opacity:1;stroke:none;stroke-width:0.11762895;stroke-linecap:round;stroke-linejoin:miter;stroke-miterlimit:4;stroke-dasharray:none;stroke-dashoffset:0;stroke-opacity:1"
     d="m 1.0000785,168.31464 c -0.41837605,0.3952 -0.15050505,1.03493 -0.22061305,1.54346 0.04266,3.72277 0.01212,7.44776 0.125614,11.16894 -0.0836,0.43405 0.37733905,0.91712 0.78487705,0.61723 0.160681,-0.1925 0.352126,-0.26041 0.569738,-0.373 0.413546,-0.42035 0.05451,-1.04754 0.04005,-1.5468 -0.373199,-2.34192 -0.318534,-4.71756 -0.302645,-7.07418 0.02411,-1.30681 0.164221,-2.62889 0.224597,-3.93832 -0.0392,-0.59786 -0.815613,-0.53001 -1.221616,-0.39733 z"
     id="path2359"
     inkscape:connector-curvature="0" />
  <path
     style="opacity:1;fill:url(#linearGradient2433);fill-opacity:1;stroke:none;stroke-width:0.23525789;stroke-linecap:round;stroke-linejoin:miter;stroke-miterlimit:4;stroke-dasharray:none;stroke-dashoffset:0;stroke-opacity:1"
     d="M 30.087461,0.92559457 C 29.246381,1.2002536 29.219619,2.3129876 28.93495,3.0195656 27.639118,8.2523966 26.882339,13.600304 25.89336,18.895982 c -0.354146,2.380844 -0.94806,4.746763 -1.025752,7.157755 -0.0086,0.64292 0.631982,1.284555 1.265574,0.874109 1.360357,-0.381097 1.358316,-2.025012 1.558564,-3.158464 0.46623,-3.112541 0.583196,-6.294412 1.370613,-9.35017 0.164411,-0.516439 0.171676,0.526229 0.240957,0.754482 0.40689,2.679507 0.39256,5.434275 1.074461,8.065145 0.134171,0.653549 0.897928,1.008728 1.436019,0.554859 0.596873,-0.414009 1.408556,-0.794374 1.622755,-1.518446 C 32.918673,16.844267 32.065433,11.461673 31.463423,6.0486756 31.129338,4.4896636 31.256884,2.8536246 30.743955,1.3357816 30.628668,1.0862816 30.375008,0.88701757 30.087461,0.92559457 Z"
     id="path2425"
     inkscape:connector-curvature="0" />
  <path
     style="opacity:1;fill:#202020;fill-opacity:1;stroke:none;stroke-width:0.47051579;stroke-linecap:round;stroke-linejoin:miter;stroke-miterlimit:4;stroke-dasharray:none;stroke-dashoffset:0;stroke-opacity:1"
     d="m 33.90755,161.54358 c -1.105948,1.37998 -1.057047,3.46687 -0.603487,5.08953 0.745341,0.95802 1.570641,-0.41995 1.550297,-1.18461 0.200877,-1.30028 0.431655,-2.88784 -0.534434,-3.93507 l -0.248319,0.0182 z"
     id="path2435"
     inkscape:connector-curvature="0" />
  <path
     style="fill:url(#meshgradient845);fill-opacity:1;stroke:none;stroke-width:0.65874577;stroke-linecap:round;stroke-linejoin:miter;stroke-miterlimit:4;stroke-dasharray:none;stroke-dashoffset:0;stroke-opacity:1;opacity:0.5"
     d="m 30.798705,0.82057557 c -0.587779,2.57263503 0.482685,5.36058003 0.518273,8.01391603 0.519441,4.3875754 1.310334,9.2054944 2.00541,13.5686524 2.316857,0.257113 2.877581,-0.563377 4.550509,-0.321202 26.105124,-1.185807 52.546525,-0.46874 78.666083,0.128886 44.4104,1.651549 88.82464,6.724748 132.08624,16.933683 21.63789,5.113582 42.13926,11.217875 62.48398,20.081419 0.84907,0.374582 2.18504,1.044277 4.23774,2.314121 0.0617,-0.713258 -1.44739,-2.899968 -2.23786,-4.193836 -1.3684,-2.223767 -4.33042,-6.664365 -6.14444,-9.00933 -1.81402,-2.344964 -2.65609,-2.726337 -5.41842,-3.917919 C 278.23722,34.098772 253.83144,26.275167 229.07067,20.111405 175.53624,6.9547066 120.26667,2.3378416 65.246516,0.78118657 c -11.241778,-0.299566 -22.488273,-0.261203 -33.732987,-0.257916 -0.238275,0.0991 -0.47655,0.198203 -0.714824,0.297305 z"
     id="path829"
     inkscape:connector-curvature="0"
     sodipodi:nodetypes="cccccccccsccccc" />
</svg>
