<?xml version="1.0" encoding="UTF-8" standalone="no"?>
<svg
   xmlns:osb="http://www.openswatchbook.org/uri/2009/osb"
   xmlns:dc="http://purl.org/dc/elements/1.1/"
   xmlns:cc="http://creativecommons.org/ns#"
   xmlns:rdf="http://www.w3.org/1999/02/22-rdf-syntax-ns#"
   xmlns:svg="http://www.w3.org/2000/svg"
   xmlns="http://www.w3.org/2000/svg"
   xmlns:xlink="http://www.w3.org/1999/xlink"
   xmlns:sodipodi="http://sodipodi.sourceforge.net/DTD/sodipodi-0.dtd"
   xmlns:inkscape="http://www.inkscape.org/namespaces/inkscape"
   id="svg"
   width="378.0556"
   height="195.72322"
   viewBox="0 0 378.0556 195.72323"
   version="1.1"
   sodipodi:docname="heos3_v2.svg"
   inkscape:version="0.92.4 (5da689c313, 2019-01-14)">
  <metadata
     id="metadata9">
    <rdf:RDF>
      <cc:Work
         rdf:about="">
        <dc:format>image/svg+xml</dc:format>
        <dc:type
           rdf:resource="http://purl.org/dc/dcmitype/StillImage" />
        <dc:title></dc:title>
      </cc:Work>
    </rdf:RDF>
  </metadata>
  <defs
     id="defs7">
    <linearGradient
       id="linearGradient5725"
       inkscape:collect="always">
      <stop
         id="stop5721"
         offset="0"
         style="stop-color:#646464;stop-opacity:1" />
      <stop
         id="stop5723"
         offset="1"
         style="stop-color:#000000;stop-opacity:0;" />
    </linearGradient>
    <linearGradient
       inkscape:collect="always"
       id="linearGradient5395">
      <stop
         style="stop-color:#000000;stop-opacity:1;"
         offset="0"
         id="stop5391" />
      <stop
         style="stop-color:#000000;stop-opacity:0;"
         offset="1"
         id="stop5393" />
    </linearGradient>
    <linearGradient
       inkscape:collect="always"
       id="1000">
      <stop
         style="stop-color:#000000;stop-opacity:1;"
         offset="0"
         id="stop5381" />
      <stop
         style="stop-color:#000000;stop-opacity:0;"
         offset="1"
         id="stop5383" />
    </linearGradient>
    <linearGradient
       id="linearGradient5353"
       osb:paint="solid">
      <stop
         style="stop-color:#000000;stop-opacity:1;"
         offset="0"
         id="stop5351" />
    </linearGradient>
    <pattern
       patternUnits="userSpaceOnUse"
       width="10.914"
       height="10.539911"
       patternTransform="matrix(0.26458333,0,0,0.26458333,170.14668,105.53829)"
       id="pattern6470">
      <rect
         id="rect2980"
         y="-5.6843419e-014"
         x="0"
         height="10.539911"
         width="10.914"
         style="fill:url(#pattern2993);fill-opacity:1;stroke:none;stroke-width:0.99999994" />
    </pattern>
    <pattern
       patternTransform="translate(-1.03531e-5,-7.2988435e-6)"
       id="pattern2993"
       xlink:href="#pattern2977"
       inkscape:collect="always" />
    <pattern
       patternUnits="userSpaceOnUse"
       width="10.914"
       height="10.539911"
       patternTransform="translate(202.291,496.80413)"
       id="pattern2977">
      <path
         d="M 5.457,0.20087297 C 2.435,0.97787297 0,3.796873 0,6.616873 c 0,2.82 2.435,4.526 5.457,3.725 3.022,-0.802 5.457,-3.752 5.457,-6.571 0,-2.81900003 -2.435,-4.34500003 -5.457,-3.57000003 z"
         id="path530"
         inkscape:connector-curvature="0" />
    </pattern>
    <pattern
       patternUnits="userSpaceOnUse"
       width="38.282003"
       height="27.32672"
       patternTransform="matrix(0.26458333,0,0,0.26458333,151.02448,124.16456)"
       id="pattern6444">
      <path
         style="stroke-width:0.99999994"
         d="m 38.282003,11.861889 c 0,-2.9480312 -2.434998,-5.9740343 -5.456995,-6.7250264 -3.021997,-0.7499717 -5.456995,0.9570141 -5.456995,3.9319937 0,2.9740347 2.434998,6.0790297 5.456995,6.8290017 3.023017,0.750009 5.456995,-1.085972 5.456995,-4.035969 z"
         id="path60"
         inkscape:connector-curvature="0" />
      <path
         style="stroke-width:0.99999994"
         d="m 18.218003,20.242878 c 0,2.97498 2.349997,6.052989 5.372032,6.881008 3.021996,0.827981 5.456995,-0.957014 5.456995,-3.932031 0,-2.97498 -2.434999,-5.923994 -5.456995,-6.776996 -3.022035,-0.853001 -5.372032,0.853002 -5.372032,3.828019 z"
         id="path110"
         inkscape:connector-curvature="0" />
      <path
         style="stroke-width:0.99999994"
         d="m 9.2340283,3.9978641 c 0,2.9490142 2.3939907,6.1060159 5.3729767,6.9330139 2.981026,0.826999 5.458015,-0.853001 5.458015,-3.8280186 0,-2.9749795 -2.476989,-6.0269858 -5.458015,-6.88097006 C 11.628019,-0.63111224 9.2340283,1.0488878 9.2340283,3.9978641 Z"
         id="path136"
         inkscape:connector-curvature="0" />
      <path
         style="stroke-width:0.99999994"
         d="m 0,14.811886 c 0,2.973997 2.4349984,6.155981 5.4570331,7.086992 3.0219968,0.931011 5.4569949,-0.802015 5.4569949,-3.776012 0,-2.97498 -2.4349981,-5.976 -5.4569949,-6.932977 C 2.4349984,10.232875 0,11.835886 0,14.811886 Z"
         id="path718"
         inkscape:connector-curvature="0" />
    </pattern>
    <linearGradient
       inkscape:collect="always"
       xlink:href="#linearGradient5725"
       id="linearGradient5379"
       x1="0.29948065"
       y1="83.518723"
       x2="366.6629"
       y2="83.518723"
       gradientUnits="userSpaceOnUse" />
    <linearGradient
       inkscape:collect="always"
       xlink:href="#1000"
       id="linearGradient5387"
       x1="1.6301714"
       y1="132.20535"
       x2="325.77909"
       y2="132.20535"
       gradientUnits="userSpaceOnUse" />
    <linearGradient
       inkscape:collect="always"
       xlink:href="#linearGradient5395"
       id="linearGradient5397"
       x1="337.21378"
       y1="7.4378793"
       x2="373.21038"
       y2="7.4378793"
       gradientUnits="userSpaceOnUse" />
  </defs>
  <sodipodi:namedview
     pagecolor="#ffffff"
     bordercolor="#666666"
     borderopacity="1"
     objecttolerance="10"
     gridtolerance="10"
     guidetolerance="10"
     inkscape:pageopacity="0"
     inkscape:pageshadow="2"
     inkscape:window-width="1718"
     inkscape:window-height="1368"
     id="namedview5"
     showgrid="false"
     fit-margin-top="0"
     fit-margin-left="0"
     fit-margin-right="0"
     fit-margin-bottom="0"
     inkscape:zoom="2.0081833"
     inkscape:cx="135.33851"
     inkscape:cy="113.66113"
     inkscape:window-x="-7"
     inkscape:window-y="0"
     inkscape:window-maximized="0"
     inkscape:current-layer="svg" />
  <path
     style="fill:#000000;fill-rule:evenodd;stroke:none;fill-opacity:1;stroke-opacity:1;stroke-width:0.5;stroke-miterlimit:4;stroke-dasharray:none;stroke-linecap:round;stroke-linejoin:round"
     inkscape:connector-curvature="0"
     d="M 176.12974,0.14620674 C 122.07974,1.5552067 71.229743,6.2902067 36.512743,13.147207 c -14.556,2.876 -17.246,3.824 -19.822,6.992 -11.2499997,13.834 -19.1979997,39.13 -15.96299966,50.804 1.23299996,4.45 12.66999966,28.544 18.46799966,38.906003 11.273,20.147 25.152,36.782 45.61,54.668 4.94,4.319 6.354,4.784 18.096,5.949 10.186,1.011 219.350997,23.14 231.601997,24.503 7.162,0.796 8.119,0.863 9.425,0.65 1.948,-0.317 2.755,-0.642 4.458,-1.795 0.869,-0.588 5.84,-3.978 11.046,-7.533 l 9.465,-6.464 h 2.189 2.189 l 0.796,-0.971 c 0.437,-0.534 0.831,-1.22 0.874,-1.524 0.071,-0.507 0.166,-0.548 1.145,-0.498 1.348,0.068 1.268,0.217 3.182,-5.924 7.492,-24.035 15.915,-59.67 17.634,-74.605003 2.268,-19.711 0.964,-77.113 -2.042,-89.8760003 -0.693,-2.944 0.144,-2.867 -24.243,-2.251 -16.303,0.412 -31.738,0.261 -39.278,-0.384 -15.431,-1.321 -36.447,-2.46 -61.512,-3.33499996 -11.681,-0.407 -61.902,-0.621 -73.702,-0.313 m 53.875,0.674 c 30.196,0.57099996 55.664,1.74199996 81.226,3.73599996 3.973,0.31 9.662,0.661 12.641,0.779 11.524,0.458 29.262,2.862 40.825,5.5340003 1.519,0.351 1.656,0.44 1.318,0.847 -0.135,0.163 -0.652,2.273 -1.147,4.689 -8.31,40.502 -23.488,97.556003 -37.502,140.961003 -2.469,7.649 -2.836,11.097 -2.169,20.429 0.199,2.794 0.419,5.892 0.489,6.885 0.293,4.194 -1.019,8.62 -2.827,9.537 -1.425,0.723 2.272,1.065 -60.462,-5.592 -31.617,-3.356 -69.879,-7.416 -85.026,-9.023 -34.415,-3.652 -90.346997,-9.539 -96.500997,-10.157 -10.793,-1.085 -10.76,-1.069 -20.542,-10.03 -23.541,-21.567 -36.041,-38.936 -51.0179997,-70.897003 -8.86699996,-18.921 -9.05499996,-19.525 -8.36499996,-26.904 1.22699996,-13.12 6.65299996,-27.399 14.77999966,-38.898 3.544,-5.013 4.659,-5.491 19.998,-8.575 C 82.899743,4.6562067 158.55074,-0.53079326 230.00474,0.82020674 m 141.917,3.75499996 c 1.755,0.241 0.729,1.837 -2.451,3.814 -0.745,0.463 -1.664,1.133 -2.041,1.488 l -0.687,0.6470003 -2.966,-0.6690003 c -5.708,-1.287 -18.972,-3.444 -26.135,-4.251 -1.72,-0.194 -0.123,-0.257 18.51,-0.731 5.091,-0.129 9.662,-0.264 10.158,-0.299 1.937,-0.136 4.613,-0.135 5.612,10e-4 m 2.32,2.649 c 0.218,1.595 -1.605,4.1070003 -5.036,6.9400003 l -0.941,0.777 -0.8,4.625 c -5.847,33.797 -15.832,71.767 -32.35,123.015003 -2.181,6.766 -4.569,14.182 -5.306,16.478 l -1.339,4.177 -0.424,10.835 c -0.601,15.394 -0.602,15.404 -1.117,17.072 -0.529,1.714 -1.993,3.587 -2.794,3.575 -0.437,-0.006 -0.447,-0.03 -0.098,-0.234 2.049,-1.194 2.8,-6.738 2.077,-15.334 -0.774,-9.204 -0.46,-13.668 1.372,-19.462 16.143,-51.076 29.967,-102.845003 37.959,-142.154003 1.264,-6.218 1.354,-6.39 4.37,-8.3860003 1.052,-0.697 2.37,-1.765 2.929,-2.374 1.125,-1.227 1.274,-1.182 1.498,0.45 m 0.852,5.7860003 c 2.088,18.499 2.844,58.93 1.469,78.555 -1.004,14.332003 -9.484,51.544003 -17.979,78.894003 -1.817,5.85 -1.642,5.53 -3.023,5.53 -1.946,0 -5.571,2.137 -17.877,10.537 -6.061,4.137 -11.057,7.522 -11.102,7.522 -0.045,0 0.21,-0.578 0.566,-1.285 0.957,-1.897 1.079,-3.135 1.572,-15.983 0.561,-14.625 0.258,-12.596 3.275,-21.897 19.623,-60.496003 29.22,-96.042003 35.772,-132.505003 0.624,-3.477 1.19,-6.524 1.257,-6.772 0.066,-0.249 0.744,-0.956 1.506,-1.573 0.762,-0.617 2.001,-1.871 2.752,-2.786 0.752,-0.916 1.389,-1.5800003 1.417,-1.4750003 0.028,0.105 0.206,1.5620003 0.395,3.2380003 m -372.4969967,56.715 c 0.248,0.746 22.0359997,9.329 39.7849997,15.672 66.051997,23.608003 180.886997,56.475003 272.710997,78.054003 7.624,1.792 8.215,1.892 8.215,1.392 0,-0.208 -0.725,-0.475 -2.201,-0.81 -105.154,-23.891 -253.286997,-67.741003 -313.3639967,-92.761003 -4.327,-1.802 -5.332,-2.104 -5.146,-1.547 m 354.8619967,14.148 c -0.441,0.474 -4.371,15.86 -4.36,17.072003 0.004,0.442 0.456,1.4 1.259,2.665 1.421,2.239 4.119,7.572 5.429,10.73 1.049,2.527 1.957,3.222 3.417,2.612 l 0.754,-0.315 -0.152,0.807 c -0.107,0.574 -0.061,0.864 0.161,1.005 0.256,0.162 0.249,0.198 -0.038,0.201 -0.469,0.004 -0.883,-0.435 -0.746,-0.792 0.188,-0.489 -0.416,-0.661 -0.744,-0.212 -0.599,0.819 0.5,6.745 1.421,7.667 0.563,0.563 2.764,0.688 3.267,0.186 0.498,-0.498 4.041,-13.856 4.03,-15.193 -0.021,-2.481 -1.653,-6.488 -2.732,-6.704 -0.878,-0.176 -0.964,-0.436 -0.541,-1.635 0.534,-1.513 0.435,-1.948 -1.187,-5.210003 -1.162,-2.338 -1.684,-3.153 -2.24,-3.499 -0.692,-0.431 -0.726,-0.518 -0.734,-1.894 -0.023,-3.763 -4.619,-9.26 -6.264,-7.491 m 1.247,1.606 c 0.627,0.585 0.662,0.248 -0.508,4.914 -2.229,8.887 -2.096,8.53 -3.274,8.765 -0.72,0.144 -0.754,0.123 -0.619,-0.391 0.079,-0.298 0.872,-3.514 1.763,-7.145 1.665,-6.787 1.745,-6.974 2.638,-6.143 m 3.449,3.222 c 1.363,2.819 1.46,2.235 -2.766,16.724003 l -0.454,1.558 -1.101,-2.122 c -1.347,-2.599 -1.344,-2.373 -0.082,-6.204003 1.123,-3.408 3.028,-10.671 3.028,-11.544 0,-0.871 0.421,-0.385 1.375,1.588 m -3.047,2.341 c -0.767,3.003 -1.559,5.635 -1.414,4.699 0.16,-1.033 2.076,-8.22 2.14,-8.028 0.038,0.115 -0.288,1.613 -0.726,3.329 m 5.29,3.244 c 0.437,0.817 0.168,2.248 -1.654,8.789003 -1.97,7.071 -2.099,7.336 -3.115,6.416 -0.351,-0.318 -0.496,-0.341 -0.717,-0.117 -0.303,0.308 0.698,1.378 1.289,1.378 0.174,0 0.694,1.059 1.246,2.538 0.521,1.395 1.054,2.665 1.183,2.821 0.3,0.361 -0.042,0.379 -0.784,0.041 -0.38,-0.173 -0.787,-0.845 -1.401,-2.314 -0.477,-1.138 -1.206,-2.753 -1.62,-3.588 -0.901,-1.814 -0.894,-1.755 -0.198,-1.755 0.751,0 0.692,0.154 2.963,-7.817 2.017,-7.081003 2.207,-7.514003 2.808,-6.392003 m 2.136,3.919 c 1.007,2.259003 1.074,1.548 -0.885,9.387003 -1.701,6.806 -2.133,8.246 -2.395,7.978 -0.101,-0.105 -0.581,-1.251 -1.065,-2.549 l -0.88,-2.358 0.38,-1.028 c 0.209,-0.565 1.131,-3.795 2.049,-7.177 0.918,-3.383003 1.732,-6.151003 1.809,-6.152003 0.077,0 0.521,0.854 0.987,1.899 m -10.272,2.456003 c -0.595,1.694 -0.609,1.606 0.653,4.028 1.358,2.605 1.536,3.129 1.062,3.129 -0.195,0 -0.615,-0.523 -0.95,-1.184 -0.33,-0.651 -1.105,-1.997 -1.722,-2.991 -1.849,-2.976 -1.934,-3.726003 -0.422,-3.726003 0.464,0 1.041,-0.144 1.282,-0.32 0.602,-0.44 0.607,-0.386 0.097,1.064003 m 11.733,3.982 c 0.326,0.608 0.314,0.629 -0.42,0.737 -0.465,0.068 -0.628,0.01 -0.564,-0.201 0.049,-0.162 0.137,-0.448 0.195,-0.634 0.146,-0.469 0.51,-0.424 0.789,0.098 m 2.486,5.789 c 0.003,0.134 -0.214,0.235 -0.483,0.225 -0.604,-0.022 -3.611,10.985 -3.131,11.465 0.186,0.186 0.313,0.163 0.483,-0.085 0.186,-0.27 0.208,-0.247 0.114,0.115 -0.065,0.248 -0.237,0.938 -0.382,1.532 -0.338,1.376 -0.331,1.385 -1.199,-1.814 -0.592,-2.184 -0.68,-2.774 -0.463,-3.124 0.146,-0.237 1.003,-3.174 1.902,-6.526 0.9,-3.352 1.686,-6.247 1.747,-6.434 0.096,-0.293 1.396,3.985 1.412,4.646 m -3.951,1.712 c -1.344,4.923 -1.913,6.588 -1.913,5.595 0,-0.479 2.853,-11.187 3.074,-11.54 0.56,-0.89 0.194,0.978 -1.161,5.945 m -2.04,7.605 c 0.353,1.153 1.255,4.703 1.255,4.942 0.001,0.156 -0.241,0.283 -0.536,0.283 -0.295,0 -0.638,-0.127 -0.762,-0.283 -0.169,-0.211 -1.636,-5.086 -1.636,-5.435 0,-0.269 1.589,0.198 1.679,0.493 m -90.343,8.159 c -0.528,0.567 -2.658,9.857 -2.427,10.585 0.228,0.717 0.911,1.051 3.055,1.491 1.706,0.35 1.969,0.472 2.374,1.1 0.646,1.003 1.909,1.302 2.779,0.658 l 0.634,-0.468 16.802,3.7 c 9.241,2.035 17.116,3.759 17.501,3.832 1.426,0.271 1.771,-0.368 2.912,-5.395 1.095,-4.821 1.174,-5.494 0.721,-6.113 -0.38,-0.521 0.203,-0.379 -18.779,-4.544 l -16.253,-3.566 -0.708,-0.753 c -0.785,-0.835 -1.871,-1.01 -2.694,-0.434 -0.396,0.278 -0.688,0.263 -2.251,-0.111 -2.314,-0.554 -3.137,-0.55 -3.666,0.018 m 3.17,0.683 c 1.147,0.251 2.201,0.498 2.343,0.548 0.184,0.064 0.138,0.592 -0.162,1.856 -0.586,2.473 -0.564,2.97 0.145,3.239 1.599,0.608 1.884,0.329 2.474,-2.432 0.301,-1.405 0.489,-1.862 0.765,-1.862 0.357,0 32.495,7.024 34.139,7.461 1.186,0.315 1.187,0.44 0.051,5.465 -1.056,4.672 -1.222,5.131 -1.862,5.134 -0.533,0.003 -34.649,-7.494 -34.835,-7.654 -0.086,-0.075 0.053,-1.084 0.308,-2.243 0.516,-2.342 0.483,-2.45 -0.85,-2.75 -1.174,-0.265 -1.322,-0.086 -1.797,2.176 -0.487,2.324 -0.437,2.298 -3.201,1.632 -2.025,-0.487 -2.21,-0.577 -2.271,-1.102 -0.098,-0.843 1.91,-9.513 2.255,-9.731 0.371,-0.236 0.085,-0.266 2.498,0.263 m 0.38,2.099 c -1.033,0.507 -2.246,6.494 -1.449,7.155 0.525,0.436 0.611,0.225 1.488,-3.641 0.855,-3.771 0.853,-3.952 -0.039,-3.514 m 4.777,4.174 c -0.407,1.823 -0.792,3.544 -0.857,3.823 -0.092,0.394 -0.02,0.508 0.322,0.508 1.397,0 2.926,-6.761 1.68,-7.428 -0.369,-0.197 -0.473,0.083 -1.145,3.097 m -8.311,-2.836 c -0.307,0.401 -0.801,2.826 -0.631,3.1 0.299,0.485 0.517,0.182 0.766,-1.069 0.142,-0.713 0.319,-1.526 0.394,-1.805 0.147,-0.548 -0.177,-0.686 -0.529,-0.226 m 0.927,1.653 c -0.082,0.325 -0.036,0.691 0.104,0.831 0.316,0.316 0.386,0.23 0.559,-0.678 0.174,-0.914 -0.437,-1.055 -0.663,-0.153 m 15.369,0.635 c -1.366,5.903 -1.402,6.118 -1.034,6.274 0.72,0.305 0.848,0.161 1.134,-1.281 0.328,-1.649 0.043,-1.554 2.692,-0.897 1.515,0.377 1.435,0.25 1.128,1.782 -0.265,1.318 -0.13,1.695 0.61,1.706 0.181,0.003 1.69,-5.887 1.684,-6.573 -10e-4,-0.078 -0.255,-0.191 -0.564,-0.25 -0.525,-0.1 -0.58,-0.02 -0.835,1.215 -0.31,1.502 -0.196,1.457 -2.405,0.941 l -1.658,-0.388 0.145,-0.913 c 0.08,-0.502 0.199,-1.128 0.264,-1.392 0.094,-0.378 -0.003,-0.501 -0.465,-0.59 -0.46,-0.087 -0.609,-0.009 -0.696,0.366 m -4.6,0.985 c -0.486,1.863 -0.553,2.603 -0.225,2.494 0.58,-0.193 1.204,-3.341 0.662,-3.341 -0.119,0 -0.316,0.381 -0.437,0.847 m -1.466,0.188 c -0.075,0.196 -0.137,0.548 -0.137,0.783 0,0.519 0.586,0.362 0.731,-0.197 0.205,-0.791 -0.317,-1.307 -0.594,-0.586 m 13.389,0.151 c -0.173,0.539 -1.479,6.397 -1.437,6.449 0.245,0.307 4.737,1.113 4.887,0.877 0.375,-0.59 0.111,-0.775 -1.653,-1.154 l -1.833,-0.393 0.13,-0.802 c 0.19,-1.169 0.062,-1.156 3.479,-0.362 0.42,0.097 0.508,0.022 0.508,-0.433 0,-0.504 -0.148,-0.582 -1.78,-0.933 l -1.781,-0.382 0.22,-0.864 0.219,-0.864 1.73,0.41 c 2.179,0.517 2.069,0.522 2.069,-0.101 0,-0.515 -4.607,-1.918 -4.758,-1.448 m 7.063,2.125 c -3.406,1.679 -2.139,6.822 1.623,6.582 1.495,-0.095 2.316,-0.532 2.93,-1.561 1.759,-2.946 -1.491,-6.53 -4.553,-5.021 m 2.691,1.106 c 0.824,0.426 1.409,1.685 1.208,2.598 -0.325,1.481 -2.445,2.296 -3.694,1.421 -2.449,-1.715 -0.173,-5.394 2.486,-4.019 m 3.911,0.652 c -1.143,1.143 -0.686,2.187 1.549,3.538 1.441,0.872 1.443,1.628 0.006,1.733 -0.777,0.056 -1.072,-0.049 -1.718,-0.617 -0.747,-0.656 -0.796,-0.668 -1.15,-0.277 -1.116,1.233 3.151,2.721 4.471,1.559 1.321,-1.163 0.859,-2.553 -1.225,-3.688 -1.263,-0.687 -1.493,-1.056 -0.978,-1.57 0.429,-0.429 1.246,-0.293 2.15,0.359 1.065,0.768 1.939,0.223 1.022,-0.636 -1.174,-1.1 -3.229,-1.299 -4.127,-0.401 m 42.786,37.721 c 0,0.837 -1.513,1.905 -2.69,1.899 l -1.26,-0.007 1.806,-1.005 c 1.77,-0.985 2.144,-1.14 2.144,-0.887"
     id="path0" />
  <path
     style="fill:#000000;fill-opacity:1;stroke:none;stroke-width:0.24898127;stroke-linecap:round;stroke-linejoin:round;stroke-miterlimit:4;stroke-dasharray:none;stroke-dashoffset:0;stroke-opacity:1"
     d="m 373.76773,9.7514069 c -2.42117,2.8078231 -6.2042,4.9531751 -6.03112,9.1457281 -6.35904,34.582535 -15.2865,68.599293 -25.80457,102.153095 -4.26644,14.20649 -9.13677,28.27117 -13.31222,42.47469 -0.54628,9.73778 -0.79998,19.54132 -1.79381,29.19173 1.50774,2.37611 3.94472,-1.30159 5.5943,-1.81581 7.46453,-4.63838 14.35961,-10.38146 22.39275,-14.01493 3.53803,0.0945 3.52623,-4.53511 4.61125,-6.89508 7.21848,-24.20965 13.63374,-48.75847 17.35259,-73.771926 1.79884,-21.173416 1.1457,-42.479831 0.45893,-63.693497 -0.4861,-7.534944 -0.46587,-15.278974 -2.02432,-22.631102 -0.13666,-0.5255619 -1.15644,-0.5015803 -1.44378,-0.1428981 z M 358.33575,84.226956 c 3.52056,1.671824 4.22806,5.998665 5.54081,9.252183 2.07589,2.787599 3.61089,6.175911 3.51783,9.658721 2.06191,2.6394 3.67907,6.10297 2.56568,9.53131 -0.94344,4.13986 -2.16938,8.20864 -3.26302,12.30999 -1.91623,0.55176 -2.93933,-0.8984 -3.0967,-2.60166 -0.64296,-2.39483 -0.18329,-5.16613 -2.21263,-6.96467 -2.71444,-4.89431 -5.4817,-9.87114 -7.36343,-15.13437 1.14449,-5.399095 2.35772,-10.925413 4.31146,-16.051504 z"
     id="path4593"
     inkscape:connector-curvature="0" />
  <path
     style="fill:url(#linearGradient5387);fill-opacity:1;stroke:#000000;stroke-width:1.11996603;stroke-linecap:round;stroke-linejoin:miter;stroke-miterlimit:4;stroke-dasharray:none;stroke-dashoffset:0;stroke-opacity:1"
     d="m 2.194738,69.321488 c 0.6393076,14.772266 22.627909,49.384102 33.050738,63.641262 12.298538,14.14047 24.985682,26.88514 34.689014,34.73801 102.06896,10.78223 181.35255,21.04437 250.91597,28.00367 3.48574,-1.99185 4.35717,-4.23269 4.23729,-8.23258 -0.14967,-3.8239 0.91901,0.0634 -1.27596,-22.19599 -35.85453,-8.16742 -82.17423,-18.88705 -124.0181,-31.75108 C 141.05255,117.94928 97.208259,104.03317 45.669845,86.831247 37.308794,81.865276 10.563736,75.321925 2.3098003,69.027046 Z"
     id="path6389"
     inkscape:connector-curvature="0"
     sodipodi:nodetypes="cccccccccc" />
  <path
     style="fill:url(#linearGradient5379);fill-opacity:1;stroke:none;stroke-width:0.24898127;stroke-linecap:round;stroke-linejoin:round;stroke-miterlimit:4;stroke-dasharray:none;stroke-dashoffset:0;stroke-opacity:1;opacity:1;fill-rule:nonzero"
     d="M 205.6897,-0.08187564 C 153.00135,0.22414521 100.13781,2.650091 48.075406,11.167951 38.743182,13.036208 29.080021,14.028667 20.180187,17.539384 15.297194,20.55468 12.860977,26.205451 9.9487009,30.924312 4.0581642,42.27094 -0.51021654,55.03333 0.42021646,67.983378 1.0439314,69.553105 3.1862507,69.201051 4.3193019,70.39149 23.830301,78.942398 44.091441,85.671978 64.208728,92.638005 140.21082,117.88081 217.3686,139.58441 295.13895,158.65703 c 9.44446,2.47158 19.12313,4.13958 28.46672,6.93381 -0.46325,1.82661 2.23541,2.13212 2.30114,0.30053 3.83416,-15.34809 9.3196,-30.28452 13.48244,-45.58077 C 349.78197,84.456869 358.91809,48.1916 366.6629,11.701941 365.39615,9.3810264 361.88988,9.9661523 359.71235,9.1327727 336.19265,4.3149367 312.07828,4.1142514 288.22213,2.2620495 260.74532,0.61041748 233.21566,-0.13841407 205.6897,-0.08187564 Z M 277.96138,128.4936 c 4.0251,-0.31399 7.4532,2.15802 11.39548,2.62418 9.48627,2.45497 19.39059,3.98651 28.65549,6.86921 -0.62512,3.40057 -0.92737,7.17616 -2.74852,10.11778 -11.8293,-2.14691 -23.43228,-5.71828 -35.37868,-7.1057 -2.20946,0.43827 -3.63734,-2.08026 -5.88705,-1.91209 -2.84943,-0.63761 -0.67051,-3.82873 -0.60689,-5.66141 0.81524,-1.88275 0.30075,-5.83699 3.35055,-4.93197 0.40654,0 0.81308,0 1.21962,0 z"
     id="path5349"
     inkscape:connector-curvature="0" />
  <path
     style="fill:url(#linearGradient5397);fill-opacity:1;stroke:none;stroke-width:0.24898127;stroke-linecap:round;stroke-linejoin:round;stroke-miterlimit:4;stroke-dasharray:none;stroke-dashoffset:0;stroke-opacity:1"
     d="m 367.30096,3.8415244 c -8.38152,0.1985697 -21.36608,0.7414618 -29.72262,1.3996034 -2.10283,1.4854848 5.51931,2.0472377 6.86011,1.9859582 7.32099,1.1451082 14.62089,2.467119 21.85102,3.895195 2.54891,-1.4435128 5.94809,-2.9234737 6.92091,-5.8899628 -0.26006,-2.5655482 -4.39764,-0.906268 -5.90942,-1.3907938 z"
     id="path5389"
     inkscape:connector-curvature="0"
     sodipodi:nodetypes="cccccc" />
</svg>
