<svg id="svg" xmlns="http://www.w3.org/2000/svg" xmlns:xlink="http://www.w3.org/1999/xlink" width="400" height="224.37923250564336" viewBox="0, 0, 400,224.37923250564336"><g id="svgg"><path id="path0" d="M184.199 14.450 C 130.149 15.859,79.299 20.594,44.582 27.451 C 30.026 30.327,27.336 31.275,24.760 34.443 C 13.510 48.277,5.562 73.573,8.797 85.247 C 10.030 89.697,21.467 113.791,27.265 124.153 C 38.538 144.300,52.417 160.935,72.875 178.821 C 77.815 183.140,79.229 183.605,90.971 184.770 C 101.157 185.781,310.322 207.910,322.573 209.273 C 329.735 210.069,330.692 210.136,331.998 209.923 C 333.946 209.606,334.753 209.281,336.456 208.128 C 337.325 207.540,342.296 204.150,347.502 200.595 L 356.967 194.131 359.156 194.131 L 361.345 194.131 362.141 193.160 C 362.578 192.626,362.972 191.940,363.015 191.636 C 363.086 191.129,363.181 191.088,364.160 191.138 C 365.508 191.206,365.428 191.355,367.342 185.214 C 374.834 161.179,383.257 125.544,384.976 110.609 C 387.244 90.898,385.940 33.496,382.934 20.733 C 382.241 17.789,383.078 17.866,358.691 18.482 C 342.388 18.894,326.953 18.743,319.413 18.098 C 303.982 16.777,282.966 15.638,257.901 14.763 C 246.220 14.356,195.999 14.142,184.199 14.450 M238.074 15.124 C 268.270 15.695,293.738 16.866,319.300 18.860 C 323.273 19.170,328.962 19.521,331.941 19.639 C 343.465 20.097,361.203 22.501,372.766 25.173 C 374.285 25.524,374.422 25.613,374.084 26.020 C 373.949 26.183,373.432 28.293,372.937 30.709 C 364.627 71.211,349.449 128.265,335.435 171.670 C 332.966 179.319,332.599 182.767,333.266 192.099 C 333.465 194.893,333.685 197.991,333.755 198.984 C 334.048 203.178,332.736 207.604,330.928 208.521 C 329.503 209.244,333.200 209.586,270.466 202.929 C 238.849 199.573,200.587 195.513,185.440 193.906 C 151.025 190.254,95.093 184.367,88.939 183.749 C 78.146 182.664,78.179 182.680,68.397 173.719 C 44.856 152.152,32.356 134.783,17.379 102.822 C 8.512 83.901,8.324 83.297,9.014 75.918 C 10.241 62.798,15.667 48.519,23.794 37.020 C 27.338 32.007,28.453 31.529,43.792 28.445 C 90.969 18.960,166.620 13.773,238.074 15.124 M379.991 18.879 C 381.746 19.120,380.720 20.716,377.540 22.693 C 376.795 23.156,375.876 23.826,375.499 24.181 L 374.812 24.828 371.846 24.159 C 366.138 22.872,352.874 20.715,345.711 19.908 C 343.991 19.714,345.588 19.651,364.221 19.177 C 369.312 19.048,373.883 18.913,374.379 18.878 C 376.316 18.742,378.992 18.743,379.991 18.879 M382.311 21.528 C 382.529 23.123,380.706 25.635,377.275 28.468 L 376.334 29.245 375.534 33.870 C 369.687 67.667,359.702 105.637,343.184 156.885 C 341.003 163.651,338.615 171.067,337.878 173.363 L 336.539 177.540 336.115 188.375 C 335.514 203.769,335.513 203.779,334.998 205.447 C 334.469 207.161,333.005 209.034,332.204 209.022 C 331.767 209.016,331.757 208.992,332.106 208.788 C 334.155 207.594,334.906 202.050,334.183 193.454 C 333.409 184.250,333.723 179.786,335.555 173.992 C 351.698 122.916,365.522 71.147,373.514 31.838 C 374.778 25.620,374.868 25.448,377.884 23.452 C 378.936 22.755,380.254 21.687,380.813 21.078 C 381.938 19.851,382.087 19.896,382.311 21.528 M383.163 27.314 C 385.251 45.813,386.007 86.244,384.632 105.869 C 383.628 120.201,375.148 157.413,366.653 184.763 C 364.836 190.613,365.011 190.293,363.630 190.293 C 361.684 190.293,358.059 192.430,345.753 200.830 C 339.692 204.967,334.696 208.352,334.651 208.352 C 334.606 208.352,334.861 207.774,335.217 207.067 C 336.174 205.170,336.296 203.932,336.789 191.084 C 337.350 176.459,337.047 178.488,340.064 169.187 C 359.687 108.691,369.284 73.145,375.836 36.682 C 376.460 33.205,377.026 30.158,377.093 29.910 C 377.159 29.661,377.837 28.954,378.599 28.337 C 379.361 27.720,380.600 26.466,381.351 25.551 C 382.103 24.635,382.740 23.971,382.768 24.076 C 382.796 24.181,382.974 25.638,383.163 27.314 M10.666 84.029 C 10.914 84.775,32.702 93.358,50.451 99.701 C 116.503 123.309,231.338 156.176,323.162 177.755 C 330.786 179.547,331.377 179.647,331.377 179.147 C 331.377 178.939,330.652 178.672,329.176 178.337 C 224.022 154.446,75.889 110.596,15.812 85.576 C 11.485 83.774,10.480 83.472,10.666 84.029 M365.528 98.177 C 365.087 98.651,361.157 114.037,361.168 115.249 C 361.172 115.691,361.624 116.649,362.427 117.914 C 363.848 120.153,366.546 125.486,367.856 128.644 C 368.905 131.171,369.813 131.866,371.273 131.256 L 372.027 130.941 371.875 131.748 C 371.768 132.322,371.814 132.612,372.036 132.753 C 372.292 132.915,372.285 132.951,371.998 132.954 C 371.529 132.958,371.115 132.519,371.252 132.162 C 371.440 131.673,370.836 131.501,370.508 131.950 C 369.909 132.769,371.008 138.695,371.929 139.617 C 372.492 140.180,374.693 140.305,375.196 139.803 C 375.694 139.305,379.237 125.947,379.226 124.610 C 379.205 122.129,377.573 118.122,376.494 117.906 C 375.616 117.730,375.530 117.470,375.953 116.271 C 376.487 114.758,376.388 114.323,374.766 111.061 C 373.604 108.723,373.082 107.908,372.526 107.562 C 371.834 107.131,371.800 107.044,371.792 105.668 C 371.769 101.905,367.173 96.408,365.528 98.177 M366.775 99.783 C 367.402 100.368,367.437 100.031,366.267 104.697 C 364.038 113.584,364.171 113.227,362.993 113.462 C 362.273 113.606,362.239 113.585,362.374 113.071 C 362.453 112.773,363.246 109.557,364.137 105.926 C 365.802 99.139,365.882 98.952,366.775 99.783 M370.224 103.005 C 371.587 105.824,371.684 105.240,367.458 119.729 L 367.004 121.287 365.903 119.165 C 364.556 116.566,364.559 116.792,365.821 112.961 C 366.944 109.553,368.849 102.290,368.849 101.417 C 368.849 100.546,369.270 101.032,370.224 103.005 M367.177 105.346 C 366.410 108.349,365.618 110.981,365.763 110.045 C 365.923 109.012,367.839 101.825,367.903 102.017 C 367.941 102.132,367.615 103.630,367.177 105.346 M372.467 108.590 C 372.904 109.407,372.635 110.838,370.813 117.379 C 368.843 124.450,368.714 124.715,367.698 123.795 C 367.347 123.477,367.202 123.454,366.981 123.678 C 366.678 123.986,367.679 125.056,368.270 125.056 C 368.444 125.056,368.964 126.115,369.516 127.594 C 370.037 128.989,370.570 130.259,370.699 130.415 C 370.999 130.776,370.657 130.794,369.915 130.456 C 369.535 130.283,369.128 129.611,368.514 128.142 C 368.037 127.004,367.308 125.389,366.894 124.554 C 365.993 122.740,366.000 122.799,366.696 122.799 C 367.447 122.799,367.388 122.953,369.659 114.982 C 371.676 107.901,371.866 107.468,372.467 108.590 M374.603 112.509 C 375.610 114.768,375.677 114.057,373.718 121.896 C 372.017 128.702,371.585 130.142,371.323 129.874 C 371.222 129.769,370.742 128.623,370.258 127.325 L 369.378 124.967 369.758 123.939 C 369.967 123.374,370.889 120.144,371.807 116.762 C 372.725 113.379,373.539 110.611,373.616 110.610 C 373.693 110.610,374.137 111.464,374.603 112.509 M364.331 114.965 C 363.736 116.659,363.722 116.571,364.984 118.993 C 366.342 121.598,366.520 122.122,366.046 122.122 C 365.851 122.122,365.431 121.599,365.096 120.938 C 364.766 120.287,363.991 118.941,363.374 117.947 C 361.525 114.971,361.440 114.221,362.952 114.221 C 363.416 114.221,363.993 114.077,364.234 113.901 C 364.836 113.461,364.841 113.515,364.331 114.965 M376.064 118.947 C 376.390 119.555,376.378 119.576,375.644 119.684 C 375.179 119.752,375.016 119.694,375.080 119.483 C 375.129 119.321,375.217 119.035,375.275 118.849 C 375.421 118.380,375.785 118.425,376.064 118.947 M378.550 124.736 C 378.553 124.870,378.336 124.971,378.067 124.961 C 377.463 124.939,374.456 135.946,374.936 136.426 C 375.122 136.612,375.249 136.589,375.419 136.341 C 375.605 136.071,375.627 136.094,375.533 136.456 C 375.468 136.704,375.296 137.394,375.151 137.988 C 374.813 139.364,374.820 139.373,373.952 136.174 C 373.360 133.990,373.272 133.400,373.489 133.050 C 373.635 132.813,374.492 129.876,375.391 126.524 C 376.291 123.172,377.077 120.277,377.138 120.090 C 377.234 119.797,378.534 124.075,378.550 124.736 M374.599 126.448 C 373.255 131.371,372.686 133.036,372.686 132.043 C 372.686 131.564,375.539 120.856,375.760 120.503 C 376.320 119.613,375.954 121.481,374.599 126.448 M372.559 134.053 C 372.912 135.206,373.814 138.756,373.814 138.995 C 373.815 139.151,373.573 139.278,373.278 139.278 C 372.983 139.278,372.640 139.151,372.516 138.995 C 372.347 138.784,370.880 133.909,370.880 133.560 C 370.880 133.291,372.469 133.758,372.559 134.053 M282.216 142.212 C 281.688 142.779,279.558 152.069,279.789 152.797 C 280.017 153.514,280.700 153.848,282.844 154.288 C 284.550 154.638,284.813 154.760,285.218 155.388 C 285.864 156.391,287.127 156.690,287.997 156.046 L 288.631 155.578 305.433 159.278 C 314.674 161.313,322.549 163.037,322.934 163.110 C 324.360 163.381,324.705 162.742,325.846 157.715 C 326.941 152.894,327.020 152.221,326.567 151.602 C 326.187 151.081,326.770 151.223,307.788 147.058 L 291.535 143.492 290.827 142.739 C 290.042 141.904,288.956 141.729,288.133 142.305 C 287.737 142.583,287.445 142.568,285.882 142.194 C 283.568 141.640,282.745 141.644,282.216 142.212 M285.386 142.895 C 286.533 143.146,287.587 143.393,287.729 143.443 C 287.913 143.507,287.867 144.035,287.567 145.299 C 286.981 147.772,287.003 148.269,287.712 148.538 C 289.311 149.146,289.596 148.867,290.186 146.106 C 290.487 144.701,290.675 144.244,290.951 144.244 C 291.308 144.244,323.446 151.268,325.090 151.705 C 326.276 152.020,326.277 152.145,325.141 157.170 C 324.085 161.842,323.919 162.301,323.279 162.304 C 322.746 162.307,288.630 154.810,288.444 154.650 C 288.358 154.575,288.497 153.566,288.752 152.407 C 289.268 150.065,289.235 149.957,287.902 149.657 C 286.728 149.392,286.580 149.571,286.105 151.833 C 285.618 154.157,285.668 154.131,282.904 153.465 C 280.879 152.978,280.694 152.888,280.633 152.363 C 280.535 151.520,282.543 142.850,282.888 142.632 C 283.259 142.396,282.973 142.366,285.386 142.895 M285.766 144.994 C 284.733 145.501,283.520 151.488,284.317 152.149 C 284.842 152.585,284.928 152.374,285.805 148.508 C 286.660 144.737,286.658 144.556,285.766 144.994 M290.543 149.168 C 290.136 150.991,289.751 152.712,289.686 152.991 C 289.594 153.385,289.666 153.499,290.008 153.499 C 291.405 153.499,292.934 146.738,291.688 146.071 C 291.319 145.874,291.215 146.154,290.543 149.168 M282.232 146.332 C 281.925 146.733,281.431 149.158,281.601 149.432 C 281.900 149.917,282.118 149.614,282.367 148.363 C 282.509 147.650,282.686 146.837,282.761 146.558 C 282.908 146.010,282.584 145.872,282.232 146.332 M283.159 147.985 C 283.077 148.310,283.123 148.676,283.263 148.816 C 283.579 149.132,283.649 149.046,283.822 148.138 C 283.996 147.224,283.385 147.083,283.159 147.985 M298.528 148.620 C 297.162 154.523,297.126 154.738,297.494 154.894 C 298.214 155.199,298.342 155.055,298.628 153.613 C 298.956 151.964,298.671 152.059,301.320 152.716 C 302.835 153.093,302.755 152.966,302.448 154.498 C 302.183 155.816,302.318 156.193,303.058 156.204 C 303.239 156.207,304.748 150.317,304.742 149.631 C 304.741 149.553,304.487 149.440,304.178 149.381 C 303.653 149.281,303.598 149.361,303.343 150.596 C 303.033 152.098,303.147 152.053,300.938 151.537 L 299.280 151.149 299.425 150.236 C 299.505 149.734,299.624 149.108,299.689 148.844 C 299.783 148.466,299.686 148.343,299.224 148.254 C 298.764 148.167,298.615 148.245,298.528 148.620 M293.928 149.605 C 293.442 151.468,293.375 152.208,293.703 152.099 C 294.283 151.906,294.907 148.758,294.365 148.758 C 294.246 148.758,294.049 149.139,293.928 149.605 M292.462 149.793 C 292.387 149.989,292.325 150.341,292.325 150.576 C 292.325 151.095,292.911 150.938,293.056 150.379 C 293.261 149.588,292.739 149.072,292.462 149.793 M305.851 149.944 C 305.678 150.483,304.372 156.341,304.414 156.393 C 304.659 156.700,309.151 157.506,309.301 157.270 C 309.676 156.680,309.412 156.495,307.648 156.116 L 305.815 155.723 305.945 154.921 C 306.135 153.752,306.007 153.765,309.424 154.559 C 309.844 154.656,309.932 154.581,309.932 154.126 C 309.932 153.622,309.784 153.544,308.152 153.193 L 306.371 152.811 306.591 151.947 L 306.810 151.083 308.540 151.493 C 310.719 152.010,310.609 152.015,310.609 151.392 C 310.609 150.877,306.002 149.474,305.851 149.944 M312.914 152.069 C 309.508 153.748,310.775 158.891,314.537 158.651 C 316.032 158.556,316.853 158.119,317.467 157.090 C 319.226 154.144,315.976 150.560,312.914 152.069 M315.605 153.175 C 316.429 153.601,317.014 154.860,316.813 155.773 C 316.488 157.254,314.368 158.069,313.119 157.194 C 310.670 155.479,312.946 151.800,315.605 153.175 M319.516 153.827 C 318.373 154.970,318.830 156.014,321.065 157.365 C 322.506 158.237,322.508 158.993,321.071 159.098 C 320.294 159.154,319.999 159.049,319.353 158.481 C 318.606 157.825,318.557 157.813,318.203 158.204 C 317.087 159.437,321.354 160.925,322.674 159.763 C 323.995 158.600,323.533 157.210,321.449 156.075 C 320.186 155.388,319.956 155.019,320.471 154.505 C 320.900 154.076,321.717 154.212,322.621 154.864 C 323.686 155.632,324.560 155.087,323.643 154.228 C 322.469 153.128,320.414 152.929,319.516 153.827 M362.302 191.548 C 362.302 192.385,360.789 193.453,359.612 193.447 L 358.352 193.440 360.158 192.435 C 361.928 191.450,362.302 191.295,362.302 191.548 " stroke="none" fill="#000000" fill-rule="evenodd"></path></g></svg>