<?xml version="1.0" encoding="UTF-8" standalone="no"?>
<svg
   xmlns:dc="http://purl.org/dc/elements/1.1/"
   xmlns:cc="http://creativecommons.org/ns#"
   xmlns:rdf="http://www.w3.org/1999/02/22-rdf-syntax-ns#"
   xmlns:svg="http://www.w3.org/2000/svg"
   xmlns="http://www.w3.org/2000/svg"
   xmlns:sodipodi="http://sodipodi.sourceforge.net/DTD/sodipodi-0.dtd"
   xmlns:inkscape="http://www.inkscape.org/namespaces/inkscape"
   inkscape:version="1.0 (4035a4f, 2020-05-01)"
   sodipodi:docname="g82.svg"
   viewBox="0 0 667 1104"
   height="1104"
   width="667"
   id="svg6567"
   version="1.1">
  <metadata
     id="metadata6573">
    <rdf:RDF>
      <cc:Work
         rdf:about="">
        <dc:format>image/svg+xml</dc:format>
        <dc:type
           rdf:resource="http://purl.org/dc/dcmitype/StillImage" />
        <dc:title></dc:title>
      </cc:Work>
    </rdf:RDF>
  </metadata>
  <defs
     id="defs6571" />
  <sodipodi:namedview
     inkscape:current-layer="g6575"
     inkscape:window-maximized="0"
     inkscape:window-y="23"
     inkscape:window-x="0"
     inkscape:cy="723.95238"
     inkscape:cx="333.5"
     inkscape:zoom="0.91304348"
     inkscape:pagecheckerboard="true"
     showgrid="false"
     id="namedview6569"
     inkscape:window-height="1496"
     inkscape:window-width="2287"
     inkscape:pageshadow="2"
     inkscape:pageopacity="0"
     guidetolerance="10"
     gridtolerance="10"
     objecttolerance="10"
     borderopacity="1"
     bordercolor="#666666"
     pagecolor="#ffffff" />
  <g
     id="g6575"
     inkscape:label="Image"
     inkscape:groupmode="layer">
    <g
       id="g6579">
      <path
         id="path6593"
         d="m 358.26375,1085.2824 c 1.52006,-0.2298 3.77006,-0.2237 5,0.014 1.22994,0.2373 -0.0138,0.4254 -2.76375,0.4179 -2.75,-0.01 -3.75631,-0.2017 -2.23625,-0.4316 z M 19.34281,872.5 c 0.0036,-4.4 0.179441,-6.07561 0.390687,-3.72357 0.211245,2.35204 0.208273,5.95204 -0.0066,8 C 19.512015,878.82439 19.339178,876.9 19.34281,872.5 Z m -12.9999997,-54 c 0.00363,-4.4 0.1794411,-6.07561 0.3906863,-3.72357 0.2112452,2.35204 0.2082734,5.95204 -0.0066,8 C 6.5120151,824.82439 6.3391781,822.9 6.3428103,818.5 Z M 18.34281,702.5 c 0.0036,-4.4 0.179441,-6.07561 0.390687,-3.72357 0.211245,2.35204 0.208273,5.95204 -0.0066,8 C 18.512015,708.82439 18.339178,706.9 18.34281,702.5 Z m -12.9999997,-53 c 0.00363,-4.4 0.1794411,-6.07561 0.3906863,-3.72357 0.2112452,2.35204 0.2082734,5.95204 -0.0066,8 C 5.5120151,655.82439 5.3391781,653.9 5.3428103,649.5 Z M 17.34281,533.5 c 0.0036,-4.4 0.179441,-6.07561 0.390687,-3.72357 0.211245,2.35204 0.208273,5.95204 -0.0066,8 C 17.512015,539.82439 17.339178,537.9 17.34281,533.5 Z M 4.3362062,480 c 0,-4.125 0.176518,-5.8125 0.3922622,-3.75 0.2157442,2.0625 0.2157442,5.4375 0,7.5 -0.2157442,2.0625 -0.3922622,0.375 -0.3922622,-3.75 z M 16.34281,364.5 c 0.0036,-4.4 0.179441,-6.07561 0.390687,-3.72357 0.211245,2.35204 0.208273,5.95204 -0.0066,8 C 16.512015,370.82439 16.339178,368.9 16.34281,364.5 Z M 3.3362062,311 c 0,-4.125 0.176518,-5.8125 0.3922622,-3.75 0.2157442,2.0625 0.2157442,5.4375 0,7.5 -0.2157442,2.0625 -0.3922622,0.375 -0.3922622,-3.75 z M 15.349414,195 c 0,-4.675 0.172256,-6.5875 0.382791,-4.25 0.210535,2.3375 0.210535,6.1625 0,8.5 -0.210535,2.3375 -0.382791,0.425 -0.382791,-4.25 z M 589.87244,101.25 c -1.24387,-1.586056 -1.2085,-1.621426 0.37756,-0.37756 1.66575,1.30637 2.19548,2.12756 1.37244,2.12756 -0.20765,0 -0.99515,-0.7875 -1.75,-1.75 z M 305.8125,3.316886 c 0.72187,-0.2888706 1.58438,-0.2533443 1.91667,0.078947 0.33229,0.3322917 -0.25834,0.5686404 -1.3125,0.5252193 -1.16495,-0.047984 -1.4019,-0.2849403 -0.60417,-0.6041663 z"
         style="fill:#b9b9b9;fill-opacity:1" />
      <path
         id="path6591"
         d="m 353.8125,1085.3169 c 0.72187,-0.2889 1.58438,-0.2534 1.91667,0.079 0.33229,0.3323 -0.25834,0.5687 -1.3125,0.5253 -1.16495,-0.048 -1.4019,-0.285 -0.60417,-0.6042 z m 12,0 c 0.72187,-0.2889 1.58438,-0.2534 1.91667,0.079 0.33229,0.3323 -0.25834,0.5687 -1.3125,0.5253 -1.16495,-0.048 -1.4019,-0.285 -0.60417,-0.6042 z M 620,991.62244 c 0,-0.20765 0.7875,-0.99515 1.75,-1.75 1.58606,-1.24387 1.62143,-1.2085 0.37756,0.37756 C 620.82119,991.91575 620,992.44548 620,991.62244 Z M 19.336206,887 c 0,-4.125 0.176518,-5.8125 0.392262,-3.75 0.215745,2.0625 0.215745,5.4375 0,7.5 -0.215744,2.0625 -0.392262,0.375 -0.392262,-3.75 z M 6.3428103,803.5 c 0.00363,-4.4 0.1794411,-6.07561 0.3906863,-3.72357 0.2112452,2.35204 0.2082734,5.95204 -0.0066,8 C 6.5120151,809.82439 6.3391781,807.9 6.3428103,803.5 Z m 11.9999997,-86 c 0.0036,-4.4 0.179441,-6.07561 0.390687,-3.72357 0.211245,2.35204 0.208273,5.95204 -0.0066,8 C 18.512015,723.82439 18.339178,721.9 18.34281,717.5 Z m -12.9999997,-83 c 0.00363,-4.4 0.1794411,-6.07561 0.3906863,-3.72357 0.2112452,2.35204 0.2082734,5.95204 -0.0066,8 C 5.5120151,640.82439 5.3391781,638.9 5.3428103,634.5 Z m 11.9999997,-86 c 0.0036,-4.4 0.179441,-6.07561 0.390687,-3.72357 0.211245,2.35204 0.208273,5.95204 -0.0066,8 C 17.512015,554.82439 17.339178,552.9 17.34281,548.5 Z m -12.9999997,-83 c 0.00363,-4.4 0.1794411,-6.07561 0.3906863,-3.72357 0.2112452,2.35204 0.2082734,5.95204 -0.0066,8 C 4.5120151,471.82439 4.3391781,469.9 4.3428103,465.5 Z M 16.336206,379 c 0,-4.125 0.176518,-5.8125 0.392262,-3.75 0.215745,2.0625 0.215745,5.4375 0,7.5 -0.215744,2.0625 -0.392262,0.375 -0.392262,-3.75 z M 3.3494144,296 c 0,-4.675 0.1722558,-6.5875 0.3827907,-4.25 0.2105348,2.3375 0.2105348,6.1625 0,8.5 -0.2105349,2.3375 -0.3827907,0.425 -0.3827907,-4.25 z M 15.336206,210 c 0,-4.125 0.176518,-5.8125 0.392262,-3.75 0.215745,2.0625 0.215745,5.4375 0,7.5 -0.215744,2.0625 -0.392262,0.375 -0.392262,-3.75 z m 59.536239,-70.75 c -1.243871,-1.58606 -1.208501,-1.62143 0.377555,-0.37756 0.9625,0.75485 1.75,1.54235 1.75,1.75 0,0.82304 -0.821186,0.29331 -2.127555,-1.37244 z M 297.25,3.2837456 c 1.5125,-0.2291247 3.9875,-0.2291247 5.5,0 1.5125,0.2291246 0.275,0.4165902 -2.75,0.4165902 -3.025,0 -4.2625,-0.1874656 -2.75,-0.4165902 z"
         style="fill:#a3a3a3;fill-opacity:1" />
      <path
         id="path6589"
         d="m 361.76791,1052.2753 c 1.79735,-0.2226 4.49735,-0.218 6,0.01 1.50265,0.2281 0.0321,0.4102 -3.26791,0.4046 -3.3,-0.01 -4.52944,-0.1923 -2.73209,-0.4148 z M 661.49484,532.5 c 0,-210.1 0.11482,-295.90087 0.25515,-190.66861 0.14033,105.23227 0.14033,277.13227 -10e-6,382 C 661.60965,828.69913 661.49483,742.6 661.49484,532.5 Z m -642.15203,369 c 0.0036,-4.4 0.179441,-6.07561 0.390687,-3.72357 0.211245,2.35204 0.208273,5.95204 -0.0066,8 C 19.512015,907.82439 19.339178,905.9 19.34281,901.5 Z M 6.3428103,788.5 c 0.00363,-4.4 0.1794411,-6.07561 0.3906863,-3.72357 0.2112452,2.35204 0.2082734,5.95204 -0.0066,8 C 6.5120151,794.82439 6.3391781,792.9 6.3428103,788.5 Z m 11.9999997,-56 c 0.0036,-4.4 0.179441,-6.07561 0.390687,-3.72357 0.211245,2.35204 0.208273,5.95204 -0.0066,8 C 18.512015,738.82439 18.339178,736.9 18.34281,732.5 Z M 5.3428103,619.5 c 0.00363,-4.4 0.1794411,-6.07561 0.3906863,-3.72357 0.2112452,2.35204 0.2082734,5.95204 -0.0066,8 C 5.5120151,625.82439 5.3391781,623.9 5.3428103,619.5 Z m 11.9999997,-56 c 0.0036,-4.4 0.179441,-6.07561 0.390687,-3.72357 0.211245,2.35204 0.208273,5.95204 -0.0066,8 C 17.512015,569.82439 17.339178,567.9 17.34281,563.5 Z M 4.3428103,450.5 c 0.00363,-4.4 0.1794411,-6.07561 0.3906863,-3.72357 0.2112452,2.35204 0.2082734,5.95204 -0.0066,8 C 4.5120151,456.82439 4.3391781,454.9 4.3428103,450.5 Z m 11.9999997,-57 c 0.0036,-4.4 0.179441,-6.07561 0.390687,-3.72357 0.211245,2.35204 0.208273,5.95204 -0.0066,8 C 16.512015,399.82439 16.339178,397.9 16.34281,393.5 Z M 3.3428103,280.5 c 0.00363,-4.4 0.1794411,-6.07561 0.3906863,-3.72357 0.2112452,2.35204 0.2082734,5.95204 -0.0066,8 C 3.5120151,286.82439 3.3391781,284.9 3.3428103,280.5 Z m 11.9999997,-56 c 0.0036,-4.4 0.179441,-6.07561 0.390687,-3.72357 0.211245,2.35204 0.208273,5.95204 -0.0066,8 C 15.512015,230.82439 15.339178,228.9 15.34281,224.5 Z M 27,130.62244 c 0,-0.20765 0.7875,-0.99515 1.75,-1.75 1.586056,-1.24387 1.621426,-1.2085 0.377555,0.37756 C 27.821186,130.91575 27,131.44548 27,130.62244 Z m 67.078947,-8.20577 c 0.04798,-1.16495 0.284941,-1.4019 0.604167,-0.60417 0.288871,0.72187 0.253344,1.58437 -0.07895,1.91667 -0.332292,0.33229 -0.568641,-0.25834 -0.52522,-1.3125 z M 209,36.570368 c 0,-0.275 0.9,-0.981666 2,-1.570368 1.1,-0.588702 2,-0.845368 2,-0.570368 0,0.275 -0.9,0.981666 -2,1.570368 -1.1,0.588702 -2,0.845368 -2,0.570368 z M 215,33 c 0.825,-0.533156 1.95,-0.969374 2.5,-0.969374 0.55,0 0.325,0.436218 -0.5,0.969374 -0.825,0.533156 -1.95,0.969374 -2.5,0.969374 -0.55,0 -0.325,-0.436218 0.5,-0.969374 z"
         style="fill:#8c8c8c;fill-opacity:1" />
      <path
         id="path6587"
         d="m 348.8125,1085.3169 c 0.72187,-0.2889 1.58438,-0.2534 1.91667,0.079 0.33229,0.3323 -0.25834,0.5687 -1.3125,0.5253 -1.16495,-0.048 -1.4019,-0.285 -0.60417,-0.6042 z m 6.45653,-33.0099 c 0.97297,-0.2535 2.32297,-0.2369 3,0.037 0.67703,0.2739 -0.11903,0.4813 -1.76903,0.461 -1.65,-0.02 -2.20394,-0.2445 -1.23097,-0.4981 z m 16,0 c 0.97297,-0.2535 2.32297,-0.2369 3,0.037 0.67703,0.2739 -0.11903,0.4813 -1.76903,0.461 -1.65,-0.02 -2.20394,-0.2445 -1.23097,-0.4981 z M 19.34281,916.5 c 0.0036,-4.4 0.179441,-6.07561 0.390687,-3.72357 0.211245,2.35204 0.208273,5.95204 -0.0066,8 C 19.512015,922.82439 19.339178,920.9 19.34281,916.5 Z M 6.3428103,773.5 c 0.00363,-4.4 0.1794411,-6.07561 0.3906863,-3.72357 0.2112452,2.35204 0.2082734,5.95204 -0.0066,8 C 6.5120151,779.82439 6.3391781,777.9 6.3428103,773.5 Z m 11.9999997,-26 c 0.0036,-4.4 0.179441,-6.07561 0.390687,-3.72357 0.211245,2.35204 0.208273,5.95204 -0.0066,8 C 18.512015,753.82439 18.339178,751.9 18.34281,747.5 Z M 5.3428103,604.5 c 0.00363,-4.4 0.1794411,-6.07561 0.3906863,-3.72357 0.2112452,2.35204 0.2082734,5.95204 -0.0066,8 C 5.5120151,610.82439 5.3391781,608.9 5.3428103,604.5 Z m 11.9999997,-26 c 0.0036,-4.4 0.179441,-6.07561 0.390687,-3.72357 0.211245,2.35204 0.208273,5.95204 -0.0066,8 C 17.512015,584.82439 17.339178,582.9 17.34281,578.5 Z M 4.3428103,435.5 c 0.00363,-4.4 0.1794411,-6.07561 0.3906863,-3.72357 0.2112452,2.35204 0.2082734,5.95204 -0.0066,8 C 4.5120151,441.82439 4.3391781,439.9 4.3428103,435.5 Z M 16.349414,409 c 0,-4.675 0.172256,-6.5875 0.382791,-4.25 0.210535,2.3375 0.210535,6.1625 0,8.5 -0.210535,2.3375 -0.382791,0.425 -0.382791,-4.25 z M 3.3428103,265.5 c 0.00363,-4.4 0.1794411,-6.07561 0.3906863,-3.72357 0.2112452,2.35204 0.2082734,5.95204 -0.0066,8 C 3.5120151,271.82439 3.3391781,269.9 3.3428103,265.5 Z M 346.75,272.33772 c 0.6875,-0.27741 1.8125,-0.27741 2.5,0 0.6875,0.27741 0.125,0.50439 -1.25,0.50439 -1.375,0 -1.9375,-0.22698 -1.25,-0.50439 z m 18.0625,-0.0208 c 0.72187,-0.28887 1.58438,-0.25335 1.91667,0.0789 0.33229,0.33229 -0.25834,0.56864 -1.3125,0.52522 -1.16495,-0.048 -1.4019,-0.28494 -0.60417,-0.60416 z M 15.34281,239.5 c 0.0036,-4.4 0.179441,-6.07561 0.390687,-3.72357 0.211245,2.35204 0.208273,5.95204 -0.0066,8 C 15.512015,245.82439 15.339178,243.9 15.34281,239.5 Z M 344.8125,223.31689 c 0.72187,-0.28887 1.58438,-0.25335 1.91667,0.0789 0.33229,0.33229 -0.25834,0.56864 -1.3125,0.52522 -1.16495,-0.048 -1.4019,-0.28494 -0.60417,-0.60416 z m 17.9375,0.0208 c 0.6875,-0.27741 1.8125,-0.27741 2.5,0 0.6875,0.27741 0.125,0.50439 -1.25,0.50439 -1.375,0 -1.9375,-0.22698 -1.25,-0.50439 z M 89.872445,131.25 c -1.243871,-1.58606 -1.208501,-1.62143 0.377555,-0.37756 0.9625,0.75485 1.75,1.54235 1.75,1.75 0,0.82304 -0.821186,0.29331 -2.127555,-1.37244 z M 76,111.62244 c 0,-0.20765 0.7875,-0.99515 1.75,-1.75 1.586056,-1.24387 1.621426,-1.2085 0.377555,0.37756 C 76.821186,111.91575 76,112.44548 76,111.62244 Z M 296.75,23.337719 c 0.6875,-0.277412 1.8125,-0.277412 2.5,0 0.6875,0.277413 0.125,0.504386 -1.25,0.504386 -1.375,0 -1.9375,-0.226973 -1.25,-0.504386 z m 6.01166,-0.04498 c 1.24391,-0.239193 3.04391,-0.230112 4,0.02018 0.95609,0.250292 -0.0617,0.445996 -2.26166,0.434897 -2.2,-0.0111 -2.98225,-0.215885 -1.73834,-0.455078 z"
         style="fill:#767676;fill-opacity:1" />
      <path
         id="path6585"
         d="m 19.286014,928.5 c 0.0075,-2.75 0.201713,-3.75631 0.431567,-2.23625 0.229855,1.52006 0.223712,3.77006 -0.01365,5 -0.237362,1.22994 -0.425424,-0.0137 -0.417917,-2.76375 z m -11.9761448,-2 c 0.00561,-3.3 0.1923007,-4.52944 0.4148621,-2.73209 0.2225614,1.79735 0.2179691,4.49735 -0.010205,6 C 7.4863521,931.27056 7.3042564,929.8 7.3098692,926.5 Z M 18.34281,762.5 c 0.0036,-4.4 0.179441,-6.07561 0.390687,-3.72357 0.211245,2.35204 0.208273,5.95204 -0.0066,8 C 18.512015,768.82439 18.339178,766.9 18.34281,762.5 Z M 6.3362062,759 c 0,-4.125 0.176518,-5.8125 0.3922622,-3.75 0.2157442,2.0625 0.2157442,5.4375 0,7.5 -0.2157442,2.0625 -0.3922622,0.375 -0.3922622,-3.75 z M 17.34281,593.5 c 0.0036,-4.4 0.179441,-6.07561 0.390687,-3.72357 0.211245,2.35204 0.208273,5.95204 -0.0066,8 C 17.512015,599.82439 17.339178,597.9 17.34281,593.5 Z m -11.9999997,-4 c 0.00363,-4.4 0.1794411,-6.07561 0.3906863,-3.72357 0.2112452,2.35204 0.2082734,5.95204 -0.0066,8 C 5.5120151,595.82439 5.3391781,593.9 5.3428103,589.5 Z M 16.34281,424.5 c 0.0036,-4.4 0.179441,-6.07561 0.390687,-3.72357 0.211245,2.35204 0.208273,5.95204 -0.0066,8 C 16.512015,430.82439 16.339178,428.9 16.34281,424.5 Z m -11.9999997,-4 c 0.00363,-4.4 0.1794411,-6.07561 0.3906863,-3.72357 0.2112452,2.35204 0.2082734,5.95204 -0.0066,8 C 4.5120151,426.82439 4.3391781,424.9 4.3428103,420.5 Z M 351.26903,272.30701 c 0.97297,-0.25354 2.32297,-0.23687 3,0.0371 0.67703,0.27393 -0.11903,0.48137 -1.76903,0.46099 -1.65,-0.0204 -2.20394,-0.2445 -1.23097,-0.49804 z m 9.48097,0.0307 c 0.6875,-0.27741 1.8125,-0.27741 2.5,0 0.6875,0.27741 0.125,0.50439 -1.25,0.50439 -1.375,0 -1.9375,-0.22698 -1.25,-0.50439 z M 15.34281,254.5 c 0.0036,-4.4 0.179441,-6.07561 0.390687,-3.72357 0.211245,2.35204 0.208273,5.95204 -0.0066,8 C 15.512015,260.82439 15.339178,258.9 15.34281,254.5 Z M 3.3362062,251 c 0,-4.125 0.176518,-5.8125 0.3922622,-3.75 0.2157442,2.0625 0.2157442,5.4375 0,7.5 -0.2157442,2.0625 -0.3922622,0.375 -0.3922622,-3.75 z M 347.75,223.33772 c 0.6875,-0.27741 1.8125,-0.27741 2.5,0 0.6875,0.27741 0.125,0.50439 -1.25,0.50439 -1.375,0 -1.9375,-0.22698 -1.25,-0.50439 z m 7.01791,-15.06245 c 1.79735,-0.22256 4.49735,-0.21797 6,0.0102 1.50265,0.22818 0.0321,0.41027 -3.26791,0.40466 -3.3,-0.006 -4.52944,-0.1923 -2.73209,-0.41486 z M 103,111.62244 c 0,-0.20765 0.7875,-0.99515 1.75,-1.75 1.58606,-1.24387 1.62143,-1.2085 0.37756,0.37756 C 103.82119,111.91575 103,112.44548 103,111.62244 Z M 572.87244,98.25 c -1.24387,-1.586056 -1.2085,-1.621426 0.37756,-0.377555 1.66575,1.306369 2.19548,2.127555 1.37244,2.127555 -0.20765,0 -0.99515,-0.7875 -1.75,-1.75 z M 237.73333,28.875912 c 0.67834,-0.683418 1.48524,-0.990671 1.79313,-0.682784 0.30789,0.307887 -0.24711,0.867048 -1.23333,1.242579 -1.4252,0.542685 -1.54006,0.427821 -0.5598,-0.559795 z"
         style="fill:#606060;fill-opacity:1" />
      <path
         id="path6583"
         d="m 7.3428103,913.5 c 0.00363,-4.4 0.1794411,-6.07561 0.3906863,-3.72357 0.2112452,2.35204 0.2082734,5.95204 -0.0066,8 C 7.5120151,919.82439 7.3391781,917.9 7.3428103,913.5 Z M 18.34281,777.5 c 0.0036,-4.4 0.179441,-6.07561 0.390687,-3.72357 0.211245,2.35204 0.208273,5.95204 -0.0066,8 C 18.512015,783.82439 18.339178,781.9 18.34281,777.5 Z m -11.9999997,-33 c 0.00363,-4.4 0.1794411,-6.07561 0.3906863,-3.72357 0.2112452,2.35204 0.2082734,5.95204 -0.0066,8 C 6.5120151,750.82439 6.3391781,748.9 6.3428103,744.5 Z M 17.34281,608.5 c 0.0036,-4.4 0.179441,-6.07561 0.390687,-3.72357 0.211245,2.35204 0.208273,5.95204 -0.0066,8 C 17.512015,614.82439 17.339178,612.9 17.34281,608.5 Z M 5.3362062,575 c 0,-4.125 0.176518,-5.8125 0.3922622,-3.75 0.2157442,2.0625 0.2157442,5.4375 0,7.5 -0.2157442,2.0625 -0.3922622,0.375 -0.3922622,-3.75 z M 16.336206,439 c 0,-4.125 0.176518,-5.8125 0.392262,-3.75 0.215745,2.0625 0.215745,5.4375 0,7.5 -0.215744,2.0625 -0.392262,0.375 -0.392262,-3.75 z M 4.3428103,405.5 c 0.00363,-4.4 0.1794411,-6.07561 0.3906863,-3.72357 0.2112452,2.35204 0.2082734,5.95204 -0.0066,8 C 4.5120151,411.82439 4.3391781,409.9 4.3428103,405.5 Z M 15.34281,269.5 c 0.0036,-4.4 0.179441,-6.07561 0.390687,-3.72357 0.211245,2.35204 0.208273,5.95204 -0.0066,8 C 15.512015,275.82439 15.339178,273.9 15.34281,269.5 Z m 340.92622,2.80701 c 0.97297,-0.25354 2.32297,-0.23687 3,0.0371 0.67703,0.27393 -0.11903,0.48137 -1.76903,0.46099 -1.65,-0.0204 -2.20394,-0.2445 -1.23097,-0.49804 z M 3.3428103,236.5 c 0.00363,-4.4 0.1794411,-6.07561 0.3906863,-3.72357 0.2112452,2.35204 0.2082734,5.95204 -0.0066,8 C 3.5120151,242.82439 3.3391781,240.9 3.3428103,236.5 Z M 352.26903,223.30701 c 0.97297,-0.25354 2.32297,-0.23687 3,0.0371 0.67703,0.27393 -0.11903,0.48137 -1.76903,0.46099 -1.65,-0.0204 -2.20394,-0.2445 -1.23097,-0.49804 z m 5.54347,0.01 c 0.72187,-0.28887 1.58438,-0.25335 1.91667,0.0789 0.33229,0.33229 -0.25834,0.56864 -1.3125,0.52522 -1.16495,-0.048 -1.4019,-0.28494 -0.60417,-0.60416 z M 67.078947,122.41667 c 0.04798,-1.16495 0.284941,-1.4019 0.604167,-0.60417 0.288871,0.72187 0.253344,1.58437 -0.07895,1.91667 -0.332292,0.33229 -0.568641,-0.25834 -0.52522,-1.3125 z"
         style="fill:#494949;fill-opacity:1" />
      <path
         id="path6581"
         d="m 346,1097.3283 c -25.38306,-1.8181 -40.70121,-5.1103 -75.57478,-16.2426 C 255.06635,1076.1828 207.625,1061.0761 165,1047.5152 81.707748,1021.0163 74.50601,1018.2708 56.24004,1006.0529 45.399687,998.8019 40.227881,992.91604 27.197001,973 15.867753,955.68469 11.302345,947.57885 9.3008157,941.22548 8.0115275,937.13295 7.4855785,884.93149 5.3741871,551.5 4.0333206,339.75 3.2010912,163.125 3.5247884,159 5.3522317,135.71218 14.307962,122.35854 38,107.59499 42.675,104.6818 84.3,83.795333 130.5,61.18063 221.1554,16.805197 228.52673,13.667241 254,8.6070038 c 19.0781,-3.7898435 34.08031,-4.9693473 54.5,-4.2848997 24.91549,0.8351422 46.1332,4.429673 69,11.6894169 70.23419,22.297923 218.97436,71.103149 227.20435,74.551206 33.16565,13.895173 49.45353,28.319643 54.84301,48.568693 2.18219,8.19881 2.17096,776.32303 -0.0115,786.69809 -2.14434,10.19384 -4.4334,15.5471 -12.41682,29.0383 -13.38609,22.62117 -28.50906,40.28899 -41.71889,48.73919 -5.9703,3.8192 -88.94854,44.6205 -127.40015,62.6442 -27.77361,13.0184 -43.45862,19.4715 -56.5,23.245 -21.42872,6.2003 -52.819,9.4566 -75.5,7.8321 z m 47.5,-13.7779 c 12.99368,-2.0308 27.67143,-5.8378 39.3241,-10.1995 17.07616,-6.3917 78.58829,-35.4856 137.57069,-65.068 30.6443,-15.36951 30.96504,-15.56287 39.56012,-23.84854 7.59852,-7.325 15.55058,-17.21357 21.65971,-26.93436 l 1.88538,-3 -2.5,1.60784 c -3.36788,2.16601 -25.05696,13.78302 -43.75309,23.43484 -11.07598,5.71794 -14.84146,8.10472 -13.75,8.71553 1.57595,0.88194 1.93707,3.44728 0.87492,6.2152 C 573.7156,996.18351 555.13414,1006 552.55335,1006 c -1.89681,0 -3.72888,-3.379 -2.94278,-5.4276 0.33188,-0.8648 0.38268,-1.5724 0.11289,-1.5724 -0.26978,0 -12.63741,5.8148 -27.48361,12.9217 -30.2057,14.4596 -45.99486,21.4852 -60.73985,27.0272 -54.54579,20.5014 -113.1724,23.2977 -171.54248,8.182 -12.2166,-3.1636 -219.390952,-68.42923 -230.551157,-72.62992 -3.600461,-1.35521 -10.431279,-4.48087 -15.179595,-6.9459 -4.748317,-2.46503 -8.761712,-4.35347 -8.918656,-4.19653 -0.57259,0.57259 13.929642,21.25021 17.50836,24.96383 5.081015,5.27254 15.042416,11.74532 27.863103,18.10512 8.524871,4.2288 24.185875,9.6197 73.820425,25.4108 34.65,11.0239 79.425,25.2879 99.5,31.6979 49.41676,15.7789 47.66259,15.2534 58.18088,17.4296 8.12619,1.6813 13.16442,2.4303 29.81912,4.4328 7.36475,0.8855 41.95036,-0.3557 51.5,-1.8482 z m 5.15271,-32.9691 c 41.76332,-5.6412 68.02273,-15.4833 149.84729,-56.16323 44.80726,-22.27637 73.53667,-37.42028 83.22974,-43.87225 8.36967,-5.57108 11.99711,-10.97682 15.25512,-22.73375 C 648.98886,920.58041 649,918.42542 649,538.14274 V 155.74528 l -4.54893,4.19306 c -4.94185,4.55524 -24.87592,17.80551 -38.45107,25.55862 -13.605,7.77015 -90.99847,46.74188 -91.01531,45.83105 -0.008,-0.45541 -0.36193,-0.28258 -0.78557,0.38405 -0.90523,1.42445 -26.13402,12.75557 -40.61351,18.24093 C 433.33616,265.20095 397.38247,272 357,272 328.54358,272 306.39416,269.26213 280.5,262.5439 268.48884,259.42761 78.951595,200.26275 62,194.3382 44.248707,188.13415 26.215711,177.00934 18.892193,167.7444 L 15,162.8204 14.9956,181.1602 c -0.0048,20.24314 3.846964,677.42895 4.251224,725.3398 l 0.253133,30 3.274158,6.69359 c 2.201302,4.50027 4.986528,8.19747 8.5,11.28317 5.450951,4.7873 22.899469,14.01604 33.225842,17.57357 17.173875,5.91655 218.853763,69.25517 227.214563,71.35787 17.78251,4.4723 31.33096,6.6621 55.78544,9.0165 8.09931,0.7798 40.33218,-0.3818 51.15271,-1.8434 z M 563.0222,996.98884 c 7.28654,-3.6636 9.25297,-5.01647 7.2278,-4.97259 -1.05148,0.0228 -16.92369,8.91765 -15.9778,8.95405 0.42471,0.016 4.36221,-1.77532 8.75,-3.98146 z M 386.14405,266.93876 c 37.49138,-3.84197 73.03991,-14.03487 114.65785,-32.87607 6.21604,-2.81412 11.79807,-4.80992 12.4045,-4.43513 0.60644,0.3748 0.85123,0.27443 0.54398,-0.22305 -0.30725,-0.49748 16.33118,-9.43095 36.97429,-19.85215 44.14368,-22.28493 56.26147,-28.90214 73.77533,-40.28678 24.34477,-15.82499 27.5705,-21.20026 20.79265,-34.64837 -6.7042,-13.30199 -24.29822,-25.43413 -52.48186,-36.189415 -5.00469,-1.909863 -9.24844,-3.323478 -9.43055,-3.141366 -0.18211,0.182111 1.68681,2.017885 4.15316,4.079498 8.90316,7.442123 11.0449,17.432453 5.51231,25.712633 -5.69183,8.51851 -17.1077,15.43535 -62.04571,37.59333 -92.70197,45.70936 -100.50168,49.15402 -124,54.76333 -30.04948,7.17314 -69.85778,7.57534 -101.25605,1.02304 -14.81393,-3.09143 -28.12336,-7.15838 -116.15822,-35.49435 C 130.68055,164.00397 96.691298,152.56903 91.385199,149.92649 76.416446,142.47177 68,132.65561 68,122.65216 68,111.38343 73.701762,105.5492 96.44963,93.541567 111.30834,85.698288 115.64046,83 113.3742,83 c -1.81337,0 -61.76976,29.9485 -69.76848,34.84969 -15.271671,9.35765 -23.428433,18.98098 -26.812378,31.63317 -1.077214,4.02758 -0.976141,4.96118 0.970998,8.96898 5.96021,12.26791 23.19647,24.21095 46.73566,32.38325 4.95,1.71854 44.775,14.35368 88.5,28.0781 43.725,13.72442 88.275,27.7142 99,31.08841 30.78094,9.68403 52.62106,14.65957 74,16.85841 12.3237,1.26751 48.0868,1.31433 60.14405,0.0788 z m -5.11782,-48.98061 c 29.18014,-3.58768 47.21326,-9.60318 87.47377,-29.17955 79.28666,-38.55256 106.31187,-52.55571 115.69197,-59.94596 7.25438,-5.71548 9.68701,-13.29841 6.34156,-19.7678 -3.02908,-5.85759 -14.71447,-14.023542 -27.78353,-19.415603 -4.99038,-2.058944 -4.78007,-1.215387 0.34941,1.40148 5.01979,2.560903 12.55281,9.376073 14.47737,13.097753 1.8419,3.56185 1.82375,11.17631 -0.0352,14.77115 -2.9612,5.72632 -11.02078,11.48204 -27.63017,19.73198 -49.59521,24.63412 -133.35978,64.49117 -139.4114,66.33505 -28.48935,8.6805 -60.76612,9.8851 -93.36961,3.48467 C 301.5938,205.42131 301.71665,205.45885 198,172.06569 106.38564,142.56905 98.657188,139.61724 90.660811,131.06847 c -8.531317,-9.12067 -8.290848,-17.3432 0.772258,-26.4063 4.522499,-4.5225 12.182931,-8.586377 77.044371,-40.872244 66.92591,-33.31349 83.01827,-41.8045 56.02256,-29.559884 -22.8472,10.362948 -26.33142,11.755403 -39,15.586168 -17.84165,5.395014 -67.8388,29.540961 -66.95222,32.334335 0.92235,2.906053 -2.97406,5.887936 -18.06066,13.821636 -17.438543,9.170539 -21.830973,12.139349 -25.543994,17.265029 -4.122443,5.69087 -4.151436,12.79469 -0.07519,18.42179 4.206746,5.80724 10.388711,10.73558 18.478567,14.73133 6.184343,3.05458 46.596847,16.37084 168.816027,55.62632 27.82871,8.93828 43.8651,12.90433 62.33747,15.41702 12.14303,1.65175 44.88665,1.95557 56.52622,0.52448 z m 7.49405,-11.98428 c 6.06115,-1.02374 14.83615,-3.04954 19.5,-4.50177 7.52142,-2.34203 108.39401,-50.3809 130.84763,-62.31398 9.79144,-5.2037 20.66767,-14.89757 23.25933,-20.73079 3.64931,-8.21372 -0.27352,-13.72331 -14.62724,-20.543891 -7.66896,-3.644124 -185.81177,-60.480375 -203,-64.766906 -20.42146,-5.092859 -47.02634,-6.563874 -65.25248,-3.607886 -5.08887,0.825332 -13.63887,2.902347 -19,4.615589 -11.40239,3.643825 -147.97275,69.906054 -154.12758,74.780764 -6.954755,5.50827 -8.97542,13.3567 -5.067,19.68066 2.52531,4.08604 9.96104,9.64961 17.09378,12.78992 5.37864,2.36805 162.64758,53.34865 181.35328,58.78783 29.09386,8.45982 61.00335,10.54259 89.02028,5.81046 z M 96.52568,129.04966 c -1.90168,-3.67744 -1.962265,-10.069 -0.136853,-14.43783 3.355325,-8.03042 6.170563,-9.63738 80.460023,-45.927163 C 215.70698,49.702792 251.325,32.835903 256,31.202692 c 16.37219,-5.719624 23.36171,-6.708187 47,-6.647442 19.4221,0.04991 22.733,0.3164 34.25778,2.757361 16.69656,3.536346 203.53647,62.551676 213.6519,67.484174 17.0476,8.312775 20.86632,17.929595 11.98696,30.187205 -3.18802,4.40093 -2.29451,4.32623 3.93584,-0.32903 10.90403,-8.14739 10.90403,-18.14519 0,-26.317554 C 562.86132,95.361093 553.20241,90.343485 547.55284,88.322013 545.32378,87.524433 499.85,73.149226 446.5,56.377109 379.44281,35.295739 345.95008,25.232597 338,23.777466 c -9.34929,-1.711232 -15.70792,-2.121023 -34,-2.191175 -25.10964,-0.0963 -36.62178,1.512812 -53.53699,7.483139 -12.95478,4.572467 -150.11706,72.9239 -155.134347,77.30737 -5.281473,4.61428 -7.917139,10.93306 -6.324499,15.16246 C 89.925006,123.98463 96.609979,132 97.728628,132 c 0.177503,0 -0.363824,-1.32765 -1.202948,-2.95034 z M 440.72917,49.395833 c -0.33229,-0.332291 -1.1948,-0.367818 -1.91667,-0.07895 -0.79773,0.319226 -0.56078,0.556183 0.60417,0.604167 1.05416,0.04342 1.64479,-0.192928 1.3125,-0.52522 z m -20.68394,-6.471116 c -4.65012,-1.608594 -8.92512,-2.889453 -9.5,-2.846352 -1.48589,0.111404 14.64043,5.764259 16.45477,5.767987 0.825,0.0017 -2.30465,-1.31304 -6.95477,-2.921635 z M 389,33.02398 c -17.42883,-5.759436 -31.18277,-9.638674 -26,-7.333187 3.30985,1.472346 43.6022,14.100971 45,14.104123 0.825,0.0019 -7.725,-3.045061 -19,-6.770936 z M 213,35 c 4.125,-2.145561 7.05,-3.901021 6.5,-3.901021 -0.55,0 -4.375,1.75546 -8.5,3.901021 -4.125,2.145561 -7.05,3.901021 -6.5,3.901021 0.55,0 4.375,-1.75546 8.5,-3.901021 z"
         style="fill:#333333;fill-opacity:1" />
    </g>
  </g>
</svg>
