<?xml version="1.0" encoding="UTF-8" standalone="no"?>
<svg
   xmlns:dc="http://purl.org/dc/elements/1.1/"
   xmlns:cc="http://creativecommons.org/ns#"
   xmlns:rdf="http://www.w3.org/1999/02/22-rdf-syntax-ns#"
   xmlns:svg="http://www.w3.org/2000/svg"
   xmlns="http://www.w3.org/2000/svg"
   xmlns:sodipodi="http://sodipodi.sourceforge.net/DTD/sodipodi-0.dtd"
   xmlns:inkscape="http://www.inkscape.org/namespaces/inkscape"
   sodipodi:docname="Denon Home 250-5.svg"
   inkscape:version="1.0 (4035a4f, 2020-05-01)"
   id="svg5359"
   version="1.1"
   viewBox="0 0 210 297"
   height="297mm"
   width="210mm">
  <defs
     id="defs5353" />
  <sodipodi:namedview
     inkscape:window-maximized="0"
     inkscape:window-y="23"
     inkscape:window-x="0"
     inkscape:window-height="1174"
     inkscape:window-width="1252"
     showgrid="false"
     inkscape:document-rotation="0"
     inkscape:current-layer="layer1"
     inkscape:document-units="mm"
     inkscape:cy="560"
     inkscape:cx="400"
     inkscape:zoom="0.35"
     inkscape:pageshadow="2"
     inkscape:pageopacity="0.0"
     borderopacity="1.0"
     bordercolor="#666666"
     pagecolor="#ffffff"
     id="base" />
  <metadata
     id="metadata5356">
    <rdf:RDF>
      <cc:Work
         rdf:about="">
        <dc:format>image/svg+xml</dc:format>
        <dc:type
           rdf:resource="http://purl.org/dc/dcmitype/StillImage" />
        <dc:title></dc:title>
      </cc:Work>
    </rdf:RDF>
  </metadata>
  <g
     id="layer1"
     inkscape:groupmode="layer"
     inkscape:label="Layer 1">
    <g
       transform="matrix(2.1453618,0,0,2.1453618,-1.5915358,-1.0981084)"
       id="g5321">
      <path
         style="fill:#b9b9b9;fill-opacity:1;stroke-width:0.0829732"
         d="m 73.659462,98.351274 c 0.05704,-0.02302 0.150389,-0.02302 0.207433,0 0.05704,0.02302 0.01037,0.04185 -0.103716,0.04185 -0.114088,0 -0.160761,-0.01883 -0.103717,-0.04185 z m 0.331893,-1.078652 c 0.05704,-0.02302 0.150389,-0.02302 0.207433,0 0.05704,0.02302 0.01037,0.04185 -0.103716,0.04185 -0.114089,0 -0.160761,-0.01883 -0.103717,-0.04185 z m 0.580812,-0.0036 c 0.10268,-0.01978 0.270701,-0.01978 0.37338,0 0.102679,0.01977 0.01867,0.03595 -0.18669,0.03595 -0.205358,0 -0.289369,-0.01618 -0.18669,-0.03595 z m 0.917892,-2.072455 c 0.05989,-0.02397 0.131461,-0.02103 0.159032,0.0066 0.02757,0.02757 -0.02143,0.04719 -0.108903,0.04359 -0.09666,-0.004 -0.11632,-0.02365 -0.05013,-0.05013 z m -1.332758,-0.41314 c 0.05705,-0.02302 0.150389,-0.02302 0.207433,0 0.05705,0.02302 0.01037,0.04185 -0.103716,0.04185 -0.114088,0 -0.160761,-0.01883 -0.103717,-0.04185 z m 1.083838,-0.0017 c 0.0599,-0.02397 0.131461,-0.02103 0.159032,0.0066 0.02757,0.02757 -0.02143,0.04719 -0.108902,0.04359 -0.09666,-0.004 -0.11632,-0.02365 -0.05013,-0.05013 z m -1.327571,-0.746759 c 0.0599,-0.02397 0.131461,-0.02103 0.159032,0.0066 0.02757,0.02757 -0.02143,0.04719 -0.108902,0.04359 -0.09666,-0.004 -0.116321,-0.02365 -0.05013,-0.05013 z m 0.203826,-0.415687 c 0.08073,-0.02103 0.192744,-0.01966 0.248919,0.0031 0.05618,0.02273 -0.0099,0.03993 -0.146782,0.03825 -0.136905,-0.0017 -0.182868,-0.02029 -0.102137,-0.04133 z m 11.759873,-2.794936 c 0,-0.01722 0.06534,-0.08257 0.145203,-0.145203 0.131603,-0.103202 0.134532,-0.100273 0.03133,0.03133 -0.108396,0.138209 -0.176533,0.182168 -0.176533,0.113873 z M 7.0421387,75.858257 c -0.1032079,-0.131601 -0.1002732,-0.134535 0.031327,-0.03133 0.1382124,0.108393 0.1821659,0.17653 0.1138761,0.17653 -0.01723,0 -0.082571,-0.06534 -0.1452031,-0.145203 z M 3.3479202,70.693175 c 0,-0.3879 0.014293,-0.546586 0.031761,-0.352636 0.017469,0.193949 0.017469,0.511322 0,0.705272 -0.017469,0.19395 -0.031761,0.03526 -0.031761,-0.352636 z m 1.0791114,-2.032844 c -2.489e-4,-0.410717 0.013778,-0.589199 0.031179,-0.396626 0.017402,0.192572 0.017608,0.528614 4.564e-4,0.746759 -0.017145,0.218144 -0.031383,0.06058 -0.031635,-0.350133 z M 3.264947,56.836649 c 0,-0.3879 0.014293,-0.546586 0.031761,-0.352637 0.017469,0.19395 0.017469,0.511323 0,0.705273 -0.017469,0.19395 -0.031761,0.03526 -0.031761,-0.352636 z m 1.0786516,-2.074331 c 0,-0.387899 0.014293,-0.546586 0.031761,-0.352636 0.017469,0.19395 0.017469,0.511323 0,0.705273 -0.017469,0.193949 -0.031761,0.03526 -0.031761,-0.352637 z M 3.1824335,42.938636 c -2.489e-4,-0.410717 0.013778,-0.589199 0.031179,-0.396626 0.017401,0.192572 0.017608,0.528614 4.563e-4,0.746759 -0.017145,0.218144 -0.031383,0.06058 -0.031635,-0.350133 z m 1.0781919,-2.032844 c 0,-0.387899 0.014293,-0.546586 0.031761,-0.352636 0.017469,0.19395 0.017469,0.511323 0,0.705273 -0.017469,0.193949 -0.031761,0.03526 -0.031761,-0.352637 z M 3.0994603,29.08211 c -2.489e-4,-0.410717 0.013778,-0.589199 0.031179,-0.396626 0.017401,0.192572 0.017608,0.528614 4.563e-4,0.746759 -0.017145,0.218144 -0.031383,0.06058 -0.031635,-0.350133 z m 1.0781919,-2.032844 c 0,-0.387899 0.014293,-0.546586 0.031761,-0.352636 0.017469,0.19395 0.017469,0.511323 0,0.705273 -0.017469,0.193949 -0.031761,0.03526 -0.031761,-0.352637 z M 3.0160274,15.184097 c 0,-0.387899 0.014293,-0.546586 0.031761,-0.352636 0.017469,0.19395 0.017469,0.511323 0,0.705273 -0.017469,0.193949 -0.031761,0.03526 -0.031761,-0.352637 z M 4.0722375,13.50389 c -0.0036,-0.216768 0.02329,-0.394123 0.059762,-0.394123 0.036472,0 0.052435,0.140017 0.035473,0.31115 -0.047743,0.481696 -0.088024,0.516792 -0.095235,0.08297 z M 9.2165764,9.4105451 c 0.00398,-0.09666 0.023642,-0.1163201 0.050129,-0.05013 0.023968,0.059896 0.021021,0.1314603 -0.00655,0.1590323 -0.027572,0.027571 -0.047182,-0.021435 -0.043579,-0.1089023 z M 19.249783,3.4492269 c 0,-0.022818 0.07468,-0.081452 0.165947,-0.1302985 0.09127,-0.048846 0.165946,-0.070143 0.165946,-0.047325 0,0.022818 -0.07468,0.081452 -0.165946,0.1302985 -0.09127,0.048847 -0.165947,0.070143 -0.165947,0.047325 z m 6.368194,-2.59727499 c 0.19395,-0.0174688 0.511322,-0.0174688 0.705272,0 0.19395,0.0174688 0.03526,0.0317614 -0.352636,0.0317614 -0.3879,0 -0.546586,-0.0142926 -0.352636,-0.0317614 z"
         id="path5335" />
      <path
         style="fill:#a3a3a3;fill-opacity:1;stroke-width:0.0829732"
         d="m 74.157301,95.198292 c 0.05705,-0.02302 0.150389,-0.02302 0.207433,0 0.05705,0.02302 0.01037,0.04185 -0.103716,0.04185 -0.114088,0 -0.160761,-0.01884 -0.103717,-0.04185 z M 75.490059,94.7817 c 0.05989,-0.02397 0.131461,-0.02103 0.159032,0.0066 0.02757,0.02757 -0.02143,0.04719 -0.108903,0.04358 -0.09666,-0.004 -0.11632,-0.02365 -0.05013,-0.05013 z m -1.327572,-0.746759 c 0.0599,-0.02397 0.131461,-0.02103 0.159033,0.0066 0.02757,0.02757 -0.02144,0.04719 -0.108903,0.04359 -0.09666,-0.004 -0.11632,-0.02365 -0.05013,-0.05013 z M 4.4265718,70.029389 c 0,-0.3879 0.014293,-0.546586 0.031761,-0.352636 0.017469,0.19395 0.017469,0.511322 0,0.705272 -0.017469,0.19395 -0.031761,0.03526 -0.031761,-0.352636 z M 3.3483799,69.324117 c -2.489e-4,-0.410718 0.013778,-0.5892 0.031179,-0.396626 0.017401,0.192572 0.017608,0.528614 4.563e-4,0.746759 -0.017149,0.218144 -0.031386,0.06058 -0.031639,-0.350133 z M 4.3440584,56.131376 c -2.489e-4,-0.410717 0.013778,-0.589199 0.031179,-0.396626 0.017402,0.192573 0.017608,0.528614 4.564e-4,0.746759 -0.017145,0.218144 -0.031383,0.06058 -0.031635,-0.350133 z M 3.2658665,55.426104 c 0,-0.433535 0.013985,-0.61089 0.031077,-0.394123 0.017092,0.216768 0.017092,0.571478 0,0.788246 -0.017092,0.216767 -0.031077,0.03941 -0.031077,-0.394123 z M 4.2610852,42.27485 c -2.489e-4,-0.410717 0.013778,-0.589199 0.031179,-0.396626 0.017402,0.192573 0.017608,0.528614 4.564e-4,0.746759 -0.017149,0.218144 -0.031386,0.06059 -0.031639,-0.350133 z M 3.1824335,41.528091 c -2.489e-4,-0.410717 0.013778,-0.589199 0.031179,-0.396626 0.017401,0.192573 0.017608,0.528614 4.563e-4,0.746759 -0.017145,0.218144 -0.031383,0.06058 -0.031635,-0.350133 z M 4.1776522,28.376838 c 0,-0.3879 0.014293,-0.546586 0.031761,-0.352636 0.017469,0.193949 0.017469,0.511322 0,0.705272 -0.017469,0.19395 -0.031761,0.03526 -0.031761,-0.352636 z M 3.0994603,27.671565 c -2.489e-4,-0.410717 0.013778,-0.589199 0.031179,-0.396626 0.017401,0.192573 0.017608,0.528614 4.563e-4,0.746759 -0.017145,0.218144 -0.031383,0.06058 -0.031635,-0.350133 z M 4.094679,14.520312 c 0,-0.3879 0.014293,-0.546586 0.031761,-0.352636 0.017469,0.193949 0.017469,0.511322 0,0.705272 -0.017469,0.19395 -0.031761,0.03526 -0.031761,-0.352636 z M 3.0184133,13.607606 c 0,-0.524805 0.013472,-0.739498 0.029938,-0.477096 0.016466,0.262403 0.016466,0.69179 0,0.954192 -0.016466,0.262403 -0.029938,0.04771 -0.029938,-0.477096 z"
         id="path5333" />
      <path
         style="fill:#8c8c8c;fill-opacity:1;stroke-width:0.0829732"
         d="m 74.324734,98.346096 c 0.149132,-0.01847 0.373159,-0.01809 0.497839,8.3e-4 0.12468,0.01893 0.0027,0.03404 -0.271149,0.03357 -0.273811,-8.3e-4 -0.375822,-0.01596 -0.22669,-0.03442 z m 0.28892,-3.152285 c 0.125497,-0.01901 0.330856,-0.01901 0.456353,0 0.125497,0.01902 0.02282,0.03457 -0.228177,0.03457 -0.250994,0 -0.353673,-0.01555 -0.228176,-0.03457 z M 75.738978,94.7817 c 0.0599,-0.02397 0.131461,-0.02103 0.159032,0.0066 0.02757,0.02757 -0.02143,0.04719 -0.108902,0.04358 -0.09666,-0.004 -0.11632,-0.02365 -0.05013,-0.05013 z m -1.289691,-0.747581 c 0.08073,-0.02103 0.192744,-0.01966 0.248919,0.0031 0.05618,0.02273 -0.0099,0.03993 -0.146782,0.03825 -0.136906,-0.0017 -0.182868,-0.02029 -0.102137,-0.04133 z m 0.786666,-0.0011 c 0.102679,-0.01978 0.2707,-0.01978 0.37338,0 0.102679,0.01977 0.01867,0.03595 -0.18669,0.03595 -0.205359,0 -0.289369,-0.01618 -0.18669,-0.03595 z M 94.299047,90.27483 c 0.0826,-0.09127 0.16885,-0.165946 0.191668,-0.165946 0.02282,0 -0.02609,0.07468 -0.108695,0.165946 -0.0826,0.09127 -0.16885,0.165947 -0.191668,0.165947 -0.02282,0 0.02609,-0.07468 0.108695,-0.165947 z m 3.23549,-35.139154 c 0,-16.063614 0.0095,-22.647459 0.02121,-14.630768 0.01166,8.01669 0.01167,21.159647 0,29.20657 -0.01167,8.046922 -0.02121,1.487811 -0.02121,-14.575802 z M 4.4168299,70.942094 c 0,-0.159723 0.017075,-0.225065 0.037946,-0.145203 0.02087,0.07986 0.02087,0.210545 0,0.290406 -0.02087,0.07986 -0.037946,0.01452 -0.037946,-0.145203 z m -1.06845,-3.028522 c -2.489e-4,-0.410717 0.013778,-0.589199 0.031179,-0.396626 0.017401,0.192573 0.017608,0.528614 4.563e-4,0.746759 -0.017145,0.218144 -0.031383,0.06059 -0.031635,-0.350133 z M 4.3435986,57.500434 c 0,-0.387899 0.014293,-0.546586 0.031761,-0.352636 0.017469,0.19395 0.017469,0.511323 0,0.705272 -0.017469,0.19395 -0.031761,0.03526 -0.031761,-0.352636 z M 3.264947,54.01556 c 0,-0.3879 0.014293,-0.546587 0.031761,-0.352637 0.017469,0.19395 0.017469,0.511323 0,0.705273 -0.017469,0.19395 -0.031761,0.03526 -0.031761,-0.352636 z M 4.2606254,43.643908 c 0,-0.387899 0.014293,-0.546586 0.031761,-0.352636 0.017469,0.19395 0.017469,0.511323 0,0.705272 -0.017469,0.19395 -0.031761,0.03526 -0.031761,-0.352636 z M 3.1819738,40.159033 c 0,-0.387899 0.014293,-0.546586 0.031761,-0.352636 0.017469,0.19395 0.017469,0.511323 0,0.705273 -0.017469,0.19395 -0.031761,0.03526 -0.031761,-0.352637 z M 4.178112,29.745896 c -2.489e-4,-0.410718 0.013778,-0.5892 0.031179,-0.396626 0.017402,0.192572 0.017608,0.528614 4.564e-4,0.746759 -0.017149,0.218144 -0.031386,0.06058 -0.031639,-0.350133 z M 3.0994603,26.261021 c -2.489e-4,-0.410718 0.013778,-0.5892 0.031179,-0.396626 0.017401,0.192572 0.017608,0.528614 4.563e-4,0.746759 -0.017145,0.218144 -0.031383,0.06058 -0.031635,-0.350133 z M 92.528224,23.315472 c 0,-0.114088 0.01884,-0.160761 0.04185,-0.103717 0.02302,0.05704 0.02302,0.150389 0,0.207433 -0.02302,0.05705 -0.04185,0.01037 -0.04185,-0.103716 z M 4.0951388,15.88937 c -2.489e-4,-0.410718 0.013778,-0.5892 0.031179,-0.396626 0.017402,0.192572 0.017608,0.528614 4.564e-4,0.746758 -0.017145,0.218145 -0.031383,0.06058 -0.031635,-0.350132 z M 10.454624,8.6808597 c 0,-0.017229 0.06534,-0.082571 0.145203,-0.1452032 0.1316,-0.1032079 0.134535,-0.1002731 0.03133,0.031327 -0.108393,0.1382126 -0.17653,0.182166 -0.17653,0.1138758 z M 25.743578,2.0147902 c 0.126124,-0.019072 0.312814,-0.018562 0.414866,0.00113 0.102052,0.019695 -0.0011,0.035299 -0.229318,0.034676 -0.228176,-6.223e-4 -0.311673,-0.016737 -0.185548,-0.035808 z"
         id="path5331" />
      <path
         style="fill:#767676;fill-opacity:1;stroke-width:0.0829732"
         d="m 74.821087,94.036667 c 0.05704,-0.02302 0.150389,-0.02302 0.207433,0 0.05704,0.02302 0.01037,0.04185 -0.103716,0.04185 -0.114089,0 -0.160761,-0.01883 -0.103717,-0.04185 z m 18.772688,-4.539904 c 0,-0.01723 0.06534,-0.08257 0.145203,-0.145204 0.131603,-0.103202 0.134532,-0.100273 0.03133,0.03133 -0.108396,0.138209 -0.176533,0.182168 -0.176533,0.113873 z M 90.730701,58.41314 c 0,-15.082456 0.0096,-21.252551 0.02124,-13.711323 0.01167,7.541227 0.01167,19.881418 0,27.422646 -0.01168,7.541227 -0.02124,1.371132 -0.02124,-13.711323 z M 3.3479202,66.544514 c 0,-0.3879 0.014293,-0.546586 0.031761,-0.352636 0.017469,0.19395 0.017469,0.511322 0,0.705272 -0.017469,0.19395 -0.031761,0.03526 -0.031761,-0.352636 z m 0.9961382,-7.675022 c -2.489e-4,-0.410717 0.013778,-0.589199 0.031179,-0.396626 0.017402,0.192573 0.017608,0.528614 4.564e-4,0.746759 -0.017145,0.218144 -0.031383,0.06058 -0.031635,-0.350133 z M 3.264947,52.687988 c 0,-0.3879 0.014293,-0.546586 0.031761,-0.352636 0.017469,0.19395 0.017469,0.511322 0,0.705272 -0.017469,0.19395 -0.031761,0.03526 -0.031761,-0.352636 z m 0.9961382,-7.675022 c -2.489e-4,-0.410717 0.013778,-0.589199 0.031179,-0.396626 0.017402,0.192573 0.017608,0.528614 4.564e-4,0.746759 -0.017149,0.218144 -0.031386,0.06059 -0.031639,-0.350133 z m -1.0786517,-6.22299 c -2.489e-4,-0.410718 0.013778,-0.5892 0.031179,-0.396627 0.017401,0.192573 0.017608,0.528615 4.563e-4,0.746759 -0.017145,0.218144 -0.031383,0.06059 -0.031635,-0.350132 z m 0.9952187,-7.675022 c 0,-0.3879 0.014293,-0.546586 0.031761,-0.352637 0.017469,0.19395 0.017469,0.511323 0,0.705273 -0.017469,0.19395 -0.031761,0.03526 -0.031761,-0.352636 z M 74.281761,30.393972 c 0.07986,-0.02087 0.210545,-0.02087 0.290406,0 0.07986,0.02087 0.01452,0.03795 -0.145203,0.03795 -0.159723,0 -0.225064,-0.01708 -0.145203,-0.03795 z m 16.231418,-1.415579 c -0.103202,-0.1316 -0.100273,-0.134535 0.03133,-0.03133 0.07986,0.06263 0.145203,0.127974 0.145203,0.145203 0,0.06829 -0.06814,0.02434 -0.176533,-0.113876 z m -1.449327,-0.788245 -0.158063,-0.18669 0.186689,0.158063 c 0.175439,0.148541 0.224459,0.215317 0.158064,0.215317 -0.01575,0 -0.09976,-0.08401 -0.18669,-0.18669 z m -0.275977,-1.355229 c 0.004,-0.09666 0.02365,-0.11632 0.05013,-0.05013 0.02397,0.0599 0.02102,0.131461 -0.0066,0.159033 -0.02757,0.02757 -0.04719,-0.02144 -0.04359,-0.108903 z M 3.0990006,24.891963 c 0,-0.3879 0.014293,-0.546586 0.031761,-0.352636 0.017469,0.19395 0.017469,0.511322 0,0.705272 -0.017469,0.19395 -0.031761,0.03526 -0.031761,-0.352636 z M 4.094679,17.258428 c 0,-0.3879 0.014293,-0.546586 0.031761,-0.352637 0.017469,0.19395 0.017469,0.511323 0,0.705273 -0.017469,0.19395 -0.031761,0.03526 -0.031761,-0.352636 z M 4.3869962,13.37943 c -0.103208,-0.1316 -0.1002732,-0.134535 0.031327,-0.03133 0.079862,0.06263 0.1452031,0.127973 0.1452031,0.145203 0,0.06829 -0.068136,0.02434 -0.17653,-0.113876 z M 4.2316334,9.6765382 c 0,-0.017229 0.065341,-0.082571 0.1452031,-0.1452031 C 4.5084367,9.4281272 4.5113714,9.4310619 4.4081635,9.5626624 4.2997699,9.700875 4.2316334,9.7448284 4.2316334,9.6765382 Z m 5.3932583,-1.161625 c 0,-0.017229 0.065341,-0.082571 0.1452031,-0.1452031 C 9.9016953,8.2665026 9.9046301,8.2694373 9.8014222,8.4010375 9.6930285,8.5392501 9.6248917,8.5832035 9.6248917,8.5149132 Z M 10.537597,7.7579951 c 0.114088,-0.065219 0.244771,-0.1185794 0.290406,-0.1185794 0.04563,0 -0.01037,0.053361 -0.12446,0.1185794 -0.114088,0.065219 -0.244771,0.1185794 -0.290406,0.1185794 -0.04564,0 0.01037,-0.053361 0.12446,-0.1185794 z"
         id="path5329" />
      <path
         style="fill:#606060;fill-opacity:1;stroke-width:0.0829732"
         d="m 92.167673,87.81195 c 0.0599,-0.02397 0.131462,-0.02102 0.159034,0.0066 0.02757,0.02757 -0.02144,0.04719 -0.108902,0.04359 -0.09666,-0.004 -0.11632,-0.02365 -0.05013,-0.05013 z M 87.07988,60.23855 c 0,-15.03682 0.0096,-21.188246 0.02124,-13.669836 0.01168,7.51841 0.01168,19.821263 0,27.339673 -0.01168,7.518409 -0.02124,1.366983 -0.02124,-13.669837 z M 6.2565935,76.563529 6.0985305,76.37684 6.2852202,76.534903 c 0.1754423,0.14854 0.2244625,0.215316 0.158063,0.215316 -0.015745,0 -0.099755,-0.08401 -0.1866897,-0.18669 z M 3.3479202,65.216943 c 0,-0.3879 0.014293,-0.546586 0.031761,-0.352636 0.017469,0.19395 0.017469,0.511322 0,0.705272 -0.017469,0.19395 -0.031761,0.03526 -0.031761,-0.352636 z m 0.9961382,-4.936906 c -2.489e-4,-0.410718 0.013778,-0.5892 0.031179,-0.396626 0.017402,0.192572 0.017608,0.528614 4.564e-4,0.746759 -0.017149,0.218144 -0.031386,0.06058 -0.031639,-0.350133 z M 3.2654067,51.31893 c -2.489e-4,-0.410717 0.013778,-0.589199 0.031179,-0.396626 0.017401,0.192573 0.017608,0.528614 4.563e-4,0.746759 -0.017149,0.218144 -0.031386,0.06058 -0.031639,-0.350133 z m 0.9956785,-4.895419 c -2.489e-4,-0.410718 0.013778,-0.5892 0.031179,-0.396626 0.017402,0.192572 0.017608,0.528614 4.564e-4,0.746759 -0.017145,0.218144 -0.031383,0.06058 -0.031635,-0.350133 z M 3.1819738,37.420918 c 0,-0.3879 0.014293,-0.546586 0.031761,-0.352637 0.017469,0.19395 0.017469,0.511323 0,0.705273 -0.017469,0.19395 -0.031761,0.03526 -0.031761,-0.352636 z M 75.318926,35.125689 c 0.05704,-0.02302 0.150389,-0.02302 0.207433,0 0.05704,0.02302 0.01037,0.04185 -0.103716,0.04185 -0.114088,0 -0.160761,-0.01883 -0.103717,-0.04185 z m -1.077684,-0.335625 c 0.103211,-0.01985 0.252563,-0.01909 0.331893,0.0017 0.07933,0.02077 -0.0051,0.03701 -0.187657,0.03609 -0.182541,-9.21e-4 -0.247447,-0.01791 -0.144236,-0.03776 z M 4.178112,32.484012 c -2.489e-4,-0.410718 0.013778,-0.5892 0.031179,-0.396626 0.017402,0.192572 0.017608,0.528614 4.564e-4,0.746758 -0.017145,0.218144 -0.031383,0.06058 -0.031635,-0.350132 z m 69.48135,-1.261669 c 0.10268,-0.01978 0.2707,-0.01978 0.37338,0 0.102679,0.01978 0.01867,0.03596 -0.18669,0.03596 -0.205359,0 -0.289369,-0.01618 -0.18669,-0.03596 z m 0.751945,0.0019 c 0.0599,-0.02397 0.131461,-0.02102 0.159032,0.0065 0.02757,0.02757 -0.02143,0.04718 -0.108902,0.04358 -0.09666,-0.004 -0.11632,-0.02364 -0.05013,-0.05013 z m -0.542933,-0.830552 c 0.08073,-0.02104 0.192744,-0.01965 0.24892,0.0031 0.05617,0.02273 -0.0099,0.03994 -0.146782,0.03825 -0.136906,-0.0017 -0.182868,-0.02029 -0.102138,-0.04132 z m 0.874826,8.29e-4 c 0.0599,-0.02397 0.131461,-0.02102 0.159032,0.0065 0.02757,0.02757 -0.02143,0.04718 -0.108902,0.04358 -0.09666,-0.004 -0.116321,-0.02364 -0.05013,-0.05013 z m 7.877268,-1.076931 c 0.05704,-0.02302 0.150389,-0.02302 0.207433,0 0.05704,0.02302 0.01037,0.04185 -0.103716,0.04185 -0.114088,0 -0.160761,-0.01883 -0.103717,-0.04185 z m 8.98185,-5.037742 c 0,-0.01723 0.06534,-0.08257 0.145203,-0.145203 0.131604,-0.103208 0.134533,-0.100273 0.03133,0.03133 -0.108396,0.138213 -0.176533,0.182166 -0.176533,0.113876 z M 3.0990006,23.564392 c 0,-0.3879 0.014293,-0.546586 0.031761,-0.352637 0.017469,0.19395 0.017469,0.511323 0,0.705273 -0.017469,0.19395 -0.031761,0.03526 -0.031761,-0.352636 z M 89.9495,23.184098 c 0.004,-0.09666 0.02365,-0.11632 0.05013,-0.05013 0.02397,0.0599 0.02102,0.131461 -0.0066,0.159032 -0.02757,0.02757 -0.04719,-0.02144 -0.04359,-0.108902 z M 4.0951388,18.627486 c -2.489e-4,-0.410718 0.013778,-0.5892 0.031179,-0.396626 0.017402,0.192572 0.017608,0.528614 4.564e-4,0.746758 -0.017145,0.218144 -0.031383,0.06058 -0.031635,-0.350132 z m 5.8510617,-8.484011 c -0.1032079,-0.131601 -0.1002731,-0.134535 0.031327,-0.03133 0.079859,0.06263 0.1452035,0.127973 0.1452035,0.145203 0,0.06829 -0.06814,0.02434 -0.1765308,-0.113876 z M 10.052858,9.7078655 c 0,-0.1140881 0.01883,-0.1607606 0.04185,-0.1037165 0.02302,0.057044 0.02302,0.150389 0,0.207433 -0.02302,0.057044 -0.04185,0.010372 -0.04185,-0.1037165 z M 25.286084,2.1853251 c 0.05704,-0.023018 0.150389,-0.023018 0.207433,0 0.05704,0.023018 0.01037,0.04185 -0.103716,0.04185 -0.114089,0 -0.160761,-0.018833 -0.103717,-0.04185 z m 1.249784,-0.167675 c 0.0599,-0.023969 0.131461,-0.021021 0.159032,0.00655 0.02757,0.027571 -0.02144,0.047182 -0.108902,0.043579 -0.09666,-0.00398 -0.11632,-0.023642 -0.05013,-0.05013 z"
         id="path5327" />
      <path
         style="fill:#494949;fill-opacity:1;stroke-width:0.0829732"
         d="m 3.3483799,63.847885 c -2.489e-4,-0.410718 0.013778,-0.5892 0.031179,-0.396626 0.017401,0.192572 0.017608,0.528614 4.563e-4,0.746759 -0.017145,0.218144 -0.031383,0.06058 -0.031635,-0.350133 z m 0.9952187,-2.19879 c 0,-0.3879 0.014293,-0.546586 0.031761,-0.352636 0.017469,0.19395 0.017469,0.511322 0,0.705272 -0.017469,0.19395 -0.031761,0.03526 -0.031761,-0.352636 z M 3.264947,49.949872 c 0,-0.3879 0.014293,-0.546586 0.031761,-0.352636 0.017469,0.19395 0.017469,0.511322 0,0.705272 -0.017469,0.19395 -0.031761,0.03526 -0.031761,-0.352636 z m 0.9956784,-2.157303 c 0,-0.3879 0.014293,-0.546586 0.031761,-0.352636 0.017469,0.19395 0.017469,0.511322 0,0.705272 -0.017469,0.19395 -0.031761,0.03526 -0.031761,-0.352636 z M 3.1819738,36.093346 c 0,-0.3879 0.014293,-0.546586 0.031761,-0.352636 0.017469,0.19395 0.017469,0.511322 0,0.705272 -0.017469,0.19395 -0.031761,0.03526 -0.031761,-0.352636 z M 73.327569,35.125689 c 0.05704,-0.02302 0.150389,-0.02302 0.207433,0 0.05704,0.02302 0.01037,0.04185 -0.103716,0.04185 -0.114088,0 -0.160761,-0.01883 -0.103717,-0.04185 z m 1.747624,-0.0017 c 0.05989,-0.02397 0.131461,-0.02102 0.159032,0.0065 0.02757,0.02757 -0.02144,0.04718 -0.108903,0.04358 -0.09666,-0.004 -0.11632,-0.02364 -0.05013,-0.05013 z m -1.289692,-0.332713 c 0.08073,-0.02104 0.192744,-0.01965 0.24892,0.0031 0.05618,0.02273 -0.0099,0.03994 -0.146782,0.03825 -0.136906,-0.0017 -0.182868,-0.02029 -0.102138,-0.04132 z m 0.957799,8.3e-4 c 0.0599,-0.02397 0.131461,-0.02102 0.159032,0.0065 0.02757,0.02757 -0.02143,0.04718 -0.108902,0.04358 -0.09666,-0.004 -0.116321,-0.02364 -0.05013,-0.05013 z M 4.178112,33.894556 c -2.489e-4,-0.410717 0.013778,-0.589199 0.031179,-0.396626 0.017402,0.192573 0.017608,0.528614 4.564e-4,0.746759 -0.017145,0.218144 -0.031383,0.06058 -0.031635,-0.350133 z m 70.731134,-2.338443 c 0.0599,-0.02397 0.131461,-0.02102 0.159032,0.0065 0.02757,0.02757 -0.02144,0.04718 -0.108902,0.04358 -0.09666,-0.004 -0.11632,-0.02364 -0.05013,-0.05013 z M 74.660327,31.22422 c 0.0599,-0.02397 0.131461,-0.02102 0.159032,0.0065 0.02757,0.02757 -0.02144,0.04718 -0.108903,0.04358 -0.09666,-0.004 -0.11632,-0.02364 -0.05013,-0.05013 z m 17.31547,-6.830096 c 0.0826,-0.09127 0.168851,-0.165947 0.191668,-0.165947 0.02282,0 -0.0261,0.07468 -0.108695,0.165947 -0.0826,0.09127 -0.16885,0.165946 -0.191668,0.165946 -0.02282,0 0.02609,-0.07468 0.108695,-0.165946 z m -1.113592,-1.375972 c 0.004,-0.09666 0.02365,-0.116321 0.05013,-0.05013 0.02397,0.05989 0.02102,0.131461 -0.0066,0.159032 -0.02757,0.02757 -0.04719,-0.02144 -0.04359,-0.108902 z M 3.0990006,22.23682 c 0,-0.3879 0.014293,-0.546586 0.031761,-0.352636 0.017469,0.19395 0.017469,0.511322 0,0.705272 -0.017469,0.19395 -0.031761,0.03526 -0.031761,-0.352636 z m 0.9961382,-2.19879 c -2.489e-4,-0.410717 0.013778,-0.589199 0.031179,-0.396626 0.017402,0.192573 0.017608,0.528614 4.564e-4,0.746759 -0.017145,0.218144 -0.031383,0.06058 -0.031635,-0.350133 z M 8.5798434,11.014694 8.4217802,10.828004 8.60847,10.986067 c 0.1754418,0.14854 0.2244624,0.215316 0.1580631,0.215316 -0.015745,0 -0.099755,-0.08401 -0.1866897,-0.186689 z m 1.1616248,-0.580813 -0.1580631,-0.18669 0.1866897,0.158064 c 0.1754419,0.14854 0.2244625,0.215316 0.1580631,0.215316 -0.015745,0 -0.099755,-0.08401 -0.1866897,-0.18669 z m 1.0344648,0.04149 c -0.103208,-0.131601 -0.100274,-0.134536 0.03133,-0.03133 0.138212,0.108394 0.182166,0.176531 0.113876,0.176531 -0.01723,0 -0.08257,-0.06534 -0.145203,-0.145203 z M 7.9719781,9.742438 c 0.00398,-0.09666 0.023642,-0.1163202 0.05013,-0.05013 0.023968,0.059896 0.021021,0.1314602 -0.00655,0.1590322 -0.027572,0.027571 -0.047183,-0.021435 -0.04358,-0.1089022 z M 26.075908,2.182777 c 0.08073,-0.021037 0.192745,-0.019654 0.24892,0.00307 0.05617,0.022728 -0.0099,0.039941 -0.146782,0.03825 C 26.04114,2.222407 25.995178,2.20381 26.075908,2.182773 Z"
         id="path5325" />
      <path
         style="fill:#333333;fill-opacity:1;stroke-width:0.0829732"
         d="M 72.43954,98.233302 C 72.053804,98.190098 71.307045,98.066792 70.780076,97.9593 69.328223,97.66316 9.9318453,78.683749 8.8290244,78.163579 7.6808049,77.621995 6.7521671,77.009525 6.1974473,76.427959 5.7559048,75.965048 4.4719311,74.089748 3.9183801,73.099281 3.3703039,72.11861 3.4265853,74.656118 3.2315442,42.132511 3.0940563,19.206044 3.0760775,12.404082 3.1517804,11.955265 3.3670778,10.678837 4.1017104,9.6638234 5.4662661,8.7574282 6.3072495,8.1988118 18.039289,2.4424441 19.262175,1.9884159 c 0.71149,-0.2641593 2.383457,-0.6842537 3.26505,-0.8203683 2.926259,-0.45180346 6.303863,-0.28641186 9.093862,0.4453004 0.884069,0.2318584 60.205309,19.243473 61.101469,19.582153 2.404223,0.908613 3.978134,2.126363 4.537041,3.510351 l 0.192432,0.476517 v 29.953329 29.953329 l -0.194788,0.622299 c -0.299973,0.958348 -1.459599,2.861505 -2.431895,3.99121 -0.960987,1.116554 -1.362038,1.379148 -4.384553,2.870898 -5.428024,2.678989 -8.916706,4.324257 -10.146328,4.785024 -0.701909,0.263025 -2.010796,0.59939 -2.963438,0.761569 -0.942916,0.16052 -3.865564,0.228201 -4.891487,0.113275 z m 3.878335,-0.993944 c 1.450395,-0.158794 3.00762,-0.547184 4.20762,-1.049437 2.169663,-0.908092 11.682494,-5.554185 12.363007,-6.038126 0.273812,-0.194722 0.670225,-0.53848 0.88091,-0.76391 0.435203,-0.465646 1.422725,-1.773967 1.375007,-1.821677 -0.01732,-0.01733 -0.588006,0.269423 -1.26817,0.637235 -3.137674,1.696727 -9.375466,4.726311 -11.193451,5.436454 C 78.722264,95.186966 75.017539,95.54351 70.776143,94.78579 69.272566,94.517173 68.61715,94.329064 63.638659,92.737281 61.426333,92.029935 57.133274,90.660868 54.098529,89.694919 51.063784,88.72897 47.666032,87.645448 46.547968,87.287103 43.857335,86.424729 19.465397,78.653931 13.19274,76.660772 7.5897704,74.880409 7.0825079,74.704273 6.2314865,74.243634 l -0.613803,-0.332237 0.1920123,0.320016 c 0.9065974,1.510975 1.6324331,2.157917 3.3446648,2.981119 0.5498352,0.264347 9.1167484,3.033835 30.8802104,9.982869 16.5656,5.28936 30.436646,9.682625 30.824546,9.76281 1.678906,0.347061 3.840105,0.458369 5.458758,0.281147 z M 77.787379,94.6376 c 3.250158,-0.518466 5.650766,-1.477952 12.860847,-5.140265 4.282396,-2.175217 4.900505,-2.551957 5.291292,-3.225052 0.424292,-0.73082 0.379246,-0.783035 -0.257864,-0.298911 -0.320807,0.243775 -1.11784,0.740004 -1.771187,1.102738 -1.006167,0.558618 -1.25931,0.664749 -1.654569,0.693748 -0.441849,0.03242 -0.484588,0.01803 -0.804135,-0.270667 -0.199808,-0.180517 -0.395832,-0.46353 -0.480514,-0.693747 -0.07866,-0.213864 -0.169324,-0.419455 -0.201476,-0.456868 -0.03215,-0.03741 -0.875417,0.326558 -1.873925,0.808815 l -1.81547,0.876844 -0.06366,0.555896 c -0.112777,0.984859 -0.632123,1.848353 -1.493468,2.483106 -0.748651,0.551697 -1.279795,0.797497 -3.243678,1.501052 -3.515459,1.2594 -4.228817,1.394199 -7.354771,1.389726 -1.840084,-0.0027 -2.40689,-0.03373 -3.47439,-0.190672 -2.69857,-0.396745 -3.882259,-0.705447 -8.846353,-2.307062 C 53.173722,88.423678 47.756041,86.677582 27.77077,80.239652 16.142706,76.493862 6.4113208,73.319325 6.1454693,73.185123 5.8796177,73.050921 5.414923,72.751668 5.1128145,72.520114 4.810706,72.28856 4.5635262,72.123604 4.5635262,72.153543 c 0,0.02994 0.1163447,0.257785 0.2585439,0.506323 0.4938266,0.86312 1.6544828,1.488596 4.4284714,2.386498 1.5196465,0.491889 26.3854645,8.416421 27.0606935,8.62402 0.133353,0.041 0.187116,0.01328 0.220299,-0.113615 0.02414,-0.09233 0.09521,-0.187545 0.15793,-0.211615 0.06272,-0.02407 0.579661,0.115764 1.148758,0.310734 0.997072,0.341584 1.035625,0.363547 1.059473,0.603406 l 0.02475,0.24892 3.29418,1.050175 c 1.811799,0.577602 8.353471,2.664179 14.537049,4.636834 6.183578,1.972663 11.634917,3.694498 12.114088,3.826309 0.998989,0.274808 2.78592,0.615761 3.816767,0.728264 1.035086,0.112969 4.11601,0.04523 5.102852,-0.112196 z m -0.639772,-1.048416 c 0.443146,-0.04817 1.233497,-0.182458 1.756338,-0.298422 1.148424,-0.254719 4.693757,-1.495202 5.574294,-1.950393 0.885664,-0.457846 1.574408,-1.103212 1.914416,-1.793856 l 0.272857,-0.554244 0.02248,-28.378589 c 0.02105,-26.57516 0.0135,-28.398709 -0.118784,-28.695207 -0.162072,-0.363259 -1.407118,-1.447391 -2.017352,-1.75662 -0.686919,-0.348088 -1.294723,-0.480184 -2.027421,-0.440626 -0.568897,0.03071 -0.791673,0.09068 -1.459611,0.392884 -2.479114,1.121665 -5.468636,1.639542 -8.194607,1.419558 -1.50691,-0.121607 -2.752111,-0.339161 -4.043941,-0.706534 C 68.27865,30.671402 65.104925,29.668607 61.773551,28.598701 58.442177,27.528797 45.541918,23.396827 33.106309,19.416547 19.865691,15.178606 10.243102,12.056995 9.8855628,11.883632 9.1883257,11.545557 8.4457877,10.908285 8.2095487,10.445219 7.96712,9.9700194 7.9956729,9.4086318 8.2855162,8.9515963 8.580123,8.4870492 9.070595,8.1289823 10.265679,7.5059855 10.777835,7.2389986 11.185336,7.009018 11.171235,6.9949176 11.122514,6.9461964 7.0089952,8.9799656 6.3284553,9.3892418 5.0301758,10.170025 4.2791936,11.096421 4.1717437,12.049713 c -0.035621,0.31603 -0.00368,0.405386 0.2794993,0.781945 0.175844,0.233828 0.506406,0.579752 0.7345823,0.768721 0.4917031,0.407214 1.7424327,1.058835 2.6136559,1.361695 1.0282073,0.357433 58.9848638,18.78383 59.6577338,18.967228 4.437914,1.209598 9.832303,1.158806 14.105445,-0.132812 1.01314,-0.306236 2.532608,-0.901242 3.794531,-1.485898 0.721485,-0.334267 0.929391,-0.355456 0.825268,-0.08411 -0.04893,0.127506 -2.010259,1.002915 -3.399326,1.517237 -2.783329,1.030566 -6.59906,1.5547 -9.890722,1.358602 -3.107017,-0.185099 -4.379875,-0.45869 -9.04453,-1.944058 C 62.205011,32.635126 48.819359,28.375713 34.101987,23.692905 14.862681,17.571296 7.1281463,15.07588 6.5780987,14.812793 5.6083289,14.348953 4.9598084,13.90811 4.4598097,13.372848 L 4.065687,12.95093 4.064567,13.382985 c -0.00883,3.412287 0.3496077,57.739879 0.3819101,57.885343 0.07594,0.341969 1.0144187,1.180956 1.7371827,1.553016 0.3638952,0.187324 1.3897174,0.572794 2.279605,0.856601 1.5745882,0.502174 47.8810592,15.415891 54.7623152,17.637051 1.893863,0.611313 3.798099,1.205476 4.231634,1.320361 1.575099,0.417413 4.075437,0.85742 5.600691,0.985606 0.806973,0.06782 3.355512,0.04802 4.0897,-0.03178 z m 11.828476,-6.839291 1.796603,-0.869816 V 58.407558 30.935043 l -1.846154,0.952963 -1.846154,0.952962 -0.02087,27.38937 c -0.01148,15.064155 0.01082,27.389371 0.04955,27.389371 0.03873,0 0.878894,-0.391417 1.867021,-0.869816 z m 4.566057,0.151816 c 1.340623,-0.735806 2.085217,-1.246457 2.561574,-1.75675 l 0.394123,-0.422201 V 55.587916 26.453076 l -0.405391,0.360325 c -0.779508,0.692862 -4.475508,2.878084 -4.667342,2.759522 -0.190299,-0.117611 0.0105,-0.28435 0.940817,-0.781219 1.476616,-0.788646 3.630708,-2.240558 3.878466,-2.614188 0.659039,-0.993852 -0.566699,-2.562064 -2.799483,-3.581663 -0.60977,-0.278452 -1.648088,-0.690926 -1.739259,-0.690926 -0.02363,0 0.127679,0.182427 0.336232,0.405392 0.63779,0.681849 0.635301,1.331117 -0.0077,2.01858 -0.360186,0.385076 -1.53166,1.147397 -2.578077,1.677658 -0.522606,0.264822 -0.709196,0.580183 -0.633666,1.070978 0.04683,0.304301 0.164154,0.453039 0.992169,1.257816 0.516475,0.501988 1.00868,1.043388 1.093794,1.203112 0.149899,0.281322 0.156031,1.176751 0.196223,28.625757 0.03994,27.283989 0.04714,28.346129 0.193793,28.625757 0.229279,0.437203 0.540993,0.66289 0.916198,0.663371 0.241137,0 0.573743,-0.137893 1.327571,-0.551639 z M 88.946653,31.505431 c 1.106755,-0.577057 1.793258,-0.982519 1.809546,-1.068758 0.01444,-0.07643 -0.01676,-0.300453 -0.06932,-0.497839 -0.07865,-0.295314 -0.267987,-0.527906 -1.068911,-1.313077 -0.76527,-0.750221 -0.994193,-1.027196 -1.070927,-1.295711 -0.129803,-0.454198 -0.121713,-0.593282 0.05736,-0.986052 0.13021,-0.285605 0.26592,-0.394304 0.973109,-0.779394 1.314719,-0.715917 2.10976,-1.257475 2.366645,-1.612093 0.475586,-0.656533 0.242846,-1.26096 -0.733417,-1.904623 -0.481468,-0.317443 -1.350754,-0.762518 -1.350754,-0.69159 0,0.01257 0.186956,0.14399 0.415464,0.292055 1.098407,0.711747 1.246905,1.589151 0.410501,2.425554 -0.442006,0.442004 -0.0524,0.242439 -7.96166,4.078067 -2.680813,1.30007 -4.086146,1.935763 -4.605013,2.083045 -2.219279,0.629954 -4.497425,0.686219 -7.052722,0.174187 C 70.084698,30.212457 68.373978,29.669123 25.88764,16.060143 17.969922,13.523984 11.221836,11.320764 10.891894,11.164097 10.156419,10.814869 9.4940231,10.217577 9.3651375,9.7873962 9.2095287,9.2680187 9.331213,8.9120703 9.8374317,8.4058508 10.253873,7.9894097 10.68152,7.7601478 15.618936,5.3063782 18.551425,3.849006 20.857389,2.6795128 20.743301,2.7075043 20.629213,2.7354959 20.031806,2.9953021 19.41573,3.2848514 18.799654,3.5744007 17.884874,3.943686 17.382886,4.1054855 c -1.046095,0.3371749 -5.434745,2.4241535 -5.434745,2.584439 0,0.2308233 -0.424622,0.5456681 -1.452031,1.0766396 -1.6211326,0.8378117 -2.1148597,1.2988623 -2.115506,1.975498 -6.638e-4,0.6673149 0.6350263,1.3679399 1.696915,1.8703289 0.359332,0.170003 49.706396,16.039296 58.090161,18.680944 4.489572,1.414625 8.730416,1.265524 12.648221,-0.444689 0.86251,-0.376505 1.027434,-0.420319 1.71647,-0.455996 1.245939,-0.06451 2.149384,0.295587 3.407574,1.358211 0.642527,0.542655 0.987995,1.001798 1.06579,1.416469 0.02839,0.151357 0.07547,0.273555 0.104621,0.271549 0.02915,-0.002 0.855479,-0.422057 1.836297,-0.933448 z m -1.688364,0.06714 c -0.02668,-0.06955 0.01462,-0.15532 0.09484,-0.196965 0.07817,-0.04057 0.790701,-0.418767 1.583427,-0.840427 1.125316,-0.598578 1.456636,-0.741849 1.511257,-0.653509 0.04202,0.06796 0.02973,0.151385 -0.03077,0.208901 -0.122668,0.116634 -2.943209,1.605194 -3.041532,1.605194 -0.03847,0 -0.09122,-0.05544 -0.117225,-0.123194 z M 76.605987,30.240397 c 1.46749,-0.256495 2.087027,-0.502029 5.786405,-2.293253 6.536496,-3.164946 6.918198,-3.384129 7.438017,-4.271144 0.198571,-0.338836 0.20949,-0.401551 0.121224,-0.696168 -0.106721,-0.356207 -0.381644,-0.599622 -1.061842,-0.940158 -0.567055,-0.283888 0.496454,0.0611 -16.910536,-5.485564 C 63.582367,13.878477 55.087985,11.171241 53.102851,10.53803 51.117717,9.904819 46.021088,8.2798701 41.777008,6.9270327 37.532929,5.5741953 33.127052,4.1692784 31.98617,3.8049953 28.70181,2.7563002 27.77061,2.5672815 25.889229,2.5674154 c -1.282307,9.13e-5 -2.286791,0.1511885 -3.320154,0.4994268 -0.3881,0.1307877 -3.076595,1.3946606 -5.974434,2.8086064 -4.561101,2.2255032 -5.327309,2.6255417 -5.704408,2.9782824 -0.395499,0.3699535 -0.435609,0.4405048 -0.435609,0.7662128 0,0.6314352 0.382812,1.0483652 1.410544,1.5362552 0.250994,0.119152 6.990493,2.30801 14.976664,4.864126 7.986171,2.556117 20.923767,6.69781 28.750215,9.203763 7.826447,2.505953 14.609697,4.648134 15.073887,4.760403 0.464191,0.112269 1.192281,0.2447 1.617978,0.294293 0.425697,0.04959 0.904677,0.10534 1.064401,0.123885 0.547582,0.06358 2.53068,-0.0352 3.257674,-0.162272 z m 13.737321,-6.305333 c 0.510285,-0.458796 0.653828,-0.816786 0.48731,-1.215329 C 90.607519,22.185783 89.873563,21.679663 88.698356,21.249369 88.310456,21.107342 76.306307,17.273759 62.02247,12.730294 47.738633,8.18683 34.595138,4.0060933 32.814704,3.4397683 29.315646,2.3267795 28.398196,2.1172778 26.612846,2.0235614 25.011745,1.9395166 22.923673,2.2367395 21.695103,2.723569 21.468241,2.8134646 18.836992,4.0995023 15.847882,5.5814304 11.114705,7.9280252 10.366788,8.3240018 10.054091,8.6488917 9.5613591,9.1608356 9.510972,9.5299228 9.8670432,10.019015 10.130457,10.380834 10.37221,10.516824 10.208623,10.211159 10.080568,9.9718863 10.10479,9.3973715 10.256405,9.0778682 10.329926,8.922934 10.52595,8.6767292 10.692014,8.5307462 11.110464,8.162898 21.46706,3.0732951 22.485738,2.7348874 c 1.906847,-0.6334593 4.534309,-0.6773619 6.762317,-0.1129925 0.571702,0.1448162 4.294264,1.3261653 26.509938,8.4128881 1.985134,0.633251 9.602074,3.059676 16.926534,5.392056 15.799525,5.031155 15.737918,5.011065 16.438685,5.360989 1.228683,0.613541 1.542339,1.449818 0.851645,2.270663 -0.315647,0.375122 -0.109102,0.305932 0.368451,-0.123427 z"
         id="path5323" />
    </g>
  </g>
</svg>
