<?xml version="1.0" encoding="UTF-8" standalone="no"?>
<svg
   xmlns:dc="http://purl.org/dc/elements/1.1/"
   xmlns:cc="http://creativecommons.org/ns#"
   xmlns:rdf="http://www.w3.org/1999/02/22-rdf-syntax-ns#"
   xmlns:svg="http://www.w3.org/2000/svg"
   xmlns="http://www.w3.org/2000/svg"
   xmlns:sodipodi="http://sodipodi.sourceforge.net/DTD/sodipodi-0.dtd"
   xmlns:inkscape="http://www.inkscape.org/namespaces/inkscape"
   sodipodi:docname="Denon Home 350-5.svg"
   inkscape:version="1.0 (4035a4f, 2020-05-01)"
   id="svg6910"
   version="1.1"
   viewBox="0 0 210 297"
   height="297mm"
   width="210mm">
  <defs
     id="defs6904" />
  <sodipodi:namedview
     inkscape:window-maximized="0"
     inkscape:window-y="23"
     inkscape:window-x="0"
     inkscape:window-height="1174"
     inkscape:window-width="1252"
     showgrid="false"
     inkscape:document-rotation="0"
     inkscape:current-layer="layer1"
     inkscape:document-units="mm"
     inkscape:cy="560"
     inkscape:cx="400"
     inkscape:zoom="0.35"
     inkscape:pageshadow="2"
     inkscape:pageopacity="0.0"
     borderopacity="1.0"
     bordercolor="#666666"
     pagecolor="#ffffff"
     id="base" />
  <metadata
     id="metadata6907">
    <rdf:RDF>
      <cc:Work
         rdf:about="">
        <dc:format>image/svg+xml</dc:format>
        <dc:type
           rdf:resource="http://purl.org/dc/dcmitype/StillImage" />
        <dc:title></dc:title>
      </cc:Work>
    </rdf:RDF>
  </metadata>
  <g
     id="layer1"
     inkscape:groupmode="layer"
     inkscape:label="Layer 1">
    <g
       transform="matrix(1.0192697,0,0,1.0201914,-6.1153273,-5.4512126)"
       id="g6872">
      <path
         style="fill:#b9b9b9;fill-opacity:1;stroke-width:0.16071"
         d="m 153.94623,194.80189 c 0.11601,-0.0464 0.25463,-0.0407 0.30803,0.0127 0.0534,0.0534 -0.0415,0.0914 -0.21093,0.0844 -0.18722,-0.008 -0.2253,-0.0458 -0.0971,-0.0971 z m 35.14415,-75.98616 c 0,-27.400973 0.0185,-38.586526 0.0412,-24.856789 0.0227,13.729739 0.0227,36.148709 0,49.819949 -0.0227,13.67123 -0.0412,2.43781 -0.0412,-24.96316 z M 12.583327,143.08286 c 0.0033,-0.26517 0.03929,-0.35419 0.08004,-0.19783 0.04075,0.15637 0.03807,0.37333 -0.006,0.48213 -0.04402,0.10881 -0.07736,-0.0191 -0.07409,-0.2843 z m 2.089224,-0.64284 c 0.0033,-0.26517 0.03929,-0.35419 0.08004,-0.19783 0.04075,0.15637 0.03807,0.37333 -0.006,0.48213 -0.04402,0.10881 -0.07736,-0.0191 -0.07409,-0.2843 z m -2.222568,-29.40984 c 4.18e-4,-0.8839 0.02741,-1.22499 0.05997,-0.75798 0.03257,0.46701 0.03222,1.19021 -7.56e-4,1.6071 -0.03299,0.41689 -0.05964,0.0348 -0.05922,-0.84912 z m 2.089224,-0.64283 c 4.18e-4,-0.88391 0.02741,-1.225 0.05997,-0.75799 0.03257,0.46702 0.03223,1.19021 -7.55e-4,1.6071 -0.03299,0.41689 -0.05964,0.0348 -0.05922,-0.84911 z M 12.290035,81.932897 c 0,-0.928097 0.02656,-1.307774 0.05903,-0.843725 0.03246,0.464049 0.03246,1.223401 0,1.68745 -0.03246,0.464049 -0.05903,0.08437 -0.05903,-0.843725 z m 2.088462,-0.562483 c 4.18e-4,-0.883902 0.02741,-1.224996 0.05997,-0.757983 0.03257,0.467012 0.03222,1.190205 -7.55e-4,1.607095 -0.03299,0.41689 -0.05964,0.03479 -0.05922,-0.849112 z M 189.02372,67.857424 c 0.008,-0.187219 0.0458,-0.225299 0.0971,-0.0971 0.0464,0.116011 0.0407,0.254625 -0.0127,0.308027 -0.0534,0.0534 -0.0914,-0.04152 -0.0844,-0.210931 z M 12.128564,50.835609 c 4.18e-4,-0.883902 0.02741,-1.224995 0.05997,-0.757983 0.03257,0.467012 0.03222,1.190205 -7.56e-4,1.607095 -0.03299,0.41689 -0.05964,0.03479 -0.05922,-0.849112 z m 2.089224,-0.482128 c 4.18e-4,-0.883903 0.02741,-1.224996 0.05997,-0.757984 0.03257,0.467013 0.03222,1.190205 -7.55e-4,1.607095 -0.03299,0.416891 -0.05964,0.03479 -0.05922,-0.849111 z M 32.758539,24.700373 c 0.109015,-0.109832 0.238692,-0.15921 0.288173,-0.109729 0.04948,0.04948 -0.03971,0.139343 -0.198208,0.199694 -0.229043,0.08721 -0.247502,0.06876 -0.08996,-0.08996 z M 68.040013,9.984381 c 0.156366,-0.040747 0.373324,-0.038067 0.482129,0.00595 0.108805,0.044022 -0.01913,0.077361 -0.2843,0.074085 -0.265171,-0.0033 -0.354194,-0.03929 -0.197829,-0.08004 z M 66.680969,7.7360354 c 0.116011,-0.046424 0.254625,-0.040715 0.308027,0.012688 0.0534,0.053402 -0.04152,0.091386 -0.210932,0.084408 -0.187218,-0.00771 -0.225298,-0.045793 -0.09709,-0.097095 z m 1.918469,0.00335 c 0.110488,-0.044583 0.291286,-0.044583 0.401774,0 0.110488,0.044583 0.02009,0.08106 -0.200887,0.08106 -0.220975,0 -0.311374,-0.036477 -0.200887,-0.08106 z"
         id="path6886" />
      <path
         style="fill:#a3a3a3;fill-opacity:1;stroke-width:0.16071"
         d="m 151.05346,194.80189 c 0.11601,-0.0464 0.25463,-0.0407 0.30803,0.0127 0.0534,0.0534 -0.0415,0.0914 -0.21093,0.0844 -0.18722,-0.008 -0.2253,-0.0458 -0.0971,-0.0971 z m 50.49292,-24.53945 c 0,-0.0334 0.12656,-0.15992 0.28124,-0.28124 0.2549,-0.19989 0.26058,-0.19422 0.0607,0.0607 -0.20995,0.26769 -0.34193,0.35284 -0.34193,0.22056 z m 4.73995,-60.28574 c 0,-28.638428 0.0185,-40.33021 0.0412,-25.981731 0.0226,14.348478 0.0226,37.779921 0,52.069881 -0.0226,14.28995 -0.0412,2.55029 -0.0412,-26.08815 z M 12.610693,141.15435 c 4.18e-4,-0.88391 0.02741,-1.225 0.05997,-0.75799 0.03257,0.46702 0.03222,1.19021 -7.55e-4,1.6071 -0.03299,0.41689 -0.05964,0.0348 -0.05922,-0.84911 z m 1.928514,-25.71352 c 4.18e-4,-0.8839 0.02741,-1.225 0.05997,-0.75799 0.03257,0.46702 0.03223,1.19021 -7.55e-4,1.6071 -0.03299,0.41689 -0.05964,0.0348 -0.05922,-0.84911 z m -2.089985,-5.38377 c 0,-0.83971 0.02709,-1.18322 0.06019,-0.76337 0.03311,0.41985 0.03311,1.10689 0,1.52674 -0.03311,0.41985 -0.06019,0.0763 -0.06019,-0.76337 z m 1.929275,-25.633166 c 4.18e-4,-0.883902 0.02741,-1.224995 0.05997,-0.757983 0.03257,0.467012 0.03222,1.190205 -7.55e-4,1.607095 -0.03299,0.41689 -0.05964,0.03479 -0.05922,-0.849112 z m -2.089984,-5.544477 c 0,-0.839708 0.02709,-1.183224 0.06019,-0.763371 0.03311,0.419854 0.03311,1.106887 0,1.526741 -0.03311,0.419853 -0.06019,0.07634 -0.06019,-0.76337 z m 1.928514,-25.552811 c 0,-0.839707 0.02709,-1.183223 0.06019,-0.76337 0.03311,0.419854 0.03311,1.106887 0,1.52674 -0.03311,0.419854 -0.06019,0.07634 -0.06019,-0.76337 z m -2.089224,-5.464123 c 0,-0.839707 0.02709,-1.183223 0.06019,-0.76337 0.03311,0.419854 0.03311,1.106887 0,1.52674 -0.03311,0.419854 -0.06019,0.07634 -0.06019,-0.76337 z M 23.801662,30.766599 c 0,-0.03337 0.126559,-0.15993 0.281242,-0.281242 0.254895,-0.199901 0.260579,-0.194217 0.06068,0.06068 -0.209946,0.267702 -0.34192,0.352834 -0.34192,0.220564 z m 43.67281,-19.980718 c 0.198878,-0.03831 0.524315,-0.03831 0.723193,0 0.198878,0.0383 0.03616,0.06965 -0.361597,0.06965 -0.397756,0 -0.560474,-0.03134 -0.361596,-0.06965 z m 0.01004,-0.7999127 c 0.116012,-0.046424 0.254625,-0.040715 0.308027,0.012688 0.0534,0.053403 -0.04152,0.091386 -0.210931,0.084408 -0.187219,-0.0077 -0.225299,-0.04579 -0.0971,-0.097095 z m -0.08819,-2.2554721 c 0.244288,-0.03694 0.605884,-0.035953 0.803547,0.00219 0.197663,0.038146 -0.0022,0.06837 -0.444161,0.067163 -0.441951,-0.00121 -0.603674,-0.032417 -0.359386,-0.069357 z"
         id="path6884" />
      <path
         style="fill:#8c8c8c;fill-opacity:1;stroke-width:0.16071"
         d="m 151.53559,194.80189 c 0.11601,-0.0464 0.25462,-0.0407 0.30803,0.0127 0.0534,0.0534 -0.0415,0.0914 -0.21093,0.0844 -0.18722,-0.008 -0.2253,-0.0458 -0.0971,-0.0971 z m 1.35599,-5.78653 c 0.15468,-0.0404 0.4078,-0.0404 0.56248,0 0.15468,0.0404 0.0281,0.0735 -0.28124,0.0735 -0.30937,0 -0.43593,-0.0331 -0.28124,-0.0735 z m 50.10119,-17.30654 c 0,-0.0334 0.12655,-0.15992 0.28124,-0.28124 0.2549,-0.19989 0.26057,-0.19422 0.0607,0.0607 -0.20995,0.2677 -0.34192,0.35284 -0.34192,0.22056 z m -13.09884,-53.45558 c 0,-27.798722 0.0185,-39.170928 0.0412,-25.271565 0.0226,13.899365 0.0226,36.643775 0,50.543135 -0.0227,13.89936 -0.0412,2.52716 -0.0412,-25.27157 z M 12.610693,138.10087 c 4.18e-4,-0.88391 0.02741,-1.225 0.05997,-0.75799 0.03257,0.46702 0.03222,1.19021 -7.55e-4,1.6071 -0.03299,0.41689 -0.05964,0.0348 -0.05922,-0.84911 z m 1.928514,-19.60656 c 4.18e-4,-0.8839 0.02741,-1.225 0.05997,-0.75799 0.03257,0.46702 0.03223,1.19021 -7.55e-4,1.6071 -0.03299,0.41689 -0.05964,0.0348 -0.05922,-0.84911 z m -2.088463,-11.49073 c 0,-0.9281 0.02656,-1.30777 0.05903,-0.84373 0.03246,0.46405 0.03246,1.2234 0,1.68745 -0.03246,0.46405 -0.05903,0.0844 -0.05903,-0.84372 z m 1.927753,-19.526205 c 4.18e-4,-0.883903 0.02741,-1.224996 0.05997,-0.757983 0.03257,0.467012 0.03222,1.190204 -7.55e-4,1.607095 -0.03299,0.41689 -0.05964,0.03479 -0.05922,-0.849112 z M 152.09109,81.017979 c 0.15636,-0.04075 0.37332,-0.03807 0.48213,0.006 0.1088,0.04402 -0.0191,0.07736 -0.2843,0.07408 -0.26517,-0.0033 -0.3542,-0.03929 -0.19783,-0.08004 z M 12.289274,75.906291 c 4.18e-4,-0.883902 0.02741,-1.224995 0.05997,-0.757983 0.03257,0.467012 0.03222,1.190205 -7.55e-4,1.607095 -0.03299,0.41689 -0.05964,0.03479 -0.05922,-0.849112 z m 1.929275,-19.526204 c 0,-0.928098 0.02656,-1.307774 0.05903,-0.843725 0.03246,0.464049 0.03246,1.223401 0,1.68745 -0.03246,0.464048 -0.05903,0.08437 -0.05903,-0.843725 z M 12.128564,44.889358 c 4.18e-4,-0.883903 0.02741,-1.224996 0.05997,-0.757984 0.03257,0.467013 0.03222,1.190205 -7.56e-4,1.607095 -0.03299,0.416891 -0.05964,0.03479 -0.05922,-0.849111 z m 9.757272,-12.870152 c 0.0077,-0.187219 0.04579,-0.225299 0.09709,-0.0971 0.04642,0.116011 0.04071,0.254623 -0.01268,0.308027 -0.0534,0.0534 -0.09139,-0.04152 -0.08441,-0.210931 z m 8.665626,-6.08226 c 0,-0.04419 0.144638,-0.157764 0.321419,-0.252373 0.17678,-0.09461 0.321419,-0.135859 0.321419,-0.09166 0,0.0442 -0.144639,0.157763 -0.321419,0.252373 -0.176781,0.09461 -0.321419,0.135859 -0.321419,0.09166 z"
         id="path6882" />
      <path
         style="fill:#767676;fill-opacity:1;stroke-width:0.16071"
         d="m 152.25095,194.79635 c 0.24429,-0.0369 0.60588,-0.0359 0.80355,0.002 0.19766,0.0381 -0.002,0.0684 -0.44417,0.0672 -0.44195,-0.002 -0.60367,-0.0324 -0.35938,-0.0694 z m -0.32363,-5.78099 c 0.15468,-0.0404 0.4078,-0.0404 0.56248,0 0.15469,0.0404 0.0281,0.0735 -0.28124,0.0735 -0.30936,0 -0.43592,-0.0331 -0.28124,-0.0735 z m 1.8582,0.002 c 0.11601,-0.0464 0.25463,-0.0407 0.30803,0.0127 0.0534,0.0534 -0.0415,0.0914 -0.21093,0.0844 -0.18722,-0.008 -0.2253,-0.0458 -0.0971,-0.0971 z m 37.60603,-17.83875 c 0.11601,-0.0464 0.25463,-0.0407 0.30803,0.0127 0.0534,0.0534 -0.0415,0.0914 -0.21093,0.0844 -0.18723,-0.008 -0.2253,-0.0458 -0.0971,-0.0971 z M 12.610693,135.04739 c 4.18e-4,-0.88391 0.02741,-1.225 0.05997,-0.75799 0.03257,0.46702 0.03222,1.19021 -7.55e-4,1.6071 -0.03299,0.41689 -0.05964,0.0348 -0.05922,-0.84911 z m 1.928514,-13.4996 c 4.18e-4,-0.8839 0.02741,-1.225 0.05997,-0.75798 0.03257,0.46701 0.03223,1.1902 -7.55e-4,1.60709 -0.03299,0.41689 -0.05964,0.0348 -0.05922,-0.84911 z M 12.449222,103.9501 c 0,-0.83971 0.02709,-1.18323 0.06019,-0.76337 0.03311,0.41985 0.03311,1.10688 0,1.52674 -0.03311,0.41985 -0.06019,0.0763 -0.06019,-0.76337 z m 1.929275,-13.419245 c 4.18e-4,-0.883902 0.02741,-1.224995 0.05997,-0.757983 0.03257,0.467012 0.03222,1.190205 -7.55e-4,1.607095 -0.03299,0.41689 -0.05964,0.03479 -0.05922,-0.849112 z M 150.88271,81.015932 c 0.19888,-0.03831 0.52431,-0.03831 0.72319,0 0.19888,0.0383 0.0362,0.06965 -0.3616,0.06965 -0.39775,0 -0.56047,-0.03134 -0.36159,-0.06965 z m 2.01192,0.002 c 0.15637,-0.04075 0.37333,-0.03807 0.48213,0.006 0.10881,0.04402 -0.0191,0.07736 -0.2843,0.07409 -0.26517,-0.0033 -0.35419,-0.03929 -0.19783,-0.08004 z m -1.12802,-5.302819 c 0.15468,-0.04042 0.4078,-0.04042 0.56248,0 0.15469,0.04042 0.0281,0.0735 -0.28124,0.0735 -0.30936,0 -0.43592,-0.03307 -0.28124,-0.0735 z m 0.0822,-0.967138 c 0.19991,-0.03844 0.48918,-0.03698 0.64284,0.0032 0.15365,0.04022 -0.01,0.07168 -0.36347,0.06989 -0.35356,-0.0018 -0.47928,-0.0347 -0.27937,-0.07314 z M 12.289274,72.85281 c 4.18e-4,-0.883902 0.02741,-1.224995 0.05997,-0.757983 0.03257,0.467012 0.03222,1.190205 -7.55e-4,1.607095 -0.03299,0.41689 -0.05964,0.03479 -0.05922,-0.849112 z M 175.15989,67.680679 c 0.11601,-0.04642 0.25463,-0.04072 0.30803,0.01268 0.0534,0.0534 -0.0415,0.09139 -0.21093,0.08441 -0.18723,-0.0077 -0.2253,-0.04579 -0.0971,-0.09709 z M 14.217027,59.433567 c 0,-0.839707 0.02709,-1.183223 0.06019,-0.76337 0.03311,0.419854 0.03311,1.106887 0,1.52674 -0.03311,0.419854 -0.06019,0.07634 -0.06019,-0.76337 z m -2.088463,-17.59769 c 4.18e-4,-0.883902 0.02741,-1.224995 0.05997,-0.757983 0.03257,0.467012 0.03222,1.190205 -7.56e-4,1.607095 -0.03299,0.41689 -0.05964,0.03479 -0.05922,-0.849112 z m 8.759828,-7.272105 c -0.199902,-0.254895 -0.194218,-0.260579 0.06068,-0.06068 0.154683,0.121311 0.281241,0.24787 0.281241,0.281242 0,0.13227 -0.131972,0.04714 -0.341918,-0.220565 z M 45.832257,17.9106 c 0.165378,-0.147975 1.111575,-0.582798 1.111575,-0.510821 0,0.09257 -0.890945,0.570738 -1.063417,0.570738 -0.06332,0 -0.08499,-0.02696 -0.04816,-0.05992 z m 22.937935,-7.121084 c 0.116012,-0.04642 0.254625,-0.04072 0.308027,0.01269 0.0534,0.0534 -0.04152,0.09139 -0.210931,0.08441 -0.187218,-0.0077 -0.225299,-0.04579 -0.0971,-0.0971 z"
         id="path6880" />
      <path
         style="fill:#606060;fill-opacity:1;stroke-width:0.16071"
         d="m 152.97381,187.24466 c 0.1999,-0.0384 0.48918,-0.037 0.64283,0.003 0.15366,0.0402 -0.01,0.0717 -0.36347,0.0699 -0.35356,-0.002 -0.47927,-0.0347 -0.27936,-0.0731 z m 29.1394,-13.80109 c 0.008,-0.18723 0.0458,-0.2253 0.0971,-0.0971 0.0464,0.11601 0.0407,0.25463 -0.0127,0.30803 -0.0534,0.0534 -0.0914,-0.0415 -0.0844,-0.21093 z M 12.610693,131.99391 c 4.18e-4,-0.88391 0.02741,-1.225 0.05997,-0.75799 0.03257,0.46701 0.03222,1.19021 -7.55e-4,1.6071 -0.03299,0.41689 -0.05964,0.0348 -0.05922,-0.84911 z m 1.928514,-7.39264 c 4.18e-4,-0.8839 0.02741,-1.225 0.05997,-0.75798 0.03257,0.46701 0.03223,1.1902 -7.55e-4,1.60709 -0.03299,0.41689 -0.05964,0.0348 -0.05922,-0.84911 z m -2.089224,-23.6243 c 4.18e-4,-0.8839 0.02741,-1.224993 0.05997,-0.75798 0.03257,0.46701 0.03222,1.1902 -7.56e-4,1.60709 -0.03299,0.41689 -0.05964,0.0348 -0.05922,-0.84911 z m 1.928514,-7.392634 c 4.18e-4,-0.883903 0.02741,-1.224996 0.05997,-0.757984 0.03257,0.467013 0.03222,1.190205 -7.55e-4,1.607095 -0.03299,0.416891 -0.05964,0.03479 -0.05922,-0.849111 z M 153.62481,81.019567 c 0.11601,-0.04642 0.25463,-0.04072 0.30803,0.01268 0.0534,0.0534 -0.0415,0.09139 -0.21093,0.08441 -0.18722,-0.0077 -0.2253,-0.04579 -0.0971,-0.09709 z M 12.289274,69.79933 c 4.18e-4,-0.883902 0.02741,-1.224995 0.05997,-0.757983 0.03257,0.467012 0.03222,1.190205 -7.55e-4,1.607095 -0.03299,0.41689 -0.05964,0.03479 -0.05922,-0.849112 z m 1.928514,-7.392637 c 4.18e-4,-0.883902 0.02741,-1.224995 0.05997,-0.757983 0.03257,0.467012 0.03222,1.190205 -7.55e-4,1.607095 -0.03299,0.41689 -0.05964,0.03479 -0.05922,-0.849112 z M 12.129325,38.702042 c 0,-0.928097 0.02656,-1.307774 0.05903,-0.843725 0.03246,0.464049 0.03246,1.223401 0,1.68745 -0.03246,0.464048 -0.05903,0.08437 -0.05903,-0.843725 z m 10.526871,-5.102527 c -0.199902,-0.254895 -0.194218,-0.260579 0.06068,-0.06068 0.154683,0.121311 0.281242,0.24787 0.281242,0.281242 0,0.13227 -0.131973,0.04714 -0.341919,-0.220565 z M 67.795891,9.8216237 c 0.198878,-0.038305 0.524315,-0.038305 0.723193,0 0.198878,0.038306 0.03616,0.069647 -0.361597,0.069647 -0.397756,0 -0.560474,-0.031341 -0.361596,-0.069647 z"
         id="path6878" />
      <path
         style="fill:#494949;fill-opacity:1;stroke-width:0.16071"
         d="m 154.58907,189.01635 c 0.11601,-0.0464 0.25463,-0.0407 0.30803,0.0127 0.0534,0.0534 -0.0415,0.0914 -0.21093,0.0844 -0.18722,-0.008 -0.2253,-0.0458 -0.0971,-0.0971 z m -2.24993,-1.7678 c 0.11601,-0.0464 0.25462,-0.0407 0.30802,0.0127 0.0534,0.0534 -0.0415,0.0914 -0.21093,0.0844 -0.18722,-0.008 -0.2253,-0.0458 -0.0971,-0.0971 z m 1.59705,0.003 c 0.11049,-0.0446 0.29128,-0.0446 0.40177,0 0.11049,0.0446 0.0201,0.0811 -0.20088,0.0811 -0.22098,0 -0.31138,-0.0365 -0.20089,-0.0811 z m 26.71795,-9.75756 c 0,-0.0334 0.12656,-0.15992 0.28125,-0.28124 0.2549,-0.19989 0.26057,-0.19421 0.0607,0.0607 -0.20995,0.26769 -0.34193,0.35283 -0.34193,0.22055 z m 1.52573,-55.06267 c 0,-27.445164 0.0185,-38.672731 0.0412,-24.950149 0.0226,13.722579 0.0226,36.177719 0,49.900299 -0.0227,13.72258 -0.0412,2.49502 -0.0412,-24.95015 z m -169.569177,6.50874 c 4.18e-4,-0.88391 0.02741,-1.225 0.05997,-0.75799 0.03257,0.46701 0.03222,1.19021 -7.55e-4,1.6071 -0.03299,0.41689 -0.05964,0.0348 -0.05922,-0.84911 z m 1.928514,-1.28568 c 4.18e-4,-0.8839 0.02741,-1.225 0.05997,-0.75798 0.03257,0.46701 0.03223,1.1902 -7.55e-4,1.60709 -0.03299,0.41689 -0.05964,0.0348 -0.05922,-0.84911 z M 12.449983,97.923492 c 4.18e-4,-0.883902 0.02741,-1.224995 0.05997,-0.757983 0.03257,0.467012 0.03222,1.190205 -7.56e-4,1.607095 -0.03299,0.41689 -0.05964,0.03479 -0.05922,-0.849112 z m 1.928514,-1.285676 c 4.18e-4,-0.883902 0.02741,-1.224995 0.05997,-0.757983 0.03257,0.467012 0.03222,1.190205 -7.55e-4,1.607095 -0.03299,0.41689 -0.05964,0.03479 -0.05922,-0.849112 z M 152.98198,75.716154 c 0.11601,-0.04642 0.25462,-0.04072 0.30802,0.01268 0.0534,0.0534 -0.0415,0.09139 -0.21093,0.08441 -0.18722,-0.0077 -0.2253,-0.04579 -0.0971,-0.09709 z M 12.289274,66.745849 c 4.18e-4,-0.883902 0.02741,-1.224995 0.05997,-0.757983 0.03257,0.467012 0.03222,1.190205 -7.55e-4,1.607095 -0.03299,0.41689 -0.05964,0.03479 -0.05922,-0.849112 z m 1.928514,-1.285676 c 4.18e-4,-0.883902 0.02741,-1.224995 0.05997,-0.757983 0.03257,0.467012 0.03222,1.190205 -7.55e-4,1.607095 -0.03299,0.41689 -0.05964,0.03479 -0.05922,-0.849112 z M 205.40341,57.605085 c 0,-0.03337 0.12656,-0.15993 0.28124,-0.281241 0.2549,-0.199902 0.26057,-0.194218 0.0607,0.06068 -0.20995,0.267702 -0.34192,0.352835 -0.34192,0.220564 z m 0.78304,-5.363268 c -0.19989,-0.254895 -0.19422,-0.260579 0.0607,-0.06068 0.2677,0.209946 0.35284,0.341919 0.22056,0.341919 -0.0334,0 -0.15992,-0.126559 -0.28124,-0.281242 z M 28.258672,27.111016 c 0.109016,-0.109832 0.238693,-0.15921 0.288173,-0.10973 0.04948,0.04948 -0.03971,0.139344 -0.198207,0.199695 -0.229044,0.08721 -0.247503,0.06876 -0.08997,-0.08996 z"
         id="path6876" />
      <path
         style="fill:#333333;fill-opacity:1;stroke-width:0.16071"
         d="m 148.7874,194.58045 c -0.59997,-0.0829 -1.72092,-0.28841 -2.49099,-0.45662 -2.02756,-0.44287 -123.705069,-39.7553 -125.106142,-40.42016 -1.642962,-0.77966 -3.461964,-2.0023 -4.199319,-2.82257 -0.80519,-0.89573 -3.217194,-4.58123 -3.76999,-5.76047 l -0.427898,-0.9128 -0.101262,-10.84789 C 12.636109,127.3936 12.499099,103.13048 12.38734,79.4419 12.197568,39.217638 12.201998,36.302993 12.45438,35.331104 12.9549,33.403646 13.85187,32.22946 15.824859,30.918952 17.832837,29.585204 31.877256,22.229101 45.256385,15.503482 58.145669,9.0241053 58.206706,8.9979087 62.050529,8.2955476 c 1.50615,-0.2752109 2.532176,-0.3406346 5.544478,-0.3535394 3.884066,-0.01664 5.182155,0.1070553 8.126124,0.7743373 1.397994,0.3168704 120.683029,38.8189765 124.545919,40.2001835 0.65944,0.235785 1.99449,0.831342 2.96678,1.32346 2.24553,1.136559 3.98185,2.758023 4.59595,4.291939 l 0.38605,0.964257 0.0414,53.400335 c 0.0454,58.67207 0.11126,54.59752 -0.91572,56.6884 -1.21918,2.48223 -3.71792,5.73966 -5.27605,6.87806 -1.13399,0.82851 -30.5834,16.11333 -36.98544,19.19618 -4.9312,2.37456 -7.11579,2.92367 -11.98752,3.01309 -1.7678,0.0324 -3.70508,-0.009 -4.30506,-0.0918 z m 8.85022,-2.21483 c 0.82042,-0.17805 2.08601,-0.51942 2.81242,-0.75858 1.33501,-0.43954 12.68256,-6.09452 23.01652,-11.47013 16.58529,-8.62746 17.13229,-8.92238 18.0254,-9.71801 0.8261,-0.73595 2.53423,-2.81224 2.41319,-2.93328 -0.0299,-0.0299 -1.1011,0.51433 -2.38053,1.20937 -8.4129,4.57013 -23.10627,12.23888 -30.37215,15.85179 -5.96584,2.96649 -8.35172,3.89508 -11.71198,4.55835 -5.01818,0.99051 -10.29418,0.81116 -15.42919,-0.52449 -0.8403,-0.21857 -4.92634,-1.49261 -9.08009,-2.83121 -4.15375,-1.33859 -18.5448,-5.97744 -31.98011,-10.30853 C 89.515781,171.10979 68.651669,164.38428 56.586403,160.4953 20.998781,149.02441 19.274751,148.4608 18.056297,147.89941 c -0.640829,-0.29526 -1.165127,-0.4873 -1.165107,-0.42676 9.9e-5,0.30345 1.788374,2.42703 2.490961,2.95802 2.02229,1.52837 1.178396,1.24484 64.993001,21.83663 37.461218,12.08804 61.895808,19.8946 62.837418,20.0758 2.30654,0.44387 2.419,0.45156 5.79954,0.39692 2.39053,-0.0386 3.48764,-0.12746 4.62551,-0.3744 z m 0.51719,-3.70524 c 2.25507,-0.39081 5.2117,-1.23272 7.15158,-2.03646 2.66556,-1.10441 17.27243,-8.59328 30.77587,-15.77867 8.34604,-4.44105 8.70672,-4.65866 9.24568,-5.57831 0.46668,-0.79635 0.50685,-1.03668 0.11565,-0.6923 -0.85617,0.75373 -12.95385,7.21153 -13.6962,7.31109 -1.04807,0.14059 -2.0246,-0.6626 -2.33948,-1.92421 -0.0607,-0.24307 -0.13924,-0.44195 -0.17463,-0.44195 -0.0354,0 -1.64516,0.79105 -3.57731,1.75789 l -3.513,1.75787 -0.075,1.25544 c -0.0848,1.41978 -0.43128,2.2458 -1.27927,3.04941 -0.35134,0.33297 -3.78785,2.06709 -9.96186,5.02693 -8.6433,4.14362 -9.57022,4.55153 -11.16932,4.91543 -4.81197,1.09501 -10.71406,0.84351 -17.25229,-0.73515 -1.10488,-0.26676 -8.48144,-2.58709 -16.39237,-5.15625 C 48.732416,156.29338 20.850342,147.23152 19.169839,146.66641 c -1.287719,-0.43303 -2.3429,-0.90917 -3.017604,-1.36167 -1.01223,-0.67887 -1.031713,-0.68464 -0.800332,-0.2372 0.369123,0.7138 1.26054,1.40485 2.705199,2.09713 0.813466,0.38982 11.469851,3.90373 27.601054,9.10138 14.451803,4.65653 28.259382,9.10608 30.683508,9.8879 3.997034,1.28911 4.425588,1.39676 4.601685,1.15593 0.177628,-0.24291 0.336205,-0.21827 1.860168,0.28905 1.269536,0.42264 1.703699,0.64058 1.824469,0.91584 0.13068,0.29786 0.76505,0.55679 3.615964,1.47594 54.98726,17.72817 54.07354,17.43479 55.76843,17.90572 1.32077,0.36698 4.22919,0.8931 5.86589,1.06112 2.13235,0.2189 6.12613,0.0755 8.27654,-0.29717 z m -0.28316,-1.72351 c 0.86075,-0.13363 2.01786,-0.37365 2.57135,-0.53337 0.5535,-0.15971 4.7308,-2.08052 9.2829,-4.26847 4.55209,-2.18795 8.65384,-4.14771 9.11496,-4.35502 0.46114,-0.20732 1.12967,-0.64006 1.48565,-0.96165 1.2332,-1.11412 1.13118,3.73178 1.13118,-53.73533 0,-48.76663 -0.0151,-51.548102 -0.28124,-52.029541 -0.15468,-0.279749 -0.78748,-0.929727 -1.40621,-1.444399 -1.86299,-1.549665 -3.78519,-2.194885 -5.43645,-1.824831 -0.43734,0.09801 -2.81847,1.270173 -5.46377,2.689654 -6.63112,3.558306 -7.77765,4.120087 -9.71872,4.762015 -2.7887,0.922251 -4.12066,1.138322 -7.02309,1.139292 -4.42857,0.0014 -4.9908,-0.14082 -20.81189,-5.267561 C 124.64286,68.945159 97.703931,60.224595 71.452032,51.728628 45.200134,43.232661 23.345812,36.099589 22.886873,35.877359 21.689382,35.2975 20.504708,34.175955 20.173426,33.308504 c -0.396481,-1.03817 -0.132762,-1.837432 0.941755,-2.854209 l 0.818752,-0.774753 -1.758019,0.917751 c -2.427888,1.267449 -4.377361,2.594634 -4.98888,3.396388 -0.616846,0.80874 -1.096862,2.161953 -0.960135,2.706716 0.172817,0.688555 1.769508,2.082874 3.269338,2.854967 1.117562,0.575305 13.822745,4.721718 62.31269,20.336116 33.499893,10.787407 61.487463,19.763456 62.194583,19.946776 2.11888,0.549318 4.78507,0.957911 7.57284,1.160533 3.17454,0.230734 6.7831,0.01923 10.06208,-0.589749 4.25165,-0.789629 4.42453,-0.862935 15.99062,-6.780485 2.67219,-1.367175 4.93217,-2.440266 5.02217,-2.384644 0.09,0.05562 0.16262,0.18726 0.16138,0.292531 -0.002,0.198804 -12.1856,6.539371 -14.91577,7.76265 -1.89727,0.850093 -4.50988,1.554035 -7.50095,2.021057 -1.8604,0.290479 -2.93162,0.351301 -6.18732,0.351301 -4.38031,0 -6.89326,-0.286854 -10.33312,-1.179527 C 139.9728,79.99817 20.448735,41.547341 18.658958,40.853243 17.294703,40.324168 15.696245,39.372535 14.842107,38.580901 l -0.683015,-0.633033 0.0037,9.336641 c 0.0021,5.135153 0.108819,27.995015 0.23724,50.799693 0.128421,22.804678 0.235214,42.254468 0.237318,43.221758 l 0.0038,1.75871 0.871786,0.84439 c 0.946337,0.9166 2.152441,1.59032 3.78879,2.11637 0.574537,0.18471 28.128182,9.13377 61.230324,19.88681 38.10376,12.3778 61.03052,19.7484 62.48828,20.08904 5.52095,1.2901 10.53369,1.60587 14.85125,0.93559 z m 27.84388,-16.41113 3.45622,-1.72589 V 118.84428 68.888698 l -1.88834,0.997995 c -1.03858,0.548897 -2.62961,1.392202 -3.53561,1.874013 l -1.64727,0.876016 v 49.807458 c 0,27.3941 0.0357,49.80746 0.0794,49.80746 0.0437,0 1.63469,-0.77665 3.53561,-1.7259 z m 10.04597,-1.33686 c 8.35438,-4.45335 9.98017,-5.43243 10.40068,-6.26346 0.15928,-0.31477 0.20124,-11.20802 0.20312,-52.73731 l 0.002,-52.340599 -1.48656,0.930598 c -1.71408,1.073025 -9.18998,5.253286 -12.37823,6.921477 -1.86285,0.974701 -2.18338,1.096355 -2.27303,0.862725 -0.0574,-0.14959 -0.0478,-0.323264 0.0214,-0.385941 0.0692,-0.06268 1.24676,-0.712841 2.61681,-1.444808 3.30913,-1.767951 7.4093,-4.048568 10.34818,-5.755906 3.23169,-1.877455 3.52378,-2.323218 2.65702,-4.055057 -0.50684,-1.012743 -2.07257,-2.292613 -3.87608,-3.168444 -0.91087,-0.442339 -1.82028,-0.852927 -2.02093,-0.912419 l -0.36478,-0.108169 0.40496,0.596753 c 0.45662,0.672868 0.523,1.467553 0.17762,2.126799 -0.56671,1.081734 -1.43689,1.618293 -9.6283,5.936826 -2.29416,1.209485 -3.92802,2.169726 -4.07593,2.395476 -0.17486,0.266847 -0.21425,0.552844 -0.13498,0.98016 0.091,0.490541 0.40989,0.889384 1.70546,2.132902 0.87646,0.841244 1.61108,1.564437 1.6325,1.607095 0.0214,0.04266 0.0757,23.255889 0.12054,51.584952 0.0792,50.01463 0.0904,51.52504 0.38396,52.11599 0.29452,0.59281 0.89747,1.05943 1.38574,1.07243 0.13294,0.004 2.01324,-0.9379 4.17845,-2.09207 z M 154.25245,75.653202 c 1.90608,-0.212541 4.10416,-0.772516 5.94314,-1.514054 0.76568,-0.308745 4.04094,-1.972873 7.27835,-3.69806 6.51291,-3.470678 6.97359,-3.646643 8.75009,-3.34234 1.44956,0.2483 2.53368,0.792492 4.04232,2.029122 1.1829,0.969613 1.62553,1.557663 1.86345,2.475659 0.0319,0.122989 1.35032,-0.484621 3.50634,-1.61591 3.05514,-1.603068 3.46102,-1.861937 3.50507,-2.235481 0.0779,-0.660492 -0.33966,-1.278995 -1.66316,-2.463525 -1.36079,-1.217892 -1.84191,-1.989331 -1.84191,-2.953338 0,-0.972382 0.52705,-1.409332 3.69632,-3.0644 9.14946,-4.77808 10.44612,-5.611942 10.44612,-6.717809 0,-0.629097 -0.7837,-1.550176 -1.79166,-2.105728 l -0.69934,-0.385452 0.34151,0.386862 c 1.08356,1.227444 0.92343,2.544642 -0.44427,3.654313 -0.89674,0.727569 -36.64171,19.05018 -38.06905,19.513917 -2.7124,0.881253 -3.5157,0.992469 -7.14827,0.98967 -3.05329,-0.0023 -3.57108,-0.0442 -5.43358,-0.439147 C 145.1023,73.863922 126.91708,68.049801 86.830338,55.079266 55.12564,44.820838 28.28144,36.136111 27.176562,35.779872 23.64244,34.640391 22.215709,33.627558 22.074496,32.157929 c -0.0675,-0.702482 -0.01829,-0.853188 0.500595,-1.532958 l 0.575454,-0.753885 -0.763708,0.469913 c -1.391358,0.856112 -1.881204,1.668277 -1.61321,2.674707 0.163886,0.615459 1.284553,1.673343 2.338339,2.207337 0.432127,0.218975 23.056507,7.60653 50.276397,16.416787 27.219897,8.810257 52.130367,16.874287 55.356607,17.920067 16.83941,5.458456 17.90612,5.768838 20.90092,6.081583 1.95525,0.204185 2.85989,0.206488 4.60656,0.01172 z m 28.18678,-5.098407 c -0.13462,-0.251512 0.0882,-0.417718 1.72203,-1.284333 1.03216,-0.547489 2.46956,-1.323631 3.19423,-1.724758 1.23769,-0.685111 1.32741,-0.710928 1.47997,-0.425847 0.14532,0.271503 -0.0867,0.43952 -2.20146,1.594639 -3.90561,2.133251 -4.01282,2.180286 -4.19477,1.840299 z m -25.7308,3.041028 c 0.75131,-0.172831 1.90842,-0.510432 2.57135,-0.750224 0.66293,-0.23979 8.93935,-4.422302 18.39208,-9.294471 13.09029,-6.747064 17.35174,-9.014721 17.87893,-9.513958 0.639,-0.605105 0.69218,-0.718226 0.69218,-1.472277 0,-0.723853 -0.0595,-0.867039 -0.52231,-1.258172 -0.28727,-0.242749 -0.88819,-0.603762 -1.33537,-0.802249 C 193.9381,50.305984 186.0553,47.719227 176.86796,44.756121 138.85492,32.496153 76.328063,12.342712 74.907287,11.892512 70.55104,10.512155 65.667051,10.399018 62.217768,11.59856 c -0.607798,0.211371 -9.228869,4.591104 -19.157936,9.732739 -13.292256,6.883219 -18.190581,9.494399 -18.575154,9.901972 -0.992142,1.051477 -0.48574,2.332685 1.274576,3.224705 0.429663,0.217726 10.922469,3.678595 23.317346,7.690822 12.394878,4.012227 38.77182,12.550496 58.61543,18.973934 19.8436,6.423436 36.76631,11.855602 37.60602,12.07148 2.55942,0.657993 4.46656,0.860394 7.39264,0.784569 1.84473,-0.0478 3.06742,-0.164346 4.01774,-0.382958 z m 40.70521,-20.735964 c 0.15164,-0.256711 0.27571,-0.625224 0.27571,-0.818916 0,-0.877683 -1.29638,-1.89102 -3.38137,-2.643121 C 193.65979,49.164005 179.45654,44.569343 162.74519,39.18746 146.03385,33.805579 119.09035,25.127782 102.87074,19.903468 84.577136,14.011122 72.831395,10.306561 71.934161,10.146189 68.893305,9.6026678 64.57317,9.875144 61.68379,10.792693 60.508912,11.165786 25.303707,29.387676 23.842049,30.379231 c -1.118432,0.758718 -1.445264,1.700252 -0.832734,2.398933 l 0.332619,0.3794 -0.09623,-0.448381 c -0.117856,-0.549151 0.346865,-1.649532 0.918473,-2.174785 0.486217,-0.44679 35.938446,-18.867657 37.323868,-19.393366 1.990441,-0.75529 3.355457,-0.965045 6.26767,-0.963123 2.887057,0.0019 4.210954,0.170797 6.508736,0.83033 1.193658,0.342616 17.188865,5.49239 101.809469,32.778304 9.72293,3.135157 18.14812,5.917686 18.72266,6.183395 1.69343,0.783174 2.37861,1.708814 2.14171,2.893309 -0.11923,0.596208 0.12217,0.594487 0.47535,-0.0034 z M 29.105076,26.72093 c 0,-0.04419 -0.216958,0.03184 -0.482128,0.168964 -0.265171,0.137125 -0.482129,0.285478 -0.482129,0.329673 0,0.04419 0.216958,-0.03184 0.482129,-0.168964 0.26517,-0.137125 0.482128,-0.285478 0.482128,-0.329673 z m 10.044345,-5.179641 c 4.684682,-2.434225 8.589923,-4.493895 8.678313,-4.577045 0.08839,-0.08315 -0.707122,0.281041 -1.767804,0.809314 -1.060683,0.528271 -2.253951,1.014741 -2.651707,1.081043 -1.066314,0.177744 -6.717397,3.03566 -7.312283,3.698034 -0.288859,0.32163 -1.69006,1.193725 -3.495432,2.17553 -1.657317,0.901289 -3.013303,1.667844 -3.013303,1.703458 0,0.08212 -0.463438,0.319132 9.562216,-4.890334 z"
         id="path6874" />
    </g>
  </g>
</svg>
