<?xml version="1.0" encoding="UTF-8" standalone="no"?>
<svg
   xmlns:dc="http://purl.org/dc/elements/1.1/"
   xmlns:cc="http://creativecommons.org/ns#"
   xmlns:rdf="http://www.w3.org/1999/02/22-rdf-syntax-ns#"
   xmlns:svg="http://www.w3.org/2000/svg"
   xmlns="http://www.w3.org/2000/svg"
   xmlns:xlink="http://www.w3.org/1999/xlink"
   xmlns:sodipodi="http://sodipodi.sourceforge.net/DTD/sodipodi-0.dtd"
   xmlns:inkscape="http://www.inkscape.org/namespaces/inkscape"
   id="svg"
   width="330.98785"
   height="475.82181"
   viewBox="0 0 330.98785 475.82179"
   version="1.1"
   sodipodi:docname="sub_v4.svg"
   inkscape:version="0.92.4 (5da689c313, 2019-01-14)">
  <metadata
     id="metadata9">
    <rdf:RDF>
      <cc:Work
         rdf:about="">
        <dc:format>image/svg+xml</dc:format>
        <dc:type
           rdf:resource="http://purl.org/dc/dcmitype/StillImage" />
        <dc:title></dc:title>
      </cc:Work>
    </rdf:RDF>
  </metadata>
  <defs
     id="defs7">
    <linearGradient
       inkscape:collect="always"
       id="linearGradient4622">
      <stop
         style="stop-color:#646464;stop-opacity:0.75"
         offset="0"
         id="stop4618" />
      <stop
         style="stop-color:#000000;stop-opacity:1"
         offset="1"
         id="stop4620" />
    </linearGradient>
    <linearGradient
       inkscape:collect="always"
       id="linearGradient4616">
      <stop
         style="stop-color:#000000;stop-opacity:1;"
         offset="0"
         id="stop4612" />
      <stop
         style="stop-color:#323232;stop-opacity:0.75"
         offset="1"
         id="stop4614" />
    </linearGradient>
    <linearGradient
       inkscape:collect="always"
       id="linearGradient4596">
      <stop
         style="stop-color:#969696;stop-opacity:1"
         offset="0"
         id="stop4592" />
      <stop
         style="stop-color:#646464;stop-opacity:1"
         offset="1"
         id="stop4594" />
    </linearGradient>
    <linearGradient
       inkscape:collect="always"
       id="linearGradient4588">
      <stop
         style="stop-color:#000000;stop-opacity:1"
         offset="0"
         id="stop4584" />
      <stop
         style="stop-color:#c8c8c8;stop-opacity:1"
         offset="1"
         id="stop4586" />
    </linearGradient>
    <linearGradient
       inkscape:collect="always"
       id="linearGradient4580">
      <stop
         style="stop-color:#323232;stop-opacity:1;"
         offset="0"
         id="stop4576" />
      <stop
         style="stop-color:#323232;stop-opacity:0;"
         offset="1"
         id="stop4578" />
    </linearGradient>
    <linearGradient
       inkscape:collect="always"
       id="linearGradient4566">
      <stop
         id="stop4564"
         offset="0"
         style="stop-color:#646464;stop-opacity:0.75" />
      <stop
         id="stop4562"
         offset="1"
         style="stop-color:#323232;stop-opacity:1;" />
    </linearGradient>
    <radialGradient
       inkscape:collect="always"
       xlink:href="#linearGradient4566"
       id="radialGradient4572"
       cx="319.66406"
       cy="252.16737"
       fx="319.66406"
       fy="252.16737"
       r="78.445862"
       gradientTransform="matrix(-1.4110459,0.28655873,-0.55395923,-2.7277546,860.49966,789.14944)"
       gradientUnits="userSpaceOnUse" />
    <linearGradient
       inkscape:collect="always"
       xlink:href="#linearGradient4580"
       id="linearGradient4582"
       x1="51.877892"
       y1="53.313271"
       x2="379.36124"
       y2="53.313271"
       gradientUnits="userSpaceOnUse"
       gradientTransform="translate(-49.915512,-31.452967)" />
    <linearGradient
       inkscape:collect="always"
       xlink:href="#linearGradient4596"
       id="linearGradient4598"
       x1="126.92331"
       y1="64.184258"
       x2="314.673"
       y2="33.889"
       gradientUnits="userSpaceOnUse"
       gradientTransform="translate(-49.915512,-31.452967)" />
    <linearGradient
       inkscape:collect="always"
       xlink:href="#linearGradient4588"
       id="linearGradient4602"
       x1="50.394203"
       y1="62.427795"
       x2="378.65515"
       y2="62.427795"
       gradientUnits="userSpaceOnUse"
       gradientTransform="translate(-49.915512,-31.452967)" />
    <linearGradient
       inkscape:collect="always"
       xlink:href="#linearGradient4616"
       id="linearGradient4610"
       x1="75.964691"
       y1="475.56128"
       x2="120.92339"
       y2="65.506989"
       gradientUnits="userSpaceOnUse"
       gradientTransform="translate(-49.915512,-31.452967)" />
    <linearGradient
       inkscape:collect="always"
       xlink:href="#linearGradient4622"
       id="linearGradient4624"
       x1="98.508064"
       y1="288.41562"
       x2="220.61082"
       y2="288.41562"
       gradientUnits="userSpaceOnUse"
       gradientTransform="translate(-49.915512,-31.452967)" />
  </defs>
  <sodipodi:namedview
     pagecolor="#ffffff"
     bordercolor="#666666"
     borderopacity="1"
     objecttolerance="10"
     gridtolerance="10"
     guidetolerance="10"
     inkscape:pageopacity="0"
     inkscape:pageshadow="2"
     inkscape:window-width="3440"
     inkscape:window-height="1377"
     id="namedview5"
     showgrid="false"
     inkscape:zoom="1.8244388"
     inkscape:cx="-70.085759"
     inkscape:cy="276.2916"
     inkscape:window-x="1672"
     inkscape:window-y="-8"
     inkscape:window-maximized="1"
     inkscape:current-layer="svg"
     fit-margin-top="0"
     fit-margin-left="0"
     fit-margin-right="0"
     fit-margin-bottom="0" />
  <g
     id="svgg"
     transform="translate(-49.915512,-31.452967)">
    <path
       id="path0"
       d="m 237.419,32.145 c -3.282,0.422 -31.443,4.039 -62.58,8.037 -69.84,8.968 -105.671,13.755 -114.56,15.305 -3.566,0.621 -8.125,4.193 -9.674,7.578 -1.017,2.222 -0.876,9.296 0.206,10.298 l 0.81,0.751 -0.811,0.531 -0.811,0.532 0.177,6.041 c 0.539,18.374 1.17,85.341 1.438,152.492 0.39,97.912 1.109,148.045 3.076,214.516 l 0.496,16.774 1.52,1.564 c 5.439,5.596 35.332,26.975 39.634,28.346 2.47,0.787 111.618,12.637 113.84,12.36 2.955,-0.37 3.731,-1.03 77.802,-66.262 l 72.611,-63.946 0.196,-2.321 c 0.63,-7.472 18.862,-323.999 18.694,-324.552 -0.113,-0.37 -0.407,-0.905 -0.655,-1.188 -0.391,-0.446 -0.346,-0.705 0.336,-1.935 2.894,-5.221 2.151,-9.958 -2.037,-13 -2.555,-1.856 0.091,-1.758 -57.127,-2.111 -29.363,-0.182 -58.613,-0.386 -65,-0.454 -10.771,-0.115 -12.046,-0.068 -17.581,0.644 m 77.254,1.744 c 29.804,0.192 54.218,0.378 54.253,0.413 0.21,0.21 -150.552,26.456 -154.215,26.848 -13.861,1.479 -36.502,2.056 -57.614,1.466 -23.052,-0.644 -43.804,-1.842 -65,-3.753 C 83.787,58.114 69.309,56.557 68.548,56.33 67.646,56.061 187.53,40.318 237.691,34.118 c 5.005,-0.618 7.216,-0.719 14.355,-0.654 4.641,0.042 32.823,0.233 62.627,0.425 m 61.101,1.608 c 2.072,1.501 4.436,6.116 3.132,6.116 -0.069,0 -35.18,6.309 -78.025,14.02 -93.184,16.77 -82.274,14.978 -97.655,16.044 -7.857,0.545 -47.301,0.542 -59.355,-0.004 C 107.358,70.019 71.922,67.287 54.758,64.804 51.92,64.393 51.935,64.413 53.177,62.7 c 3.478,-4.802 7.906,-6.415 14.969,-5.454 37.389,5.087 101.81,7.879 134.435,5.826 14.635,-0.921 9.446,-0.068 130.484,-21.44 45.75,-8.078 40.973,-7.392 42.709,-6.135 m 2.765,7.809 c -0.325,1.101 -1.668,3.88 -2.18,4.511 -0.825,1.015 -153.901,32.644 -161.889,33.449 -30.909,3.118 -99.96,0.392 -150.847,-5.954 l -8.797,-1.097 -1.445,-1.208 -1.446,-1.208 v -3.158 c 0,-3.582 -0.23,-3.368 3.065,-2.845 13.803,2.192 53.502,5.259 87.903,6.79 21.568,0.961 52.748,0.725 67.581,-0.509 8.582,-0.715 6.504,-0.359 90.161,-15.448 90.317,-16.291 78.156,-14.211 77.894,-13.323 m -1.509,6.784 0.691,0.736 -9.164,157.222 -9.165,157.223 -0.744,0.737 c -1.04,1.03 -137.501,121.703 -137.545,121.631 -0.141,-0.229 10.007,-407.849 10.157,-408.026 0.177,-0.208 143.427,-30.16 144.571,-30.228 0.279,-0.017 0.819,0.301 1.199,0.705 m -214.772,1.859 c -9.314,1.222 -17.389,2.227 -17.944,2.233 -1.113,0.013 -2.146,0.858 -1.366,1.118 0.241,0.081 7.262,0.531 15.6,1 l 15.162,0.852 16.451,-2.301 c 17.875,-2.501 17.372,-2.414 17.179,-2.991 -0.124,-0.372 -3.452,-0.629 -25.405,-1.965 -2.218,-0.136 -5.972,0.256 -19.677,2.054 m 29.94,-0.449 c 5.024,0.312 8.87,0.665 8.548,0.784 -2.118,0.783 -7.551,0.983 -13.972,0.515 l -6.613,-0.482 -11.613,1.469 c -10.767,1.362 -11.895,1.45 -15.483,1.198 -2.13,-0.149 -3.509,-0.333 -3.065,-0.41 5.521,-0.953 29.61,-3.871 31.129,-3.77 1.065,0.071 6.046,0.384 11.069,0.696 m -5.101,2.333 c 3.847,0.455 -12.676,2.384 -18.129,2.117 -2.537,-0.125 -4.758,-0.313 -4.936,-0.418 -0.177,-0.106 3.162,-0.648 7.42,-1.204 7.727,-1.011 10.532,-1.099 15.645,-0.495 M 63.548,76.271 c 20.732,2.591 53.153,5.217 80.238,6.497 4.457,0.211 4.589,0.238 4.455,0.902 -0.075,0.377 -0.224,3.733 -0.329,7.459 -1.924,67.795 -11.644,172.061 -23.716,254.388 -8.399,57.286 -19.451,113.866 -26.661,136.493 l -0.486,1.525 -1.661,-0.842 C 90.221,480.075 66.862,463.44 59.783,457.338 l -3.009,-2.594 -10e-4,-1.807 C 56.772,451.942 56.627,446.556 56.452,440.968 56.07,428.809 55.293,395.176 54.843,371.29 54.094,331.548 53.837,303.754 53.551,231.53 53.297,167.642 52.636,95.87 52.156,80.115 L 52.037,76.198 53.035,75.7 c 1.294,-0.646 0.376,-0.696 10.513,0.571 m 166.439,7.519 c -0.007,2.262 -2.234,94.253 -4.949,204.423 l -4.936,200.31 -2.067,1.916 c -3.367,3.12 -5.616,4.64 -7.476,5.055 -1.421,0.316 -111.856,-11.233 -112.408,-11.756 -0.041,-0.039 0.362,-1.585 0.895,-3.436 21.935,-76.104 46.018,-264.236 49.867,-389.558 0.121,-3.937 0.306,-7.288 0.411,-7.447 0.111,-0.166 3.044,-0.183 6.966,-0.04 21.713,0.793 53.174,0.039 62.81,-1.505 l 1.197,-0.192 -0.183,5.914 c -2.458,79.245 -9.937,407.941 -9.267,407.271 0.117,-0.117 2.496,-93.125 5.287,-206.685 2.791,-113.56 5.129,-206.513 5.196,-206.561 0.105,-0.076 7.768,-1.704 8.428,-1.79 0.133,-0.017 0.236,1.819 0.229,4.081 M 129.291,95.401 c -0.391,0.451 -0.641,3.107 -1.225,12.986 -0.716,12.122 -0.752,12.439 -1.496,13.244 -0.964,1.04 -1.008,2.641 -0.098,3.551 0.569,0.569 0.635,0.91 0.456,2.344 -0.31,2.485 0.029,2.677 5.099,2.884 4.831,0.197 5.07,0.086 5.07,-2.344 0,-1.199 0.189,-1.789 0.806,-2.523 0.951,-1.13 1.039,-2.495 0.222,-3.425 -0.566,-0.644 -0.561,-1.036 0.135,-11.634 0.92,-14.002 0.928,-14.575 0.208,-14.945 -1.251,-0.642 -8.644,-0.754 -9.177,-0.138 M 137.339,96 c 1.28,0.193 1.256,-1.078 0.266,14.161 -0.739,11.375 -0.742,11.627 -0.148,12.279 0.961,1.054 0.499,3.044 -0.706,3.044 -0.165,0 -0.299,0.862 -0.299,1.916 0,2.435 -0.052,2.462 -4.355,2.322 -4.646,-0.15 -4.763,-0.219 -4.492,-2.612 0.193,-1.706 0.148,-1.92 -0.47,-2.251 -0.945,-0.505 -0.913,-2.049 0.057,-2.819 0.662,-0.526 2.234,-18.519 2.17,-24.84 -0.017,-1.645 2.52,-2.027 7.977,-1.2 m -6.048,1.579 c -0.583,1.09 -0.543,2.662 0.083,3.288 0.47,0.47 0.456,0.592 -0.16,1.426 -0.794,1.073 -0.834,3.008 -0.08,3.841 0.462,0.511 0.449,0.573 -0.153,0.73 -0.685,0.179 -0.661,0.03 -0.787,4.91 -0.03,1.178 0.045,1.299 0.854,1.393 1.411,0.162 1.3,1.912 -0.131,2.054 -2.095,0.209 -1.545,1.429 0.752,1.669 3.602,0.377 3.815,0.335 3.815,-0.761 0,-0.86 -0.108,-0.968 -0.968,-0.968 -0.86,0 -0.968,-0.107 -0.968,-0.967 0,-0.891 0.09,-0.968 1.129,-0.968 h 1.129 v -2.742 c 0,-1.508 0,-2.851 0,-2.984 0,-1.051 -1.398,-0.093 -1.514,1.038 -0.183,1.788 -0.421,1.854 -0.421,0.116 0,-1.245 0.118,-1.507 0.823,-1.829 1.294,-0.589 1.887,-2.343 1.282,-3.792 -0.43,-1.028 -0.43,-1.238 -0.005,-1.846 0.701,-1 0.614,-2.989 -0.165,-3.768 -0.765,-0.766 -0.871,-0.775 -1.999,-0.187 -0.749,0.391 -0.924,0.391 -1.249,-0.002 -0.532,-0.64 -0.773,-0.573 -1.267,0.349 m 3.208,2.536 c -0.311,0.286 -0.354,0.236 -0.192,-0.222 0.115,-0.325 0.226,-0.761 0.247,-0.968 0.02,-0.207 0.106,-0.107 0.191,0.222 0.085,0.329 -0.026,0.765 -0.246,0.968 m -0.37,3.175 c 0.917,0.918 0.02,2.428 -1.21,2.037 -1.089,-0.345 -0.688,-2.424 0.468,-2.424 0.195,0 0.529,0.174 0.742,0.387 m -1.962,5.657 c -0.074,0.491 -0.137,0.166 -0.139,-0.721 -0.003,-0.887 0.058,-1.288 0.135,-0.892 0.076,0.397 0.078,1.123 0.004,1.613 m 2.272,3.533 c -0.308,0.08 -0.889,0.083 -1.29,0.006 -0.401,-0.077 -0.149,-0.143 0.561,-0.147 0.709,-0.003 1.038,0.06 0.729,0.141 m -3.701,6.775 c -0.117,0.304 -0.041,0.601 0.172,0.672 0.687,0.229 0.398,0.673 -0.507,0.777 -0.548,0.063 -1.008,0.38 -1.205,0.828 -0.175,0.399 -0.546,0.726 -0.823,0.726 -1.4,0 -1.767,2.049 -0.472,2.639 0.444,0.202 0.807,0.49 0.807,0.639 0,0.548 1.291,1.54 1.767,1.358 0.663,-0.255 0.623,0.196 -0.062,0.697 -0.866,0.633 0.014,1.441 1.57,1.441 1.237,0 2.212,-0.913 1.299,-1.217 -0.688,-0.229 -0.398,-0.673 0.506,-0.777 0.549,-0.064 1.009,-0.38 1.206,-0.828 0.175,-0.4 0.556,-0.726 0.847,-0.726 1.331,0 1.669,-2.166 0.423,-2.714 -0.368,-0.161 -0.905,-0.706 -1.194,-1.209 -0.308,-0.537 -0.799,-0.916 -1.186,-0.916 -0.363,0 -0.66,-0.154 -0.66,-0.341 0,-0.188 0.135,-0.259 0.3,-0.156 0.492,0.304 0.755,-0.461 0.333,-0.969 -0.561,-0.676 -2.853,-0.621 -3.121,0.076 m -0.228,3.971 c 0.559,0 0.78,0.179 0.78,0.63 0,0.589 -2.904,0.675 -3.548,0.105 -0.293,-0.261 1.103,-1.075 1.549,-0.904 0.242,0.093 0.79,0.169 1.219,0.169 m 5.109,0.196 c 1.228,0.471 0.508,1.094 -1.264,1.094 -1.684,0 -2.247,-0.388 -1.559,-1.075 0.268,-0.269 2.139,-0.282 2.823,-0.019 m -3.442,2.616 c -0.487,0.073 -1.286,0.073 -1.774,0 -0.488,-0.074 -0.088,-0.135 0.887,-0.135 0.976,0 1.375,0.061 0.887,0.135 m 226.859,245.356 c -0.163,2.434 -0.372,4.547 -0.463,4.695 -0.513,0.83 -144.654,127.447 -145.917,128.177 -0.836,0.483 -2.102,0.964 -2.814,1.068 -1.773,0.259 -110.791,-11.635 -112.855,-12.312 -3.623,-1.189 -28.61,-18.775 -36.699,-25.827 l -3.098,-2.702 -0.179,-4.101 c -0.098,-2.256 -0.155,-4.125 -0.127,-4.154 0.028,-0.029 1.14,0.886 2.471,2.034 6.348,5.474 30.662,22.817 35.324,25.195 2.277,1.161 3.011,1.253 58.869,7.346 57.207,6.239 56.582,6.187 59.257,4.93 1.695,-0.797 -4.866,4.954 77.518,-67.944 37.879,-33.518 68.902,-60.917 68.94,-60.887 0.039,0.031 -0.064,2.047 -0.227,4.482"
       inkscape:connector-curvature="0"
       style="fill:#000000;fill-rule:evenodd;stroke:none" />
  </g>
  <path
     style="opacity:1;fill:url(#linearGradient4624);fill-opacity:1;stroke:none;stroke-width:1.46485019;stroke-linecap:round;stroke-linejoin:miter;stroke-miterlimit:4;stroke-dasharray:none;stroke-dashoffset:0;stroke-opacity:1"
     d="m 168.03074,50.303457 c -22.67596,1.872357 -62.91559,1.462262 -68.714312,1.267188 -0.84454,8.864867 -0.49245,18.517058 -1.24664,27.803738 -4.61154,92.396097 -14.62427,184.527037 -29.48548,275.826327 -5.36291,32.2629 -12.00871,65.63654 -20.539872,97.20771 6.406882,1.09287 5.446332,0.7579 9.780272,1.14405 33.52308,3.57194 67.032592,7.42982 100.605982,10.4403 1.32178,0.5298 5.8939,0.002 4.06674,-1.68252 -1.60647,-0.0543 -0.75991,-4.63025 -1.25018,-5.94176 1.16554,-90.18905 3.70226,-180.35821 5.70716,-270.5326 1.19414,-45.18147 1.98471,-90.377187 3.74091,-135.541517 -0.62065,-1.132442 -1.78993,0.03609 -2.66458,0.0091 z"
     id="path4542"
     inkscape:connector-curvature="0"
     sodipodi:nodetypes="ccccccccccccc" />
  <path
     style="opacity:1;fill:url(#linearGradient4610);fill-opacity:1;stroke:none;stroke-width:1.46485019;stroke-linecap:round;stroke-linejoin:miter;stroke-miterlimit:4;stroke-dasharray:none;stroke-dashoffset:0;stroke-opacity:1"
     d="m 3.5596717,43.785839 c -3.47618396,-0.06181 -1.497983,4.091525 -1.374286,7.651566 1.918003,117.610345 0.890178,235.265765 4.128352,352.854705 0.352832,6.56303 0.05857,12.72246 0.407722,19.27298 6.1908143,5.1142 12.8697893,10.23446 19.6959483,15.11492 6.826159,4.88046 13.823725,9.59378 20.700169,13.65186 0.575343,-1.3955 1.035502,-2.91281 1.60633,-4.39274 0.570828,-1.47992 0.985866,-2.92246 1.277178,-4.28948 13.351393,-51.71719 20.846923,-104.94373 28.207863,-157.78837 10.04604,-76.91065 17.59811,-156.59504 20.17033,-234.137724 -1.8724,-0.403351 -2.17408,-0.383332 -7.01045,-0.546324 C 63.084308,49.555253 35.154048,46.773879 6.9706347,43.91604 6.1085787,43.881348 4.4231027,43.764823 3.5596717,43.785839 Z M 82.046628,63.426502 c 2.87566,0.583716 8.36178,-0.647212 6.78167,3.920618 -0.0307,8.260383 -1.47639,16.621183 -0.40485,24.806863 -0.75845,3.32849 -1.0896,8.292157 -5.77275,6.67053 -2.57794,0.20698 -6.39295,-0.0348 -5.84542,-3.70619 -0.0955,-9.35733 2.01901,-18.6317 2.26035,-28.006831 0.16414,-1.762927 0.66885,-4.040149 2.981,-3.68499 z"
     id="path4544"
     inkscape:connector-curvature="0"
     sodipodi:nodetypes="ccccscsccccccccccccc" />
  <path
     style="opacity:1;fill:#323232;fill-opacity:1;stroke:none;stroke-width:1.46485019;stroke-linecap:round;stroke-linejoin:miter;stroke-miterlimit:4;stroke-dasharray:none;stroke-dashoffset:0;stroke-opacity:1"
     d="m 179.93958,48.252035 c -2.96517,0.532029 -6.18002,1.15222 -8.60991,1.801618 -3.00665,134.635997 -7.02211,272.893827 -10.235,407.522897 -0.1711,4.40327 0.31715,4.54885 1.86829,5.72354 3.42756,-2.5974 5.6355,-4.60393 7.22353,-6.23006 3.05004,-131.34937 7.19971,-268.11405 9.81433,-399.472291 3.9e-4,-3.480181 0.18483,-5.876136 -0.0612,-9.345704 z"
     id="path4546"
     inkscape:connector-curvature="0"
     sodipodi:nodetypes="cccccccc" />
  <path
     style="opacity:1;fill:url(#radialGradient4572);fill-opacity:1;stroke:none;stroke-width:1.46485019;stroke-linecap:round;stroke-linejoin:miter;stroke-miterlimit:4;stroke-dasharray:none;stroke-dashoffset:0;stroke-opacity:1"
     d="m 324.32336,18.348205 c -22.59015,4.299255 -43.52375,8.96669 -65.60966,13.479712 -25.7287,5.379588 -51.72487,10.82705 -77.42214,16.313599 -0.74199,14.405957 -0.55609,29.301947 -1.17062,43.943107 -3.05372,119.902097 -6.04397,239.813567 -8.88363,359.716187 -0.0869,2.12932 -0.12836,2.36097 -0.0263,4.51898 43.21024,-37.61488 89.14454,-78.02151 131.69417,-116.38066 3.46522,-3.12978 3.58991,-3.09685 6.57131,-6.1211 5.93213,-100.69509 13.25497,-206.37514 18.19383,-307.124661 -0.50576,-2.484122 1.4503,-6.27199 -0.55595,-8.056336 -0.48216,-0.116505 -0.75636,-0.676403 -0.75636,-0.676403 z"
     id="path4548"
     inkscape:connector-curvature="0"
     sodipodi:nodetypes="cccccccccccc" />
  <path
     style="opacity:1;fill:url(#linearGradient4602);fill-opacity:1;stroke:none;stroke-width:1.46485019;stroke-linecap:round;stroke-linejoin:miter;stroke-miterlimit:4;stroke-dasharray:none;stroke-dashoffset:0;stroke-opacity:1"
     d="M 328.1552,11.094801 C 275.6236,20.660415 222.95939,30.255408 170.32527,39.273218 140.4602,42.746852 110.24046,41.420835 80.248998,40.296984 54.413778,38.998406 3.0465697,33.776682 1.7670217,34.032879 c -1.82384096,2.714111 -2.17159896,8.772131 2.047239,8.729154 31.7051313,5.050172 66.2981373,6.347498 98.3285993,7.922403 20.73007,0.546495 39.03361,1.029942 62.67675,-0.815486 52.34555,-9.21724 104.30612,-20.524871 156.28565,-31.593302 8.31913,-1.893179 6.82501,-1.358494 7.47835,-6.23636 0.3064,-0.362306 0.16044,-1.057463 -0.42841,-0.944487 z"
     id="path4554"
     inkscape:connector-curvature="0"
     sodipodi:nodetypes="cccccccccc" />
  <path
     style="opacity:1;fill:url(#linearGradient4582);fill-opacity:1;stroke:none;stroke-width:1.46485019;stroke-linecap:round;stroke-linejoin:miter;stroke-miterlimit:4;stroke-dasharray:none;stroke-dashoffset:0;stroke-opacity:1"
     d="M 323.21362,3.0692747 C 270.32075,10.833025 217.89818,22.423082 165.05651,30.338089 127.94827,33.613021 90.479708,31.662985 53.347958,29.145688 39.665369,28.519703 26.129185,25.07182 12.433019,25.126909 8.6954937,25.478076 3.3015337,29.37064 1.9623807,32.951224 c 4.069277,0.713676 6.224521,0.910055 10.2008313,1.459027 41.241726,4.037423 82.687726,7.185836 124.155778,6.196499 18.86834,0.374707 36.46094,-1.70676 55.75064,-5.776006 45.63222,-8.235472 91.61715,-16.263138 137.19834,-24.757869 0.69628,-2.1357573 -0.73751,-5.9259363 -2.82812,-6.9008863 0,0 -2.53486,-0.103533 -3.22623,-0.102714 z"
     id="path4556"
     inkscape:connector-curvature="0"
     sodipodi:nodetypes="ccccccccccc" />
  <path
     style="opacity:0.75;fill:url(#linearGradient4598);fill-opacity:1;stroke:none;stroke-width:1.46485019;stroke-linecap:round;stroke-linejoin:miter;stroke-miterlimit:4;stroke-dasharray:none;stroke-dashoffset:0;stroke-opacity:1"
     d="m 192.7341,1.7612097 c -27.25938,2.237581 -45.24293,6.31956 -74.20677,9.6577193 -29.398362,4.081264 -59.355982,6.824018 -88.667865,11.449174 -1.59503,-0.319504 -14.767714,1.616102 -12.209753,2.127062 25.747202,2.978576 62.782336,5.618722 88.698938,6.186137 19.66228,0.269493 39.30977,0.751692 58.74122,-1.411539 C 213.03426,21.83196 270.44205,11.586795 318.37045,3.0828997 318.98997,0.9421117 308.61747,2.6128777 303.54034,2.3719587 270.72253,1.5675837 225.37416,1.7077217 192.7341,1.7612097 Z M 131.79854,18.767574 c 8.32087,0.199505 16.84761,0.771097 24.98646,1.619942 -20.75377,4.664189 -42.70519,6.118572 -63.597112,2.926493 12.804872,-1.888873 25.657442,-4.074657 38.610652,-4.546435 z"
     id="path4558"
     inkscape:connector-curvature="0"
     sodipodi:nodetypes="ccccccccccccc" />
  <path
     style="opacity:1;fill:#323232;fill-opacity:1;stroke:none;stroke-width:1.46485019;stroke-linecap:round;stroke-linejoin:miter;stroke-miterlimit:4;stroke-dasharray:none;stroke-dashoffset:0;stroke-opacity:1"
     d="m 309.44714,335.33909 c -48.10151,41.73908 -96.78967,85.92456 -144.85007,127.70746 -5.15388,3.5072 -11.85951,0.63424 -17.60079,0.77471 C 114.7,460.34516 79.154948,456.70491 46.99646,452.35609 37.931171,448.42761 32.960845,443.3459 24.662826,438.23569 18.801773,434.35825 12.838229,429.4497 6.9365267,424.68898 c -0.16219,4.45779 0.213304,5.09954 0.337961,8.35105 10.1350183,9.49349 27.1357203,21.46401 39.5725203,28.64629 11.69284,1.93339 22.66145,2.82392 34.7146,4.00161 26.049402,2.8459 52.762272,6.15756 79.084152,8.46889 4.6187,-2.57658 9.85935,-7.25834 14.81027,-11.93541 44.15811,-38.72428 89.61776,-78.44009 133.35071,-117.63351 0.31375,-4.64687 0.31375,-4.64687 0.6404,-9.24881 z"
     id="path4560"
     inkscape:connector-curvature="0"
     sodipodi:nodetypes="ccccccccccccc" />
  <path
     style="opacity:1;fill:#646464;fill-opacity:1;stroke:none;stroke-width:0.36621255;stroke-linecap:round;stroke-linejoin:miter;stroke-miterlimit:4;stroke-dasharray:none;stroke-dashoffset:0;stroke-opacity:1"
     d="m 130.83492,19.341317 c -9.507,0.886208 -18.62896,1.638531 -27.9158,2.979817 -1.99812,0.323671 -3.719152,0.296808 -2.82772,0.921196 3.37024,0.531688 8.62666,0.57631 11.95262,0.270389 6.09296,-0.669752 12.17156,-1.598569 18.26386,-2.184064 6.39473,0.36251 11.09766,0.546344 17.82999,0.119286 1.11271,-0.218724 2.29213,-0.399624 3.43761,-0.687653 -6.28369,-0.693697 -14.60643,-1.152485 -20.74056,-1.418971 z"
     id="path4626"
     inkscape:connector-curvature="0"
     sodipodi:nodetypes="cccccccc" />
  <path
     style="opacity:1;fill:#646464;fill-opacity:1;stroke:none;stroke-width:0.36621255;stroke-linecap:round;stroke-linejoin:miter;stroke-miterlimit:4;stroke-dasharray:none;stroke-dashoffset:0;stroke-opacity:1"
     d="m 130.16632,22.011671 c -4.76957,0.08024 -11.31504,1.177869 -16.00701,1.980894 -0.92136,0.368607 2.52377,0.578935 4.44884,0.583441 6.76928,0.04951 10.7394,-0.503722 17.1761,-1.209635 0.68707,-0.295258 1.32811,-0.417575 2.5837,-0.870701 -2.46076,-0.652794 -5.98089,-0.45259 -8.20163,-0.483999 z"
     id="path4630"
     inkscape:connector-curvature="0"
     sodipodi:nodetypes="cccccc" />
</svg>
