<svg id="svg" xmlns="http://www.w3.org/2000/svg" xmlns:xlink="http://www.w3.org/1999/xlink" width="400" height="517.4193548387096" viewBox="0, 0, 400,517.4193548387096"><g id="svgg"><path id="path0" d="M237.419 32.145 C 234.137 32.567,205.976 36.184,174.839 40.182 C 104.999 49.150,69.168 53.937,60.279 55.487 C 56.713 56.108,52.154 59.680,50.605 63.065 C 49.588 65.287,49.729 72.361,50.811 73.363 L 51.621 74.114 50.810 74.645 L 49.999 75.177 50.176 81.218 C 50.715 99.592,51.346 166.559,51.614 233.710 C 52.004 331.622,52.723 381.755,54.690 448.226 L 55.186 465.000 56.706 466.564 C 62.145 472.160,92.038 493.539,96.340 494.910 C 98.810 495.697,207.958 507.547,210.180 507.270 C 213.135 506.900,213.911 506.240,287.982 441.008 L 360.593 377.062 360.789 374.741 C 361.419 367.269,379.651 50.742,379.483 50.189 C 379.370 49.819,379.076 49.284,378.828 49.001 C 378.437 48.555,378.482 48.296,379.164 47.066 C 382.058 41.845,381.315 37.108,377.127 34.066 C 374.572 32.210,377.218 32.308,320.000 31.955 C 290.637 31.773,261.387 31.569,255.000 31.501 C 244.229 31.386,242.954 31.433,237.419 32.145 M314.673 33.889 C 344.477 34.081,368.891 34.267,368.926 34.302 C 369.136 34.512,218.374 60.758,214.711 61.150 C 200.850 62.629,178.209 63.206,157.097 62.616 C 134.045 61.972,113.293 60.774,92.097 58.863 C 83.787 58.114,69.309 56.557,68.548 56.330 C 67.646 56.061,187.530 40.318,237.691 34.118 C 242.696 33.500,244.907 33.399,252.046 33.464 C 256.687 33.506,284.869 33.697,314.673 33.889 M375.774 35.497 C 377.846 36.998,380.210 41.613,378.906 41.613 C 378.837 41.613,343.726 47.922,300.881 55.633 C 207.697 72.403,218.607 70.611,203.226 71.677 C 195.369 72.222,155.925 72.219,143.871 71.673 C 107.358 70.019,71.922 67.287,54.758 64.804 C 51.920 64.393,51.935 64.413,53.177 62.700 C 56.655 57.898,61.083 56.285,68.146 57.246 C 105.535 62.333,169.956 65.125,202.581 63.072 C 217.216 62.151,212.027 63.004,333.065 41.632 C 378.815 33.554,374.038 34.240,375.774 35.497 M378.539 43.306 C 378.214 44.407,376.871 47.186,376.359 47.817 C 375.534 48.832,222.458 80.461,214.470 81.266 C 183.561 84.384,114.510 81.658,63.623 75.312 L 54.826 74.215 53.381 73.007 L 51.935 71.799 51.935 68.641 C 51.935 65.059,51.705 65.273,55.000 65.796 C 68.803 67.988,108.502 71.055,142.903 72.586 C 164.471 73.547,195.651 73.311,210.484 72.077 C 219.066 71.362,216.988 71.718,300.645 56.629 C 390.962 40.338,378.801 42.418,378.539 43.306 M377.030 50.090 L 377.721 50.826 368.557 208.048 L 359.392 365.271 358.648 366.008 C 357.608 367.038,221.147 487.711,221.103 487.639 C 220.962 487.410,231.110 79.790,231.260 79.613 C 231.437 79.405,374.687 49.453,375.831 49.385 C 376.110 49.368,376.650 49.686,377.030 50.090 M162.258 51.949 C 152.944 53.171,144.869 54.176,144.314 54.182 C 143.201 54.195,142.168 55.040,142.948 55.300 C 143.189 55.381,150.210 55.831,158.548 56.300 L 173.710 57.152 190.161 54.851 C 208.036 52.350,207.533 52.437,207.340 51.860 C 207.216 51.488,203.888 51.231,181.935 49.895 C 179.717 49.759,175.963 50.151,162.258 51.949 M192.198 51.500 C 197.222 51.812,201.068 52.165,200.746 52.284 C 198.628 53.067,193.195 53.267,186.774 52.799 L 180.161 52.317 168.548 53.786 C 157.781 55.148,156.653 55.236,153.065 54.984 C 150.935 54.835,149.556 54.651,150.000 54.574 C 155.521 53.621,179.610 50.703,181.129 50.804 C 182.194 50.875,187.175 51.188,192.198 51.500 M187.097 53.833 C 190.944 54.288,174.421 56.217,168.968 55.950 C 166.431 55.825,164.210 55.637,164.032 55.532 C 163.855 55.426,167.194 54.884,171.452 54.328 C 179.179 53.317,181.984 53.229,187.097 53.833 M63.548 76.271 C 84.280 78.862,116.701 81.488,143.786 82.768 C 148.243 82.979,148.375 83.006,148.241 83.670 C 148.166 84.047,148.017 87.403,147.912 91.129 C 145.988 158.924,136.268 263.190,124.196 345.517 C 115.797 402.803,104.745 459.383,97.535 482.010 L 97.049 483.535 95.388 482.693 C 90.221 480.075,66.862 463.440,59.783 457.338 L 56.774 454.744 56.773 452.937 C 56.772 451.942,56.627 446.556,56.452 440.968 C 56.070 428.809,55.293 395.176,54.843 371.290 C 54.094 331.548,53.837 303.754,53.551 231.530 C 53.297 167.642,52.636 95.870,52.156 80.115 L 52.037 76.198 53.035 75.700 C 54.329 75.054,53.411 75.004,63.548 76.271 M229.987 83.790 C 229.980 86.052,227.753 178.043,225.038 288.213 L 220.102 488.523 218.035 490.439 C 214.668 493.559,212.419 495.079,210.559 495.494 C 209.138 495.810,98.703 484.261,98.151 483.738 C 98.110 483.699,98.513 482.153,99.046 480.302 C 120.981 404.198,145.064 216.066,148.913 90.744 C 149.034 86.807,149.219 83.456,149.324 83.297 C 149.435 83.131,152.368 83.114,156.290 83.257 C 178.003 84.050,209.464 83.296,219.100 81.752 L 220.297 81.560 220.114 87.474 C 217.656 166.719,210.177 495.415,210.847 494.745 C 210.964 494.628,213.343 401.620,216.134 288.060 C 218.925 174.500,221.263 81.547,221.330 81.499 C 221.435 81.423,229.098 79.795,229.758 79.709 C 229.891 79.692,229.994 81.528,229.987 83.790 M129.291 95.401 C 128.900 95.852,128.650 98.508,128.066 108.387 C 127.350 120.509,127.314 120.826,126.570 121.631 C 125.606 122.671,125.562 124.272,126.472 125.182 C 127.041 125.751,127.107 126.092,126.928 127.526 C 126.618 130.011,126.957 130.203,132.027 130.410 C 136.858 130.607,137.097 130.496,137.097 128.066 C 137.097 126.867,137.286 126.277,137.903 125.543 C 138.854 124.413,138.942 123.048,138.125 122.118 C 137.559 121.474,137.564 121.082,138.260 110.484 C 139.180 96.482,139.188 95.909,138.468 95.539 C 137.217 94.897,129.824 94.785,129.291 95.401 M137.339 96.000 C 138.619 96.193,138.595 94.922,137.605 110.161 C 136.866 121.536,136.863 121.788,137.457 122.440 C 138.418 123.494,137.956 125.484,136.751 125.484 C 136.586 125.484,136.452 126.346,136.452 127.400 C 136.452 129.835,136.400 129.862,132.097 129.722 C 127.451 129.572,127.334 129.503,127.605 127.110 C 127.798 125.404,127.753 125.190,127.135 124.859 C 126.190 124.354,126.222 122.810,127.192 122.040 C 127.854 121.514,129.426 103.521,129.362 97.200 C 129.345 95.555,131.882 95.173,137.339 96.000 M131.291 97.579 C 130.708 98.669,130.748 100.241,131.374 100.867 C 131.844 101.337,131.830 101.459,131.214 102.293 C 130.420 103.366,130.380 105.301,131.134 106.134 C 131.596 106.645,131.583 106.707,130.981 106.864 C 130.296 107.043,130.320 106.894,130.194 111.774 C 130.164 112.952,130.239 113.073,131.048 113.167 C 132.459 113.329,132.348 115.079,130.917 115.221 C 128.822 115.430,129.372 116.650,131.669 116.890 C 135.271 117.267,135.484 117.225,135.484 116.129 C 135.484 115.269,135.376 115.161,134.516 115.161 C 133.656 115.161,133.548 115.054,133.548 114.194 C 133.548 113.303,133.638 113.226,134.677 113.226 L 135.806 113.226 135.806 110.484 C 135.806 108.976,135.806 107.633,135.806 107.500 C 135.806 106.449,134.408 107.407,134.292 108.538 C 134.109 110.326,133.871 110.392,133.871 108.654 C 133.871 107.409,133.989 107.147,134.694 106.825 C 135.988 106.236,136.581 104.482,135.976 103.033 C 135.546 102.005,135.546 101.795,135.971 101.187 C 136.672 100.187,136.585 98.198,135.806 97.419 C 135.041 96.653,134.935 96.644,133.807 97.232 C 133.058 97.623,132.883 97.623,132.558 97.230 C 132.026 96.590,131.785 96.657,131.291 97.579 M134.499 100.115 C 134.188 100.401,134.145 100.351,134.307 99.893 C 134.422 99.568,134.533 99.132,134.554 98.925 C 134.574 98.718,134.660 98.818,134.745 99.147 C 134.830 99.476,134.719 99.912,134.499 100.115 M134.129 103.290 C 135.046 104.208,134.149 105.718,132.919 105.327 C 131.830 104.982,132.231 102.903,133.387 102.903 C 133.582 102.903,133.916 103.077,134.129 103.290 M132.167 108.947 C 132.093 109.438,132.030 109.113,132.028 108.226 C 132.025 107.339,132.086 106.938,132.163 107.334 C 132.239 107.731,132.241 108.457,132.167 108.947 M134.439 112.480 C 134.131 112.560,133.550 112.563,133.149 112.486 C 132.748 112.409,133.000 112.343,133.710 112.339 C 134.419 112.336,134.748 112.399,134.439 112.480 M130.738 119.255 C 130.621 119.559,130.697 119.856,130.910 119.927 C 131.597 120.156,131.308 120.600,130.403 120.704 C 129.855 120.767,129.395 121.084,129.198 121.532 C 129.023 121.931,128.652 122.258,128.375 122.258 C 126.975 122.258,126.608 124.307,127.903 124.897 C 128.347 125.099,128.710 125.387,128.710 125.536 C 128.710 126.084,130.001 127.076,130.477 126.894 C 131.140 126.639,131.100 127.090,130.415 127.591 C 129.549 128.224,130.429 129.032,131.985 129.032 C 133.222 129.032,134.197 128.119,133.284 127.815 C 132.596 127.586,132.886 127.142,133.790 127.038 C 134.339 126.974,134.799 126.658,134.996 126.210 C 135.171 125.810,135.552 125.484,135.843 125.484 C 137.174 125.484,137.512 123.318,136.266 122.770 C 135.898 122.609,135.361 122.064,135.072 121.561 C 134.764 121.024,134.273 120.645,133.886 120.645 C 133.523 120.645,133.226 120.491,133.226 120.304 C 133.226 120.116,133.361 120.045,133.526 120.148 C 134.018 120.452,134.281 119.687,133.859 119.179 C 133.298 118.503,131.006 118.558,130.738 119.255 M130.510 123.226 C 131.069 123.226,131.290 123.405,131.290 123.856 C 131.290 124.445,128.386 124.531,127.742 123.961 C 127.449 123.700,128.845 122.886,129.291 123.057 C 129.533 123.150,130.081 123.226,130.510 123.226 M135.619 123.422 C 136.847 123.893,136.127 124.516,134.355 124.516 C 132.671 124.516,132.108 124.128,132.796 123.441 C 133.064 123.172,134.935 123.159,135.619 123.422 M132.177 126.038 C 131.690 126.111,130.891 126.111,130.403 126.038 C 129.915 125.964,130.315 125.903,131.290 125.903 C 132.266 125.903,132.665 125.964,132.177 126.038 M359.036 371.394 C 358.873 373.828,358.664 375.941,358.573 376.089 C 358.060 376.919,213.919 503.536,212.656 504.266 C 211.820 504.749,210.554 505.230,209.842 505.334 C 208.069 505.593,99.051 493.699,96.987 493.022 C 93.364 491.833,68.377 474.247,60.288 467.195 L 57.190 464.493 57.011 460.392 C 56.913 458.136,56.856 456.267,56.884 456.238 C 56.912 456.209,58.024 457.124,59.355 458.272 C 65.703 463.746,90.017 481.089,94.679 483.467 C 96.956 484.628,97.690 484.720,153.548 490.813 C 210.755 497.052,210.130 497.000,212.805 495.743 C 214.500 494.946,207.939 500.697,290.323 427.799 C 328.202 394.281,359.225 366.882,359.263 366.912 C 359.302 366.943,359.199 368.959,359.036 371.394 " stroke="none" fill="#000000" fill-rule="evenodd"></path></g></svg>